<?xml version="1.0" encoding="UTF-8" standalone="no"?>
<!DOCTYPE svg PUBLIC "-//W3C//DTD SVG 1.1//EN"
 "http://www.w3.org/Graphics/SVG/1.1/DTD/svg11.dtd">
<!-- Generated by graphviz version 2.38.0 (20140413.2041)
 -->
<!-- Title: processes/scheduler.c Pages: 1 -->
<svg width="554pt" height="330pt"
 viewBox="0.00 0.00 554.00 330.00" xmlns="http://www.w3.org/2000/svg" xmlns:xlink="http://www.w3.org/1999/xlink">
<g id="graph0" class="graph" transform="scale(1 1) rotate(0) translate(4 326)">
<title>processes/scheduler.c</title>
<polygon fill="white" stroke="none" points="-4,4 -4,-326 550,-326 550,4 -4,4"/>
<!-- Node1 -->
<g id="node1" class="node"><title>Node1</title>
<polygon fill="#bfbfbf" stroke="black" points="138.5,-302.5 138.5,-321.5 253.5,-321.5 253.5,-302.5 138.5,-302.5"/>
<text text-anchor="middle" x="196" y="-309.5" font-family="Helvetica,sans-Serif" font-size="10.00">processes/scheduler.c</text>
</g>
<!-- Node2 -->
<g id="node2" class="node"><title>Node2</title>
<g id="a_node2"><a xlink:href="$d2/dd8/scheduler_8h.html" xlink:title="It declares functions to specify a scheduling algorithm. ">
<polygon fill="white" stroke="black" points="207.5,-190.5 207.5,-209.5 274.5,-209.5 274.5,-190.5 207.5,-190.5"/>
<text text-anchor="middle" x="241" y="-197.5" font-family="Helvetica,sans-Serif" font-size="10.00">scheduler.h</text>
</a>
</g>
</g>
<!-- Node1&#45;&gt;Node2 -->
<g id="edge1" class="edge"><title>Node1&#45;&gt;Node2</title>
<path fill="none" stroke="midnightblue" d="M201.832,-302.361C207.586,-293.533 216.323,-279.273 222,-266 228.502,-250.799 233.593,-232.684 236.863,-219.444"/>
<polygon fill="midnightblue" stroke="midnightblue" points="240.286,-220.176 239.171,-209.64 233.472,-218.572 240.286,-220.176"/>
</g>
<!-- Node10 -->
<g id="node10" class="node"><title>Node10</title>
<g id="a_node10"><a xlink:href="$dd/de5/process__Management_8h.html" xlink:title="It declares functions to manage processes (e.g. task creation, switching, termination) ...">
<polygon fill="white" stroke="black" points="91.5,-246.5 91.5,-265.5 212.5,-265.5 212.5,-246.5 91.5,-246.5"/>
<text text-anchor="middle" x="152" y="-253.5" font-family="Helvetica,sans-Serif" font-size="10.00">process_Management.h</text>
</a>
</g>
</g>
<!-- Node1&#45;&gt;Node10 -->
<g id="edge9" class="edge"><title>Node1&#45;&gt;Node10</title>
<path fill="none" stroke="midnightblue" d="M188.734,-302.083C182.455,-294.377 173.212,-283.033 165.569,-273.653"/>
<polygon fill="midnightblue" stroke="midnightblue" points="168.161,-271.293 159.131,-265.751 162.734,-275.714 168.161,-271.293"/>
</g>
<!-- Node3 -->
<g id="node3" class="node"><title>Node3</title>
<g id="a_node3"><a xlink:href="$d6/dc2/definitions_8h.html" xlink:title="It declares general preprocessor variables and types. ">
<polygon fill="white" stroke="black" points="140,-134.5 140,-153.5 218,-153.5 218,-134.5 140,-134.5"/>
<text text-anchor="middle" x="179" y="-141.5" font-family="Helvetica,sans-Serif" font-size="10.00">../definitions.h</text>
</a>
</g>
</g>
<!-- Node2&#45;&gt;Node3 -->
<g id="edge2" class="edge"><title>Node2&#45;&gt;Node3</title>
<path fill="none" stroke="midnightblue" d="M231.039,-190.324C221.873,-182.341 208.063,-170.313 196.972,-160.653"/>
<polygon fill="midnightblue" stroke="midnightblue" points="198.982,-157.762 189.143,-153.834 194.385,-163.041 198.982,-157.762"/>
</g>
<!-- Node4 -->
<g id="node4" class="node"><title>Node4</title>
<polygon fill="white" stroke="#bfbfbf" points="0,-73 0,-92 56,-92 56,-73 0,-73"/>
<text text-anchor="middle" x="28" y="-80" font-family="Helvetica,sans-Serif" font-size="10.00">stdbool.h</text>
</g>
<!-- Node3&#45;&gt;Node4 -->
<g id="edge3" class="edge"><title>Node3&#45;&gt;Node4</title>
<path fill="none" stroke="midnightblue" d="M157.365,-134.475C131.576,-124.313 88.2894,-107.256 58.9603,-95.6996"/>
<polygon fill="midnightblue" stroke="midnightblue" points="60.1814,-92.4189 49.5945,-92.0091 57.6151,-98.9315 60.1814,-92.4189"/>
</g>
<!-- Node5 -->
<g id="node5" class="node"><title>Node5</title>
<polygon fill="white" stroke="#bfbfbf" points="74.5,-73 74.5,-92 123.5,-92 123.5,-73 74.5,-73"/>
<text text-anchor="middle" x="99" y="-80" font-family="Helvetica,sans-Serif" font-size="10.00">stdint.h</text>
</g>
<!-- Node3&#45;&gt;Node5 -->
<g id="edge4" class="edge"><title>Node3&#45;&gt;Node5</title>
<path fill="none" stroke="midnightblue" d="M167.538,-134.475C154.825,-125.02 134.087,-109.596 118.747,-98.1871"/>
<polygon fill="midnightblue" stroke="midnightblue" points="120.554,-95.1686 110.441,-92.0091 116.376,-100.785 120.554,-95.1686"/>
</g>
<!-- Node6 -->
<g id="node6" class="node"><title>Node6</title>
<polygon fill="white" stroke="#bfbfbf" points="142,-73 142,-92 216,-92 216,-73 142,-73"/>
<text text-anchor="middle" x="179" y="-80" font-family="Helvetica,sans-Serif" font-size="10.00">p30F6014A.h</text>
</g>
<!-- Node3&#45;&gt;Node6 -->
<g id="edge5" class="edge"><title>Node3&#45;&gt;Node6</title>
<path fill="none" stroke="midnightblue" d="M179,-134.475C179,-126.08 179,-112.981 179,-102.163"/>
<polygon fill="midnightblue" stroke="midnightblue" points="182.5,-102.009 179,-92.0091 175.5,-102.009 182.5,-102.009"/>
</g>
<!-- Node7 -->
<g id="node7" class="node"><title>Node7</title>
<polygon fill="white" stroke="#bfbfbf" points="234.5,-67.5 234.5,-97.5 371.5,-97.5 371.5,-67.5 234.5,-67.5"/>
<text text-anchor="start" x="242.5" y="-85.5" font-family="Helvetica,sans-Serif" font-size="10.00">platform/e&#45;puck/library</text>
<text text-anchor="middle" x="303" y="-74.5" font-family="Helvetica,sans-Serif" font-size="10.00">/motor_led/e_epuck_ports.h</text>
</g>
<!-- Node3&#45;&gt;Node7 -->
<g id="edge6" class="edge"><title>Node3&#45;&gt;Node7</title>
<path fill="none" stroke="midnightblue" d="M196.766,-134.475C214.423,-126.002 242.068,-112.737 264.731,-101.863"/>
<polygon fill="midnightblue" stroke="midnightblue" points="266.274,-105.005 273.776,-97.523 263.246,-98.6936 266.274,-105.005"/>
</g>
<!-- Node8 -->
<g id="node8" class="node"><title>Node8</title>
<g id="a_node8"><a xlink:href="$d9/d1f/DSPIC30F6014A__HDI_8h.html" xlink:title="declares e&#45;puck specific types and preprocessor variables ">
<polygon fill="white" stroke="black" points="390,-67.5 390,-97.5 546,-97.5 546,-67.5 390,-67.5"/>
<text text-anchor="start" x="398" y="-85.5" font-family="Helvetica,sans-Serif" font-size="10.00">platform/e&#45;puck/DSPIC30F6014</text>
<text text-anchor="middle" x="468" y="-74.5" font-family="Helvetica,sans-Serif" font-size="10.00">A_HDI.h</text>
</a>
</g>
</g>
<!-- Node3&#45;&gt;Node8 -->
<g id="edge7" class="edge"><title>Node3&#45;&gt;Node8</title>
<path fill="none" stroke="midnightblue" d="M218.277,-134.914C262.245,-125.861 334.601,-110.964 390.14,-99.5299"/>
<polygon fill="midnightblue" stroke="midnightblue" points="390.864,-102.954 399.953,-97.5097 389.452,-96.0983 390.864,-102.954"/>
</g>
<!-- Node9 -->
<g id="node9" class="node"><title>Node9</title>
<polygon fill="white" stroke="#bfbfbf" points="419.5,-0.5 419.5,-30.5 516.5,-30.5 516.5,-0.5 419.5,-0.5"/>
<text text-anchor="start" x="427.5" y="-18.5" font-family="Helvetica,sans-Serif" font-size="10.00">library/motor_led/e</text>
<text text-anchor="middle" x="468" y="-7.5" font-family="Helvetica,sans-Serif" font-size="10.00">_epuck_ports.h</text>
</g>
<!-- Node8&#45;&gt;Node9 -->
<g id="edge8" class="edge"><title>Node8&#45;&gt;Node9</title>
<path fill="none" stroke="midnightblue" d="M468,-67.396C468,-59.6448 468,-49.8122 468,-40.8601"/>
<polygon fill="midnightblue" stroke="midnightblue" points="471.5,-40.5765 468,-30.5765 464.5,-40.5765 471.5,-40.5765"/>
</g>
<!-- Node10&#45;&gt;Node2 -->
<g id="edge15" class="edge"><title>Node10&#45;&gt;Node2</title>
<path fill="none" stroke="midnightblue" d="M166.299,-246.324C180.183,-237.9 201.492,-224.971 217.804,-215.074"/>
<polygon fill="midnightblue" stroke="midnightblue" points="220.002,-217.834 226.736,-209.655 216.371,-211.85 220.002,-217.834"/>
</g>
<!-- Node10&#45;&gt;Node3 -->
<g id="edge11" class="edge"><title>Node10&#45;&gt;Node3</title>
<path fill="none" stroke="midnightblue" d="M154.119,-246.368C158.476,-228.617 168.527,-187.666 174.435,-163.597"/>
<polygon fill="midnightblue" stroke="midnightblue" points="177.906,-164.137 176.891,-153.591 171.108,-162.469 177.906,-164.137"/>
</g>
<!-- Node10&#45;&gt;Node4 -->
<g id="edge10" class="edge"><title>Node10&#45;&gt;Node4</title>
<path fill="none" stroke="midnightblue" d="M106.417,-246.498C84.8255,-240.098 60.6207,-229.021 46,-210 21.7505,-178.452 22.6462,-129.008 25.3549,-102.236"/>
<polygon fill="midnightblue" stroke="midnightblue" points="28.8344,-102.616 26.5588,-92.2684 21.8849,-101.777 28.8344,-102.616"/>
</g>
<!-- Node11 -->
<g id="node11" class="node"><title>Node11</title>
<g id="a_node11"><a xlink:href="$db/dd2/events_8h.html" xlink:title="declares functions to create, (un)subscribe, (un)register, and delete events and related handler...">
<polygon fill="white" stroke="black" points="55.5,-190.5 55.5,-209.5 150.5,-209.5 150.5,-190.5 55.5,-190.5"/>
<text text-anchor="middle" x="103" y="-197.5" font-family="Helvetica,sans-Serif" font-size="10.00">../events/events.h</text>
</a>
</g>
</g>
<!-- Node10&#45;&gt;Node11 -->
<g id="edge12" class="edge"><title>Node10&#45;&gt;Node11</title>
<path fill="none" stroke="midnightblue" d="M143.909,-246.083C136.845,-238.298 126.412,-226.801 117.851,-217.367"/>
<polygon fill="midnightblue" stroke="midnightblue" points="120.253,-214.805 110.941,-209.751 115.069,-219.509 120.253,-214.805"/>
</g>
<!-- Node11&#45;&gt;Node3 -->
<g id="edge14" class="edge"><title>Node11&#45;&gt;Node3</title>
<path fill="none" stroke="midnightblue" d="M115.211,-190.324C126.776,-182.107 144.375,-169.602 158.161,-159.807"/>
<polygon fill="midnightblue" stroke="midnightblue" points="160.443,-162.479 166.567,-153.834 156.388,-156.773 160.443,-162.479"/>
</g>
<!-- Node11&#45;&gt;Node4 -->
<g id="edge13" class="edge"><title>Node11&#45;&gt;Node4</title>
<path fill="none" stroke="midnightblue" d="M97.3628,-190.319C85.0381,-171.339 55.4987,-125.848 39.2261,-100.788"/>
<polygon fill="midnightblue" stroke="midnightblue" points="42.0841,-98.7628 33.7026,-92.282 36.2133,-102.575 42.0841,-98.7628"/>
</g>
</g>
</svg>
