<?xml version="1.0" encoding="UTF-8" standalone="no"?>
<!DOCTYPE svg PUBLIC "-//W3C//DTD SVG 1.1//EN"
 "http://www.w3.org/Graphics/SVG/1.1/DTD/svg11.dtd">
<!-- Generated by graphviz version 2.38.0 (20140413.2041)
 -->
<!-- Title: platform/e&#45;puck/remoteControl.h Pages: 1 -->
<svg width="332pt" height="95pt"
 viewBox="0.00 0.00 332.00 95.00" xmlns="http://www.w3.org/2000/svg" xmlns:xlink="http://www.w3.org/1999/xlink">
<g id="graph0" class="graph" transform="scale(1 1) rotate(0) translate(4 91)">
<title>platform/e&#45;puck/remoteControl.h</title>
<polygon fill="white" stroke="none" points="-4,4 -4,-91 328,-91 328,4 -4,4"/>
<!-- Node1 -->
<g id="node1" class="node"><title>Node1</title>
<polygon fill="#bfbfbf" stroke="black" points="85,-67.5 85,-86.5 242,-86.5 242,-67.5 85,-67.5"/>
<text text-anchor="middle" x="163.5" y="-74.5" font-family="Helvetica,sans-Serif" font-size="10.00">platform/e&#45;puck/remoteControl.h</text>
</g>
<!-- Node2 -->
<g id="node2" class="node"><title>Node2</title>
<g id="a_node2"><a xlink:href="../../d7/d92/remoteControl_8c.html" target="_top" xlink:title="It defines functions to receive and decode messages from a remote control. ">
<polygon fill="white" stroke="black" points="0,-6 0,-25 157,-25 157,-6 0,-6"/>
<text text-anchor="middle" x="78.5" y="-13" font-family="Helvetica,sans-Serif" font-size="10.00">platform/e&#45;puck/remoteControl.c</text>
</a>
</g>
</g>
<!-- Node1&#45;&gt;Node2 -->
<g id="edge1" class="edge"><title>Node1&#45;&gt;Node2</title>
<path fill="none" stroke="midnightblue" d="M142.947,-61.6127C126.599,-50.1691 104.28,-34.546 90.6558,-25.0091"/>
<polygon fill="midnightblue" stroke="midnightblue" points="141.122,-64.6078 151.322,-67.4751 145.136,-58.8731 141.122,-64.6078"/>
</g>
<!-- Node3 -->
<g id="node3" class="node"><title>Node3</title>
<g id="a_node3"><a xlink:href="../../d0/dae/remoteControl__HDI_8c.html" target="_top" xlink:title="Hardware dependent implementations to receive and decode messages from a remote control. ">
<polygon fill="white" stroke="black" points="175,-0.5 175,-30.5 324,-30.5 324,-0.5 175,-0.5"/>
<text text-anchor="start" x="183" y="-18.5" font-family="Helvetica,sans-Serif" font-size="10.00">platform/e&#45;puck/remoteControl</text>
<text text-anchor="middle" x="249.5" y="-7.5" font-family="Helvetica,sans-Serif" font-size="10.00">_HDI.c</text>
</a>
</g>
</g>
<!-- Node1&#45;&gt;Node3 -->
<g id="edge2" class="edge"><title>Node1&#45;&gt;Node3</title>
<path fill="none" stroke="midnightblue" d="M184.113,-61.739C197.781,-52.2824 215.634,-39.9304 229.232,-30.523"/>
<polygon fill="midnightblue" stroke="midnightblue" points="182.054,-58.9072 175.822,-67.4751 186.037,-64.6637 182.054,-58.9072"/>
</g>
</g>
</svg>
