<?xml version="1.0" encoding="UTF-8" standalone="no"?>
<!DOCTYPE svg PUBLIC "-//W3C//DTD SVG 1.1//EN"
 "http://www.w3.org/Graphics/SVG/1.1/DTD/svg11.dtd">
<!-- Generated by graphviz version 2.38.0 (20140413.2041)
 -->
<!-- Title: Motor Control Pages: 1 -->
<svg width="242pt" height="66pt"
 viewBox="0.00 0.00 242.00 66.00" xmlns="http://www.w3.org/2000/svg" xmlns:xlink="http://www.w3.org/1999/xlink">
<g id="graph0" class="graph" transform="scale(1 1) rotate(0) translate(4 62)">
<title>Motor Control</title>
<polygon fill="white" stroke="none" points="-4,4 -4,-62 238,-62 238,4 -4,4"/>
<!-- Node2 -->
<g id="node1" class="node"><title>Node2</title>
<g id="a_node1"><a xlink:href="../../d9/dc8/group__epuck.html" target="_top" xlink:title="Modules and functions that are needed to use the e&#45;puck platform ( http://www.gctronic.com/doc/index.php/E&#45;Puck ) ">
<polygon fill="white" stroke="black" points="0,-38.5 0,-57.5 122,-57.5 122,-38.5 0,-38.5"/>
<text text-anchor="middle" x="61" y="-45.5" font-family="Helvetica,sans-Serif" font-size="10.00">e&#45;puck specific modules</text>
</a>
</g>
</g>
<!-- Node0 -->
<g id="node3" class="node"><title>Node0</title>
<polygon fill="#bfbfbf" stroke="black" points="158,-19.5 158,-38.5 234,-38.5 234,-19.5 158,-19.5"/>
<text text-anchor="middle" x="196" y="-26.5" font-family="Helvetica,sans-Serif" font-size="10.00">Motor Control</text>
</g>
<!-- Node2&#45;&gt;Node0 -->
<g id="edge2" class="edge"><title>Node2&#45;&gt;Node0</title>
<path fill="none" stroke="black" d="M132.226,-37.9677C141.037,-36.709 149.76,-35.4628 157.775,-34.3178"/>
<polygon fill="black" stroke="black" points="131.678,-34.5103 122.274,-39.3895 132.668,-41.44 131.678,-34.5103"/>
</g>
<!-- Node1 -->
<g id="node2" class="node"><title>Node1</title>
<g id="a_node2"><a xlink:href="../../d2/da3/group__io.html" target="_top" xlink:title="I/O Management controls the input (e.g. sensors or camera), output (e.g. motors), and communication (...">
<polygon fill="white" stroke="black" points="16.5,-0.5 16.5,-19.5 105.5,-19.5 105.5,-0.5 16.5,-0.5"/>
<text text-anchor="middle" x="61" y="-7.5" font-family="Helvetica,sans-Serif" font-size="10.00">I/O Management</text>
</a>
</g>
</g>
<!-- Node1&#45;&gt;Node0 -->
<g id="edge1" class="edge"><title>Node1&#45;&gt;Node0</title>
<path fill="none" stroke="black" d="M115.621,-17.6602C129.7,-19.6714 144.58,-21.7971 157.604,-23.6577"/>
<polygon fill="black" stroke="black" points="115.944,-14.1708 105.549,-16.2213 114.954,-21.1004 115.944,-14.1708"/>
</g>
</g>
</svg>
