<?xml version="1.0" encoding="UTF-8" standalone="no"?>
<!DOCTYPE svg PUBLIC "-//W3C//DTD SVG 1.1//EN"
 "http://www.w3.org/Graphics/SVG/1.1/DTD/svg11.dtd">
<!-- Generated by graphviz version 2.38.0 (20140413.2041)
 -->
<!-- Title: Remote Control Pages: 1 -->
<svg width="252pt" height="66pt"
 viewBox="0.00 0.00 252.00 66.00" xmlns="http://www.w3.org/2000/svg" xmlns:xlink="http://www.w3.org/1999/xlink">
<g id="graph0" class="graph" transform="scale(1 1) rotate(0) translate(4 62)">
<title>Remote Control</title>
<polygon fill="white" stroke="none" points="-4,4 -4,-62 248,-62 248,4 -4,4"/>
<!-- Node0 -->
<g id="node1" class="node"><title>Node0</title>
<polygon fill="#bfbfbf" stroke="black" points="158,-19.5 158,-38.5 244,-38.5 244,-19.5 158,-19.5"/>
<text text-anchor="middle" x="201" y="-26.5" font-family="Helvetica,sans-Serif" font-size="10.00">Remote Control</text>
</g>
<!-- Node1 -->
<g id="node2" class="node"><title>Node1</title>
<g id="a_node2"><a xlink:href="../../d9/dc8/group__epuck.html" target="_top" xlink:title="Modules and functions that are needed to use the e&#45;puck platform ( http://www.gctronic.com/doc/index.php/E&#45;Puck ) ">
<polygon fill="white" stroke="black" points="0,-38.5 0,-57.5 122,-57.5 122,-38.5 0,-38.5"/>
<text text-anchor="middle" x="61" y="-45.5" font-family="Helvetica,sans-Serif" font-size="10.00">e&#45;puck specific modules</text>
</a>
</g>
</g>
<!-- Node1&#45;&gt;Node0 -->
<g id="edge1" class="edge"><title>Node1&#45;&gt;Node0</title>
<path fill="none" stroke="black" d="M132.07,-38.3527C140.894,-37.1378 149.695,-35.926 157.896,-34.797"/>
<polygon fill="black" stroke="black" points="131.557,-34.8903 122.127,-39.7216 132.511,-41.8249 131.557,-34.8903"/>
</g>
<!-- Node2 -->
<g id="node3" class="node"><title>Node2</title>
<g id="a_node3"><a xlink:href="../../d2/da3/group__io.html" target="_top" xlink:title="I/O Management controls the input (e.g. sensors or camera), output (e.g. motors), and communication (...">
<polygon fill="white" stroke="black" points="16.5,-0.5 16.5,-19.5 105.5,-19.5 105.5,-0.5 16.5,-0.5"/>
<text text-anchor="middle" x="61" y="-7.5" font-family="Helvetica,sans-Serif" font-size="10.00">I/O Management</text>
</a>
</g>
</g>
<!-- Node2&#45;&gt;Node0 -->
<g id="edge2" class="edge"><title>Node2&#45;&gt;Node0</title>
<path fill="none" stroke="black" d="M115.605,-17.3804C129.519,-19.2961 144.312,-21.3329 157.564,-23.1573"/>
<polygon fill="black" stroke="black" points="116.048,-13.9085 105.664,-16.0117 115.093,-20.843 116.048,-13.9085"/>
</g>
</g>
</svg>
