<?xml version="1.0" encoding="UTF-8" standalone="no"?>
<!DOCTYPE svg PUBLIC "-//W3C//DTD SVG 1.1//EN"
 "http://www.w3.org/Graphics/SVG/1.1/DTD/svg11.dtd">
<!-- Generated by graphviz version 2.38.0 (20140413.2041)
 -->
<!-- Title: processes/system_Timer.h Pages: 1 -->
<svg width="494pt" height="95pt"
 viewBox="0.00 0.00 494.00 95.00" xmlns="http://www.w3.org/2000/svg" xmlns:xlink="http://www.w3.org/1999/xlink">
<g id="graph0" class="graph" transform="scale(1 1) rotate(0) translate(4 91)">
<title>processes/system_Timer.h</title>
<polygon fill="white" stroke="none" points="-4,4 -4,-91 490,-91 490,4 -4,4"/>
<!-- Node1 -->
<g id="node1" class="node"><title>Node1</title>
<polygon fill="#bfbfbf" stroke="black" points="111,-67.5 111,-86.5 246,-86.5 246,-67.5 111,-67.5"/>
<text text-anchor="middle" x="178.5" y="-74.5" font-family="Helvetica,sans-Serif" font-size="10.00">processes/system_Timer.h</text>
</g>
<!-- Node2 -->
<g id="node2" class="node"><title>Node2</title>
<g id="a_node2"><a xlink:href="$d4/dfd/system_8c.html" xlink:title="defines functions to initialise and start OpenSwarm. ">
<polygon fill="white" stroke="black" points="0,-6 0,-25 57,-25 57,-6 0,-6"/>
<text text-anchor="middle" x="28.5" y="-13" font-family="Helvetica,sans-Serif" font-size="10.00">system.c</text>
</a>
</g>
</g>
<!-- Node1&#45;&gt;Node2 -->
<g id="edge1" class="edge"><title>Node1&#45;&gt;Node2</title>
<path fill="none" stroke="midnightblue" d="M147.699,-63.7824C118.55,-52.2199 75.5524,-35.1641 49.9515,-25.0091"/>
<polygon fill="midnightblue" stroke="midnightblue" points="146.423,-67.0413 157.009,-67.4751 149.004,-60.5345 146.423,-67.0413"/>
</g>
<!-- Node3 -->
<g id="node3" class="node"><title>Node3</title>
<g id="a_node3"><a xlink:href="$de/deb/events_8c.html" xlink:title="defines functions to create, (un)subscribe, (un)register, and delete events and related handler...">
<polygon fill="white" stroke="black" points="75.5,-6 75.5,-25 161.5,-25 161.5,-6 75.5,-6"/>
<text text-anchor="middle" x="118.5" y="-13" font-family="Helvetica,sans-Serif" font-size="10.00">events/events.c</text>
</a>
</g>
</g>
<!-- Node1&#45;&gt;Node3 -->
<g id="edge2" class="edge"><title>Node1&#45;&gt;Node3</title>
<path fill="none" stroke="midnightblue" d="M162.693,-60.3245C151.293,-49.0202 136.341,-34.1928 127.081,-25.0091"/>
<polygon fill="midnightblue" stroke="midnightblue" points="160.338,-62.9189 169.903,-67.4751 165.267,-57.9484 160.338,-62.9189"/>
</g>
<!-- Node4 -->
<g id="node4" class="node"><title>Node4</title>
<g id="a_node4"><a xlink:href="$d7/de8/system__Timer__HDI_8c.html" xlink:title="Hardware dependent implementations to initialise, configure and run the system Timer. ">
<polygon fill="white" stroke="black" points="180,-0.5 180,-30.5 299,-30.5 299,-0.5 180,-0.5"/>
<text text-anchor="start" x="188" y="-18.5" font-family="Helvetica,sans-Serif" font-size="10.00">platform/e&#45;puck/system</text>
<text text-anchor="middle" x="239.5" y="-7.5" font-family="Helvetica,sans-Serif" font-size="10.00">_Timer_HDI.c</text>
</a>
</g>
</g>
<!-- Node1&#45;&gt;Node4 -->
<g id="edge3" class="edge"><title>Node1&#45;&gt;Node4</title>
<path fill="none" stroke="midnightblue" d="M194.525,-60.369C204.015,-51.1127 215.938,-39.4824 225.124,-30.523"/>
<polygon fill="midnightblue" stroke="midnightblue" points="191.954,-57.9871 187.24,-67.4751 196.842,-62.9981 191.954,-57.9871"/>
</g>
<!-- Node5 -->
<g id="node5" class="node"><title>Node5</title>
<g id="a_node5"><a xlink:href="$da/d14/process__Management_8c.html" xlink:title="It defines functions to manage processes (e.g. task creation, switching, termination) ...">
<polygon fill="white" stroke="black" points="317,-6 317,-25 486,-25 486,-6 317,-6"/>
<text text-anchor="middle" x="401.5" y="-13" font-family="Helvetica,sans-Serif" font-size="10.00">processes/process_Management.c</text>
</a>
</g>
</g>
<!-- Node1&#45;&gt;Node5 -->
<g id="edge4" class="edge"><title>Node1&#45;&gt;Node5</title>
<path fill="none" stroke="midnightblue" d="M220.118,-64.8956C263.429,-53.3396 330.308,-35.4952 369.609,-25.0091"/>
<polygon fill="midnightblue" stroke="midnightblue" points="219.21,-61.5154 210.45,-67.4751 221.015,-68.2787 219.21,-61.5154"/>
</g>
</g>
</svg>
