<?xml version="1.0" encoding="UTF-8" standalone="no"?>
<!DOCTYPE svg PUBLIC "-//W3C//DTD SVG 1.1//EN"
 "http://www.w3.org/Graphics/SVG/1.1/DTD/svg11.dtd">
<!-- Generated by graphviz version 2.38.0 (20140413.2041)
 -->
<!-- Title: platform/e&#45;puck/i2c_data.h Pages: 1 -->
<svg width="352pt" height="106pt"
 viewBox="0.00 0.00 352.00 106.00" xmlns="http://www.w3.org/2000/svg" xmlns:xlink="http://www.w3.org/1999/xlink">
<g id="graph0" class="graph" transform="scale(1 1) rotate(0) translate(4 102)">
<title>platform/e&#45;puck/i2c_data.h</title>
<polygon fill="white" stroke="none" points="-4,4 -4,-102 348,-102 348,4 -4,4"/>
<!-- Node1 -->
<g id="node1" class="node"><title>Node1</title>
<polygon fill="#bfbfbf" stroke="black" points="126,-67.5 126,-97.5 226,-97.5 226,-67.5 126,-67.5"/>
<text text-anchor="start" x="134" y="-85.5" font-family="Helvetica,sans-Serif" font-size="10.00">platform/e&#45;puck/i2c</text>
<text text-anchor="middle" x="176" y="-74.5" font-family="Helvetica,sans-Serif" font-size="10.00">_data.h</text>
</g>
<!-- Node2 -->
<g id="node2" class="node"><title>Node2</title>
<g id="a_node2"><a xlink:href="../../d9/dcb/i2c_8c.html" target="_top" xlink:title="It defines functions to read and write on the I2C interface. ">
<polygon fill="white" stroke="black" points="0,-6 0,-25 108,-25 108,-6 0,-6"/>
<text text-anchor="middle" x="54" y="-13" font-family="Helvetica,sans-Serif" font-size="10.00">platform/e&#45;puck/i2c.c</text>
</a>
</g>
</g>
<!-- Node1&#45;&gt;Node2 -->
<g id="edge1" class="edge"><title>Node1&#45;&gt;Node2</title>
<path fill="none" stroke="midnightblue" d="M140.597,-62.638C117.258,-50.2028 87.8104,-34.5137 69.967,-25.007"/>
<polygon fill="midnightblue" stroke="midnightblue" points="139.057,-65.7827 149.528,-67.396 142.348,-59.6048 139.057,-65.7827"/>
</g>
<!-- Node3 -->
<g id="node3" class="node"><title>Node3</title>
<g id="a_node3"><a xlink:href="../../df/dd6/i2c__data_8c.html" target="_top" xlink:title="It defines functions to manage the I2C queue. ">
<polygon fill="white" stroke="black" points="126,-0.5 126,-30.5 226,-30.5 226,-0.5 126,-0.5"/>
<text text-anchor="start" x="134" y="-18.5" font-family="Helvetica,sans-Serif" font-size="10.00">platform/e&#45;puck/i2c</text>
<text text-anchor="middle" x="176" y="-7.5" font-family="Helvetica,sans-Serif" font-size="10.00">_data.c</text>
</a>
</g>
</g>
<!-- Node1&#45;&gt;Node3 -->
<g id="edge2" class="edge"><title>Node1&#45;&gt;Node3</title>
<path fill="none" stroke="midnightblue" d="M176,-57.1081C176,-48.1539 176,-38.3227 176,-30.5765"/>
<polygon fill="midnightblue" stroke="midnightblue" points="172.5,-57.3959 176,-67.396 179.5,-57.396 172.5,-57.3959"/>
</g>
<!-- Node4 -->
<g id="node4" class="node"><title>Node4</title>
<g id="a_node4"><a xlink:href="../../d9/df1/i2c__HDI_8c.html" target="_top" xlink:title="Hardware dependent implementations to read and write on the I2C interface. ">
<polygon fill="white" stroke="black" points="244,-0.5 244,-30.5 344,-30.5 344,-0.5 244,-0.5"/>
<text text-anchor="start" x="252" y="-18.5" font-family="Helvetica,sans-Serif" font-size="10.00">platform/e&#45;puck/i2c</text>
<text text-anchor="middle" x="294" y="-7.5" font-family="Helvetica,sans-Serif" font-size="10.00">_HDI.c</text>
</a>
</g>
</g>
<!-- Node1&#45;&gt;Node4 -->
<g id="edge3" class="edge"><title>Node1&#45;&gt;Node4</title>
<path fill="none" stroke="midnightblue" d="M210.61,-62.4354C229.123,-52.2374 251.525,-39.8975 268.446,-30.5765"/>
<polygon fill="midnightblue" stroke="midnightblue" points="208.675,-59.5054 201.604,-67.396 212.052,-65.6367 208.675,-59.5054"/>
</g>
</g>
</svg>
