<?xml version="1.0" encoding="UTF-8" standalone="no"?>
<!DOCTYPE svg PUBLIC "-//W3C//DTD SVG 1.1//EN"
 "http://www.w3.org/Graphics/SVG/1.1/DTD/svg11.dtd">
<!-- Generated by graphviz version 2.38.0 (20140413.2041)
 -->
<!-- Title: io/io.c Pages: 1 -->
<svg width="554pt" height="274pt"
 viewBox="0.00 0.00 554.00 274.00" xmlns="http://www.w3.org/2000/svg" xmlns:xlink="http://www.w3.org/1999/xlink">
<g id="graph0" class="graph" transform="scale(1 1) rotate(0) translate(4 270)">
<title>io/io.c</title>
<polygon fill="white" stroke="none" points="-4,4 -4,-270 550,-270 550,4 -4,4"/>
<!-- Node1 -->
<g id="node1" class="node"><title>Node1</title>
<polygon fill="#bfbfbf" stroke="black" points="229.5,-246.5 229.5,-265.5 272.5,-265.5 272.5,-246.5 229.5,-246.5"/>
<text text-anchor="middle" x="251" y="-253.5" font-family="Helvetica,sans-Serif" font-size="10.00">io/io.c</text>
</g>
<!-- Node2 -->
<g id="node2" class="node"><title>Node2</title>
<g id="a_node2"><a xlink:href="../../dc/dac/io_8h.html" target="_top" xlink:title="It declares functions to control the IO timer and to (un)register IO Handler. ">
<polygon fill="white" stroke="black" points="119,-190.5 119,-209.5 151,-209.5 151,-190.5 119,-190.5"/>
<text text-anchor="middle" x="135" y="-197.5" font-family="Helvetica,sans-Serif" font-size="10.00">io.h</text>
</a>
</g>
</g>
<!-- Node1&#45;&gt;Node2 -->
<g id="edge1" class="edge"><title>Node1&#45;&gt;Node2</title>
<path fill="none" stroke="midnightblue" d="M232.619,-246.444C213.119,-237.366 182.172,-222.959 160.359,-212.805"/>
<polygon fill="midnightblue" stroke="midnightblue" points="161.596,-209.52 151.053,-208.473 158.642,-215.866 161.596,-209.52"/>
</g>
<!-- Node3 -->
<g id="node3" class="node"><title>Node3</title>
<g id="a_node3"><a xlink:href="../../d6/dc2/definitions_8h.html" target="_top" xlink:title="It declares general preprocessor variables and types. ">
<polygon fill="white" stroke="black" points="140,-134.5 140,-153.5 218,-153.5 218,-134.5 140,-134.5"/>
<text text-anchor="middle" x="179" y="-141.5" font-family="Helvetica,sans-Serif" font-size="10.00">../definitions.h</text>
</a>
</g>
</g>
<!-- Node1&#45;&gt;Node3 -->
<g id="edge9" class="edge"><title>Node1&#45;&gt;Node3</title>
<path fill="none" stroke="midnightblue" d="M236.811,-246.374C224.799,-238.369 207.987,-225.391 198,-210 188.9,-195.977 184.047,-177.479 181.531,-163.804"/>
<polygon fill="midnightblue" stroke="midnightblue" points="184.945,-162.984 179.925,-153.654 178.031,-164.078 184.945,-162.984"/>
</g>
<!-- Node10 -->
<g id="node10" class="node"><title>Node10</title>
<polygon fill="white" stroke="#bfbfbf" points="207,-190.5 207,-209.5 295,-209.5 295,-190.5 207,-190.5"/>
<text text-anchor="middle" x="251" y="-197.5" font-family="Helvetica,sans-Serif" font-size="10.00">e&#45;puck/io_HDI.h</text>
</g>
<!-- Node1&#45;&gt;Node10 -->
<g id="edge10" class="edge"><title>Node1&#45;&gt;Node10</title>
<path fill="none" stroke="midnightblue" d="M251,-246.083C251,-239.006 251,-228.861 251,-219.986"/>
<polygon fill="midnightblue" stroke="midnightblue" points="254.5,-219.751 251,-209.751 247.5,-219.751 254.5,-219.751"/>
</g>
<!-- Node11 -->
<g id="node11" class="node"><title>Node11</title>
<g id="a_node11"><a xlink:href="../../d6/ded/interrupts_8h.html" target="_top" xlink:title="It declares interrupt priority levels and functions to create atomic sections. ">
<polygon fill="white" stroke="black" points="313,-190.5 313,-209.5 387,-209.5 387,-190.5 313,-190.5"/>
<text text-anchor="middle" x="350" y="-197.5" font-family="Helvetica,sans-Serif" font-size="10.00">../interrupts.h</text>
</a>
</g>
</g>
<!-- Node1&#45;&gt;Node11 -->
<g id="edge11" class="edge"><title>Node1&#45;&gt;Node11</title>
<path fill="none" stroke="midnightblue" d="M266.906,-246.324C282.638,-237.743 306.942,-224.486 325.209,-214.522"/>
<polygon fill="midnightblue" stroke="midnightblue" points="327.03,-217.516 334.133,-209.655 323.678,-211.37 327.03,-217.516"/>
</g>
<!-- Node12 -->
<g id="node12" class="node"><title>Node12</title>
<g id="a_node12"><a xlink:href="../../dc/d18/memory_8h.html" target="_top" xlink:title="It declares functions to allocate, free, and copy memory. ">
<polygon fill="white" stroke="black" points="405.5,-190.5 405.5,-209.5 474.5,-209.5 474.5,-190.5 405.5,-190.5"/>
<text text-anchor="middle" x="440" y="-197.5" font-family="Helvetica,sans-Serif" font-size="10.00">../memory.h</text>
</a>
</g>
</g>
<!-- Node1&#45;&gt;Node12 -->
<g id="edge12" class="edge"><title>Node1&#45;&gt;Node12</title>
<path fill="none" stroke="midnightblue" d="M272.681,-248.806C303.744,-239.93 361.444,-223.445 400.284,-212.347"/>
<polygon fill="midnightblue" stroke="midnightblue" points="401.558,-215.623 410.212,-209.511 399.635,-208.893 401.558,-215.623"/>
</g>
<!-- Node2&#45;&gt;Node3 -->
<g id="edge2" class="edge"><title>Node2&#45;&gt;Node3</title>
<path fill="none" stroke="midnightblue" d="M142.266,-190.083C148.545,-182.377 157.788,-171.033 165.431,-161.653"/>
<polygon fill="midnightblue" stroke="midnightblue" points="168.266,-163.714 171.869,-153.751 162.839,-159.293 168.266,-163.714"/>
</g>
<!-- Node4 -->
<g id="node4" class="node"><title>Node4</title>
<polygon fill="white" stroke="#bfbfbf" points="0,-73 0,-92 56,-92 56,-73 0,-73"/>
<text text-anchor="middle" x="28" y="-80" font-family="Helvetica,sans-Serif" font-size="10.00">stdbool.h</text>
</g>
<!-- Node3&#45;&gt;Node4 -->
<g id="edge3" class="edge"><title>Node3&#45;&gt;Node4</title>
<path fill="none" stroke="midnightblue" d="M157.365,-134.475C131.576,-124.313 88.2894,-107.256 58.9603,-95.6996"/>
<polygon fill="midnightblue" stroke="midnightblue" points="60.1814,-92.4189 49.5945,-92.0091 57.6151,-98.9315 60.1814,-92.4189"/>
</g>
<!-- Node5 -->
<g id="node5" class="node"><title>Node5</title>
<polygon fill="white" stroke="#bfbfbf" points="74.5,-73 74.5,-92 123.5,-92 123.5,-73 74.5,-73"/>
<text text-anchor="middle" x="99" y="-80" font-family="Helvetica,sans-Serif" font-size="10.00">stdint.h</text>
</g>
<!-- Node3&#45;&gt;Node5 -->
<g id="edge4" class="edge"><title>Node3&#45;&gt;Node5</title>
<path fill="none" stroke="midnightblue" d="M167.538,-134.475C154.825,-125.02 134.087,-109.596 118.747,-98.1871"/>
<polygon fill="midnightblue" stroke="midnightblue" points="120.554,-95.1686 110.441,-92.0091 116.376,-100.785 120.554,-95.1686"/>
</g>
<!-- Node6 -->
<g id="node6" class="node"><title>Node6</title>
<polygon fill="white" stroke="#bfbfbf" points="142,-73 142,-92 216,-92 216,-73 142,-73"/>
<text text-anchor="middle" x="179" y="-80" font-family="Helvetica,sans-Serif" font-size="10.00">p30F6014A.h</text>
</g>
<!-- Node3&#45;&gt;Node6 -->
<g id="edge5" class="edge"><title>Node3&#45;&gt;Node6</title>
<path fill="none" stroke="midnightblue" d="M179,-134.475C179,-126.08 179,-112.981 179,-102.163"/>
<polygon fill="midnightblue" stroke="midnightblue" points="182.5,-102.009 179,-92.0091 175.5,-102.009 182.5,-102.009"/>
</g>
<!-- Node7 -->
<g id="node7" class="node"><title>Node7</title>
<polygon fill="white" stroke="#bfbfbf" points="234.5,-67.5 234.5,-97.5 371.5,-97.5 371.5,-67.5 234.5,-67.5"/>
<text text-anchor="start" x="242.5" y="-85.5" font-family="Helvetica,sans-Serif" font-size="10.00">platform/e&#45;puck/library</text>
<text text-anchor="middle" x="303" y="-74.5" font-family="Helvetica,sans-Serif" font-size="10.00">/motor_led/e_epuck_ports.h</text>
</g>
<!-- Node3&#45;&gt;Node7 -->
<g id="edge6" class="edge"><title>Node3&#45;&gt;Node7</title>
<path fill="none" stroke="midnightblue" d="M196.766,-134.475C214.423,-126.002 242.068,-112.737 264.731,-101.863"/>
<polygon fill="midnightblue" stroke="midnightblue" points="266.274,-105.005 273.776,-97.523 263.246,-98.6936 266.274,-105.005"/>
</g>
<!-- Node8 -->
<g id="node8" class="node"><title>Node8</title>
<g id="a_node8"><a xlink:href="../../d9/d1f/DSPIC30F6014A__HDI_8h.html" target="_top" xlink:title="declares e&#45;puck specific types and preprocessor variables ">
<polygon fill="white" stroke="black" points="390,-67.5 390,-97.5 546,-97.5 546,-67.5 390,-67.5"/>
<text text-anchor="start" x="398" y="-85.5" font-family="Helvetica,sans-Serif" font-size="10.00">platform/e&#45;puck/DSPIC30F6014</text>
<text text-anchor="middle" x="468" y="-74.5" font-family="Helvetica,sans-Serif" font-size="10.00">A_HDI.h</text>
</a>
</g>
</g>
<!-- Node3&#45;&gt;Node8 -->
<g id="edge7" class="edge"><title>Node3&#45;&gt;Node8</title>
<path fill="none" stroke="midnightblue" d="M218.277,-134.914C262.245,-125.861 334.601,-110.964 390.14,-99.5299"/>
<polygon fill="midnightblue" stroke="midnightblue" points="390.864,-102.954 399.953,-97.5097 389.452,-96.0983 390.864,-102.954"/>
</g>
<!-- Node9 -->
<g id="node9" class="node"><title>Node9</title>
<polygon fill="white" stroke="#bfbfbf" points="419.5,-0.5 419.5,-30.5 516.5,-30.5 516.5,-0.5 419.5,-0.5"/>
<text text-anchor="start" x="427.5" y="-18.5" font-family="Helvetica,sans-Serif" font-size="10.00">library/motor_led/e</text>
<text text-anchor="middle" x="468" y="-7.5" font-family="Helvetica,sans-Serif" font-size="10.00">_epuck_ports.h</text>
</g>
<!-- Node8&#45;&gt;Node9 -->
<g id="edge8" class="edge"><title>Node8&#45;&gt;Node9</title>
<path fill="none" stroke="midnightblue" d="M468,-67.396C468,-59.6448 468,-49.8122 468,-40.8601"/>
<polygon fill="midnightblue" stroke="midnightblue" points="471.5,-40.5765 468,-30.5765 464.5,-40.5765 471.5,-40.5765"/>
</g>
<!-- Node12&#45;&gt;Node3 -->
<g id="edge13" class="edge"><title>Node12&#45;&gt;Node3</title>
<path fill="none" stroke="midnightblue" d="M405.341,-191.829C359.841,-182.415 279.699,-165.834 228.004,-155.139"/>
<polygon fill="midnightblue" stroke="midnightblue" points="228.565,-151.681 218.063,-153.082 227.147,-158.536 228.565,-151.681"/>
</g>
</g>
</svg>
