<?xml version="1.0" encoding="UTF-8" standalone="no"?>
<!DOCTYPE svg PUBLIC "-//W3C//DTD SVG 1.1//EN"
 "http://www.w3.org/Graphics/SVG/1.1/DTD/svg11.dtd">
<!-- Generated by graphviz version 2.38.0 (20140413.2041)
 -->
<!-- Title: platform/e&#45;puck/uart.c Pages: 1 -->
<svg width="554pt" height="274pt"
 viewBox="0.00 0.00 554.00 274.00" xmlns="http://www.w3.org/2000/svg" xmlns:xlink="http://www.w3.org/1999/xlink">
<g id="graph0" class="graph" transform="scale(1 1) rotate(0) translate(4 270)">
<title>platform/e&#45;puck/uart.c</title>
<polygon fill="white" stroke="none" points="-4,4 -4,-270 550,-270 550,4 -4,4"/>
<!-- Node1 -->
<g id="node1" class="node"><title>Node1</title>
<polygon fill="#bfbfbf" stroke="black" points="154,-246.5 154,-265.5 266,-265.5 266,-246.5 154,-246.5"/>
<text text-anchor="middle" x="210" y="-253.5" font-family="Helvetica,sans-Serif" font-size="10.00">platform/e&#45;puck/uart.c</text>
</g>
<!-- Node2 -->
<g id="node2" class="node"><title>Node2</title>
<g id="a_node2"><a xlink:href="$d2/d86/uart_8h.html" xlink:title="It declares functions to transmit bytes via UART. ">
<polygon fill="white" stroke="black" points="79.5,-190.5 79.5,-209.5 120.5,-209.5 120.5,-190.5 79.5,-190.5"/>
<text text-anchor="middle" x="100" y="-197.5" font-family="Helvetica,sans-Serif" font-size="10.00">uart.h</text>
</a>
</g>
</g>
<!-- Node1&#45;&gt;Node2 -->
<g id="edge1" class="edge"><title>Node1&#45;&gt;Node2</title>
<path fill="none" stroke="midnightblue" d="M192.327,-246.324C174.606,-237.625 147.097,-224.12 126.712,-214.113"/>
<polygon fill="midnightblue" stroke="midnightblue" points="128.149,-210.919 117.63,-209.655 125.064,-217.203 128.149,-210.919"/>
</g>
<!-- Node3 -->
<g id="node3" class="node"><title>Node3</title>
<g id="a_node3"><a xlink:href="$d6/dc2/definitions_8h.html" xlink:title="It declares general preprocessor variables and types. ">
<polygon fill="white" stroke="black" points="135.5,-134.5 135.5,-153.5 222.5,-153.5 222.5,-134.5 135.5,-134.5"/>
<text text-anchor="middle" x="179" y="-141.5" font-family="Helvetica,sans-Serif" font-size="10.00">../../definitions.h</text>
</a>
</g>
</g>
<!-- Node1&#45;&gt;Node3 -->
<g id="edge11" class="edge"><title>Node1&#45;&gt;Node3</title>
<path fill="none" stroke="midnightblue" d="M197.786,-246.236C187.646,-238.143 173.957,-225.112 168,-210 162.039,-194.877 166.078,-176.527 170.856,-163.185"/>
<polygon fill="midnightblue" stroke="midnightblue" points="174.18,-164.301 174.67,-153.717 167.687,-161.686 174.18,-164.301"/>
</g>
<!-- Node10 -->
<g id="node10" class="node"><title>Node10</title>
<g id="a_node10"><a xlink:href="$dc/d0b/uart__HDI_8h.html" xlink:title="Hardware dependent implementations to transmit bytes via UART. ">
<polygon fill="white" stroke="black" points="177.5,-190.5 177.5,-209.5 242.5,-209.5 242.5,-190.5 177.5,-190.5"/>
<text text-anchor="middle" x="210" y="-197.5" font-family="Helvetica,sans-Serif" font-size="10.00">uart_HDI.h</text>
</a>
</g>
</g>
<!-- Node1&#45;&gt;Node10 -->
<g id="edge9" class="edge"><title>Node1&#45;&gt;Node10</title>
<path fill="none" stroke="midnightblue" d="M210,-246.083C210,-239.006 210,-228.861 210,-219.986"/>
<polygon fill="midnightblue" stroke="midnightblue" points="213.5,-219.751 210,-209.751 206.5,-219.751 213.5,-219.751"/>
</g>
<!-- Node11 -->
<g id="node11" class="node"><title>Node11</title>
<g id="a_node11"><a xlink:href="$d6/ded/interrupts_8h.html" xlink:title="It declares interrupt priority levels and functions to create atomic sections. ">
<polygon fill="white" stroke="black" points="260.5,-190.5 260.5,-209.5 343.5,-209.5 343.5,-190.5 260.5,-190.5"/>
<text text-anchor="middle" x="302" y="-197.5" font-family="Helvetica,sans-Serif" font-size="10.00">../../interrupts.h</text>
</a>
</g>
</g>
<!-- Node1&#45;&gt;Node11 -->
<g id="edge12" class="edge"><title>Node1&#45;&gt;Node11</title>
<path fill="none" stroke="midnightblue" d="M224.781,-246.324C239.267,-237.822 261.573,-224.729 278.493,-214.797"/>
<polygon fill="midnightblue" stroke="midnightblue" points="280.403,-217.735 287.255,-209.655 276.859,-211.698 280.403,-217.735"/>
</g>
<!-- Node12 -->
<g id="node12" class="node"><title>Node12</title>
<g id="a_node12"><a xlink:href="$dc/d18/memory_8h.html" xlink:title="It declares functions to allocate, free, and copy memory. ">
<polygon fill="white" stroke="black" points="362,-190.5 362,-209.5 440,-209.5 440,-190.5 362,-190.5"/>
<text text-anchor="middle" x="401" y="-197.5" font-family="Helvetica,sans-Serif" font-size="10.00">../../memory.h</text>
</a>
</g>
</g>
<!-- Node1&#45;&gt;Node12 -->
<g id="edge13" class="edge"><title>Node1&#45;&gt;Node12</title>
<path fill="none" stroke="midnightblue" d="M240.265,-246.444C272.955,-237.201 325.182,-222.436 361.183,-212.257"/>
<polygon fill="midnightblue" stroke="midnightblue" points="362.206,-215.605 370.877,-209.516 360.302,-208.869 362.206,-215.605"/>
</g>
<!-- Node2&#45;&gt;Node3 -->
<g id="edge2" class="edge"><title>Node2&#45;&gt;Node3</title>
<path fill="none" stroke="midnightblue" d="M112.693,-190.324C124.901,-181.979 143.578,-169.212 158.003,-159.352"/>
<polygon fill="midnightblue" stroke="midnightblue" points="160.058,-162.187 166.339,-153.655 156.108,-156.408 160.058,-162.187"/>
</g>
<!-- Node4 -->
<g id="node4" class="node"><title>Node4</title>
<polygon fill="white" stroke="#bfbfbf" points="0,-73 0,-92 56,-92 56,-73 0,-73"/>
<text text-anchor="middle" x="28" y="-80" font-family="Helvetica,sans-Serif" font-size="10.00">stdbool.h</text>
</g>
<!-- Node3&#45;&gt;Node4 -->
<g id="edge3" class="edge"><title>Node3&#45;&gt;Node4</title>
<path fill="none" stroke="midnightblue" d="M157.365,-134.475C131.576,-124.313 88.2894,-107.256 58.9603,-95.6996"/>
<polygon fill="midnightblue" stroke="midnightblue" points="60.1814,-92.4189 49.5945,-92.0091 57.6151,-98.9315 60.1814,-92.4189"/>
</g>
<!-- Node5 -->
<g id="node5" class="node"><title>Node5</title>
<polygon fill="white" stroke="#bfbfbf" points="74.5,-73 74.5,-92 123.5,-92 123.5,-73 74.5,-73"/>
<text text-anchor="middle" x="99" y="-80" font-family="Helvetica,sans-Serif" font-size="10.00">stdint.h</text>
</g>
<!-- Node3&#45;&gt;Node5 -->
<g id="edge4" class="edge"><title>Node3&#45;&gt;Node5</title>
<path fill="none" stroke="midnightblue" d="M167.538,-134.475C154.825,-125.02 134.087,-109.596 118.747,-98.1871"/>
<polygon fill="midnightblue" stroke="midnightblue" points="120.554,-95.1686 110.441,-92.0091 116.376,-100.785 120.554,-95.1686"/>
</g>
<!-- Node6 -->
<g id="node6" class="node"><title>Node6</title>
<polygon fill="white" stroke="#bfbfbf" points="142,-73 142,-92 216,-92 216,-73 142,-73"/>
<text text-anchor="middle" x="179" y="-80" font-family="Helvetica,sans-Serif" font-size="10.00">p30F6014A.h</text>
</g>
<!-- Node3&#45;&gt;Node6 -->
<g id="edge5" class="edge"><title>Node3&#45;&gt;Node6</title>
<path fill="none" stroke="midnightblue" d="M179,-134.475C179,-126.08 179,-112.981 179,-102.163"/>
<polygon fill="midnightblue" stroke="midnightblue" points="182.5,-102.009 179,-92.0091 175.5,-102.009 182.5,-102.009"/>
</g>
<!-- Node7 -->
<g id="node7" class="node"><title>Node7</title>
<polygon fill="white" stroke="#bfbfbf" points="234.5,-67.5 234.5,-97.5 371.5,-97.5 371.5,-67.5 234.5,-67.5"/>
<text text-anchor="start" x="242.5" y="-85.5" font-family="Helvetica,sans-Serif" font-size="10.00">platform/e&#45;puck/library</text>
<text text-anchor="middle" x="303" y="-74.5" font-family="Helvetica,sans-Serif" font-size="10.00">/motor_led/e_epuck_ports.h</text>
</g>
<!-- Node3&#45;&gt;Node7 -->
<g id="edge6" class="edge"><title>Node3&#45;&gt;Node7</title>
<path fill="none" stroke="midnightblue" d="M196.766,-134.475C214.423,-126.002 242.068,-112.737 264.731,-101.863"/>
<polygon fill="midnightblue" stroke="midnightblue" points="266.274,-105.005 273.776,-97.523 263.246,-98.6936 266.274,-105.005"/>
</g>
<!-- Node8 -->
<g id="node8" class="node"><title>Node8</title>
<g id="a_node8"><a xlink:href="$d9/d1f/DSPIC30F6014A__HDI_8h.html" xlink:title="declares e&#45;puck specific types and preprocessor variables ">
<polygon fill="white" stroke="black" points="390,-67.5 390,-97.5 546,-97.5 546,-67.5 390,-67.5"/>
<text text-anchor="start" x="398" y="-85.5" font-family="Helvetica,sans-Serif" font-size="10.00">platform/e&#45;puck/DSPIC30F6014</text>
<text text-anchor="middle" x="468" y="-74.5" font-family="Helvetica,sans-Serif" font-size="10.00">A_HDI.h</text>
</a>
</g>
</g>
<!-- Node3&#45;&gt;Node8 -->
<g id="edge7" class="edge"><title>Node3&#45;&gt;Node8</title>
<path fill="none" stroke="midnightblue" d="M220.407,-134.475C264.486,-125.4 335.271,-110.826 389.888,-99.5818"/>
<polygon fill="midnightblue" stroke="midnightblue" points="390.8,-102.968 399.888,-97.523 389.388,-96.1115 390.8,-102.968"/>
</g>
<!-- Node9 -->
<g id="node9" class="node"><title>Node9</title>
<polygon fill="white" stroke="#bfbfbf" points="419.5,-0.5 419.5,-30.5 516.5,-30.5 516.5,-0.5 419.5,-0.5"/>
<text text-anchor="start" x="427.5" y="-18.5" font-family="Helvetica,sans-Serif" font-size="10.00">library/motor_led/e</text>
<text text-anchor="middle" x="468" y="-7.5" font-family="Helvetica,sans-Serif" font-size="10.00">_epuck_ports.h</text>
</g>
<!-- Node8&#45;&gt;Node9 -->
<g id="edge8" class="edge"><title>Node8&#45;&gt;Node9</title>
<path fill="none" stroke="midnightblue" d="M468,-67.396C468,-59.6448 468,-49.8122 468,-40.8601"/>
<polygon fill="midnightblue" stroke="midnightblue" points="471.5,-40.5765 468,-30.5765 464.5,-40.5765 471.5,-40.5765"/>
</g>
<!-- Node10&#45;&gt;Node3 -->
<g id="edge10" class="edge"><title>Node10&#45;&gt;Node3</title>
<path fill="none" stroke="midnightblue" d="M204.881,-190.083C200.592,-182.613 194.342,-171.724 189.058,-162.52"/>
<polygon fill="midnightblue" stroke="midnightblue" points="192.038,-160.681 184.024,-153.751 185.967,-164.166 192.038,-160.681"/>
</g>
<!-- Node12&#45;&gt;Node3 -->
<g id="edge14" class="edge"><title>Node12&#45;&gt;Node3</title>
<path fill="none" stroke="midnightblue" d="M365.823,-190.444C327.421,-181.102 265.824,-166.119 223.945,-155.933"/>
<polygon fill="midnightblue" stroke="midnightblue" points="224.556,-152.479 214.012,-153.516 222.901,-159.281 224.556,-152.479"/>
</g>
</g>
</svg>
