<?xml version="1.0" encoding="UTF-8" standalone="no"?>
<!DOCTYPE svg PUBLIC "-//W3C//DTD SVG 1.1//EN"
 "http://www.w3.org/Graphics/SVG/1.1/DTD/svg11.dtd">
<!-- Generated by graphviz version 2.38.0 (20140413.2041)
 -->
<!-- Title: platform/e&#45;puck/io_HDI.c Pages: 1 -->
<svg width="554pt" height="341pt"
 viewBox="0.00 0.00 553.50 341.00" xmlns="http://www.w3.org/2000/svg" xmlns:xlink="http://www.w3.org/1999/xlink">
<g id="graph0" class="graph" transform="scale(1 1) rotate(0) translate(4 337)">
<title>platform/e&#45;puck/io_HDI.c</title>
<polygon fill="white" stroke="none" points="-4,4 -4,-337 549.5,-337 549.5,4 -4,4"/>
<!-- Node1 -->
<g id="node1" class="node"><title>Node1</title>
<polygon fill="#bfbfbf" stroke="black" points="193,-302.5 193,-332.5 288,-332.5 288,-302.5 193,-302.5"/>
<text text-anchor="start" x="201" y="-320.5" font-family="Helvetica,sans-Serif" font-size="10.00">platform/e&#45;puck/io</text>
<text text-anchor="middle" x="240.5" y="-309.5" font-family="Helvetica,sans-Serif" font-size="10.00">_HDI.c</text>
</g>
<!-- Node2 -->
<g id="node2" class="node"><title>Node2</title>
<g id="a_node2"><a xlink:href="$d1/d81/io__HDI_8h.html" xlink:title="Hardware dependent implementations to control the IO timer and to (un)register IO Handler...">
<polygon fill="white" stroke="black" points="131.5,-190.5 131.5,-209.5 187.5,-209.5 187.5,-190.5 131.5,-190.5"/>
<text text-anchor="middle" x="159.5" y="-197.5" font-family="Helvetica,sans-Serif" font-size="10.00">io_HDI.h</text>
</a>
</g>
</g>
<!-- Node1&#45;&gt;Node2 -->
<g id="edge1" class="edge"><title>Node1&#45;&gt;Node2</title>
<path fill="none" stroke="midnightblue" d="M229.288,-302.087C221.593,-292.078 211.233,-278.369 202.5,-266 191.196,-249.99 178.919,-231.289 170.387,-218.067"/>
<polygon fill="midnightblue" stroke="midnightblue" points="173.252,-216.05 164.905,-209.524 167.361,-219.831 173.252,-216.05"/>
</g>
<!-- Node3 -->
<g id="node3" class="node"><title>Node3</title>
<g id="a_node3"><a xlink:href="$d6/dc2/definitions_8h.html" xlink:title="It declares general preprocessor variables and types. ">
<polygon fill="white" stroke="black" points="173.5,-134.5 173.5,-153.5 283.5,-153.5 283.5,-134.5 173.5,-134.5"/>
<text text-anchor="middle" x="228.5" y="-141.5" font-family="Helvetica,sans-Serif" font-size="10.00">../../../os/definitions.h</text>
</a>
</g>
</g>
<!-- Node1&#45;&gt;Node3 -->
<g id="edge11" class="edge"><title>Node1&#45;&gt;Node3</title>
<path fill="none" stroke="midnightblue" d="M214.932,-302.416C186.265,-284.991 141.332,-252.364 122.5,-210 110.381,-182.738 142.241,-165.967 174.126,-156.305"/>
<polygon fill="midnightblue" stroke="midnightblue" points="175.297,-159.612 183.974,-153.532 173.399,-152.874 175.297,-159.612"/>
</g>
<!-- Node8 -->
<g id="node8" class="node"><title>Node8</title>
<g id="a_node8"><a xlink:href="$d9/d1f/DSPIC30F6014A__HDI_8h.html" xlink:title="declares e&#45;puck specific types and preprocessor variables ">
<polygon fill="white" stroke="black" points="389.5,-67.5 389.5,-97.5 545.5,-97.5 545.5,-67.5 389.5,-67.5"/>
<text text-anchor="start" x="397.5" y="-85.5" font-family="Helvetica,sans-Serif" font-size="10.00">platform/e&#45;puck/DSPIC30F6014</text>
<text text-anchor="middle" x="467.5" y="-74.5" font-family="Helvetica,sans-Serif" font-size="10.00">A_HDI.h</text>
</a>
</g>
</g>
<!-- Node1&#45;&gt;Node8 -->
<g id="edge10" class="edge"><title>Node1&#45;&gt;Node8</title>
<path fill="none" stroke="midnightblue" d="M288.346,-311.17C342.779,-304.062 426.82,-289.562 447.5,-266 486.25,-221.848 479.571,-146.676 472.79,-108.035"/>
<polygon fill="midnightblue" stroke="midnightblue" points="476.135,-106.891 470.823,-97.7243 469.259,-108.203 476.135,-106.891"/>
</g>
<!-- Node10 -->
<g id="node10" class="node"><title>Node10</title>
<polygon fill="white" stroke="#bfbfbf" points="216.5,-246.5 216.5,-265.5 264.5,-265.5 264.5,-246.5 216.5,-246.5"/>
<text text-anchor="middle" x="240.5" y="-253.5" font-family="Helvetica,sans-Serif" font-size="10.00">stdlib.h</text>
</g>
<!-- Node1&#45;&gt;Node10 -->
<g id="edge9" class="edge"><title>Node1&#45;&gt;Node10</title>
<path fill="none" stroke="midnightblue" d="M240.5,-302.399C240.5,-294.466 240.5,-284.458 240.5,-275.858"/>
<polygon fill="midnightblue" stroke="midnightblue" points="244,-275.658 240.5,-265.658 237,-275.658 244,-275.658"/>
</g>
<!-- Node11 -->
<g id="node11" class="node"><title>Node11</title>
<g id="a_node11"><a xlink:href="$d6/ded/interrupts_8h.html" xlink:title="It declares interrupt priority levels and functions to create atomic sections. ">
<polygon fill="white" stroke="black" points="283,-246.5 283,-265.5 366,-265.5 366,-246.5 283,-246.5"/>
<text text-anchor="middle" x="324.5" y="-253.5" font-family="Helvetica,sans-Serif" font-size="10.00">../../interrupts.h</text>
</a>
</g>
</g>
<!-- Node1&#45;&gt;Node11 -->
<g id="edge12" class="edge"><title>Node1&#45;&gt;Node11</title>
<path fill="none" stroke="midnightblue" d="M260.407,-302.399C273.494,-293.129 290.582,-281.025 303.822,-271.647"/>
<polygon fill="midnightblue" stroke="midnightblue" points="306.14,-274.294 312.277,-265.658 302.094,-268.582 306.14,-274.294"/>
</g>
<!-- Node12 -->
<g id="node12" class="node"><title>Node12</title>
<g id="a_node12"><a xlink:href="$dc/d18/memory_8h.html" xlink:title="It declares functions to allocate, free, and copy memory. ">
<polygon fill="white" stroke="black" points="205.5,-190.5 205.5,-209.5 283.5,-209.5 283.5,-190.5 205.5,-190.5"/>
<text text-anchor="middle" x="244.5" y="-197.5" font-family="Helvetica,sans-Serif" font-size="10.00">../../memory.h</text>
</a>
</g>
</g>
<!-- Node1&#45;&gt;Node12 -->
<g id="edge13" class="edge"><title>Node1&#45;&gt;Node12</title>
<path fill="none" stroke="midnightblue" d="M226.528,-302.253C214.556,-288.245 200.297,-266.101 207.5,-246 211.441,-235.003 219.357,-224.769 226.86,-216.848"/>
<polygon fill="midnightblue" stroke="midnightblue" points="229.392,-219.266 234.062,-209.755 224.481,-214.278 229.392,-219.266"/>
</g>
<!-- Node13 -->
<g id="node13" class="node"><title>Node13</title>
<g id="a_node13"><a xlink:href="$dd/d59/motors_8h.html" xlink:title="It declares functions to drive motors. ">
<polygon fill="white" stroke="black" points="384,-246.5 384,-265.5 439,-265.5 439,-246.5 384,-246.5"/>
<text text-anchor="middle" x="411.5" y="-253.5" font-family="Helvetica,sans-Serif" font-size="10.00">motors.h</text>
</a>
</g>
</g>
<!-- Node1&#45;&gt;Node13 -->
<g id="edge15" class="edge"><title>Node1&#45;&gt;Node13</title>
<path fill="none" stroke="midnightblue" d="M281.025,-302.399C310.228,-292.238 349.217,-278.672 376.949,-269.022"/>
<polygon fill="midnightblue" stroke="midnightblue" points="378.324,-272.25 386.618,-265.658 376.023,-265.639 378.324,-272.25"/>
</g>
<!-- Node2&#45;&gt;Node3 -->
<g id="edge2" class="edge"><title>Node2&#45;&gt;Node3</title>
<path fill="none" stroke="midnightblue" d="M170.586,-190.324C180.986,-182.185 196.761,-169.839 209.222,-160.087"/>
<polygon fill="midnightblue" stroke="midnightblue" points="211.494,-162.753 217.212,-153.834 207.18,-157.241 211.494,-162.753"/>
</g>
<!-- Node4 -->
<g id="node4" class="node"><title>Node4</title>
<polygon fill="white" stroke="#bfbfbf" points="315.5,-73 315.5,-92 371.5,-92 371.5,-73 315.5,-73"/>
<text text-anchor="middle" x="343.5" y="-80" font-family="Helvetica,sans-Serif" font-size="10.00">stdbool.h</text>
</g>
<!-- Node3&#45;&gt;Node4 -->
<g id="edge3" class="edge"><title>Node3&#45;&gt;Node4</title>
<path fill="none" stroke="midnightblue" d="M244.977,-134.475C264.105,-124.578 295.873,-108.142 318.152,-96.6151"/>
<polygon fill="midnightblue" stroke="midnightblue" points="319.781,-99.713 327.054,-92.0091 316.564,-93.4958 319.781,-99.713"/>
</g>
<!-- Node5 -->
<g id="node5" class="node"><title>Node5</title>
<polygon fill="white" stroke="#bfbfbf" points="0,-73 0,-92 49,-92 49,-73 0,-73"/>
<text text-anchor="middle" x="24.5" y="-80" font-family="Helvetica,sans-Serif" font-size="10.00">stdint.h</text>
</g>
<!-- Node3&#45;&gt;Node5 -->
<g id="edge4" class="edge"><title>Node3&#45;&gt;Node5</title>
<path fill="none" stroke="midnightblue" d="M189.88,-134.458C155.112,-126.373 102.821,-113.228 58.5,-98 56.6338,-97.3588 54.7254,-96.6625 52.8118,-95.9334"/>
<polygon fill="midnightblue" stroke="midnightblue" points="53.9555,-92.6207 43.3725,-92.1203 51.3335,-99.1111 53.9555,-92.6207"/>
</g>
<!-- Node6 -->
<g id="node6" class="node"><title>Node6</title>
<polygon fill="white" stroke="#bfbfbf" points="67.5,-73 67.5,-92 141.5,-92 141.5,-73 67.5,-73"/>
<text text-anchor="middle" x="104.5" y="-80" font-family="Helvetica,sans-Serif" font-size="10.00">p30F6014A.h</text>
</g>
<!-- Node3&#45;&gt;Node6 -->
<g id="edge5" class="edge"><title>Node3&#45;&gt;Node6</title>
<path fill="none" stroke="midnightblue" d="M210.734,-134.475C190.016,-124.534 155.548,-107.995 131.511,-96.461"/>
<polygon fill="midnightblue" stroke="midnightblue" points="132.763,-93.1797 122.233,-92.0091 129.735,-99.4908 132.763,-93.1797"/>
</g>
<!-- Node7 -->
<g id="node7" class="node"><title>Node7</title>
<polygon fill="white" stroke="#bfbfbf" points="160,-67.5 160,-97.5 297,-97.5 297,-67.5 160,-67.5"/>
<text text-anchor="start" x="168" y="-85.5" font-family="Helvetica,sans-Serif" font-size="10.00">platform/e&#45;puck/library</text>
<text text-anchor="middle" x="228.5" y="-74.5" font-family="Helvetica,sans-Serif" font-size="10.00">/motor_led/e_epuck_ports.h</text>
</g>
<!-- Node3&#45;&gt;Node7 -->
<g id="edge6" class="edge"><title>Node3&#45;&gt;Node7</title>
<path fill="none" stroke="midnightblue" d="M228.5,-134.475C228.5,-127.471 228.5,-117.192 228.5,-107.696"/>
<polygon fill="midnightblue" stroke="midnightblue" points="232,-107.523 228.5,-97.523 225,-107.523 232,-107.523"/>
</g>
<!-- Node3&#45;&gt;Node8 -->
<g id="edge7" class="edge"><title>Node3&#45;&gt;Node8</title>
<path fill="none" stroke="midnightblue" d="M262.743,-134.475C298.742,-125.513 356.281,-111.188 401.21,-100.003"/>
<polygon fill="midnightblue" stroke="midnightblue" points="402.314,-103.335 411.172,-97.523 400.623,-96.5425 402.314,-103.335"/>
</g>
<!-- Node9 -->
<g id="node9" class="node"><title>Node9</title>
<polygon fill="white" stroke="#bfbfbf" points="419,-0.5 419,-30.5 516,-30.5 516,-0.5 419,-0.5"/>
<text text-anchor="start" x="427" y="-18.5" font-family="Helvetica,sans-Serif" font-size="10.00">library/motor_led/e</text>
<text text-anchor="middle" x="467.5" y="-7.5" font-family="Helvetica,sans-Serif" font-size="10.00">_epuck_ports.h</text>
</g>
<!-- Node8&#45;&gt;Node9 -->
<g id="edge8" class="edge"><title>Node8&#45;&gt;Node9</title>
<path fill="none" stroke="midnightblue" d="M467.5,-67.396C467.5,-59.6448 467.5,-49.8122 467.5,-40.8601"/>
<polygon fill="midnightblue" stroke="midnightblue" points="471,-40.5765 467.5,-30.5765 464,-40.5765 471,-40.5765"/>
</g>
<!-- Node12&#45;&gt;Node3 -->
<g id="edge14" class="edge"><title>Node12&#45;&gt;Node3</title>
<path fill="none" stroke="midnightblue" d="M241.858,-190.083C239.714,-182.849 236.621,-172.409 233.951,-163.397"/>
<polygon fill="midnightblue" stroke="midnightblue" points="237.29,-162.345 231.093,-153.751 230.578,-164.333 237.29,-162.345"/>
</g>
<!-- Node14 -->
<g id="node14" class="node"><title>Node14</title>
<g id="a_node14"><a xlink:href="$dc/dac/io_8h.html" xlink:title="It declares functions to control the IO timer and to (un)register IO Handler. ">
<polygon fill="white" stroke="black" points="335,-190.5 335,-209.5 396,-209.5 396,-190.5 335,-190.5"/>
<text text-anchor="middle" x="365.5" y="-197.5" font-family="Helvetica,sans-Serif" font-size="10.00">../../io/io.h</text>
</a>
</g>
</g>
<!-- Node13&#45;&gt;Node14 -->
<g id="edge16" class="edge"><title>Node13&#45;&gt;Node14</title>
<path fill="none" stroke="midnightblue" d="M403.904,-246.083C397.273,-238.298 387.479,-226.801 379.442,-217.367"/>
<polygon fill="midnightblue" stroke="midnightblue" points="382.104,-215.094 372.955,-209.751 376.775,-219.633 382.104,-215.094"/>
</g>
<!-- Node14&#45;&gt;Node3 -->
<g id="edge17" class="edge"><title>Node14&#45;&gt;Node3</title>
<path fill="none" stroke="midnightblue" d="M343.792,-190.444C321.145,-181.517 285.428,-167.439 259.748,-157.317"/>
<polygon fill="midnightblue" stroke="midnightblue" points="260.693,-153.927 250.106,-153.516 258.126,-160.44 260.693,-153.927"/>
</g>
</g>
</svg>
