<?xml version="1.0" encoding="UTF-8" standalone="no"?>
<!DOCTYPE svg PUBLIC "-//W3C//DTD SVG 1.1//EN"
 "http://www.w3.org/Graphics/SVG/1.1/DTD/svg11.dtd">
<!-- Generated by graphviz version 2.38.0 (20140413.2041)
 -->
<!-- Title: platform/e&#45;puck/remoteControl.c Pages: 1 -->
<svg width="587pt" height="274pt"
 viewBox="0.00 0.00 587.47 274.00" xmlns="http://www.w3.org/2000/svg" xmlns:xlink="http://www.w3.org/1999/xlink">
<g id="graph0" class="graph" transform="scale(1 1) rotate(0) translate(4 270)">
<title>platform/e&#45;puck/remoteControl.c</title>
<polygon fill="white" stroke="none" points="-4,4 -4,-270 583.473,-270 583.473,4 -4,4"/>
<!-- Node1 -->
<g id="node1" class="node"><title>Node1</title>
<polygon fill="#bfbfbf" stroke="black" points="224.473,-246.5 224.473,-265.5 381.473,-265.5 381.473,-246.5 224.473,-246.5"/>
<text text-anchor="middle" x="302.973" y="-253.5" font-family="Helvetica,sans-Serif" font-size="10.00">platform/e&#45;puck/remoteControl.c</text>
</g>
<!-- Node2 -->
<g id="node2" class="node"><title>Node2</title>
<g id="a_node2"><a xlink:href="$d2/d2f/remoteControl_8h.html" xlink:title="It declares functions to receive and decode messages from a remote control. ">
<polygon fill="white" stroke="black" points="18.9732,-190.5 18.9732,-209.5 104.973,-209.5 104.973,-190.5 18.9732,-190.5"/>
<text text-anchor="middle" x="61.9732" y="-197.5" font-family="Helvetica,sans-Serif" font-size="10.00">remoteControl.h</text>
</a>
</g>
</g>
<!-- Node1&#45;&gt;Node2 -->
<g id="edge1" class="edge"><title>Node1&#45;&gt;Node2</title>
<path fill="none" stroke="midnightblue" d="M264.786,-246.444C222.832,-237.043 155.379,-221.929 109.902,-211.739"/>
<polygon fill="midnightblue" stroke="midnightblue" points="110.505,-208.288 99.9817,-209.516 108.974,-215.118 110.505,-208.288"/>
</g>
<!-- Node3 -->
<g id="node3" class="node"><title>Node3</title>
<polygon fill="white" stroke="#bfbfbf" points="33.9732,-73 33.9732,-92 89.9732,-92 89.9732,-73 33.9732,-73"/>
<text text-anchor="middle" x="61.9732" y="-80" font-family="Helvetica,sans-Serif" font-size="10.00">stdbool.h</text>
</g>
<!-- Node1&#45;&gt;Node3 -->
<g id="edge13" class="edge"><title>Node1&#45;&gt;Node3</title>
<path fill="none" stroke="midnightblue" d="M224.452,-254.05C147.242,-251.252 37.1205,-241.635 9.9732,-210 -18.631,-176.667 21.2528,-125.457 45.5833,-99.6092"/>
<polygon fill="midnightblue" stroke="midnightblue" points="48.3638,-101.771 52.8298,-92.163 43.3472,-96.8886 48.3638,-101.771"/>
</g>
<!-- Node4 -->
<g id="node4" class="node"><title>Node4</title>
<g id="a_node4"><a xlink:href="$d6/dc2/definitions_8h.html" xlink:title="It declares general preprocessor variables and types. ">
<polygon fill="white" stroke="black" points="261.473,-134.5 261.473,-153.5 348.473,-153.5 348.473,-134.5 261.473,-134.5"/>
<text text-anchor="middle" x="304.973" y="-141.5" font-family="Helvetica,sans-Serif" font-size="10.00">../../definitions.h</text>
</a>
</g>
</g>
<!-- Node1&#45;&gt;Node4 -->
<g id="edge19" class="edge"><title>Node1&#45;&gt;Node4</title>
<path fill="none" stroke="midnightblue" d="M381.568,-247.777C405.466,-241.461 429.27,-230.126 443.973,-210 469.261,-175.385 407.839,-158.605 358.723,-150.914"/>
<polygon fill="midnightblue" stroke="midnightblue" points="359.182,-147.444 348.779,-149.452 358.163,-154.37 359.182,-147.444"/>
</g>
<!-- Node10 -->
<g id="node10" class="node"><title>Node10</title>
<g id="a_node10"><a xlink:href="$d8/d4a/remoteControl__HDI_8h.html" xlink:title="Hardware dependent implementations to receive and decode messages from a remote control. ">
<polygon fill="white" stroke="black" points="122.973,-190.5 122.973,-209.5 232.973,-209.5 232.973,-190.5 122.973,-190.5"/>
<text text-anchor="middle" x="177.973" y="-197.5" font-family="Helvetica,sans-Serif" font-size="10.00">remoteControl_HDI.h</text>
</a>
</g>
</g>
<!-- Node1&#45;&gt;Node10 -->
<g id="edge10" class="edge"><title>Node1&#45;&gt;Node10</title>
<path fill="none" stroke="midnightblue" d="M283.167,-246.444C262.686,-237.596 230.491,-223.687 207.109,-213.586"/>
<polygon fill="midnightblue" stroke="midnightblue" points="208.255,-210.269 197.687,-209.516 205.479,-216.695 208.255,-210.269"/>
</g>
<!-- Node11 -->
<g id="node11" class="node"><title>Node11</title>
<g id="a_node11"><a xlink:href="$dc/dac/io_8h.html" xlink:title="It declares functions to control the IO timer and to (un)register IO Handler. ">
<polygon fill="white" stroke="black" points="373.473,-190.5 373.473,-209.5 434.473,-209.5 434.473,-190.5 373.473,-190.5"/>
<text text-anchor="middle" x="403.973" y="-197.5" font-family="Helvetica,sans-Serif" font-size="10.00">../../io/io.h</text>
</a>
</g>
</g>
<!-- Node1&#45;&gt;Node11 -->
<g id="edge14" class="edge"><title>Node1&#45;&gt;Node11</title>
<path fill="none" stroke="midnightblue" d="M319.201,-246.324C335.324,-237.703 360.273,-224.364 378.937,-214.386"/>
<polygon fill="midnightblue" stroke="midnightblue" points="380.618,-217.456 387.786,-209.655 377.317,-211.283 380.618,-217.456"/>
</g>
<!-- Node12 -->
<g id="node12" class="node"><title>Node12</title>
<g id="a_node12"><a xlink:href="$db/dd2/events_8h.html" xlink:title="declares functions to create, (un)subscribe, (un)register, and delete events and related handler...">
<polygon fill="white" stroke="black" points="250.973,-190.5 250.973,-209.5 354.973,-209.5 354.973,-190.5 250.973,-190.5"/>
<text text-anchor="middle" x="302.973" y="-197.5" font-family="Helvetica,sans-Serif" font-size="10.00">../../events/events.h</text>
</a>
</g>
</g>
<!-- Node1&#45;&gt;Node12 -->
<g id="edge16" class="edge"><title>Node1&#45;&gt;Node12</title>
<path fill="none" stroke="midnightblue" d="M302.973,-246.083C302.973,-239.006 302.973,-228.861 302.973,-219.986"/>
<polygon fill="midnightblue" stroke="midnightblue" points="306.473,-219.751 302.973,-209.751 299.473,-219.751 306.473,-219.751"/>
</g>
<!-- Node13 -->
<g id="node13" class="node"><title>Node13</title>
<g id="a_node13"><a xlink:href="$d6/ded/interrupts_8h.html" xlink:title="It declares interrupt priority levels and functions to create atomic sections. ">
<polygon fill="white" stroke="black" points="491.473,-190.5 491.473,-209.5 574.473,-209.5 574.473,-190.5 491.473,-190.5"/>
<text text-anchor="middle" x="532.973" y="-197.5" font-family="Helvetica,sans-Serif" font-size="10.00">../../interrupts.h</text>
</a>
</g>
</g>
<!-- Node1&#45;&gt;Node13 -->
<g id="edge20" class="edge"><title>Node1&#45;&gt;Node13</title>
<path fill="none" stroke="midnightblue" d="M339.417,-246.444C379.372,-237.063 443.56,-221.993 486.958,-211.804"/>
<polygon fill="midnightblue" stroke="midnightblue" points="487.764,-215.21 496.7,-209.516 486.164,-208.395 487.764,-215.21"/>
</g>
<!-- Node2&#45;&gt;Node3 -->
<g id="edge2" class="edge"><title>Node2&#45;&gt;Node3</title>
<path fill="none" stroke="midnightblue" d="M61.9732,-190.319C61.9732,-171.757 61.9732,-127.839 61.9732,-102.473"/>
<polygon fill="midnightblue" stroke="midnightblue" points="65.4733,-102.282 61.9732,-92.282 58.4733,-102.282 65.4733,-102.282"/>
</g>
<!-- Node2&#45;&gt;Node4 -->
<g id="edge3" class="edge"><title>Node2&#45;&gt;Node4</title>
<path fill="none" stroke="midnightblue" d="M100.477,-190.444C142.779,-181.043 210.792,-165.929 256.646,-155.739"/>
<polygon fill="midnightblue" stroke="midnightblue" points="257.647,-159.102 266.649,-153.516 256.128,-152.269 257.647,-159.102"/>
</g>
<!-- Node4&#45;&gt;Node3 -->
<g id="edge4" class="edge"><title>Node4&#45;&gt;Node3</title>
<path fill="none" stroke="midnightblue" d="M261.457,-135.568C219.408,-127.902 154.151,-114.723 98.9732,-98 96.5467,-97.2646 94.0544,-96.4415 91.5652,-95.571"/>
<polygon fill="midnightblue" stroke="midnightblue" points="92.7185,-92.2658 82.1256,-92.0646 90.2809,-98.8277 92.7185,-92.2658"/>
</g>
<!-- Node5 -->
<g id="node5" class="node"><title>Node5</title>
<polygon fill="white" stroke="#bfbfbf" points="282.473,-73 282.473,-92 331.473,-92 331.473,-73 282.473,-73"/>
<text text-anchor="middle" x="306.973" y="-80" font-family="Helvetica,sans-Serif" font-size="10.00">stdint.h</text>
</g>
<!-- Node4&#45;&gt;Node5 -->
<g id="edge5" class="edge"><title>Node4&#45;&gt;Node5</title>
<path fill="none" stroke="midnightblue" d="M305.26,-134.475C305.542,-126.08 305.982,-112.981 306.346,-102.163"/>
<polygon fill="midnightblue" stroke="midnightblue" points="309.849,-102.121 306.687,-92.0091 302.853,-101.886 309.849,-102.121"/>
</g>
<!-- Node6 -->
<g id="node6" class="node"><title>Node6</title>
<polygon fill="white" stroke="#bfbfbf" points="349.973,-73 349.973,-92 423.973,-92 423.973,-73 349.973,-73"/>
<text text-anchor="middle" x="386.973" y="-80" font-family="Helvetica,sans-Serif" font-size="10.00">p30F6014A.h</text>
</g>
<!-- Node4&#45;&gt;Node6 -->
<g id="edge6" class="edge"><title>Node4&#45;&gt;Node6</title>
<path fill="none" stroke="midnightblue" d="M316.722,-134.475C329.753,-125.02 351.009,-109.596 366.732,-98.1871"/>
<polygon fill="midnightblue" stroke="midnightblue" points="369.208,-100.715 375.246,-92.0091 365.097,-95.0492 369.208,-100.715"/>
</g>
<!-- Node7 -->
<g id="node7" class="node"><title>Node7</title>
<polygon fill="white" stroke="#bfbfbf" points="442.473,-67.5 442.473,-97.5 579.473,-97.5 579.473,-67.5 442.473,-67.5"/>
<text text-anchor="start" x="450.473" y="-85.5" font-family="Helvetica,sans-Serif" font-size="10.00">platform/e&#45;puck/library</text>
<text text-anchor="middle" x="510.973" y="-74.5" font-family="Helvetica,sans-Serif" font-size="10.00">/motor_led/e_epuck_ports.h</text>
</g>
<!-- Node4&#45;&gt;Node7 -->
<g id="edge7" class="edge"><title>Node4&#45;&gt;Node7</title>
<path fill="none" stroke="midnightblue" d="M334.488,-134.475C365.126,-125.626 413.863,-111.549 452.366,-100.428"/>
<polygon fill="midnightblue" stroke="midnightblue" points="453.787,-103.661 462.423,-97.523 451.845,-96.9354 453.787,-103.661"/>
</g>
<!-- Node8 -->
<g id="node8" class="node"><title>Node8</title>
<g id="a_node8"><a xlink:href="$d9/d1f/DSPIC30F6014A__HDI_8h.html" xlink:title="declares e&#45;puck specific types and preprocessor variables ">
<polygon fill="white" stroke="black" points="107.973,-67.5 107.973,-97.5 263.973,-97.5 263.973,-67.5 107.973,-67.5"/>
<text text-anchor="start" x="115.973" y="-85.5" font-family="Helvetica,sans-Serif" font-size="10.00">platform/e&#45;puck/DSPIC30F6014</text>
<text text-anchor="middle" x="185.973" y="-74.5" font-family="Helvetica,sans-Serif" font-size="10.00">A_HDI.h</text>
</a>
</g>
</g>
<!-- Node4&#45;&gt;Node8 -->
<g id="edge8" class="edge"><title>Node4&#45;&gt;Node8</title>
<path fill="none" stroke="midnightblue" d="M287.923,-134.475C271.053,-126.04 244.683,-112.855 222.989,-102.008"/>
<polygon fill="midnightblue" stroke="midnightblue" points="224.529,-98.8647 214.019,-97.523 221.398,-105.126 224.529,-98.8647"/>
</g>
<!-- Node9 -->
<g id="node9" class="node"><title>Node9</title>
<polygon fill="white" stroke="#bfbfbf" points="137.473,-0.5 137.473,-30.5 234.473,-30.5 234.473,-0.5 137.473,-0.5"/>
<text text-anchor="start" x="145.473" y="-18.5" font-family="Helvetica,sans-Serif" font-size="10.00">library/motor_led/e</text>
<text text-anchor="middle" x="185.973" y="-7.5" font-family="Helvetica,sans-Serif" font-size="10.00">_epuck_ports.h</text>
</g>
<!-- Node8&#45;&gt;Node9 -->
<g id="edge9" class="edge"><title>Node8&#45;&gt;Node9</title>
<path fill="none" stroke="midnightblue" d="M185.973,-67.396C185.973,-59.6448 185.973,-49.8122 185.973,-40.8601"/>
<polygon fill="midnightblue" stroke="midnightblue" points="189.473,-40.5765 185.973,-30.5765 182.473,-40.5765 189.473,-40.5765"/>
</g>
<!-- Node10&#45;&gt;Node3 -->
<g id="edge11" class="edge"><title>Node10&#45;&gt;Node3</title>
<path fill="none" stroke="midnightblue" d="M169.254,-190.319C149.856,-171.004 102.886,-124.237 78.0251,-99.4827"/>
<polygon fill="midnightblue" stroke="midnightblue" points="80.3491,-96.8576 70.7932,-92.282 75.4101,-101.818 80.3491,-96.8576"/>
</g>
<!-- Node10&#45;&gt;Node4 -->
<g id="edge12" class="edge"><title>Node10&#45;&gt;Node4</title>
<path fill="none" stroke="midnightblue" d="M198.097,-190.444C218.998,-181.557 251.908,-167.563 275.689,-157.451"/>
<polygon fill="midnightblue" stroke="midnightblue" points="277.111,-160.65 284.944,-153.516 274.372,-154.208 277.111,-160.65"/>
</g>
<!-- Node11&#45;&gt;Node4 -->
<g id="edge15" class="edge"><title>Node11&#45;&gt;Node4</title>
<path fill="none" stroke="midnightblue" d="M388.067,-190.324C372.335,-181.743 348.031,-168.486 329.764,-158.522"/>
<polygon fill="midnightblue" stroke="midnightblue" points="331.295,-155.37 320.84,-153.655 327.943,-161.516 331.295,-155.37"/>
</g>
<!-- Node12&#45;&gt;Node3 -->
<g id="edge17" class="edge"><title>Node12&#45;&gt;Node3</title>
<path fill="none" stroke="midnightblue" d="M284.859,-190.319C242.885,-170.203 138.774,-120.307 89.1356,-96.5176"/>
<polygon fill="midnightblue" stroke="midnightblue" points="90.4993,-93.2901 79.9688,-92.1245 87.474,-99.6026 90.4993,-93.2901"/>
</g>
<!-- Node12&#45;&gt;Node4 -->
<g id="edge18" class="edge"><title>Node12&#45;&gt;Node4</title>
<path fill="none" stroke="midnightblue" d="M303.303,-190.083C303.566,-183.006 303.941,-172.861 304.27,-163.986"/>
<polygon fill="midnightblue" stroke="midnightblue" points="307.776,-163.874 304.649,-153.751 300.781,-163.615 307.776,-163.874"/>
</g>
</g>
</svg>
