<?xml version="1.0" encoding="UTF-8" standalone="no"?>
<!DOCTYPE svg PUBLIC "-//W3C//DTD SVG 1.1//EN"
 "http://www.w3.org/Graphics/SVG/1.1/DTD/svg11.dtd">
<!-- Generated by graphviz version 2.38.0 (20140413.2041)
 -->
<!-- Title: platform/e&#45;puck/camera_processing.c Pages: 1 -->
<svg width="248pt" height="95pt"
 viewBox="0.00 0.00 248.00 95.00" xmlns="http://www.w3.org/2000/svg" xmlns:xlink="http://www.w3.org/1999/xlink">
<g id="graph0" class="graph" transform="scale(1 1) rotate(0) translate(4 91)">
<title>platform/e&#45;puck/camera_processing.c</title>
<polygon fill="white" stroke="none" points="-4,4 -4,-91 244,-91 244,4 -4,4"/>
<!-- Node1 -->
<g id="node1" class="node"><title>Node1</title>
<polygon fill="#bfbfbf" stroke="black" points="92.5,-56.5 92.5,-86.5 211.5,-86.5 211.5,-56.5 92.5,-56.5"/>
<text text-anchor="start" x="100.5" y="-74.5" font-family="Helvetica,sans-Serif" font-size="10.00">platform/e&#45;puck/camera</text>
<text text-anchor="middle" x="152" y="-63.5" font-family="Helvetica,sans-Serif" font-size="10.00">_processing.c</text>
</g>
<!-- Node2 -->
<g id="node2" class="node"><title>Node2</title>
<g id="a_node2"><a xlink:href="$d6/d91/camera__processing_8h.html" xlink:title="External set of functions to assist the use of the camera. (provided by Shefpuck ) ...">
<polygon fill="white" stroke="black" points="0,-0.5 0,-19.5 110,-19.5 110,-0.5 0,-0.5"/>
<text text-anchor="middle" x="55" y="-7.5" font-family="Helvetica,sans-Serif" font-size="10.00">camera_processing.h</text>
</a>
</g>
</g>
<!-- Node1&#45;&gt;Node2 -->
<g id="edge1" class="edge"><title>Node1&#45;&gt;Node2</title>
<path fill="none" stroke="midnightblue" d="M129.012,-56.3993C113.609,-46.9511 93.4069,-34.5589 78.001,-25.1089"/>
<polygon fill="midnightblue" stroke="midnightblue" points="79.4686,-21.9031 69.1144,-19.6578 75.8084,-27.87 79.4686,-21.9031"/>
</g>
<!-- Node3 -->
<g id="node3" class="node"><title>Node3</title>
<polygon fill="white" stroke="#bfbfbf" points="128.5,-0.5 128.5,-19.5 175.5,-19.5 175.5,-0.5 128.5,-0.5"/>
<text text-anchor="middle" x="152" y="-7.5" font-family="Helvetica,sans-Serif" font-size="10.00">math.h</text>
</g>
<!-- Node1&#45;&gt;Node3 -->
<g id="edge2" class="edge"><title>Node1&#45;&gt;Node3</title>
<path fill="none" stroke="midnightblue" d="M152,-56.3993C152,-48.4664 152,-38.458 152,-29.8583"/>
<polygon fill="midnightblue" stroke="midnightblue" points="155.5,-29.6577 152,-19.6578 148.5,-29.6578 155.5,-29.6577"/>
</g>
<!-- Node4 -->
<g id="node4" class="node"><title>Node4</title>
<polygon fill="white" stroke="#bfbfbf" points="194,-0.5 194,-19.5 240,-19.5 240,-0.5 194,-0.5"/>
<text text-anchor="middle" x="217" y="-7.5" font-family="Helvetica,sans-Serif" font-size="10.00">stdio.h</text>
</g>
<!-- Node1&#45;&gt;Node4 -->
<g id="edge3" class="edge"><title>Node1&#45;&gt;Node4</title>
<path fill="none" stroke="midnightblue" d="M167.404,-56.3993C177.239,-47.3967 189.993,-35.7214 200.105,-26.4652"/>
<polygon fill="midnightblue" stroke="midnightblue" points="202.529,-28.9916 207.542,-19.6578 197.802,-23.8282 202.529,-28.9916"/>
</g>
</g>
</svg>
