<?xml version="1.0" encoding="UTF-8" standalone="no"?>
<!DOCTYPE svg PUBLIC "-//W3C//DTD SVG 1.1//EN"
 "http://www.w3.org/Graphics/SVG/1.1/DTD/svg11.dtd">
<!-- Generated by graphviz version 2.38.0 (20140413.2041)
 -->
<!-- Title: events/events.c Pages: 1 -->
<svg width="554pt" height="352pt"
 viewBox="0.00 0.00 553.50 352.00" xmlns="http://www.w3.org/2000/svg" xmlns:xlink="http://www.w3.org/1999/xlink">
<g id="graph0" class="graph" transform="scale(1 1) rotate(0) translate(4 348)">
<title>events/events.c</title>
<polygon fill="white" stroke="none" points="-4,4 -4,-348 549.5,-348 549.5,4 -4,4"/>
<!-- Node1 -->
<g id="node1" class="node"><title>Node1</title>
<polygon fill="#bfbfbf" stroke="black" points="189,-324.5 189,-343.5 275,-343.5 275,-324.5 189,-324.5"/>
<text text-anchor="middle" x="232" y="-331.5" font-family="Helvetica,sans-Serif" font-size="10.00">events/events.c</text>
</g>
<!-- Node2 -->
<g id="node2" class="node"><title>Node2</title>
<g id="a_node2"><a xlink:href="../../db/dd2/events_8h.html" target="_top" xlink:title="declares functions to create, (un)subscribe, (un)register, and delete events and related handler...">
<polygon fill="white" stroke="black" points="33,-196 33,-215 87,-215 87,-196 33,-196"/>
<text text-anchor="middle" x="60" y="-203" font-family="Helvetica,sans-Serif" font-size="10.00">events.h</text>
</a>
</g>
</g>
<!-- Node1&#45;&gt;Node2 -->
<g id="edge1" class="edge"><title>Node1&#45;&gt;Node2</title>
<path fill="none" stroke="midnightblue" d="M188.913,-330.007C156.88,-325.574 114.186,-314.675 87,-288 69.9952,-271.315 63.6994,-243.696 61.3689,-225.3"/>
<polygon fill="midnightblue" stroke="midnightblue" points="64.8389,-224.824 60.37,-215.218 57.873,-225.514 64.8389,-224.824"/>
</g>
<!-- Node3 -->
<g id="node3" class="node"><title>Node3</title>
<polygon fill="white" stroke="#bfbfbf" points="0,-73 0,-92 56,-92 56,-73 0,-73"/>
<text text-anchor="middle" x="28" y="-80" font-family="Helvetica,sans-Serif" font-size="10.00">stdbool.h</text>
</g>
<!-- Node1&#45;&gt;Node3 -->
<g id="edge22" class="edge"><title>Node1&#45;&gt;Node3</title>
<path fill="none" stroke="midnightblue" d="M188.696,-329.96C152.791,-325.534 101.984,-314.669 66,-288 37.7641,-267.074 33.7115,-254.776 24,-221 12.1628,-179.83 18.8777,-128.848 23.9579,-102.016"/>
<polygon fill="midnightblue" stroke="midnightblue" points="27.4125,-102.592 25.9763,-92.0949 20.553,-101.196 27.4125,-102.592"/>
</g>
<!-- Node10 -->
<g id="node10" class="node"><title>Node10</title>
<g id="a_node10"><a xlink:href="../../dd/de5/process__Management_8h.html" target="_top" xlink:title="It declares functions to manage processes (e.g. task creation, switching, termination) ...">
<polygon fill="white" stroke="black" points="96,-257.5 96,-287.5 204,-287.5 204,-257.5 96,-257.5"/>
<text text-anchor="start" x="104" y="-275.5" font-family="Helvetica,sans-Serif" font-size="10.00">../processes/process</text>
<text text-anchor="middle" x="150" y="-264.5" font-family="Helvetica,sans-Serif" font-size="10.00">_Management.h</text>
</a>
</g>
</g>
<!-- Node1&#45;&gt;Node10 -->
<g id="edge10" class="edge"><title>Node1&#45;&gt;Node10</title>
<path fill="none" stroke="midnightblue" d="M220.251,-324.475C209.146,-316.417 192.065,-304.023 177.527,-293.474"/>
<polygon fill="midnightblue" stroke="midnightblue" points="179.475,-290.563 169.326,-287.523 175.364,-296.229 179.475,-290.563"/>
</g>
<!-- Node12 -->
<g id="node12" class="node"><title>Node12</title>
<g id="a_node12"><a xlink:href="../../df/dbf/system__Timer_8h.html" target="_top" xlink:title="It declares functions to initialise, configure and run the system Timer. ">
<polygon fill="white" stroke="black" points="354,-190.5 354,-220.5 460,-220.5 460,-190.5 354,-190.5"/>
<text text-anchor="start" x="362" y="-208.5" font-family="Helvetica,sans-Serif" font-size="10.00">../processes/system</text>
<text text-anchor="middle" x="407" y="-197.5" font-family="Helvetica,sans-Serif" font-size="10.00">_Timer.h</text>
</a>
</g>
</g>
<!-- Node1&#45;&gt;Node12 -->
<g id="edge16" class="edge"><title>Node1&#45;&gt;Node12</title>
<path fill="none" stroke="midnightblue" d="M236.622,-324.321C245.237,-308.875 265.149,-276.415 290,-257 307.835,-243.067 330.099,-232.205 350.405,-224.185"/>
<polygon fill="midnightblue" stroke="midnightblue" points="351.773,-227.409 359.879,-220.587 349.288,-220.865 351.773,-227.409"/>
</g>
<!-- Node13 -->
<g id="node13" class="node"><title>Node13</title>
<g id="a_node13"><a xlink:href="../../dc/d18/memory_8h.html" target="_top" xlink:title="It declares functions to allocate, free, and copy memory. ">
<polygon fill="white" stroke="black" points="266.5,-196 266.5,-215 335.5,-215 335.5,-196 266.5,-196"/>
<text text-anchor="middle" x="301" y="-203" font-family="Helvetica,sans-Serif" font-size="10.00">../memory.h</text>
</a>
</g>
</g>
<!-- Node1&#45;&gt;Node13 -->
<g id="edge18" class="edge"><title>Node1&#45;&gt;Node13</title>
<path fill="none" stroke="midnightblue" d="M233.549,-324.079C236.375,-309.356 243.282,-279.374 256,-257 263.345,-244.079 274.426,-231.591 283.754,-222.266"/>
<polygon fill="midnightblue" stroke="midnightblue" points="286.279,-224.693 291.057,-215.236 281.425,-219.65 286.279,-224.693"/>
</g>
<!-- Node14 -->
<g id="node14" class="node"><title>Node14</title>
<polygon fill="white" stroke="#bfbfbf" points="298.5,-263 298.5,-282 347.5,-282 347.5,-263 298.5,-263"/>
<text text-anchor="middle" x="323" y="-270" font-family="Helvetica,sans-Serif" font-size="10.00">string.h</text>
</g>
<!-- Node1&#45;&gt;Node14 -->
<g id="edge20" class="edge"><title>Node1&#45;&gt;Node14</title>
<path fill="none" stroke="midnightblue" d="M245.038,-324.475C259.769,-314.843 283.973,-299.017 301.509,-287.552"/>
<polygon fill="midnightblue" stroke="midnightblue" points="303.532,-290.411 309.986,-282.009 299.701,-284.552 303.532,-290.411"/>
</g>
<!-- Node15 -->
<g id="node15" class="node"><title>Node15</title>
<polygon fill="white" stroke="#bfbfbf" points="366,-263 366,-282 414,-282 414,-263 366,-263"/>
<text text-anchor="middle" x="390" y="-270" font-family="Helvetica,sans-Serif" font-size="10.00">stdlib.h</text>
</g>
<!-- Node1&#45;&gt;Node15 -->
<g id="edge21" class="edge"><title>Node1&#45;&gt;Node15</title>
<path fill="none" stroke="midnightblue" d="M257.569,-324.37C282.969,-315.662 322.94,-301.595 357,-288 358.598,-287.362 360.234,-286.694 361.881,-286.009"/>
<polygon fill="midnightblue" stroke="midnightblue" points="363.427,-289.154 371.247,-282.005 360.676,-282.718 363.427,-289.154"/>
</g>
<!-- Node2&#45;&gt;Node3 -->
<g id="edge2" class="edge"><title>Node2&#45;&gt;Node3</title>
<path fill="none" stroke="midnightblue" d="M57.6986,-195.798C52.5324,-176.263 39.9179,-128.565 32.905,-102.047"/>
<polygon fill="midnightblue" stroke="midnightblue" points="36.221,-100.896 30.2805,-92.1232 29.4536,-102.686 36.221,-100.896"/>
</g>
<!-- Node4 -->
<g id="node4" class="node"><title>Node4</title>
<g id="a_node4"><a xlink:href="../../d6/dc2/definitions_8h.html" target="_top" xlink:title="It declares general preprocessor variables and types. ">
<polygon fill="white" stroke="black" points="193,-134.5 193,-153.5 271,-153.5 271,-134.5 193,-134.5"/>
<text text-anchor="middle" x="232" y="-141.5" font-family="Helvetica,sans-Serif" font-size="10.00">../definitions.h</text>
</a>
</g>
</g>
<!-- Node2&#45;&gt;Node4 -->
<g id="edge3" class="edge"><title>Node2&#45;&gt;Node4</title>
<path fill="none" stroke="midnightblue" d="M84.6434,-195.975C114.275,-185.725 164.185,-168.459 197.602,-156.899"/>
<polygon fill="midnightblue" stroke="midnightblue" points="199.096,-160.086 207.402,-153.509 196.808,-153.471 199.096,-160.086"/>
</g>
<!-- Node4&#45;&gt;Node3 -->
<g id="edge4" class="edge"><title>Node4&#45;&gt;Node3</title>
<path fill="none" stroke="midnightblue" d="M195.827,-134.477C161.77,-126.165 109.489,-112.662 65,-98 62.7332,-97.253 60.4034,-96.443 58.069,-95.6009"/>
<polygon fill="midnightblue" stroke="midnightblue" points="59.1885,-92.2826 48.5966,-92.0358 56.7228,-98.8339 59.1885,-92.2826"/>
</g>
<!-- Node5 -->
<g id="node5" class="node"><title>Node5</title>
<polygon fill="white" stroke="#bfbfbf" points="248.5,-73 248.5,-92 297.5,-92 297.5,-73 248.5,-73"/>
<text text-anchor="middle" x="273" y="-80" font-family="Helvetica,sans-Serif" font-size="10.00">stdint.h</text>
</g>
<!-- Node4&#45;&gt;Node5 -->
<g id="edge5" class="edge"><title>Node4&#45;&gt;Node5</title>
<path fill="none" stroke="midnightblue" d="M237.874,-134.475C243.963,-125.638 253.645,-111.589 261.303,-100.475"/>
<polygon fill="midnightblue" stroke="midnightblue" points="264.344,-102.229 267.137,-92.0091 258.58,-98.2575 264.344,-102.229"/>
</g>
<!-- Node6 -->
<g id="node6" class="node"><title>Node6</title>
<polygon fill="white" stroke="#bfbfbf" points="316,-73 316,-92 390,-92 390,-73 316,-73"/>
<text text-anchor="middle" x="353" y="-80" font-family="Helvetica,sans-Serif" font-size="10.00">p30F6014A.h</text>
</g>
<!-- Node4&#45;&gt;Node6 -->
<g id="edge6" class="edge"><title>Node4&#45;&gt;Node6</title>
<path fill="none" stroke="midnightblue" d="M249.336,-134.475C269.553,-124.534 303.187,-107.995 326.642,-96.461"/>
<polygon fill="midnightblue" stroke="midnightblue" points="328.267,-99.5627 335.696,-92.0091 325.178,-93.281 328.267,-99.5627"/>
</g>
<!-- Node7 -->
<g id="node7" class="node"><title>Node7</title>
<polygon fill="white" stroke="#bfbfbf" points="408.5,-67.5 408.5,-97.5 545.5,-97.5 545.5,-67.5 408.5,-67.5"/>
<text text-anchor="start" x="416.5" y="-85.5" font-family="Helvetica,sans-Serif" font-size="10.00">platform/e&#45;puck/library</text>
<text text-anchor="middle" x="477" y="-74.5" font-family="Helvetica,sans-Serif" font-size="10.00">/motor_led/e_epuck_ports.h</text>
</g>
<!-- Node4&#45;&gt;Node7 -->
<g id="edge7" class="edge"><title>Node4&#45;&gt;Node7</title>
<path fill="none" stroke="midnightblue" d="M267.103,-134.475C304.083,-125.494 363.237,-111.128 409.336,-99.9328"/>
<polygon fill="midnightblue" stroke="midnightblue" points="410.367,-103.284 419.258,-97.523 408.715,-96.4819 410.367,-103.284"/>
</g>
<!-- Node8 -->
<g id="node8" class="node"><title>Node8</title>
<g id="a_node8"><a xlink:href="../../d9/d1f/DSPIC30F6014A__HDI_8h.html" target="_top" xlink:title="declares e&#45;puck specific types and preprocessor variables ">
<polygon fill="white" stroke="black" points="74,-67.5 74,-97.5 230,-97.5 230,-67.5 74,-67.5"/>
<text text-anchor="start" x="82" y="-85.5" font-family="Helvetica,sans-Serif" font-size="10.00">platform/e&#45;puck/DSPIC30F6014</text>
<text text-anchor="middle" x="152" y="-74.5" font-family="Helvetica,sans-Serif" font-size="10.00">A_HDI.h</text>
</a>
</g>
</g>
<!-- Node4&#45;&gt;Node8 -->
<g id="edge8" class="edge"><title>Node4&#45;&gt;Node8</title>
<path fill="none" stroke="midnightblue" d="M220.538,-134.475C209.804,-126.492 193.35,-114.254 179.254,-103.77"/>
<polygon fill="midnightblue" stroke="midnightblue" points="180.967,-100.682 170.854,-97.523 176.79,-106.299 180.967,-100.682"/>
</g>
<!-- Node9 -->
<g id="node9" class="node"><title>Node9</title>
<polygon fill="white" stroke="#bfbfbf" points="103.5,-0.5 103.5,-30.5 200.5,-30.5 200.5,-0.5 103.5,-0.5"/>
<text text-anchor="start" x="111.5" y="-18.5" font-family="Helvetica,sans-Serif" font-size="10.00">library/motor_led/e</text>
<text text-anchor="middle" x="152" y="-7.5" font-family="Helvetica,sans-Serif" font-size="10.00">_epuck_ports.h</text>
</g>
<!-- Node8&#45;&gt;Node9 -->
<g id="edge9" class="edge"><title>Node8&#45;&gt;Node9</title>
<path fill="none" stroke="midnightblue" d="M152,-67.396C152,-59.6448 152,-49.8122 152,-40.8601"/>
<polygon fill="midnightblue" stroke="midnightblue" points="155.5,-40.5765 152,-30.5765 148.5,-40.5765 155.5,-40.5765"/>
</g>
<!-- Node10&#45;&gt;Node2 -->
<g id="edge13" class="edge"><title>Node10&#45;&gt;Node2</title>
<path fill="none" stroke="midnightblue" d="M130.471,-257.396C115.518,-246.597 94.9704,-231.756 79.9207,-220.887"/>
<polygon fill="midnightblue" stroke="midnightblue" points="81.935,-218.025 71.7789,-215.007 77.8365,-223.699 81.935,-218.025"/>
</g>
<!-- Node10&#45;&gt;Node3 -->
<g id="edge11" class="edge"><title>Node10&#45;&gt;Node3</title>
<path fill="none" stroke="midnightblue" d="M140.83,-257.369C118.855,-223.506 63.2333,-137.794 39.2692,-100.866"/>
<polygon fill="midnightblue" stroke="midnightblue" points="42.0294,-98.6894 33.6497,-92.2062 36.1574,-102.5 42.0294,-98.6894"/>
</g>
<!-- Node10&#45;&gt;Node4 -->
<g id="edge12" class="edge"><title>Node10&#45;&gt;Node4</title>
<path fill="none" stroke="midnightblue" d="M151.016,-257.374C152.849,-240.142 157.943,-210.748 172,-190 180.672,-177.201 194.206,-166.594 206.228,-158.899"/>
<polygon fill="midnightblue" stroke="midnightblue" points="208.266,-161.758 215.02,-153.595 204.649,-155.764 208.266,-161.758"/>
</g>
<!-- Node11 -->
<g id="node11" class="node"><title>Node11</title>
<g id="a_node11"><a xlink:href="../../d2/dd8/scheduler_8h.html" target="_top" xlink:title="It declares functions to specify a scheduling algorithm. ">
<polygon fill="white" stroke="black" points="181.5,-196 181.5,-215 248.5,-215 248.5,-196 181.5,-196"/>
<text text-anchor="middle" x="215" y="-203" font-family="Helvetica,sans-Serif" font-size="10.00">scheduler.h</text>
</a>
</g>
</g>
<!-- Node10&#45;&gt;Node11 -->
<g id="edge14" class="edge"><title>Node10&#45;&gt;Node11</title>
<path fill="none" stroke="midnightblue" d="M164.104,-257.396C174.44,-247.06 188.476,-233.024 199.191,-222.309"/>
<polygon fill="midnightblue" stroke="midnightblue" points="201.709,-224.741 206.305,-215.195 196.759,-219.791 201.709,-224.741"/>
</g>
<!-- Node11&#45;&gt;Node4 -->
<g id="edge15" class="edge"><title>Node11&#45;&gt;Node4</title>
<path fill="none" stroke="midnightblue" d="M217.436,-195.975C219.859,-187.492 223.656,-174.204 226.765,-163.322"/>
<polygon fill="midnightblue" stroke="midnightblue" points="230.187,-164.086 229.569,-153.509 223.456,-162.163 230.187,-164.086"/>
</g>
<!-- Node12&#45;&gt;Node4 -->
<g id="edge17" class="edge"><title>Node12&#45;&gt;Node4</title>
<path fill="none" stroke="midnightblue" d="M365.527,-190.399C335.42,-180.163 295.148,-166.47 266.73,-156.808"/>
<polygon fill="midnightblue" stroke="midnightblue" points="267.803,-153.476 257.209,-153.571 265.55,-160.104 267.803,-153.476"/>
</g>
<!-- Node13&#45;&gt;Node4 -->
<g id="edge19" class="edge"><title>Node13&#45;&gt;Node4</title>
<path fill="none" stroke="midnightblue" d="M291.114,-195.975C280.354,-186.697 262.929,-171.671 249.779,-160.331"/>
<polygon fill="midnightblue" stroke="midnightblue" points="251.727,-157.389 241.868,-153.509 247.155,-162.69 251.727,-157.389"/>
</g>
</g>
</svg>
