<?xml version="1.0" encoding="UTF-8" standalone="no"?>
<!DOCTYPE svg PUBLIC "-//W3C//DTD SVG 1.1//EN"
 "http://www.w3.org/Graphics/SVG/1.1/DTD/svg11.dtd">
<!-- Generated by graphviz version 2.38.0 (20140413.2041)
 -->
<!-- Title: platform/e&#45;puck/process_Management_HDI.h Pages: 1 -->
<svg width="554pt" height="352pt"
 viewBox="0.00 0.00 553.50 352.00" xmlns="http://www.w3.org/2000/svg" xmlns:xlink="http://www.w3.org/1999/xlink">
<g id="graph0" class="graph" transform="scale(1 1) rotate(0) translate(4 348)">
<title>platform/e&#45;puck/process_Management_HDI.h</title>
<polygon fill="white" stroke="none" points="-4,4 -4,-348 549.5,-348 549.5,4 -4,4"/>
<!-- Node1 -->
<g id="node1" class="node"><title>Node1</title>
<polygon fill="#bfbfbf" stroke="black" points="405.5,-313.5 405.5,-343.5 527.5,-343.5 527.5,-313.5 405.5,-313.5"/>
<text text-anchor="start" x="413.5" y="-331.5" font-family="Helvetica,sans-Serif" font-size="10.00">platform/e&#45;puck/process</text>
<text text-anchor="middle" x="466.5" y="-320.5" font-family="Helvetica,sans-Serif" font-size="10.00">_Management_HDI.h</text>
</g>
<!-- Node2 -->
<g id="node2" class="node"><title>Node2</title>
<g id="a_node2"><a xlink:href="$d2/dbd/data_8h.html" xlink:title="It declares functions to manage process lists and related structs. ">
<polygon fill="white" stroke="black" points="353.5,-246.5 353.5,-276.5 455.5,-276.5 455.5,-246.5 353.5,-246.5"/>
<text text-anchor="start" x="361.5" y="-264.5" font-family="Helvetica,sans-Serif" font-size="10.00">../../../os/processes</text>
<text text-anchor="middle" x="404.5" y="-253.5" font-family="Helvetica,sans-Serif" font-size="10.00">/data.h</text>
</a>
</g>
</g>
<!-- Node1&#45;&gt;Node2 -->
<g id="edge1" class="edge"><title>Node1&#45;&gt;Node2</title>
<path fill="none" stroke="midnightblue" d="M453.047,-313.396C444.841,-304.793 434.189,-293.626 424.955,-283.945"/>
<polygon fill="midnightblue" stroke="midnightblue" points="427.362,-281.397 417.927,-276.577 422.296,-286.228 427.362,-281.397"/>
</g>
<!-- Node3 -->
<g id="node3" class="node"><title>Node3</title>
<polygon fill="white" stroke="#bfbfbf" points="489.5,-73 489.5,-92 545.5,-92 545.5,-73 489.5,-73"/>
<text text-anchor="middle" x="517.5" y="-80" font-family="Helvetica,sans-Serif" font-size="10.00">stdbool.h</text>
</g>
<!-- Node1&#45;&gt;Node3 -->
<g id="edge15" class="edge"><title>Node1&#45;&gt;Node3</title>
<path fill="none" stroke="midnightblue" d="M471.784,-313.369C482.428,-284.128 506.223,-214.642 515.5,-154 518.159,-136.618 518.464,-116.552 518.22,-102.283"/>
<polygon fill="midnightblue" stroke="midnightblue" points="521.717,-102.143 517.94,-92.2448 514.72,-102.338 521.717,-102.143"/>
</g>
<!-- Node2&#45;&gt;Node3 -->
<g id="edge2" class="edge"><title>Node2&#45;&gt;Node3</title>
<path fill="none" stroke="midnightblue" d="M430.438,-246.391C444.572,-237.56 461.394,-225.014 472.5,-210 497.134,-176.698 509.252,-128.676 514.36,-102.416"/>
<polygon fill="midnightblue" stroke="midnightblue" points="517.852,-102.768 516.185,-92.3057 510.964,-101.525 517.852,-102.768"/>
</g>
<!-- Node4 -->
<g id="node4" class="node"><title>Node4</title>
<g id="a_node4"><a xlink:href="$d6/dc2/definitions_8h.html" xlink:title="It declares general preprocessor variables and types. ">
<polygon fill="white" stroke="black" points="192,-134.5 192,-153.5 293,-153.5 293,-134.5 192,-134.5"/>
<text text-anchor="middle" x="242.5" y="-141.5" font-family="Helvetica,sans-Serif" font-size="10.00">../../os/definitions.h</text>
</a>
</g>
</g>
<!-- Node2&#45;&gt;Node4 -->
<g id="edge3" class="edge"><title>Node2&#45;&gt;Node4</title>
<path fill="none" stroke="midnightblue" d="M353.338,-257.479C318.919,-252.589 275.43,-240.317 250.5,-210 240.015,-197.25 238.85,-178.055 239.806,-163.826"/>
<polygon fill="midnightblue" stroke="midnightblue" points="243.305,-164.014 240.889,-153.698 236.345,-163.269 243.305,-164.014"/>
</g>
<!-- Node10 -->
<g id="node10" class="node"><title>Node10</title>
<g id="a_node10"><a xlink:href="$db/dd2/events_8h.html" xlink:title="declares functions to create, (un)subscribe, (un)register, and delete events and related handler...">
<polygon fill="white" stroke="black" points="345.5,-190.5 345.5,-209.5 463.5,-209.5 463.5,-190.5 345.5,-190.5"/>
<text text-anchor="middle" x="404.5" y="-197.5" font-family="Helvetica,sans-Serif" font-size="10.00">../../os/events/events.h</text>
</a>
</g>
</g>
<!-- Node2&#45;&gt;Node10 -->
<g id="edge10" class="edge"><title>Node2&#45;&gt;Node10</title>
<path fill="none" stroke="midnightblue" d="M404.5,-246.399C404.5,-238.466 404.5,-228.458 404.5,-219.858"/>
<polygon fill="midnightblue" stroke="midnightblue" points="408,-219.658 404.5,-209.658 401,-219.658 408,-219.658"/>
</g>
<!-- Node11 -->
<g id="node11" class="node"><title>Node11</title>
<g id="a_node11"><a xlink:href="$d2/dd8/scheduler_8h.html" xlink:title="It declares functions to specify a scheduling algorithm. ">
<polygon fill="white" stroke="black" points="260,-190.5 260,-209.5 327,-209.5 327,-190.5 260,-190.5"/>
<text text-anchor="middle" x="293.5" y="-197.5" font-family="Helvetica,sans-Serif" font-size="10.00">scheduler.h</text>
</a>
</g>
</g>
<!-- Node2&#45;&gt;Node11 -->
<g id="edge13" class="edge"><title>Node2&#45;&gt;Node11</title>
<path fill="none" stroke="midnightblue" d="M378.195,-246.399C360.236,-236.773 336.576,-224.09 318.829,-214.577"/>
<polygon fill="midnightblue" stroke="midnightblue" points="320.119,-211.297 309.651,-209.658 316.812,-217.467 320.119,-211.297"/>
</g>
<!-- Node4&#45;&gt;Node3 -->
<g id="edge4" class="edge"><title>Node4&#45;&gt;Node3</title>
<path fill="none" stroke="midnightblue" d="M293.285,-136.207C341.913,-129.046 417.054,-116.257 480.5,-98 483.084,-97.2565 485.738,-96.4034 488.382,-95.4913"/>
<polygon fill="midnightblue" stroke="midnightblue" points="489.601,-98.7723 497.765,-92.0197 487.172,-92.2073 489.601,-98.7723"/>
</g>
<!-- Node5 -->
<g id="node5" class="node"><title>Node5</title>
<polygon fill="white" stroke="#bfbfbf" points="0,-73 0,-92 49,-92 49,-73 0,-73"/>
<text text-anchor="middle" x="24.5" y="-80" font-family="Helvetica,sans-Serif" font-size="10.00">stdint.h</text>
</g>
<!-- Node4&#45;&gt;Node5 -->
<g id="edge5" class="edge"><title>Node4&#45;&gt;Node5</title>
<path fill="none" stroke="midnightblue" d="M199.181,-134.496C161.532,-126.612 105.77,-113.743 58.5,-98 56.5822,-97.3613 54.6215,-96.6602 52.6576,-95.9218"/>
<polygon fill="midnightblue" stroke="midnightblue" points="53.5781,-92.5196 42.9944,-92.0344 50.9656,-99.0138 53.5781,-92.5196"/>
</g>
<!-- Node6 -->
<g id="node6" class="node"><title>Node6</title>
<polygon fill="white" stroke="#bfbfbf" points="67.5,-73 67.5,-92 141.5,-92 141.5,-73 67.5,-73"/>
<text text-anchor="middle" x="104.5" y="-80" font-family="Helvetica,sans-Serif" font-size="10.00">p30F6014A.h</text>
</g>
<!-- Node4&#45;&gt;Node6 -->
<g id="edge6" class="edge"><title>Node4&#45;&gt;Node6</title>
<path fill="none" stroke="midnightblue" d="M222.728,-134.475C199.364,-124.401 160.286,-107.553 133.497,-96.0023"/>
<polygon fill="midnightblue" stroke="midnightblue" points="134.804,-92.7544 124.235,-92.0091 132.032,-99.1824 134.804,-92.7544"/>
</g>
<!-- Node7 -->
<g id="node7" class="node"><title>Node7</title>
<polygon fill="white" stroke="#bfbfbf" points="160,-67.5 160,-97.5 297,-97.5 297,-67.5 160,-67.5"/>
<text text-anchor="start" x="168" y="-85.5" font-family="Helvetica,sans-Serif" font-size="10.00">platform/e&#45;puck/library</text>
<text text-anchor="middle" x="228.5" y="-74.5" font-family="Helvetica,sans-Serif" font-size="10.00">/motor_led/e_epuck_ports.h</text>
</g>
<!-- Node4&#45;&gt;Node7 -->
<g id="edge7" class="edge"><title>Node4&#45;&gt;Node7</title>
<path fill="none" stroke="midnightblue" d="M240.494,-134.475C238.828,-127.396 236.375,-116.97 234.121,-107.39"/>
<polygon fill="midnightblue" stroke="midnightblue" points="237.497,-106.455 231.8,-97.523 230.683,-108.059 237.497,-106.455"/>
</g>
<!-- Node8 -->
<g id="node8" class="node"><title>Node8</title>
<g id="a_node8"><a xlink:href="$d9/d1f/DSPIC30F6014A__HDI_8h.html" xlink:title="declares e&#45;puck specific types and preprocessor variables ">
<polygon fill="white" stroke="black" points="315.5,-67.5 315.5,-97.5 471.5,-97.5 471.5,-67.5 315.5,-67.5"/>
<text text-anchor="start" x="323.5" y="-85.5" font-family="Helvetica,sans-Serif" font-size="10.00">platform/e&#45;puck/DSPIC30F6014</text>
<text text-anchor="middle" x="393.5" y="-74.5" font-family="Helvetica,sans-Serif" font-size="10.00">A_HDI.h</text>
</a>
</g>
</g>
<!-- Node4&#45;&gt;Node8 -->
<g id="edge8" class="edge"><title>Node4&#45;&gt;Node8</title>
<path fill="none" stroke="midnightblue" d="M264.135,-134.475C286.019,-125.852 320.502,-112.264 348.365,-101.285"/>
<polygon fill="midnightblue" stroke="midnightblue" points="349.892,-104.445 357.912,-97.523 347.325,-97.9328 349.892,-104.445"/>
</g>
<!-- Node9 -->
<g id="node9" class="node"><title>Node9</title>
<polygon fill="white" stroke="#bfbfbf" points="345,-0.5 345,-30.5 442,-30.5 442,-0.5 345,-0.5"/>
<text text-anchor="start" x="353" y="-18.5" font-family="Helvetica,sans-Serif" font-size="10.00">library/motor_led/e</text>
<text text-anchor="middle" x="393.5" y="-7.5" font-family="Helvetica,sans-Serif" font-size="10.00">_epuck_ports.h</text>
</g>
<!-- Node8&#45;&gt;Node9 -->
<g id="edge9" class="edge"><title>Node8&#45;&gt;Node9</title>
<path fill="none" stroke="midnightblue" d="M393.5,-67.396C393.5,-59.6448 393.5,-49.8122 393.5,-40.8601"/>
<polygon fill="midnightblue" stroke="midnightblue" points="397,-40.5765 393.5,-30.5765 390,-40.5765 397,-40.5765"/>
</g>
<!-- Node10&#45;&gt;Node3 -->
<g id="edge11" class="edge"><title>Node10&#45;&gt;Node3</title>
<path fill="none" stroke="midnightblue" d="M412.993,-190.319C431.89,-171.004 477.645,-124.237 501.863,-99.4827"/>
<polygon fill="midnightblue" stroke="midnightblue" points="504.417,-101.878 508.908,-92.282 499.413,-96.9824 504.417,-101.878"/>
</g>
<!-- Node10&#45;&gt;Node4 -->
<g id="edge12" class="edge"><title>Node10&#45;&gt;Node4</title>
<path fill="none" stroke="midnightblue" d="M378.831,-190.444C351.577,-181.359 308.316,-166.939 277.849,-156.783"/>
<polygon fill="midnightblue" stroke="midnightblue" points="278.643,-153.358 268.049,-153.516 276.429,-159.999 278.643,-153.358"/>
</g>
<!-- Node11&#45;&gt;Node4 -->
<g id="edge14" class="edge"><title>Node11&#45;&gt;Node4</title>
<path fill="none" stroke="midnightblue" d="M285.078,-190.083C277.652,-182.22 266.648,-170.569 257.688,-161.081"/>
<polygon fill="midnightblue" stroke="midnightblue" points="260.176,-158.618 250.765,-153.751 255.087,-163.424 260.176,-158.618"/>
</g>
</g>
</svg>
