<?xml version="1.0" encoding="UTF-8" standalone="no"?>
<!DOCTYPE svg PUBLIC "-//W3C//DTD SVG 1.1//EN"
 "http://www.w3.org/Graphics/SVG/1.1/DTD/svg11.dtd">
<!-- Generated by graphviz version 2.38.0 (20140413.2041)
 -->
<!-- Title: I/O Management Pages: 1 -->
<svg width="219pt" height="180pt"
 viewBox="0.00 0.00 219.00 180.00" xmlns="http://www.w3.org/2000/svg" xmlns:xlink="http://www.w3.org/1999/xlink">
<g id="graph0" class="graph" transform="scale(1 1) rotate(0) translate(4 176)">
<title>I/O Management</title>
<polygon fill="white" stroke="none" points="-4,4 -4,-176 215,-176 215,4 -4,4"/>
<!-- Node4 -->
<g id="node1" class="node"><title>Node4</title>
<g id="a_node1"><a xlink:href="../../db/d36/group__remotecontrol.html" target="_top" xlink:title="Functions to receive data from a remote control. ">
<polygon fill="white" stroke="black" points="125,-152.5 125,-171.5 211,-171.5 211,-152.5 125,-152.5"/>
<text text-anchor="middle" x="168" y="-159.5" font-family="Helvetica,sans-Serif" font-size="10.00">Remote Control</text>
</a>
</g>
</g>
<!-- Node1 -->
<g id="node2" class="node"><title>Node1</title>
<g id="a_node2"><a xlink:href="../../dc/d90/group__camera.html" target="_top" xlink:title="The camera module is used to retrieve raw camera data, process the incoming frames, and emits the result as events. ">
<polygon fill="white" stroke="black" points="125,-114.5 125,-133.5 211,-133.5 211,-114.5 125,-114.5"/>
<text text-anchor="middle" x="168" y="-121.5" font-family="Helvetica,sans-Serif" font-size="10.00">Camera Module</text>
</a>
</g>
</g>
<!-- Node5 -->
<g id="node3" class="node"><title>Node5</title>
<g id="a_node3"><a xlink:href="../../db/def/group__uart.html" target="_top" xlink:title="Functions to control the message flow of the UART interface. ">
<polygon fill="white" stroke="black" points="135.5,-76.5 135.5,-95.5 200.5,-95.5 200.5,-76.5 135.5,-76.5"/>
<text text-anchor="middle" x="168" y="-83.5" font-family="Helvetica,sans-Serif" font-size="10.00">UART 1&amp;2</text>
</a>
</g>
</g>
<!-- Node2 -->
<g id="node4" class="node"><title>Node2</title>
<g id="a_node4"><a xlink:href="../../d3/df5/group__i2c.html" target="_top" xlink:title="Functions to read from and write on the I2C interface. ">
<polygon fill="white" stroke="black" points="131.5,-38.5 131.5,-57.5 204.5,-57.5 204.5,-38.5 131.5,-38.5"/>
<text text-anchor="middle" x="168" y="-45.5" font-family="Helvetica,sans-Serif" font-size="10.00">I2C interface</text>
</a>
</g>
</g>
<!-- Node0 -->
<g id="node5" class="node"><title>Node0</title>
<polygon fill="#bfbfbf" stroke="black" points="0,-76.5 0,-95.5 89,-95.5 89,-76.5 0,-76.5"/>
<text text-anchor="middle" x="44.5" y="-83.5" font-family="Helvetica,sans-Serif" font-size="10.00">I/O Management</text>
</g>
<!-- Node0&#45;&gt;Node4 -->
<g id="edge4" class="edge"><title>Node0&#45;&gt;Node4</title>
<path fill="none" stroke="black" d="M65.3077,-101.882C80.9604,-114.01 103.653,-130.68 125,-143 130.822,-146.36 137.346,-149.561 143.483,-152.345"/>
<polygon fill="black" stroke="black" points="67.4169,-99.0879 57.3894,-95.6673 63.0952,-104.595 67.4169,-99.0879"/>
</g>
<!-- Node0&#45;&gt;Node1 -->
<g id="edge1" class="edge"><title>Node0&#45;&gt;Node1</title>
<path fill="none" stroke="black" d="M86.044,-98.6804C102.461,-103.815 121.099,-109.644 136.35,-114.414"/>
<polygon fill="black" stroke="black" points="86.7485,-95.2336 76.1596,-95.589 84.6589,-101.914 86.7485,-95.2336"/>
</g>
<!-- Node0&#45;&gt;Node5 -->
<g id="edge5" class="edge"><title>Node0&#45;&gt;Node5</title>
<path fill="none" stroke="black" d="M99.2124,-86C111.508,-86 124.193,-86 135.216,-86"/>
<polygon fill="black" stroke="black" points="99.0211,-82.5001 89.0211,-86 99.0211,-89.5001 99.0211,-82.5001"/>
</g>
<!-- Node0&#45;&gt;Node2 -->
<g id="edge2" class="edge"><title>Node0&#45;&gt;Node2</title>
<path fill="none" stroke="black" d="M86.044,-73.3196C102.461,-68.1852 121.099,-62.3559 136.35,-57.5859"/>
<polygon fill="black" stroke="black" points="84.6589,-70.0855 76.1596,-76.411 86.7485,-76.7664 84.6589,-70.0855"/>
</g>
<!-- Node3 -->
<g id="node6" class="node"><title>Node3</title>
<g id="a_node6"><a xlink:href="../../dd/daa/group__motors.html" target="_top" xlink:title="Functions to control the two stepper motors of the e&#45;puck. ">
<polygon fill="white" stroke="black" points="130,-0.5 130,-19.5 206,-19.5 206,-0.5 130,-0.5"/>
<text text-anchor="middle" x="168" y="-7.5" font-family="Helvetica,sans-Serif" font-size="10.00">Motor Control</text>
</a>
</g>
</g>
<!-- Node0&#45;&gt;Node3 -->
<g id="edge3" class="edge"><title>Node0&#45;&gt;Node3</title>
<path fill="none" stroke="black" d="M65.3077,-70.1182C80.9604,-57.9896 103.653,-41.3198 125,-29 130.822,-25.6397 137.346,-22.4389 143.483,-19.6548"/>
<polygon fill="black" stroke="black" points="63.0952,-67.4054 57.3894,-76.3327 67.4169,-72.9121 63.0952,-67.4054"/>
</g>
</g>
</svg>
