<?xml version="1.0" encoding="UTF-8" standalone="no"?>
<!DOCTYPE svg PUBLIC "-//W3C//DTD SVG 1.1//EN"
 "http://www.w3.org/Graphics/SVG/1.1/DTD/svg11.dtd">
<!-- Generated by graphviz version 2.38.0 (20140413.2041)
 -->
<!-- Title: I/O Management Pages: 1 -->
<svg width="349pt" height="487pt"
 viewBox="0.00 0.00 349.00 486.71" xmlns="http://www.w3.org/2000/svg" xmlns:xlink="http://www.w3.org/1999/xlink">
<g id="graph0" class="graph" transform="scale(1 1) rotate(0) translate(4 482.714)">
<title>I/O Management</title>
<polygon fill="white" stroke="none" points="-4,4 -4,-482.714 345,-482.714 345,4 -4,4"/>
<!-- Node4 -->
<g id="node1" class="node"><title>Node4</title>
<g id="a_node1"><a xlink:href="../../db/d36/group__remotecontrol.html" target="_top" xlink:title="Functions to receive data from a remote control. ">
<polygon fill="white" stroke="black" points="237,-444.25 237,-463.25 323,-463.25 323,-444.25 237,-444.25"/>
<text text-anchor="middle" x="280" y="-451.25" font-family="Helvetica,sans-Serif" font-size="10.00">Remote Control</text>
</a>
</g>
</g>
<!-- Node6 -->
<g id="node2" class="node"><title>Node6</title>
<g id="a_node2"><a xlink:href="../../d9/dc8/group__epuck.html" target="_top" xlink:title="Modules and functions that are needed to use the e&#45;puck platform ( http://www.gctronic.com/doc/index.php/E&#45;Puck ) ">
<polygon fill="white" stroke="black" points="219,-282.25 219,-301.25 341,-301.25 341,-282.25 219,-282.25"/>
<text text-anchor="middle" x="280" y="-289.25" font-family="Helvetica,sans-Serif" font-size="10.00">e&#45;puck specific modules</text>
</a>
</g>
</g>
<!-- Node1 -->
<g id="node3" class="node"><title>Node1</title>
<g id="a_node3"><a xlink:href="../../dc/d90/group__camera.html" target="_top" xlink:title="The camera module is used to retrieve raw camera data, process the incoming frames, and emits the result as events. ">
<polygon fill="white" stroke="black" points="237,-233.25 237,-252.25 323,-252.25 323,-233.25 237,-233.25"/>
<text text-anchor="middle" x="280" y="-240.25" font-family="Helvetica,sans-Serif" font-size="10.00">Camera Module</text>
</a>
</g>
</g>
<!-- Node5 -->
<g id="node4" class="node"><title>Node5</title>
<g id="a_node4"><a xlink:href="../../db/def/group__uart.html" target="_top" xlink:title="Functions to control the message flow of the UART interface. ">
<polygon fill="white" stroke="black" points="247.5,-171.25 247.5,-190.25 312.5,-190.25 312.5,-171.25 247.5,-171.25"/>
<text text-anchor="middle" x="280" y="-178.25" font-family="Helvetica,sans-Serif" font-size="10.00">UART 1&amp;2</text>
</a>
</g>
</g>
<!-- Node2 -->
<g id="node5" class="node"><title>Node2</title>
<g id="a_node5"><a xlink:href="../../d3/df5/group__i2c.html" target="_top" xlink:title="Functions to read from and write on the I2C interface. ">
<polygon fill="white" stroke="black" points="243.5,-82.2501 243.5,-101.25 316.5,-101.25 316.5,-82.2501 243.5,-82.2501"/>
<text text-anchor="middle" x="280" y="-89.2501" font-family="Helvetica,sans-Serif" font-size="10.00">I2C interface</text>
</a>
</g>
</g>
<!-- Node0 -->
<g id="node6" class="node"><title>Node0</title>
<polygon fill="#bfbfbf" stroke="black" points="0,-190.25 0,-209.25 89,-209.25 89,-190.25 0,-190.25"/>
<text text-anchor="middle" x="44.5" y="-197.25" font-family="Helvetica,sans-Serif" font-size="10.00">I/O Management</text>
</g>
<!-- Node0&#45;&gt;Node4 -->
<g id="edge4" class="edge"><title>Node0&#45;&gt;Node4</title>
<path fill="none" stroke="black" d="M47.1174,-219.607C52.076,-274.942 69.0875,-428.786 107,-458.75 149.539,-492.371 218.216,-475.805 254.586,-463.316"/>
<polygon fill="black" stroke="black" points="50.5815,-219.039 46.239,-209.375 43.6072,-219.637 50.5815,-219.039"/>
</g>
<!-- Node0&#45;&gt;Node4 -->
<g id="edge10" class="edge"><title>Node0&#45;&gt;Node4</title>
<path fill="none" stroke="darkgreen" stroke-dasharray="5,2" d="M45.0405,-209.644C44.04,-243.706 45.6327,-357.129 107,-413.75 138.326,-442.653 159.512,-422.983 201,-432.75 215.606,-436.189 231.629,-440.422 245.332,-444.184"/>
<text text-anchor="middle" x="154" y="-446.75" font-family="Helvetica,sans-Serif" font-size="10.00">remoteControl.c</text>
<text text-anchor="middle" x="154" y="-435.75" font-family="Helvetica,sans-Serif" font-size="10.00">remoteControl_HDI.c</text>
</g>
<!-- Node0&#45;&gt;Node6 -->
<g id="edge7" class="edge"><title>Node0&#45;&gt;Node6</title>
<path fill="none" stroke="darkgreen" stroke-dasharray="5,2" d="M51.7206,-209.434C61.5595,-223.867 82.1672,-250.716 107,-263.75 141.289,-281.748 184.289,-288.748 218.717,-291.248"/>
<text text-anchor="middle" x="154" y="-401.75" font-family="Helvetica,sans-Serif" font-size="10.00">camera.c</text>
<text text-anchor="middle" x="154" y="-390.75" font-family="Helvetica,sans-Serif" font-size="10.00">i2c.c</text>
<text text-anchor="middle" x="154" y="-379.75" font-family="Helvetica,sans-Serif" font-size="10.00">i2c_data.c</text>
<text text-anchor="middle" x="154" y="-368.75" font-family="Helvetica,sans-Serif" font-size="10.00">i2c_HDI.c</text>
<text text-anchor="middle" x="154" y="-357.75" font-family="Helvetica,sans-Serif" font-size="10.00">io_HDI.c</text>
<text text-anchor="middle" x="154" y="-346.75" font-family="Helvetica,sans-Serif" font-size="10.00">motors.c</text>
<text text-anchor="middle" x="154" y="-335.75" font-family="Helvetica,sans-Serif" font-size="10.00">motors_HDI.c</text>
<text text-anchor="middle" x="154" y="-324.75" font-family="Helvetica,sans-Serif" font-size="10.00">remoteControl.c</text>
<text text-anchor="middle" x="154" y="-313.75" font-family="Helvetica,sans-Serif" font-size="10.00">remoteControl_HDI.c</text>
<text text-anchor="middle" x="154" y="-302.75" font-family="Helvetica,sans-Serif" font-size="10.00">uart.c</text>
<text text-anchor="middle" x="154" y="-291.75" font-family="Helvetica,sans-Serif" font-size="10.00">...</text>
</g>
<!-- Node0&#45;&gt;Node1 -->
<g id="edge1" class="edge"><title>Node0&#45;&gt;Node1</title>
<path fill="none" stroke="black" d="M62.3039,-216.645C73.8038,-226.958 89.9993,-239.195 107,-244.75 149.579,-258.664 201.312,-255.586 236.854,-250.651"/>
<polygon fill="black" stroke="black" points="64.4971,-213.903 54.8158,-209.599 59.7001,-219.001 64.4971,-213.903"/>
</g>
<!-- Node0&#45;&gt;Node1 -->
<g id="edge6" class="edge"><title>Node0&#45;&gt;Node1</title>
<path fill="none" stroke="darkgreen" stroke-dasharray="5,2" d="M89.1456,-207.788C131.385,-215.566 194.987,-227.279 236.749,-234.969"/>
<text text-anchor="middle" x="154" y="-229.75" font-family="Helvetica,sans-Serif" font-size="10.00">camera.c</text>
</g>
<!-- Node0&#45;&gt;Node5 -->
<g id="edge5" class="edge"><title>Node0&#45;&gt;Node5</title>
<path fill="none" stroke="black" d="M99.1906,-195.381C144.944,-191.658 209.157,-186.433 247.181,-183.339"/>
<polygon fill="black" stroke="black" points="98.8288,-191.899 89.1456,-196.199 99.3966,-198.876 98.8288,-191.899"/>
</g>
<!-- Node0&#45;&gt;Node5 -->
<g id="edge11" class="edge"><title>Node0&#45;&gt;Node5</title>
<path fill="none" stroke="darkgreen" stroke-dasharray="5,2" d="M56.3304,-190.147C67.9276,-180.562 87.3307,-166.461 107,-160.75 156.945,-146.249 217.935,-160.481 252.234,-171.233"/>
<text text-anchor="middle" x="154" y="-174.75" font-family="Helvetica,sans-Serif" font-size="10.00">uart.c</text>
<text text-anchor="middle" x="154" y="-163.75" font-family="Helvetica,sans-Serif" font-size="10.00">uart_HDI.c</text>
</g>
<!-- Node0&#45;&gt;Node2 -->
<g id="edge2" class="edge"><title>Node0&#45;&gt;Node2</title>
<path fill="none" stroke="black" d="M62.4393,-183.166C74.1592,-172.433 90.5518,-158.82 107,-149.75 119.694,-142.75 202.996,-115.85 248.849,-101.272"/>
<polygon fill="black" stroke="black" points="60.0131,-180.643 55.1288,-190.045 64.8101,-185.741 60.0131,-180.643"/>
</g>
<!-- Node0&#45;&gt;Node2 -->
<g id="edge8" class="edge"><title>Node0&#45;&gt;Node2</title>
<path fill="none" stroke="darkgreen" stroke-dasharray="5,2" d="M47.0378,-189.991C51.3929,-166.069 66.2516,-104.655 107,-79.7501 153.485,-51.3395 220.808,-69.3904 255.846,-82.2"/>
<text text-anchor="middle" x="154" y="-104.75" font-family="Helvetica,sans-Serif" font-size="10.00">i2c.c</text>
<text text-anchor="middle" x="154" y="-93.7501" font-family="Helvetica,sans-Serif" font-size="10.00">i2c_data.c</text>
<text text-anchor="middle" x="154" y="-82.7501" font-family="Helvetica,sans-Serif" font-size="10.00">i2c_HDI.c</text>
</g>
<!-- Node3 -->
<g id="node7" class="node"><title>Node3</title>
<g id="a_node7"><a xlink:href="../../dd/daa/group__motors.html" target="_top" xlink:title="Functions to control the two stepper motors of the e&#45;puck. ">
<polygon fill="white" stroke="black" points="242,-28.2501 242,-47.2501 318,-47.2501 318,-28.2501 242,-28.2501"/>
<text text-anchor="middle" x="280" y="-35.2501" font-family="Helvetica,sans-Serif" font-size="10.00">Motor Control</text>
</a>
</g>
</g>
<!-- Node0&#45;&gt;Node3 -->
<g id="edge3" class="edge"><title>Node0&#45;&gt;Node3</title>
<path fill="none" stroke="black" d="M48.3118,-179.97C53.7656,-149.498 68.8058,-91.5809 107,-62.7501 127.652,-47.1612 197.826,-41.2391 241.902,-39.028"/>
<polygon fill="black" stroke="black" points="44.8009,-179.758 46.6627,-190.188 51.7115,-180.873 44.8009,-179.758"/>
</g>
<!-- Node0&#45;&gt;Node3 -->
<g id="edge9" class="edge"><title>Node0&#45;&gt;Node3</title>
<path fill="none" stroke="darkgreen" stroke-dasharray="5,2" d="M45.1999,-189.919C44.8322,-158.149 48.5097,-57.8714 107,-15.7501 154.148,18.2032 227.966,-11.543 261.443,-28.2399"/>
<text text-anchor="middle" x="154" y="-29.7501" font-family="Helvetica,sans-Serif" font-size="10.00">motors.c</text>
<text text-anchor="middle" x="154" y="-18.7501" font-family="Helvetica,sans-Serif" font-size="10.00">motors_HDI.c</text>
</g>
</g>
</svg>
