<?xml version="1.0" encoding="UTF-8" standalone="no"?>
<!DOCTYPE svg PUBLIC "-//W3C//DTD SVG 1.1//EN"
 "http://www.w3.org/Graphics/SVG/1.1/DTD/svg11.dtd">
<!-- Generated by graphviz version 2.38.0 (20140413.2041)
 -->
<!-- Title: io/io.h Pages: 1 -->
<!--zoomable 162 -->
<svg id="main" version="1.1" xmlns="http://www.w3.org/2000/svg" xmlns:xlink="http://www.w3.org/1999/xlink" xml:space="preserve" onload="init(evt)">
<style type="text/css"><![CDATA[
.edge:hover path { stroke: red; }
.edge:hover polygon { stroke: red; fill: red; }
]]></style>
<script type="text/javascript"><![CDATA[
var edges = document.getElementsByTagName('g');
if (edges && edges.length) {
  for (var i=0;i<edges.length;i++) {
    if (edges[i].id.substr(0,4)=='edge') {
      edges[i].setAttribute('class','edge');
    }
  }
}
]]></script>
        <defs>
                <circle id="rim" cx="0" cy="0" r="7"/>
                <circle id="rim2" cx="0" cy="0" r="3.5"/>
                <g id="zoomPlus">
                        <use xlink:href="#rim" fill="#404040">
                                <set attributeName="fill" to="#808080" begin="zoomplus.mouseover" end="zoomplus.mouseout"/>
                        </use>
                        <path d="M-4,0h8M0,-4v8" fill="none" stroke="white" stroke-width="1.5" pointer-events="none"/>
                </g>
                <g id="zoomMin">
                        <use xlink:href="#rim" fill="#404040">
                                <set attributeName="fill" to="#808080" begin="zoomminus.mouseover" end="zoomminus.mouseout"/>
                        </use>
                        <path d="M-4,0h8" fill="none" stroke="white" stroke-width="1.5" pointer-events="none"/>
                </g>
                <g id="dirArrow">
                        <path fill="none" stroke="white" stroke-width="1.5" d="M0,-3.0v7 M-2.5,-0.5L0,-3.0L2.5,-0.5"/>
                </g>
               <g id="resetDef">
                       <use xlink:href="#rim2" fill="#404040">
                               <set attributeName="fill" to="#808080" begin="reset.mouseover" end="reset.mouseout"/>
                       </use>
               </g>
        </defs>

<script type="text/javascript">
var viewWidth = 886;
var viewHeight = 162;
var sectionId = 'dynsection-1';
</script>
<script xlink:href="../../svgpan.js"/>
<svg id="graph" class="graph">
<g id="viewport">
<title>io/io.h</title>
<polygon fill="white" stroke="none" points="-4,4 -4,-158 882,-158 882,4 -4,4"/>
<!-- Node1 -->
<g id="node1" class="node"><title>Node1</title>
<polygon fill="#bfbfbf" stroke="black" points="340,-134.5 340,-153.5 383,-153.5 383,-134.5 340,-134.5"/>
<text text-anchor="middle" x="361.5" y="-141.5" font-family="Helvetica,sans-Serif" font-size="10.00">io/io.h</text>
</g>
<!-- Node2 -->
<g id="node2" class="node"><title>Node2</title>
<g id="a_node2"><a xlink:href="../../d4/dfd/system_8c.html" target="_top" xlink:title="defines functions to initialise and start OpenSwarm. ">
<polygon fill="white" stroke="black" points="0,-73 0,-92 57,-92 57,-73 0,-73"/>
<text text-anchor="middle" x="28.5" y="-80" font-family="Helvetica,sans-Serif" font-size="10.00">system.c</text>
</a>
</g>
</g>
<!-- Node1&#45;&gt;Node2 -->
<g id="edge1" class="edge"><title>Node1&#45;&gt;Node2</title>
<path fill="none" stroke="midnightblue" d="M329.891,-140.52C275.237,-135.72 159.866,-123.324 65.5,-98 59.6361,-96.4264 53.4316,-94.2212 47.8135,-92.0047"/>
<polygon fill="midnightblue" stroke="midnightblue" points="329.727,-144.019 339.988,-141.381 330.322,-137.044 329.727,-144.019"/>
</g>
<!-- Node3 -->
<g id="node3" class="node"><title>Node3</title>
<g id="a_node3"><a xlink:href="../../df/d0a/io_8c.html" target="_top" xlink:title="It defines functions to control the IO timer and to (un)register IO Handler. ">
<polygon fill="white" stroke="black" points="75,-73 75,-92 118,-92 118,-73 75,-73"/>
<text text-anchor="middle" x="96.5" y="-80" font-family="Helvetica,sans-Serif" font-size="10.00">io/io.c</text>
</a>
</g>
</g>
<!-- Node1&#45;&gt;Node3 -->
<g id="edge2" class="edge"><title>Node1&#45;&gt;Node3</title>
<path fill="none" stroke="midnightblue" d="M329.594,-139.407C283.963,-133.702 197.809,-120.813 127.5,-98 122.64,-96.423 117.546,-94.2692 112.925,-92.104"/>
<polygon fill="midnightblue" stroke="midnightblue" points="329.409,-142.911 339.759,-140.643 330.254,-135.962 329.409,-142.911"/>
</g>
<!-- Node4 -->
<g id="node4" class="node"><title>Node4</title>
<g id="a_node4"><a xlink:href="../../da/d17/io__clock_8c.html" target="_top" xlink:title="It defines the system clock that provides a continuous time value (granulation of 1 ms)...">
<polygon fill="white" stroke="black" points="136,-73 136,-92 207,-92 207,-73 136,-73"/>
<text text-anchor="middle" x="171.5" y="-80" font-family="Helvetica,sans-Serif" font-size="10.00">io/io_clock.c</text>
</a>
</g>
</g>
<!-- Node1&#45;&gt;Node4 -->
<g id="edge3" class="edge"><title>Node1&#45;&gt;Node4</title>
<path fill="none" stroke="midnightblue" d="M330.157,-133.38C300.768,-124.334 255.616,-110.371 216.5,-98 210.552,-96.1189 204.17,-94.0767 198.135,-92.1349"/>
<polygon fill="midnightblue" stroke="midnightblue" points="329.272,-136.769 339.859,-136.364 331.33,-130.079 329.272,-136.769"/>
</g>
<!-- Node5 -->
<g id="node5" class="node"><title>Node5</title>
<g id="a_node5"><a xlink:href="../../d1/de0/camera_8c.html" target="_top" xlink:title="It defines functions to process data retrieved by a camera. ">
<polygon fill="white" stroke="black" points="225.5,-73 225.5,-92 353.5,-92 353.5,-73 225.5,-73"/>
<text text-anchor="middle" x="289.5" y="-80" font-family="Helvetica,sans-Serif" font-size="10.00">platform/e&#45;puck/camera.c</text>
</a>
</g>
</g>
<!-- Node1&#45;&gt;Node5 -->
<g id="edge4" class="edge"><title>Node1&#45;&gt;Node5</title>
<path fill="none" stroke="midnightblue" d="M343.316,-127.973C329.545,-116.593 311.123,-101.369 299.797,-92.0091"/>
<polygon fill="midnightblue" stroke="midnightblue" points="341.246,-130.803 351.184,-134.475 345.705,-125.407 341.246,-130.803"/>
</g>
<!-- Node6 -->
<g id="node6" class="node"><title>Node6</title>
<g id="a_node6"><a xlink:href="../../dd/d59/motors_8h.html" target="_top" xlink:title="It declares functions to drive motors. ">
<polygon fill="white" stroke="black" points="372,-73 372,-92 497,-92 497,-73 372,-73"/>
<text text-anchor="middle" x="434.5" y="-80" font-family="Helvetica,sans-Serif" font-size="10.00">platform/e&#45;puck/motors.h</text>
</a>
</g>
</g>
<!-- Node1&#45;&gt;Node6 -->
<g id="edge5" class="edge"><title>Node1&#45;&gt;Node6</title>
<path fill="none" stroke="midnightblue" d="M379.937,-127.973C393.899,-116.593 412.576,-101.369 424.06,-92.0091"/>
<polygon fill="midnightblue" stroke="midnightblue" points="377.499,-125.444 371.959,-134.475 381.922,-130.87 377.499,-125.444"/>
</g>
<!-- Node8 -->
<g id="node8" class="node"><title>Node8</title>
<g id="a_node8"><a xlink:href="../../d6/d0e/motors_8c.html" target="_top" xlink:title="It defines function to drive motors. ">
<polygon fill="white" stroke="black" points="463,-6 463,-25 588,-25 588,-6 463,-6"/>
<text text-anchor="middle" x="525.5" y="-13" font-family="Helvetica,sans-Serif" font-size="10.00">platform/e&#45;puck/motors.c</text>
</a>
</g>
</g>
<!-- Node1&#45;&gt;Node8 -->
<g id="edge8" class="edge"><title>Node1&#45;&gt;Node8</title>
<path fill="none" stroke="midnightblue" d="M393.22,-141.968C426.248,-139.134 477.173,-129.514 506.5,-98 525.503,-77.5791 526.689,-41.9458 526.094,-25.4055"/>
<polygon fill="midnightblue" stroke="midnightblue" points="392.907,-138.481 383.175,-142.669 393.395,-145.464 392.907,-138.481"/>
</g>
<!-- Node9 -->
<g id="node9" class="node"><title>Node9</title>
<g id="a_node9"><a xlink:href="../../d7/d92/remoteControl_8c.html" target="_top" xlink:title="It defines functions to receive and decode messages from a remote control. ">
<polygon fill="white" stroke="black" points="554,-73 554,-92 711,-92 711,-73 554,-73"/>
<text text-anchor="middle" x="632.5" y="-80" font-family="Helvetica,sans-Serif" font-size="10.00">platform/e&#45;puck/remoteControl.c</text>
</a>
</g>
</g>
<!-- Node1&#45;&gt;Node9 -->
<g id="edge9" class="edge"><title>Node1&#45;&gt;Node9</title>
<path fill="none" stroke="midnightblue" d="M393.102,-136.062C442.894,-125.129 539.488,-103.922 593.515,-92.0595"/>
<polygon fill="midnightblue" stroke="midnightblue" points="392.236,-132.668 383.219,-138.231 393.737,-139.505 392.236,-132.668"/>
</g>
<!-- Node10 -->
<g id="node10" class="node"><title>Node10</title>
<g id="a_node10"><a xlink:href="../../d0/dae/remoteControl__HDI_8c.html" target="_top" xlink:title="Hardware dependent implementations to receive and decode messages from a remote control. ">
<polygon fill="white" stroke="black" points="729,-67.5 729,-97.5 878,-97.5 878,-67.5 729,-67.5"/>
<text text-anchor="start" x="737" y="-85.5" font-family="Helvetica,sans-Serif" font-size="10.00">platform/e&#45;puck/remoteControl</text>
<text text-anchor="middle" x="803.5" y="-74.5" font-family="Helvetica,sans-Serif" font-size="10.00">_HDI.c</text>
</a>
</g>
</g>
<!-- Node1&#45;&gt;Node10 -->
<g id="edge10" class="edge"><title>Node1&#45;&gt;Node10</title>
<path fill="none" stroke="midnightblue" d="M393.471,-139.517C456.274,-132.559 600.119,-116.049 720.5,-98 723.249,-97.5879 726.046,-97.1571 728.871,-96.7126"/>
<polygon fill="midnightblue" stroke="midnightblue" points="392.961,-136.052 383.405,-140.627 393.728,-143.01 392.961,-136.052"/>
</g>
<!-- Node7 -->
<g id="node7" class="node"><title>Node7</title>
<g id="a_node7"><a xlink:href="../../d3/d87/io__HDI_8c.html" target="_top" xlink:title="Hardware dependent implementations to control the IO timer and to (un)register IO Handler...">
<polygon fill="white" stroke="black" points="350,-0.5 350,-30.5 445,-30.5 445,-0.5 350,-0.5"/>
<text text-anchor="start" x="358" y="-18.5" font-family="Helvetica,sans-Serif" font-size="10.00">platform/e&#45;puck/io</text>
<text text-anchor="middle" x="397.5" y="-7.5" font-family="Helvetica,sans-Serif" font-size="10.00">_HDI.c</text>
</a>
</g>
</g>
<!-- Node6&#45;&gt;Node7 -->
<g id="edge6" class="edge"><title>Node6&#45;&gt;Node7</title>
<path fill="none" stroke="midnightblue" d="M424.558,-64.0347C418.593,-53.5556 411.106,-40.4016 405.52,-30.589"/>
<polygon fill="midnightblue" stroke="midnightblue" points="421.521,-65.7746 429.51,-72.7338 427.605,-62.3117 421.521,-65.7746"/>
</g>
<!-- Node6&#45;&gt;Node8 -->
<g id="edge7" class="edge"><title>Node6&#45;&gt;Node8</title>
<path fill="none" stroke="midnightblue" d="M454.913,-66.9196C472.903,-54.0695 498.505,-35.7821 513.422,-25.1273"/>
<polygon fill="midnightblue" stroke="midnightblue" points="452.876,-64.0733 446.773,-72.7338 456.944,-69.7695 452.876,-64.0733"/>
</g>
</g>
</svg>
        <g id="navigator" transform="translate(0 0)" fill="#404254">
                <rect fill="#f2f5e9" fill-opacity="0.5" stroke="#606060" stroke-width=".5" x="0" y="0" width="60" height="60"/>
                <use id="zoomplus" xlink:href="#zoomPlus" x="17" y="9" onmousedown="handleZoom(evt,'in')"/>
                <use id="zoomminus" xlink:href="#zoomMin" x="42" y="9" onmousedown="handleZoom(evt,'out')"/>
                <use id="reset" xlink:href="#resetDef" x="30" y="36" onmousedown="handleReset()"/>
                <g id="arrowUp" xlink:href="#dirArrow" transform="translate(30 24)" onmousedown="handlePan(0,-1)">
                  <use xlink:href="#rim" fill="#404040">
                        <set attributeName="fill" to="#808080" begin="arrowUp.mouseover" end="arrowUp.mouseout"/>
                  </use>
                  <path fill="none" stroke="white" stroke-width="1.5" d="M0,-3.0v7 M-2.5,-0.5L0,-3.0L2.5,-0.5"/>
                </g>
                <g id="arrowRight" xlink:href="#dirArrow" transform="rotate(90) translate(36 -43)" onmousedown="handlePan(1,0)">
                  <use xlink:href="#rim" fill="#404040">
                        <set attributeName="fill" to="#808080" begin="arrowRight.mouseover" end="arrowRight.mouseout"/>
                  </use>
                  <path fill="none" stroke="white" stroke-width="1.5" d="M0,-3.0v7 M-2.5,-0.5L0,-3.0L2.5,-0.5"/>
                </g>
                <g id="arrowDown" xlink:href="#dirArrow" transform="rotate(180) translate(-30 -48)" onmousedown="handlePan(0,1)">
                  <use xlink:href="#rim" fill="#404040">
                        <set attributeName="fill" to="#808080" begin="arrowDown.mouseover" end="arrowDown.mouseout"/>
                  </use>
                  <path fill="none" stroke="white" stroke-width="1.5" d="M0,-3.0v7 M-2.5,-0.5L0,-3.0L2.5,-0.5"/>
                </g>
                <g id="arrowLeft" xlink:href="#dirArrow" transform="rotate(270) translate(-36 17)" onmousedown="handlePan(-1,0)">
                  <use xlink:href="#rim" fill="#404040">
                        <set attributeName="fill" to="#808080" begin="arrowLeft.mouseover" end="arrowLeft.mouseout"/>
                  </use>
                  <path fill="none" stroke="white" stroke-width="1.5" d="M0,-3.0v7 M-2.5,-0.5L0,-3.0L2.5,-0.5"/>
                </g>
        </g>
        <svg viewBox="0 0 15 15" width="100%" height="30px" preserveAspectRatio="xMaxYMin meet">
         <g id="arrow_out" transform="scale(0.3 0.3)">
          <a xlink:href="io_8h__dep__incl_org.svg" target="_base">
           <rect id="button" ry="5" rx="5" y="6" x="6" height="38" width="38"
                fill="#f2f5e9" fill-opacity="0.5" stroke="#606060" stroke-width="1.0"/>
           <path id="arrow"
             d="M 11.500037,31.436501 C 11.940474,20.09759 22.043105,11.32322 32.158766,21.979434 L 37.068811,17.246167 C 37.068811,17.246167 37.088388,32 37.088388,32 L 22.160133,31.978069 C 22.160133,31.978069 26.997745,27.140456 26.997745,27.140456 C 18.528582,18.264221 13.291696,25.230495 11.500037,31.436501 z"
             style="fill:#404040;"/>
          </a>
         </g>
        </svg>
</svg>
