<?xml version="1.0" encoding="UTF-8" standalone="no"?>
<!DOCTYPE svg PUBLIC "-//W3C//DTD SVG 1.1//EN"
 "http://www.w3.org/Graphics/SVG/1.1/DTD/svg11.dtd">
<!-- Generated by graphviz version 2.38.0 (20140413.2041)
 -->
<!-- Title: platform/e&#45;puck/motors.h Pages: 1 -->
<svg width="246pt" height="95pt"
 viewBox="0.00 0.00 246.00 95.00" xmlns="http://www.w3.org/2000/svg" xmlns:xlink="http://www.w3.org/1999/xlink">
<g id="graph0" class="graph" transform="scale(1 1) rotate(0) translate(4 91)">
<title>platform/e&#45;puck/motors.h</title>
<polygon fill="white" stroke="none" points="-4,4 -4,-91 242,-91 242,4 -4,4"/>
<!-- Node1 -->
<g id="node1" class="node"><title>Node1</title>
<polygon fill="#bfbfbf" stroke="black" points="49,-67.5 49,-86.5 174,-86.5 174,-67.5 49,-67.5"/>
<text text-anchor="middle" x="111.5" y="-74.5" font-family="Helvetica,sans-Serif" font-size="10.00">platform/e&#45;puck/motors.h</text>
</g>
<!-- Node2 -->
<g id="node2" class="node"><title>Node2</title>
<g id="a_node2"><a xlink:href="$d3/d87/io__HDI_8c.html" xlink:title="Hardware dependent implementations to control the IO timer and to (un)register IO Handler...">
<polygon fill="white" stroke="black" points="0,-0.5 0,-30.5 95,-30.5 95,-0.5 0,-0.5"/>
<text text-anchor="start" x="8" y="-18.5" font-family="Helvetica,sans-Serif" font-size="10.00">platform/e&#45;puck/io</text>
<text text-anchor="middle" x="47.5" y="-7.5" font-family="Helvetica,sans-Serif" font-size="10.00">_HDI.c</text>
</a>
</g>
</g>
<!-- Node1&#45;&gt;Node2 -->
<g id="edge1" class="edge"><title>Node1&#45;&gt;Node2</title>
<path fill="none" stroke="midnightblue" d="M94.9847,-60.6459C84.981,-51.3456 72.3169,-39.572 62.5835,-30.523"/>
<polygon fill="midnightblue" stroke="midnightblue" points="92.6234,-63.2295 102.33,-67.4751 97.3896,-58.1028 92.6234,-63.2295"/>
</g>
<!-- Node3 -->
<g id="node3" class="node"><title>Node3</title>
<g id="a_node3"><a xlink:href="$d6/d0e/motors_8c.html" xlink:title="It defines function to drive motors. ">
<polygon fill="white" stroke="black" points="113,-6 113,-25 238,-25 238,-6 113,-6"/>
<text text-anchor="middle" x="175.5" y="-13" font-family="Helvetica,sans-Serif" font-size="10.00">platform/e&#45;puck/motors.c</text>
</a>
</g>
</g>
<!-- Node1&#45;&gt;Node3 -->
<g id="edge2" class="edge"><title>Node1&#45;&gt;Node3</title>
<path fill="none" stroke="midnightblue" d="M128.011,-60.6496C140.213,-49.3058 156.374,-34.2811 166.347,-25.0091"/>
<polygon fill="midnightblue" stroke="midnightblue" points="125.61,-58.1028 120.67,-67.4751 130.377,-63.2295 125.61,-58.1028"/>
</g>
</g>
</svg>
