<?xml version="1.0" encoding="UTF-8" standalone="no"?>
<!DOCTYPE svg PUBLIC "-//W3C//DTD SVG 1.1//EN"
 "http://www.w3.org/Graphics/SVG/1.1/DTD/svg11.dtd">
<!-- Generated by graphviz version 2.38.0 (20140413.2041)
 -->
<!-- Title: processes/data.c Pages: 1 -->
<svg width="706pt" height="408pt"
 viewBox="0.00 0.00 706.00 408.00" xmlns="http://www.w3.org/2000/svg" xmlns:xlink="http://www.w3.org/1999/xlink">
<g id="graph0" class="graph" transform="scale(1 1) rotate(0) translate(4 404)">
<title>processes/data.c</title>
<polygon fill="white" stroke="none" points="-4,4 -4,-404 702,-404 702,4 -4,4"/>
<!-- Node1 -->
<g id="node1" class="node"><title>Node1</title>
<polygon fill="#bfbfbf" stroke="black" points="401,-380.5 401,-399.5 493,-399.5 493,-380.5 401,-380.5"/>
<text text-anchor="middle" x="447" y="-387.5" font-family="Helvetica,sans-Serif" font-size="10.00">processes/data.c</text>
</g>
<!-- Node2 -->
<g id="node2" class="node"><title>Node2</title>
<g id="a_node2"><a xlink:href="$dd/de5/process__Management_8h.html" xlink:title="It declares functions to manage processes (e.g. task creation, switching, termination) ...">
<polygon fill="white" stroke="black" points="278.5,-252 278.5,-271 399.5,-271 399.5,-252 278.5,-252"/>
<text text-anchor="middle" x="339" y="-259" font-family="Helvetica,sans-Serif" font-size="10.00">process_Management.h</text>
</a>
</g>
</g>
<!-- Node1&#45;&gt;Node2 -->
<g id="edge1" class="edge"><title>Node1&#45;&gt;Node2</title>
<path fill="none" stroke="midnightblue" d="M439.577,-380.305C421.774,-359.452 376.407,-306.315 353.177,-279.105"/>
<polygon fill="midnightblue" stroke="midnightblue" points="355.63,-276.588 346.475,-271.256 350.306,-281.134 355.63,-276.588"/>
</g>
<!-- Node3 -->
<g id="node3" class="node"><title>Node3</title>
<polygon fill="white" stroke="#bfbfbf" points="66,-73 66,-92 122,-92 122,-73 66,-73"/>
<text text-anchor="middle" x="94" y="-80" font-family="Helvetica,sans-Serif" font-size="10.00">stdbool.h</text>
</g>
<!-- Node1&#45;&gt;Node3 -->
<g id="edge27" class="edge"><title>Node1&#45;&gt;Node3</title>
<path fill="none" stroke="midnightblue" d="M400.949,-386.257C318.994,-380.85 151.414,-367.278 98,-344 46.068,-321.368 0,-319.149 0,-262.5 0,-262.5 0,-262.5 0,-199 0,-154.209 43.0521,-117.144 70.8846,-97.8622"/>
<polygon fill="midnightblue" stroke="midnightblue" points="72.9363,-100.701 79.3125,-92.2396 69.0514,-94.8779 72.9363,-100.701"/>
</g>
<!-- Node4 -->
<g id="node4" class="node"><title>Node4</title>
<g id="a_node4"><a xlink:href="$d6/dc2/definitions_8h.html" xlink:title="It declares general preprocessor variables and types. ">
<polygon fill="white" stroke="black" points="356,-134.5 356,-153.5 434,-153.5 434,-134.5 356,-134.5"/>
<text text-anchor="middle" x="395" y="-141.5" font-family="Helvetica,sans-Serif" font-size="10.00">../definitions.h</text>
</a>
</g>
</g>
<!-- Node1&#45;&gt;Node4 -->
<g id="edge26" class="edge"><title>Node1&#45;&gt;Node4</title>
<path fill="none" stroke="midnightblue" d="M445.149,-380.316C437.646,-345.11 409.398,-212.561 398.932,-163.452"/>
<polygon fill="midnightblue" stroke="midnightblue" points="402.336,-162.631 396.829,-153.58 395.49,-164.09 402.336,-162.631"/>
</g>
<!-- Node12 -->
<g id="node12" class="node"><title>Node12</title>
<g id="a_node12"><a xlink:href="$de/dad/process__Management__HDI_8h.html" xlink:title="Hardware dependent implementations to manage processes (e.g. task swichting) ">
<polygon fill="white" stroke="black" points="107.5,-313.5 107.5,-343.5 254.5,-343.5 254.5,-313.5 107.5,-313.5"/>
<text text-anchor="start" x="115.5" y="-331.5" font-family="Helvetica,sans-Serif" font-size="10.00">../platform/e&#45;puck</text>
<text text-anchor="middle" x="181" y="-320.5" font-family="Helvetica,sans-Serif" font-size="10.00">/process_Management_HDI.h</text>
</a>
</g>
</g>
<!-- Node1&#45;&gt;Node12 -->
<g id="edge15" class="edge"><title>Node1&#45;&gt;Node12</title>
<path fill="none" stroke="midnightblue" d="M408.889,-380.475C368.486,-371.438 303.706,-356.947 253.522,-345.722"/>
<polygon fill="midnightblue" stroke="midnightblue" points="254.214,-342.29 243.691,-343.523 252.686,-349.122 254.214,-342.29"/>
</g>
<!-- Node14 -->
<g id="node14" class="node"><title>Node14</title>
<polygon fill="white" stroke="#bfbfbf" points="494,-319 494,-338 542,-338 542,-319 494,-319"/>
<text text-anchor="middle" x="518" y="-326" font-family="Helvetica,sans-Serif" font-size="10.00">stdlib.h</text>
</g>
<!-- Node1&#45;&gt;Node14 -->
<g id="edge22" class="edge"><title>Node1&#45;&gt;Node14</title>
<path fill="none" stroke="midnightblue" d="M457.173,-380.475C468.35,-371.108 486.517,-355.884 500.091,-344.508"/>
<polygon fill="midnightblue" stroke="midnightblue" points="502.43,-347.115 507.846,-338.009 497.934,-341.75 502.43,-347.115"/>
</g>
<!-- Node15 -->
<g id="node15" class="node"><title>Node15</title>
<g id="a_node15"><a xlink:href="$d6/ded/interrupts_8h.html" xlink:title="It declares interrupt priority levels and functions to create atomic sections. ">
<polygon fill="white" stroke="black" points="560,-319 560,-338 634,-338 634,-319 560,-319"/>
<text text-anchor="middle" x="597" y="-326" font-family="Helvetica,sans-Serif" font-size="10.00">../interrupts.h</text>
</a>
</g>
</g>
<!-- Node1&#45;&gt;Node15 -->
<g id="edge23" class="edge"><title>Node1&#45;&gt;Node15</title>
<path fill="none" stroke="midnightblue" d="M468.491,-380.475C494.11,-370.313 537.11,-353.256 566.245,-341.7"/>
<polygon fill="midnightblue" stroke="midnightblue" points="567.544,-344.95 575.549,-338.009 564.963,-338.443 567.544,-344.95"/>
</g>
<!-- Node16 -->
<g id="node16" class="node"><title>Node16</title>
<g id="a_node16"><a xlink:href="$dc/d18/memory_8h.html" xlink:title="It declares functions to allocate, free, and copy memory. ">
<polygon fill="white" stroke="black" points="456.5,-252 456.5,-271 525.5,-271 525.5,-252 456.5,-252"/>
<text text-anchor="middle" x="491" y="-259" font-family="Helvetica,sans-Serif" font-size="10.00">../memory.h</text>
</a>
</g>
</g>
<!-- Node1&#45;&gt;Node16 -->
<g id="edge24" class="edge"><title>Node1&#45;&gt;Node16</title>
<path fill="none" stroke="midnightblue" d="M450.024,-380.305C457.12,-359.904 474.965,-308.6 484.597,-280.908"/>
<polygon fill="midnightblue" stroke="midnightblue" points="487.975,-281.851 487.955,-271.256 481.364,-279.551 487.975,-281.851"/>
</g>
<!-- Node17 -->
<g id="node17" class="node"><title>Node17</title>
<polygon fill="white" stroke="#bfbfbf" points="652,-319 652,-338 698,-338 698,-319 652,-319"/>
<text text-anchor="middle" x="675" y="-326" font-family="Helvetica,sans-Serif" font-size="10.00">stdio.h</text>
</g>
<!-- Node1&#45;&gt;Node17 -->
<g id="edge28" class="edge"><title>Node1&#45;&gt;Node17</title>
<path fill="none" stroke="midnightblue" d="M493.263,-381.084C533.442,-373.572 592.885,-360.918 643,-344 644.669,-343.437 646.368,-342.816 648.07,-342.158"/>
<polygon fill="midnightblue" stroke="midnightblue" points="649.793,-345.23 657.649,-338.122 647.074,-338.779 649.793,-345.23"/>
</g>
<!-- Node2&#45;&gt;Node3 -->
<g id="edge2" class="edge"><title>Node2&#45;&gt;Node3</title>
<path fill="none" stroke="midnightblue" d="M340.716,-251.732C343.01,-237.366 345.376,-208.56 332,-190 307.304,-155.735 192.147,-114.834 131.534,-95.1793"/>
<polygon fill="midnightblue" stroke="midnightblue" points="132.535,-91.8246 121.943,-92.099 130.394,-98.4893 132.535,-91.8246"/>
</g>
<!-- Node2&#45;&gt;Node4 -->
<g id="edge3" class="edge"><title>Node2&#45;&gt;Node4</title>
<path fill="none" stroke="midnightblue" d="M343.974,-251.66C349.544,-241.656 358.743,-224.822 366,-210 373.718,-194.237 381.798,-175.957 387.464,-162.805"/>
<polygon fill="midnightblue" stroke="midnightblue" points="390.727,-164.074 391.436,-153.503 384.29,-161.325 390.727,-164.074"/>
</g>
<!-- Node10 -->
<g id="node10" class="node"><title>Node10</title>
<g id="a_node10"><a xlink:href="$db/dd2/events_8h.html" xlink:title="declares functions to create, (un)subscribe, (un)register, and delete events and related handler...">
<polygon fill="white" stroke="black" points="104.5,-190.5 104.5,-209.5 199.5,-209.5 199.5,-190.5 104.5,-190.5"/>
<text text-anchor="middle" x="152" y="-197.5" font-family="Helvetica,sans-Serif" font-size="10.00">../events/events.h</text>
</a>
</g>
</g>
<!-- Node2&#45;&gt;Node10 -->
<g id="edge10" class="edge"><title>Node2&#45;&gt;Node10</title>
<path fill="none" stroke="midnightblue" d="M312.207,-251.975C279.714,-241.636 224.792,-224.161 188.462,-212.602"/>
<polygon fill="midnightblue" stroke="midnightblue" points="189.333,-209.206 178.743,-209.509 187.211,-215.876 189.333,-209.206"/>
</g>
<!-- Node11 -->
<g id="node11" class="node"><title>Node11</title>
<g id="a_node11"><a xlink:href="$d2/dd8/scheduler_8h.html" xlink:title="It declares functions to specify a scheduling algorithm. ">
<polygon fill="white" stroke="black" points="256.5,-190.5 256.5,-209.5 323.5,-209.5 323.5,-190.5 256.5,-190.5"/>
<text text-anchor="middle" x="290" y="-197.5" font-family="Helvetica,sans-Serif" font-size="10.00">scheduler.h</text>
</a>
</g>
</g>
<!-- Node2&#45;&gt;Node11 -->
<g id="edge13" class="edge"><title>Node2&#45;&gt;Node11</title>
<path fill="none" stroke="midnightblue" d="M331.979,-251.975C324.557,-242.962 312.667,-228.525 303.433,-217.312"/>
<polygon fill="midnightblue" stroke="midnightblue" points="306.066,-215.003 297.007,-209.509 300.663,-219.453 306.066,-215.003"/>
</g>
<!-- Node4&#45;&gt;Node3 -->
<g id="edge4" class="edge"><title>Node4&#45;&gt;Node3</title>
<path fill="none" stroke="midnightblue" d="M355.958,-135.282C298.005,-123.827 189.89,-102.455 132.343,-91.0795"/>
<polygon fill="midnightblue" stroke="midnightblue" points="132.699,-87.5821 122.21,-89.0764 131.341,-94.4493 132.699,-87.5821"/>
</g>
<!-- Node5 -->
<g id="node5" class="node"><title>Node5</title>
<polygon fill="white" stroke="#bfbfbf" points="351.5,-73 351.5,-92 400.5,-92 400.5,-73 351.5,-73"/>
<text text-anchor="middle" x="376" y="-80" font-family="Helvetica,sans-Serif" font-size="10.00">stdint.h</text>
</g>
<!-- Node4&#45;&gt;Node5 -->
<g id="edge5" class="edge"><title>Node4&#45;&gt;Node5</title>
<path fill="none" stroke="midnightblue" d="M392.278,-134.475C389.569,-125.992 385.326,-112.704 381.851,-101.822"/>
<polygon fill="midnightblue" stroke="midnightblue" points="385.093,-100.47 378.717,-92.0091 378.425,-102.6 385.093,-100.47"/>
</g>
<!-- Node6 -->
<g id="node6" class="node"><title>Node6</title>
<polygon fill="white" stroke="#bfbfbf" points="419,-73 419,-92 493,-92 493,-73 419,-73"/>
<text text-anchor="middle" x="456" y="-80" font-family="Helvetica,sans-Serif" font-size="10.00">p30F6014A.h</text>
</g>
<!-- Node4&#45;&gt;Node6 -->
<g id="edge6" class="edge"><title>Node4&#45;&gt;Node6</title>
<path fill="none" stroke="midnightblue" d="M403.74,-134.475C413.162,-125.285 428.364,-110.456 439.949,-99.156"/>
<polygon fill="midnightblue" stroke="midnightblue" points="442.562,-101.497 447.276,-92.0091 437.674,-96.4861 442.562,-101.497"/>
</g>
<!-- Node7 -->
<g id="node7" class="node"><title>Node7</title>
<polygon fill="white" stroke="#bfbfbf" points="511.5,-67.5 511.5,-97.5 648.5,-97.5 648.5,-67.5 511.5,-67.5"/>
<text text-anchor="start" x="519.5" y="-85.5" font-family="Helvetica,sans-Serif" font-size="10.00">platform/e&#45;puck/library</text>
<text text-anchor="middle" x="580" y="-74.5" font-family="Helvetica,sans-Serif" font-size="10.00">/motor_led/e_epuck_ports.h</text>
</g>
<!-- Node4&#45;&gt;Node7 -->
<g id="edge7" class="edge"><title>Node4&#45;&gt;Node7</title>
<path fill="none" stroke="midnightblue" d="M421.506,-134.475C448.786,-125.701 492.046,-111.788 526.483,-100.712"/>
<polygon fill="midnightblue" stroke="midnightblue" points="527.951,-103.917 536.399,-97.523 525.808,-97.2529 527.951,-103.917"/>
</g>
<!-- Node8 -->
<g id="node8" class="node"><title>Node8</title>
<g id="a_node8"><a xlink:href="$d9/d1f/DSPIC30F6014A__HDI_8h.html" xlink:title="declares e&#45;puck specific types and preprocessor variables ">
<polygon fill="white" stroke="black" points="177,-67.5 177,-97.5 333,-97.5 333,-67.5 177,-67.5"/>
<text text-anchor="start" x="185" y="-85.5" font-family="Helvetica,sans-Serif" font-size="10.00">platform/e&#45;puck/DSPIC30F6014</text>
<text text-anchor="middle" x="255" y="-74.5" font-family="Helvetica,sans-Serif" font-size="10.00">A_HDI.h</text>
</a>
</g>
</g>
<!-- Node4&#45;&gt;Node8 -->
<g id="edge8" class="edge"><title>Node4&#45;&gt;Node8</title>
<path fill="none" stroke="midnightblue" d="M374.941,-134.475C354.829,-125.927 323.238,-112.501 297.526,-101.573"/>
<polygon fill="midnightblue" stroke="midnightblue" points="298.568,-98.2133 287.995,-97.523 295.83,-104.656 298.568,-98.2133"/>
</g>
<!-- Node9 -->
<g id="node9" class="node"><title>Node9</title>
<polygon fill="white" stroke="#bfbfbf" points="206.5,-0.5 206.5,-30.5 303.5,-30.5 303.5,-0.5 206.5,-0.5"/>
<text text-anchor="start" x="214.5" y="-18.5" font-family="Helvetica,sans-Serif" font-size="10.00">library/motor_led/e</text>
<text text-anchor="middle" x="255" y="-7.5" font-family="Helvetica,sans-Serif" font-size="10.00">_epuck_ports.h</text>
</g>
<!-- Node8&#45;&gt;Node9 -->
<g id="edge9" class="edge"><title>Node8&#45;&gt;Node9</title>
<path fill="none" stroke="midnightblue" d="M255,-67.396C255,-59.6448 255,-49.8122 255,-40.8601"/>
<polygon fill="midnightblue" stroke="midnightblue" points="258.5,-40.5765 255,-30.5765 251.5,-40.5765 258.5,-40.5765"/>
</g>
<!-- Node10&#45;&gt;Node3 -->
<g id="edge11" class="edge"><title>Node10&#45;&gt;Node3</title>
<path fill="none" stroke="midnightblue" d="M147.641,-190.319C138.193,-171.506 115.667,-126.648 103.017,-101.455"/>
<polygon fill="midnightblue" stroke="midnightblue" points="106.025,-99.6479 98.41,-92.282 99.7699,-102.789 106.025,-99.6479"/>
</g>
<!-- Node10&#45;&gt;Node4 -->
<g id="edge12" class="edge"><title>Node10&#45;&gt;Node4</title>
<path fill="none" stroke="midnightblue" d="M190.504,-190.444C232.806,-181.043 300.819,-165.929 346.673,-155.739"/>
<polygon fill="midnightblue" stroke="midnightblue" points="347.673,-159.102 356.676,-153.516 346.155,-152.269 347.673,-159.102"/>
</g>
<!-- Node11&#45;&gt;Node4 -->
<g id="edge14" class="edge"><title>Node11&#45;&gt;Node4</title>
<path fill="none" stroke="midnightblue" d="M306.87,-190.324C323.709,-181.664 349.807,-168.242 369.238,-158.249"/>
<polygon fill="midnightblue" stroke="midnightblue" points="370.88,-161.341 378.172,-153.655 367.678,-155.116 370.88,-161.341"/>
</g>
<!-- Node12&#45;&gt;Node3 -->
<g id="edge21" class="edge"><title>Node12&#45;&gt;Node3</title>
<path fill="none" stroke="midnightblue" d="M160.774,-313.372C148.319,-304.012 132.576,-290.925 121,-277 99.1155,-250.675 92.9078,-242.769 83,-210 73.2106,-177.623 74.1339,-167.473 79,-134 80.5869,-123.084 84.008,-111.244 87.1828,-101.775"/>
<polygon fill="midnightblue" stroke="midnightblue" points="90.5113,-102.86 90.5516,-92.2653 83.9131,-100.523 90.5113,-102.86"/>
</g>
<!-- Node13 -->
<g id="node13" class="node"><title>Node13</title>
<g id="a_node13"><a xlink:href="$d2/dbd/data_8h.html" xlink:title="It declares functions to manage process lists and related structs. ">
<polygon fill="white" stroke="black" points="130,-246.5 130,-276.5 232,-276.5 232,-246.5 130,-246.5"/>
<text text-anchor="start" x="138" y="-264.5" font-family="Helvetica,sans-Serif" font-size="10.00">../../../os/processes</text>
<text text-anchor="middle" x="181" y="-253.5" font-family="Helvetica,sans-Serif" font-size="10.00">/data.h</text>
</a>
</g>
</g>
<!-- Node12&#45;&gt;Node13 -->
<g id="edge16" class="edge"><title>Node12&#45;&gt;Node13</title>
<path fill="none" stroke="midnightblue" d="M181,-313.396C181,-305.645 181,-295.812 181,-286.86"/>
<polygon fill="midnightblue" stroke="midnightblue" points="184.5,-286.576 181,-276.577 177.5,-286.577 184.5,-286.576"/>
</g>
<!-- Node13&#45;&gt;Node3 -->
<g id="edge17" class="edge"><title>Node13&#45;&gt;Node3</title>
<path fill="none" stroke="midnightblue" d="M139.187,-246.479C122.374,-238.556 104.701,-226.791 95,-210 75.3893,-176.054 82.6401,-127.945 88.8276,-101.928"/>
<polygon fill="midnightblue" stroke="midnightblue" points="92.2188,-102.793 91.3328,-92.2357 85.4416,-101.042 92.2188,-102.793"/>
</g>
<!-- Node13&#45;&gt;Node4 -->
<g id="edge18" class="edge"><title>Node13&#45;&gt;Node4</title>
<path fill="none" stroke="midnightblue" d="M190.766,-246.227C202.386,-230.289 223.229,-204.796 247,-190 277.214,-171.193 315.806,-159.799 346.006,-153.182"/>
<polygon fill="midnightblue" stroke="midnightblue" points="346.828,-156.586 355.902,-151.118 345.398,-149.734 346.828,-156.586"/>
</g>
<!-- Node13&#45;&gt;Node10 -->
<g id="edge19" class="edge"><title>Node13&#45;&gt;Node10</title>
<path fill="none" stroke="midnightblue" d="M174.127,-246.399C170.087,-238.11 164.942,-227.554 160.631,-218.708"/>
<polygon fill="midnightblue" stroke="midnightblue" points="163.747,-217.113 156.22,-209.658 157.455,-220.18 163.747,-217.113"/>
</g>
<!-- Node13&#45;&gt;Node11 -->
<g id="edge20" class="edge"><title>Node13&#45;&gt;Node11</title>
<path fill="none" stroke="midnightblue" d="M206.831,-246.399C224.467,-236.773 247.7,-224.09 265.128,-214.577"/>
<polygon fill="midnightblue" stroke="midnightblue" points="267.039,-217.521 274.14,-209.658 263.685,-211.377 267.039,-217.521"/>
</g>
<!-- Node16&#45;&gt;Node4 -->
<g id="edge25" class="edge"><title>Node16&#45;&gt;Node4</title>
<path fill="none" stroke="midnightblue" d="M485.781,-251.854C477.337,-238.147 459.82,-210.848 442,-190 433.121,-179.612 422.138,-168.994 413.023,-160.682"/>
<polygon fill="midnightblue" stroke="midnightblue" points="415.079,-157.825 405.291,-153.77 410.414,-163.044 415.079,-157.825"/>
</g>
</g>
</svg>
