<?xml version="1.0" encoding="UTF-8" standalone="no"?>
<!DOCTYPE svg PUBLIC "-//W3C//DTD SVG 1.1//EN"
 "http://www.w3.org/Graphics/SVG/1.1/DTD/svg11.dtd">
<!-- Generated by graphviz version 2.38.0 (20140413.2041)
 -->
<!-- Title: io/io_clock.h Pages: 1 -->
<svg width="154pt" height="84pt"
 viewBox="0.00 0.00 154.00 84.00" xmlns="http://www.w3.org/2000/svg" xmlns:xlink="http://www.w3.org/1999/xlink">
<g id="graph0" class="graph" transform="scale(1 1) rotate(0) translate(4 80)">
<title>io/io_clock.h</title>
<polygon fill="white" stroke="none" points="-4,4 -4,-80 150,-80 150,4 -4,4"/>
<!-- Node1 -->
<g id="node1" class="node"><title>Node1</title>
<polygon fill="#bfbfbf" stroke="black" points="34,-56.5 34,-75.5 105,-75.5 105,-56.5 34,-56.5"/>
<text text-anchor="middle" x="69.5" y="-63.5" font-family="Helvetica,sans-Serif" font-size="10.00">io/io_clock.h</text>
</g>
<!-- Node2 -->
<g id="node2" class="node"><title>Node2</title>
<g id="a_node2"><a xlink:href="../../d4/dfd/system_8c.html" target="_top" xlink:title="defines functions to initialise and start OpenSwarm. ">
<polygon fill="white" stroke="black" points="0,-0.5 0,-19.5 57,-19.5 57,-0.5 0,-0.5"/>
<text text-anchor="middle" x="28.5" y="-7.5" font-family="Helvetica,sans-Serif" font-size="10.00">system.c</text>
</a>
</g>
</g>
<!-- Node1&#45;&gt;Node2 -->
<g id="edge1" class="edge"><title>Node1&#45;&gt;Node2</title>
<path fill="none" stroke="midnightblue" d="M56.4828,-47.8554C49.3833,-38.5048 40.896,-27.3265 35.1443,-19.7511"/>
<polygon fill="midnightblue" stroke="midnightblue" points="53.895,-50.235 62.7297,-56.083 59.4701,-46.002 53.895,-50.235"/>
</g>
<!-- Node3 -->
<g id="node3" class="node"><title>Node3</title>
<g id="a_node3"><a xlink:href="../../da/d17/io__clock_8c.html" target="_top" xlink:title="It defines the system clock that provides a continuous time value (granulation of 1 ms)...">
<polygon fill="white" stroke="black" points="75,-0.5 75,-19.5 146,-19.5 146,-0.5 75,-0.5"/>
<text text-anchor="middle" x="110.5" y="-7.5" font-family="Helvetica,sans-Serif" font-size="10.00">io/io_clock.c</text>
</a>
</g>
</g>
<!-- Node1&#45;&gt;Node3 -->
<g id="edge2" class="edge"><title>Node1&#45;&gt;Node3</title>
<path fill="none" stroke="midnightblue" d="M82.5172,-47.8554C89.6167,-38.5048 98.104,-27.3265 103.856,-19.7511"/>
<polygon fill="midnightblue" stroke="midnightblue" points="79.5299,-46.002 76.2703,-56.083 85.105,-50.235 79.5299,-46.002"/>
</g>
</g>
</svg>
