<?xml version="1.0" encoding="UTF-8" standalone="no"?>
<!DOCTYPE svg PUBLIC "-//W3C//DTD SVG 1.1//EN"
 "http://www.w3.org/Graphics/SVG/1.1/DTD/svg11.dtd">
<!-- Generated by graphviz version 2.38.0 (20140413.2041)
 -->
<!-- Title: events/events.h Pages: 1 -->
<svg width="1490pt" height="229pt"
 viewBox="0.00 0.00 1489.50 229.00" xmlns="http://www.w3.org/2000/svg" xmlns:xlink="http://www.w3.org/1999/xlink">
<g id="graph0" class="graph" transform="scale(1 1) rotate(0) translate(4 225)">
<title>events/events.h</title>
<polygon fill="white" stroke="none" points="-4,4 -4,-225 1485.5,-225 1485.5,4 -4,4"/>
<!-- Node1 -->
<g id="node1" class="node"><title>Node1</title>
<polygon fill="#bfbfbf" stroke="black" points="830,-201.5 830,-220.5 916,-220.5 916,-201.5 830,-201.5"/>
<text text-anchor="middle" x="873" y="-208.5" font-family="Helvetica,sans-Serif" font-size="10.00">events/events.h</text>
</g>
<!-- Node2 -->
<g id="node2" class="node"><title>Node2</title>
<g id="a_node2"><a xlink:href="$dd/de5/process__Management_8h.html" xlink:title="It declares functions to manage processes (e.g. task creation, switching, termination) ...">
<polygon fill="white" stroke="black" points="471.5,-73 471.5,-92 640.5,-92 640.5,-73 471.5,-73"/>
<text text-anchor="middle" x="556" y="-80" font-family="Helvetica,sans-Serif" font-size="10.00">processes/process_Management.h</text>
</a>
</g>
</g>
<!-- Node1&#45;&gt;Node2 -->
<g id="edge1" class="edge"><title>Node1&#45;&gt;Node2</title>
<path fill="none" stroke="midnightblue" d="M819.683,-205.658C775.026,-200.44 710.506,-189.143 659,-165 618.945,-146.225 580.447,-109.102 564.15,-92.2218"/>
<polygon fill="midnightblue" stroke="midnightblue" points="819.418,-209.149 829.742,-206.769 820.187,-202.192 819.418,-209.149"/>
</g>
<!-- Node4 -->
<g id="node4" class="node"><title>Node4</title>
<g id="a_node4"><a xlink:href="$de/deb/events_8c.html" xlink:title="defines functions to create, (un)subscribe, (un)register, and delete events and related handler...">
<polygon fill="white" stroke="black" points="0,-6 0,-25 86,-25 86,-6 0,-6"/>
<text text-anchor="middle" x="43" y="-13" font-family="Helvetica,sans-Serif" font-size="10.00">events/events.c</text>
</a>
</g>
</g>
<!-- Node1&#45;&gt;Node4 -->
<g id="edge10" class="edge"><title>Node1&#45;&gt;Node4</title>
<path fill="none" stroke="midnightblue" d="M819.923,-202.434C766.044,-194.422 680.345,-180.77 607,-165 399.612,-120.41 153.942,-49.3492 71.5375,-25.0052"/>
<polygon fill="midnightblue" stroke="midnightblue" points="819.528,-205.913 829.932,-203.911 820.55,-198.988 819.528,-205.913"/>
</g>
<!-- Node11 -->
<g id="node11" class="node"><title>Node11</title>
<g id="a_node11"><a xlink:href="$da/d17/io__clock_8c.html" xlink:title="It defines the system clock that provides a continuous time value (granulation of 1 ms)...">
<polygon fill="white" stroke="black" points="778.5,-140 778.5,-159 849.5,-159 849.5,-140 778.5,-140"/>
<text text-anchor="middle" x="814" y="-147" font-family="Helvetica,sans-Serif" font-size="10.00">io/io_clock.c</text>
</a>
</g>
</g>
<!-- Node1&#45;&gt;Node11 -->
<g id="edge11" class="edge"><title>Node1&#45;&gt;Node11</title>
<path fill="none" stroke="midnightblue" d="M857.456,-194.325C846.247,-183.02 831.544,-168.193 822.438,-159.009"/>
<polygon fill="midnightblue" stroke="midnightblue" points="855.02,-196.839 864.547,-201.475 859.991,-191.91 855.02,-196.839"/>
</g>
<!-- Node12 -->
<g id="node12" class="node"><title>Node12</title>
<g id="a_node12"><a xlink:href="$d1/de0/camera_8c.html" xlink:title="It defines functions to process data retrieved by a camera. ">
<polygon fill="white" stroke="black" points="868,-140 868,-159 996,-159 996,-140 868,-140"/>
<text text-anchor="middle" x="932" y="-147" font-family="Helvetica,sans-Serif" font-size="10.00">platform/e&#45;puck/camera.c</text>
</a>
</g>
</g>
<!-- Node1&#45;&gt;Node12 -->
<g id="edge12" class="edge"><title>Node1&#45;&gt;Node12</title>
<path fill="none" stroke="midnightblue" d="M888.544,-194.325C899.753,-183.02 914.456,-168.193 923.562,-159.009"/>
<polygon fill="midnightblue" stroke="midnightblue" points="886.009,-191.91 881.453,-201.475 890.98,-196.839 886.009,-191.91"/>
</g>
<!-- Node13 -->
<g id="node13" class="node"><title>Node13</title>
<g id="a_node13"><a xlink:href="$d6/d0e/motors_8c.html" xlink:title="It defines function to drive motors. ">
<polygon fill="white" stroke="black" points="1014.5,-140 1014.5,-159 1139.5,-159 1139.5,-140 1014.5,-140"/>
<text text-anchor="middle" x="1077" y="-147" font-family="Helvetica,sans-Serif" font-size="10.00">platform/e&#45;puck/motors.c</text>
</a>
</g>
</g>
<!-- Node1&#45;&gt;Node13 -->
<g id="edge13" class="edge"><title>Node1&#45;&gt;Node13</title>
<path fill="none" stroke="midnightblue" d="M912.078,-198.602C951.722,-187.04 1012.18,-169.407 1047.83,-159.009"/>
<polygon fill="midnightblue" stroke="midnightblue" points="910.848,-195.315 902.228,-201.475 912.808,-202.035 910.848,-195.315"/>
</g>
<!-- Node14 -->
<g id="node14" class="node"><title>Node14</title>
<g id="a_node14"><a xlink:href="$d2/dbd/data_8h.html" xlink:title="It declares functions to manage process lists and related structs. ">
<polygon fill="white" stroke="black" points="668,-140 668,-159 760,-159 760,-140 668,-140"/>
<text text-anchor="middle" x="714" y="-147" font-family="Helvetica,sans-Serif" font-size="10.00">processes/data.h</text>
</a>
</g>
</g>
<!-- Node1&#45;&gt;Node14 -->
<g id="edge14" class="edge"><title>Node1&#45;&gt;Node14</title>
<path fill="none" stroke="midnightblue" d="M840.753,-197.933C809.85,-186.368 763.993,-169.208 736.739,-159.009"/>
<polygon fill="midnightblue" stroke="midnightblue" points="839.627,-201.248 850.219,-201.475 842.08,-194.692 839.627,-201.248"/>
</g>
<!-- Node16 -->
<g id="node16" class="node"><title>Node16</title>
<g id="a_node16"><a xlink:href="$d7/d92/remoteControl_8c.html" xlink:title="It defines functions to receive and decode messages from a remote control. ">
<polygon fill="white" stroke="black" points="1157.5,-140 1157.5,-159 1314.5,-159 1314.5,-140 1157.5,-140"/>
<text text-anchor="middle" x="1236" y="-147" font-family="Helvetica,sans-Serif" font-size="10.00">platform/e&#45;puck/remoteControl.c</text>
</a>
</g>
</g>
<!-- Node1&#45;&gt;Node16 -->
<g id="edge20" class="edge"><title>Node1&#45;&gt;Node16</title>
<path fill="none" stroke="midnightblue" d="M926.001,-201.416C981.573,-192.401 1071.43,-177.787 1149,-165 1160.63,-163.082 1173.14,-161.006 1184.94,-159.041"/>
<polygon fill="midnightblue" stroke="midnightblue" points="925.344,-197.976 916.034,-203.032 926.465,-204.886 925.344,-197.976"/>
</g>
<!-- Node17 -->
<g id="node17" class="node"><title>Node17</title>
<g id="a_node17"><a xlink:href="$d0/dae/remoteControl__HDI_8c.html" xlink:title="Hardware dependent implementations to receive and decode messages from a remote control. ">
<polygon fill="white" stroke="black" points="1332.5,-134.5 1332.5,-164.5 1481.5,-164.5 1481.5,-134.5 1332.5,-134.5"/>
<text text-anchor="start" x="1340.5" y="-152.5" font-family="Helvetica,sans-Serif" font-size="10.00">platform/e&#45;puck/remoteControl</text>
<text text-anchor="middle" x="1407" y="-141.5" font-family="Helvetica,sans-Serif" font-size="10.00">_HDI.c</text>
</a>
</g>
</g>
<!-- Node1&#45;&gt;Node17 -->
<g id="edge21" class="edge"><title>Node1&#45;&gt;Node17</title>
<path fill="none" stroke="midnightblue" d="M926.148,-205.97C1010.64,-199.279 1180.69,-184.641 1324,-165 1326.75,-164.623 1329.56,-164.221 1332.38,-163.802"/>
<polygon fill="midnightblue" stroke="midnightblue" points="925.726,-202.493 916.031,-206.766 926.275,-209.471 925.726,-202.493"/>
</g>
<!-- Node3 -->
<g id="node3" class="node"><title>Node3</title>
<g id="a_node3"><a xlink:href="$d4/dfd/system_8c.html" xlink:title="defines functions to initialise and start OpenSwarm. ">
<polygon fill="white" stroke="black" points="527.5,-6 527.5,-25 584.5,-25 584.5,-6 527.5,-6"/>
<text text-anchor="middle" x="556" y="-13" font-family="Helvetica,sans-Serif" font-size="10.00">system.c</text>
</a>
</g>
</g>
<!-- Node2&#45;&gt;Node3 -->
<g id="edge2" class="edge"><title>Node2&#45;&gt;Node3</title>
<path fill="none" stroke="midnightblue" d="M556,-62.537C556,-50.1703 556,-34.6198 556,-25.1273"/>
<polygon fill="midnightblue" stroke="midnightblue" points="552.5,-62.7338 556,-72.7338 559.5,-62.7338 552.5,-62.7338"/>
</g>
<!-- Node2&#45;&gt;Node4 -->
<g id="edge3" class="edge"><title>Node2&#45;&gt;Node4</title>
<path fill="none" stroke="midnightblue" d="M461.238,-75.6486C367.566,-68.8038 220.476,-55.1997 95,-31 86.9017,-29.4381 78.2265,-27.2367 70.3278,-25.0199"/>
<polygon fill="midnightblue" stroke="midnightblue" points="461.036,-79.143 471.262,-76.3701 461.539,-72.161 461.036,-79.143"/>
</g>
<!-- Node5 -->
<g id="node5" class="node"><title>Node5</title>
<g id="a_node5"><a xlink:href="$d2/d78/process__Management__HDI_8c.html" xlink:title="Hardware dependent implementations to manage processes (e.g. task swichting) ">
<polygon fill="white" stroke="black" points="603,-0.5 603,-30.5 725,-30.5 725,-0.5 603,-0.5"/>
<text text-anchor="start" x="611" y="-18.5" font-family="Helvetica,sans-Serif" font-size="10.00">platform/e&#45;puck/process</text>
<text text-anchor="middle" x="664" y="-7.5" font-family="Helvetica,sans-Serif" font-size="10.00">_Management_HDI.c</text>
</a>
</g>
</g>
<!-- Node2&#45;&gt;Node5 -->
<g id="edge4" class="edge"><title>Node2&#45;&gt;Node5</title>
<path fill="none" stroke="midnightblue" d="M579.338,-67.4538C597.454,-56.5506 622.457,-41.503 640.591,-30.589"/>
<polygon fill="midnightblue" stroke="midnightblue" points="577.328,-64.5784 570.565,-72.7338 580.938,-70.5759 577.328,-64.5784"/>
</g>
<!-- Node6 -->
<g id="node6" class="node"><title>Node6</title>
<g id="a_node6"><a xlink:href="$d7/de8/system__Timer__HDI_8c.html" xlink:title="Hardware dependent implementations to initialise, configure and run the system Timer. ">
<polygon fill="white" stroke="black" points="104.5,-0.5 104.5,-30.5 223.5,-30.5 223.5,-0.5 104.5,-0.5"/>
<text text-anchor="start" x="112.5" y="-18.5" font-family="Helvetica,sans-Serif" font-size="10.00">platform/e&#45;puck/system</text>
<text text-anchor="middle" x="164" y="-7.5" font-family="Helvetica,sans-Serif" font-size="10.00">_Timer_HDI.c</text>
</a>
</g>
</g>
<!-- Node2&#45;&gt;Node6 -->
<g id="edge5" class="edge"><title>Node2&#45;&gt;Node6</title>
<path fill="none" stroke="midnightblue" d="M484.363,-71.4988C418.581,-62.0389 318.489,-46.9488 232,-31 229.27,-30.4965 226.481,-29.9665 223.667,-29.4187"/>
<polygon fill="midnightblue" stroke="midnightblue" points="484.223,-75.0144 494.619,-72.9679 485.216,-68.0851 484.223,-75.0144"/>
</g>
<!-- Node7 -->
<g id="node7" class="node"><title>Node7</title>
<g id="a_node7"><a xlink:href="$de/da9/data_8c.html" xlink:title="It defines functions to manage process lists and related structs. ">
<polygon fill="white" stroke="black" points="743,-6 743,-25 835,-25 835,-6 743,-6"/>
<text text-anchor="middle" x="789" y="-13" font-family="Helvetica,sans-Serif" font-size="10.00">processes/data.c</text>
</a>
</g>
</g>
<!-- Node2&#45;&gt;Node7 -->
<g id="edge6" class="edge"><title>Node2&#45;&gt;Node7</title>
<path fill="none" stroke="midnightblue" d="M596.606,-70.1721C642.681,-57.3186 716.796,-36.6427 758.303,-25.0637"/>
<polygon fill="midnightblue" stroke="midnightblue" points="595.632,-66.8101 586.941,-72.8685 597.513,-73.5526 595.632,-66.8101"/>
</g>
<!-- Node8 -->
<g id="node8" class="node"><title>Node8</title>
<g id="a_node8"><a xlink:href="$da/d14/process__Management_8c.html" xlink:title="It defines functions to manage processes (e.g. task creation, switching, termination) ...">
<polygon fill="white" stroke="black" points="853.5,-6 853.5,-25 1022.5,-25 1022.5,-6 853.5,-6"/>
<text text-anchor="middle" x="938" y="-13" font-family="Helvetica,sans-Serif" font-size="10.00">processes/process_Management.c</text>
</a>
</g>
</g>
<!-- Node2&#45;&gt;Node8 -->
<g id="edge7" class="edge"><title>Node2&#45;&gt;Node8</title>
<path fill="none" stroke="midnightblue" d="M616.566,-71.1942C691.589,-58.4285 818.015,-36.9163 887.86,-25.0317"/>
<polygon fill="midnightblue" stroke="midnightblue" points="615.604,-67.8076 606.333,-72.9355 616.778,-74.7084 615.604,-67.8076"/>
</g>
<!-- Node9 -->
<g id="node9" class="node"><title>Node9</title>
<g id="a_node9"><a xlink:href="$dd/d6c/scheduler_8c.html" xlink:title="It defines functions to specify a scheduling algorithm. ">
<polygon fill="white" stroke="black" points="241.5,-6 241.5,-25 356.5,-25 356.5,-6 241.5,-6"/>
<text text-anchor="middle" x="299" y="-13" font-family="Helvetica,sans-Serif" font-size="10.00">processes/scheduler.c</text>
</a>
</g>
</g>
<!-- Node2&#45;&gt;Node9 -->
<g id="edge8" class="edge"><title>Node2&#45;&gt;Node9</title>
<path fill="none" stroke="midnightblue" d="M512.128,-70.4039C461.407,-57.5757 379.011,-36.7361 332.938,-25.0834"/>
<polygon fill="midnightblue" stroke="midnightblue" points="511.585,-73.8767 522.137,-72.9355 513.301,-67.0903 511.585,-73.8767"/>
</g>
<!-- Node10 -->
<g id="node10" class="node"><title>Node10</title>
<g id="a_node10"><a xlink:href="$de/dfb/system__Timer_8c.html" xlink:title="It defines functions to initialise, configure and run the system Timer. ">
<polygon fill="white" stroke="black" points="374.5,-6 374.5,-25 509.5,-25 509.5,-6 374.5,-6"/>
<text text-anchor="middle" x="442" y="-13" font-family="Helvetica,sans-Serif" font-size="10.00">processes/system_Timer.c</text>
</a>
</g>
</g>
<!-- Node2&#45;&gt;Node10 -->
<g id="edge9" class="edge"><title>Node2&#45;&gt;Node10</title>
<path fill="none" stroke="midnightblue" d="M531.648,-67.6151C509.062,-54.737 476.158,-35.9758 457.131,-25.1273"/>
<polygon fill="midnightblue" stroke="midnightblue" points="530.205,-70.8211 540.625,-72.7338 533.672,-64.7401 530.205,-70.8211"/>
</g>
<!-- Node14&#45;&gt;Node8 -->
<g id="edge19" class="edge"><title>Node14&#45;&gt;Node8</title>
<path fill="none" stroke="midnightblue" d="M745.077,-136.105C767.551,-126.697 798.348,-112.876 824,-98 864.198,-74.688 907.872,-40.7944 927.459,-25.0857"/>
<polygon fill="midnightblue" stroke="midnightblue" points="743.597,-132.93 735.69,-139.982 746.269,-139.4 743.597,-132.93"/>
</g>
<!-- Node15 -->
<g id="node15" class="node"><title>Node15</title>
<g id="a_node15"><a xlink:href="$de/dad/process__Management__HDI_8h.html" xlink:title="Hardware dependent implementations to manage processes (e.g. task swichting) ">
<polygon fill="white" stroke="black" points="693,-67.5 693,-97.5 815,-97.5 815,-67.5 693,-67.5"/>
<text text-anchor="start" x="701" y="-85.5" font-family="Helvetica,sans-Serif" font-size="10.00">platform/e&#45;puck/process</text>
<text text-anchor="middle" x="754" y="-74.5" font-family="Helvetica,sans-Serif" font-size="10.00">_Management_HDI.h</text>
</a>
</g>
</g>
<!-- Node14&#45;&gt;Node15 -->
<g id="edge15" class="edge"><title>Node14&#45;&gt;Node15</title>
<path fill="none" stroke="midnightblue" d="M724.748,-131.035C731.197,-120.556 739.291,-107.402 745.33,-97.589"/>
<polygon fill="midnightblue" stroke="midnightblue" points="721.655,-129.383 719.395,-139.734 727.616,-133.052 721.655,-129.383"/>
</g>
<!-- Node15&#45;&gt;Node5 -->
<g id="edge16" class="edge"><title>Node15&#45;&gt;Node5</title>
<path fill="none" stroke="midnightblue" d="M726.24,-61.4511C712.395,-51.4517 695.984,-39.5995 683.491,-30.5765"/>
<polygon fill="midnightblue" stroke="midnightblue" points="724.315,-64.3784 734.471,-67.396 728.414,-58.7036 724.315,-64.3784"/>
</g>
<!-- Node15&#45;&gt;Node7 -->
<g id="edge17" class="edge"><title>Node15&#45;&gt;Node7</title>
<path fill="none" stroke="midnightblue" d="M766.499,-58.2875C772.683,-46.8032 779.776,-33.6298 784.318,-25.1945"/>
<polygon fill="midnightblue" stroke="midnightblue" points="763.254,-56.9319 761.594,-67.396 769.417,-60.2506 763.254,-56.9319"/>
</g>
<!-- Node15&#45;&gt;Node8 -->
<g id="edge18" class="edge"><title>Node15&#45;&gt;Node8</title>
<path fill="none" stroke="midnightblue" d="M803.692,-63.9459C839.429,-51.3213 886.055,-34.8502 913.919,-25.007"/>
<polygon fill="midnightblue" stroke="midnightblue" points="802.188,-60.7649 793.925,-67.396 804.52,-67.3652 802.188,-60.7649"/>
</g>
</g>
</svg>
