<?xml version="1.0" encoding="UTF-8" standalone="no"?>
<!DOCTYPE svg PUBLIC "-//W3C//DTD SVG 1.1//EN"
 "http://www.w3.org/Graphics/SVG/1.1/DTD/svg11.dtd">
<!-- Generated by graphviz version 2.38.0 (20140413.2041)
 -->
<!-- Title: processes/data.h Pages: 1 -->
<svg width="554pt" height="274pt"
 viewBox="0.00 0.00 554.00 274.00" xmlns="http://www.w3.org/2000/svg" xmlns:xlink="http://www.w3.org/1999/xlink">
<g id="graph0" class="graph" transform="scale(1 1) rotate(0) translate(4 270)">
<title>processes/data.h</title>
<polygon fill="white" stroke="none" points="-4,4 -4,-270 550,-270 550,4 -4,4"/>
<!-- Node1 -->
<g id="node1" class="node"><title>Node1</title>
<polygon fill="#bfbfbf" stroke="black" points="89,-246.5 89,-265.5 181,-265.5 181,-246.5 89,-246.5"/>
<text text-anchor="middle" x="135" y="-253.5" font-family="Helvetica,sans-Serif" font-size="10.00">processes/data.h</text>
</g>
<!-- Node2 -->
<g id="node2" class="node"><title>Node2</title>
<polygon fill="white" stroke="#bfbfbf" points="0,-73 0,-92 56,-92 56,-73 0,-73"/>
<text text-anchor="middle" x="28" y="-80" font-family="Helvetica,sans-Serif" font-size="10.00">stdbool.h</text>
</g>
<!-- Node1&#45;&gt;Node2 -->
<g id="edge1" class="edge"><title>Node1&#45;&gt;Node2</title>
<path fill="none" stroke="midnightblue" d="M88.9574,-248.644C65.327,-242.792 38.5222,-231.558 24,-210 1.88121,-177.166 12.8787,-127.888 21.3339,-101.577"/>
<polygon fill="midnightblue" stroke="midnightblue" points="24.6461,-102.708 24.5906,-92.1132 18.0271,-100.43 24.6461,-102.708"/>
</g>
<!-- Node3 -->
<g id="node3" class="node"><title>Node3</title>
<g id="a_node3"><a xlink:href="../../d6/dc2/definitions_8h.html" target="_top" xlink:title="It declares general preprocessor variables and types. ">
<polygon fill="white" stroke="black" points="128.5,-134.5 128.5,-153.5 229.5,-153.5 229.5,-134.5 128.5,-134.5"/>
<text text-anchor="middle" x="179" y="-141.5" font-family="Helvetica,sans-Serif" font-size="10.00">../../os/definitions.h</text>
</a>
</g>
</g>
<!-- Node1&#45;&gt;Node3 -->
<g id="edge2" class="edge"><title>Node1&#45;&gt;Node3</title>
<path fill="none" stroke="midnightblue" d="M140.585,-246.328C146.1,-237.474 154.488,-223.194 160,-210 166.373,-194.745 171.478,-176.636 174.785,-163.411"/>
<polygon fill="midnightblue" stroke="midnightblue" points="178.204,-164.162 177.128,-153.622 171.396,-162.532 178.204,-164.162"/>
</g>
<!-- Node9 -->
<g id="node9" class="node"><title>Node9</title>
<g id="a_node9"><a xlink:href="../../db/dd2/events_8h.html" target="_top" xlink:title="declares functions to create, (un)subscribe, (un)register, and delete events and related handler...">
<polygon fill="white" stroke="black" points="33,-190.5 33,-209.5 151,-209.5 151,-190.5 33,-190.5"/>
<text text-anchor="middle" x="92" y="-197.5" font-family="Helvetica,sans-Serif" font-size="10.00">../../os/events/events.h</text>
</a>
</g>
</g>
<!-- Node1&#45;&gt;Node9 -->
<g id="edge9" class="edge"><title>Node1&#45;&gt;Node9</title>
<path fill="none" stroke="midnightblue" d="M127.899,-246.083C121.763,-238.377 112.73,-227.033 105.261,-217.653"/>
<polygon fill="midnightblue" stroke="midnightblue" points="107.936,-215.394 98.9685,-209.751 102.46,-219.754 107.936,-215.394"/>
</g>
<!-- Node10 -->
<g id="node10" class="node"><title>Node10</title>
<g id="a_node10"><a xlink:href="../../d2/dd8/scheduler_8h.html" target="_top" xlink:title="It declares functions to specify a scheduling algorithm. ">
<polygon fill="white" stroke="black" points="207.5,-190.5 207.5,-209.5 274.5,-209.5 274.5,-190.5 207.5,-190.5"/>
<text text-anchor="middle" x="241" y="-197.5" font-family="Helvetica,sans-Serif" font-size="10.00">scheduler.h</text>
</a>
</g>
</g>
<!-- Node1&#45;&gt;Node10 -->
<g id="edge12" class="edge"><title>Node1&#45;&gt;Node10</title>
<path fill="none" stroke="midnightblue" d="M152.031,-246.324C169.03,-237.664 195.376,-224.242 214.993,-214.249"/>
<polygon fill="midnightblue" stroke="midnightblue" points="216.69,-217.312 224.012,-209.655 213.512,-211.075 216.69,-217.312"/>
</g>
<!-- Node3&#45;&gt;Node2 -->
<g id="edge3" class="edge"><title>Node3&#45;&gt;Node2</title>
<path fill="none" stroke="midnightblue" d="M157.365,-134.475C131.576,-124.313 88.2894,-107.256 58.9603,-95.6996"/>
<polygon fill="midnightblue" stroke="midnightblue" points="60.1814,-92.4189 49.5945,-92.0091 57.6151,-98.9315 60.1814,-92.4189"/>
</g>
<!-- Node4 -->
<g id="node4" class="node"><title>Node4</title>
<polygon fill="white" stroke="#bfbfbf" points="74.5,-73 74.5,-92 123.5,-92 123.5,-73 74.5,-73"/>
<text text-anchor="middle" x="99" y="-80" font-family="Helvetica,sans-Serif" font-size="10.00">stdint.h</text>
</g>
<!-- Node3&#45;&gt;Node4 -->
<g id="edge4" class="edge"><title>Node3&#45;&gt;Node4</title>
<path fill="none" stroke="midnightblue" d="M167.538,-134.475C154.825,-125.02 134.087,-109.596 118.747,-98.1871"/>
<polygon fill="midnightblue" stroke="midnightblue" points="120.554,-95.1686 110.441,-92.0091 116.376,-100.785 120.554,-95.1686"/>
</g>
<!-- Node5 -->
<g id="node5" class="node"><title>Node5</title>
<polygon fill="white" stroke="#bfbfbf" points="142,-73 142,-92 216,-92 216,-73 142,-73"/>
<text text-anchor="middle" x="179" y="-80" font-family="Helvetica,sans-Serif" font-size="10.00">p30F6014A.h</text>
</g>
<!-- Node3&#45;&gt;Node5 -->
<g id="edge5" class="edge"><title>Node3&#45;&gt;Node5</title>
<path fill="none" stroke="midnightblue" d="M179,-134.475C179,-126.08 179,-112.981 179,-102.163"/>
<polygon fill="midnightblue" stroke="midnightblue" points="182.5,-102.009 179,-92.0091 175.5,-102.009 182.5,-102.009"/>
</g>
<!-- Node6 -->
<g id="node6" class="node"><title>Node6</title>
<polygon fill="white" stroke="#bfbfbf" points="234.5,-67.5 234.5,-97.5 371.5,-97.5 371.5,-67.5 234.5,-67.5"/>
<text text-anchor="start" x="242.5" y="-85.5" font-family="Helvetica,sans-Serif" font-size="10.00">platform/e&#45;puck/library</text>
<text text-anchor="middle" x="303" y="-74.5" font-family="Helvetica,sans-Serif" font-size="10.00">/motor_led/e_epuck_ports.h</text>
</g>
<!-- Node3&#45;&gt;Node6 -->
<g id="edge6" class="edge"><title>Node3&#45;&gt;Node6</title>
<path fill="none" stroke="midnightblue" d="M196.766,-134.475C214.423,-126.002 242.068,-112.737 264.731,-101.863"/>
<polygon fill="midnightblue" stroke="midnightblue" points="266.274,-105.005 273.776,-97.523 263.246,-98.6936 266.274,-105.005"/>
</g>
<!-- Node7 -->
<g id="node7" class="node"><title>Node7</title>
<g id="a_node7"><a xlink:href="../../d9/d1f/DSPIC30F6014A__HDI_8h.html" target="_top" xlink:title="declares e&#45;puck specific types and preprocessor variables ">
<polygon fill="white" stroke="black" points="390,-67.5 390,-97.5 546,-97.5 546,-67.5 390,-67.5"/>
<text text-anchor="start" x="398" y="-85.5" font-family="Helvetica,sans-Serif" font-size="10.00">platform/e&#45;puck/DSPIC30F6014</text>
<text text-anchor="middle" x="468" y="-74.5" font-family="Helvetica,sans-Serif" font-size="10.00">A_HDI.h</text>
</a>
</g>
</g>
<!-- Node3&#45;&gt;Node7 -->
<g id="edge7" class="edge"><title>Node3&#45;&gt;Node7</title>
<path fill="none" stroke="midnightblue" d="M220.407,-134.475C264.486,-125.4 335.271,-110.826 389.888,-99.5818"/>
<polygon fill="midnightblue" stroke="midnightblue" points="390.8,-102.968 399.888,-97.523 389.388,-96.1115 390.8,-102.968"/>
</g>
<!-- Node8 -->
<g id="node8" class="node"><title>Node8</title>
<polygon fill="white" stroke="#bfbfbf" points="419.5,-0.5 419.5,-30.5 516.5,-30.5 516.5,-0.5 419.5,-0.5"/>
<text text-anchor="start" x="427.5" y="-18.5" font-family="Helvetica,sans-Serif" font-size="10.00">library/motor_led/e</text>
<text text-anchor="middle" x="468" y="-7.5" font-family="Helvetica,sans-Serif" font-size="10.00">_epuck_ports.h</text>
</g>
<!-- Node7&#45;&gt;Node8 -->
<g id="edge8" class="edge"><title>Node7&#45;&gt;Node8</title>
<path fill="none" stroke="midnightblue" d="M468,-67.396C468,-59.6448 468,-49.8122 468,-40.8601"/>
<polygon fill="midnightblue" stroke="midnightblue" points="471.5,-40.5765 468,-30.5765 464.5,-40.5765 471.5,-40.5765"/>
</g>
<!-- Node9&#45;&gt;Node2 -->
<g id="edge10" class="edge"><title>Node9&#45;&gt;Node2</title>
<path fill="none" stroke="midnightblue" d="M87.1896,-190.319C76.7189,-171.422 51.6874,-126.248 37.7638,-101.121"/>
<polygon fill="midnightblue" stroke="midnightblue" points="40.7745,-99.3326 32.8662,-92.282 34.6516,-102.725 40.7745,-99.3326"/>
</g>
<!-- Node9&#45;&gt;Node3 -->
<g id="edge11" class="edge"><title>Node9&#45;&gt;Node3</title>
<path fill="none" stroke="midnightblue" d="M105.978,-190.324C119.55,-181.9 140.38,-168.971 156.325,-159.074"/>
<polygon fill="midnightblue" stroke="midnightblue" points="158.406,-161.902 165.057,-153.655 154.714,-155.954 158.406,-161.902"/>
</g>
<!-- Node10&#45;&gt;Node3 -->
<g id="edge13" class="edge"><title>Node10&#45;&gt;Node3</title>
<path fill="none" stroke="midnightblue" d="M231.039,-190.324C221.873,-182.341 208.063,-170.313 196.972,-160.653"/>
<polygon fill="midnightblue" stroke="midnightblue" points="198.982,-157.762 189.143,-153.834 194.385,-163.041 198.982,-157.762"/>
</g>
</g>
</svg>
