<?xml version="1.0" encoding="UTF-8" standalone="no"?>
<!DOCTYPE svg PUBLIC "-//W3C//DTD SVG 1.1//EN"
 "http://www.w3.org/Graphics/SVG/1.1/DTD/svg11.dtd">
<!-- Generated by graphviz version 2.38.0 (20140413.2041)
 -->
<!-- Title: platform/e&#45;puck/motors_HDI.h Pages: 1 -->
<svg width="268pt" height="106pt"
 viewBox="0.00 0.00 268.00 106.00" xmlns="http://www.w3.org/2000/svg" xmlns:xlink="http://www.w3.org/1999/xlink">
<g id="graph0" class="graph" transform="scale(1 1) rotate(0) translate(4 102)">
<title>platform/e&#45;puck/motors_HDI.h</title>
<polygon fill="white" stroke="none" points="-4,4 -4,-102 264,-102 264,4 -4,4"/>
<!-- Node1 -->
<g id="node1" class="node"><title>Node1</title>
<polygon fill="#bfbfbf" stroke="black" points="73,-67.5 73,-97.5 190,-97.5 190,-67.5 73,-67.5"/>
<text text-anchor="start" x="81" y="-85.5" font-family="Helvetica,sans-Serif" font-size="10.00">platform/e&#45;puck/motors</text>
<text text-anchor="middle" x="131.5" y="-74.5" font-family="Helvetica,sans-Serif" font-size="10.00">_HDI.h</text>
</g>
<!-- Node2 -->
<g id="node2" class="node"><title>Node2</title>
<g id="a_node2"><a xlink:href="../../d6/d0e/motors_8c.html" target="_top" xlink:title="It defines function to drive motors. ">
<polygon fill="white" stroke="black" points="0,-6 0,-25 125,-25 125,-6 0,-6"/>
<text text-anchor="middle" x="62.5" y="-13" font-family="Helvetica,sans-Serif" font-size="10.00">platform/e&#45;puck/motors.c</text>
</a>
</g>
</g>
<!-- Node1&#45;&gt;Node2 -->
<g id="edge1" class="edge"><title>Node1&#45;&gt;Node2</title>
<path fill="none" stroke="midnightblue" d="M109.033,-60.335C96.3642,-48.401 81.2212,-34.1359 71.7296,-25.1945"/>
<polygon fill="midnightblue" stroke="midnightblue" points="106.849,-63.0866 116.528,-67.396 111.649,-57.9914 106.849,-63.0866"/>
</g>
<!-- Node3 -->
<g id="node3" class="node"><title>Node3</title>
<g id="a_node3"><a xlink:href="../../da/d9d/motors__HDI_8c.html" target="_top" xlink:title="Hardware dependent implementations to drive motors. ">
<polygon fill="white" stroke="black" points="143,-0.5 143,-30.5 260,-30.5 260,-0.5 143,-0.5"/>
<text text-anchor="start" x="151" y="-18.5" font-family="Helvetica,sans-Serif" font-size="10.00">platform/e&#45;puck/motors</text>
<text text-anchor="middle" x="201.5" y="-7.5" font-family="Helvetica,sans-Serif" font-size="10.00">_HDI.c</text>
</a>
</g>
</g>
<!-- Node1&#45;&gt;Node3 -->
<g id="edge2" class="edge"><title>Node1&#45;&gt;Node3</title>
<path fill="none" stroke="midnightblue" d="M154.318,-60.3115C164.819,-50.5612 176.99,-39.259 186.341,-30.5765"/>
<polygon fill="midnightblue" stroke="midnightblue" points="151.635,-58.0266 146.689,-67.396 156.399,-63.1562 151.635,-58.0266"/>
</g>
</g>
</svg>
