<?xml version="1.0" encoding="UTF-8" standalone="no"?>
<!DOCTYPE svg PUBLIC "-//W3C//DTD SVG 1.1//EN"
 "http://www.w3.org/Graphics/SVG/1.1/DTD/svg11.dtd">
<!-- Generated by graphviz version 2.38.0 (20140413.2041)
 -->
<!-- Title: platform/e&#45;puck/motors.c Pages: 1 -->
<svg width="554pt" height="330pt"
 viewBox="0.00 0.00 553.50 330.00" xmlns="http://www.w3.org/2000/svg" xmlns:xlink="http://www.w3.org/1999/xlink">
<g id="graph0" class="graph" transform="scale(1 1) rotate(0) translate(4 326)">
<title>platform/e&#45;puck/motors.c</title>
<polygon fill="white" stroke="none" points="-4,4 -4,-326 549.5,-326 549.5,4 -4,4"/>
<!-- Node1 -->
<g id="node1" class="node"><title>Node1</title>
<polygon fill="#bfbfbf" stroke="black" points="213,-302.5 213,-321.5 338,-321.5 338,-302.5 213,-302.5"/>
<text text-anchor="middle" x="275.5" y="-309.5" font-family="Helvetica,sans-Serif" font-size="10.00">platform/e&#45;puck/motors.c</text>
</g>
<!-- Node2 -->
<g id="node2" class="node"><title>Node2</title>
<g id="a_node2"><a xlink:href="../../dd/d59/motors_8h.html" target="_top" xlink:title="It declares functions to drive motors. ">
<polygon fill="white" stroke="black" points="135,-246.5 135,-265.5 190,-265.5 190,-246.5 135,-246.5"/>
<text text-anchor="middle" x="162.5" y="-253.5" font-family="Helvetica,sans-Serif" font-size="10.00">motors.h</text>
</a>
</g>
</g>
<!-- Node1&#45;&gt;Node2 -->
<g id="edge1" class="edge"><title>Node1&#45;&gt;Node2</title>
<path fill="none" stroke="midnightblue" d="M257.595,-302.444C239.246,-293.675 210.495,-279.935 189.406,-269.858"/>
<polygon fill="midnightblue" stroke="midnightblue" points="190.853,-266.67 180.321,-265.516 187.835,-272.986 190.853,-266.67"/>
</g>
<!-- Node3 -->
<g id="node3" class="node"><title>Node3</title>
<g id="a_node3"><a xlink:href="../../dc/dac/io_8h.html" target="_top" xlink:title="It declares functions to control the IO timer and to (un)register IO Handler. ">
<polygon fill="white" stroke="black" points="167,-190.5 167,-209.5 228,-209.5 228,-190.5 167,-190.5"/>
<text text-anchor="middle" x="197.5" y="-197.5" font-family="Helvetica,sans-Serif" font-size="10.00">../../io/io.h</text>
</a>
</g>
</g>
<!-- Node1&#45;&gt;Node3 -->
<g id="edge12" class="edge"><title>Node1&#45;&gt;Node3</title>
<path fill="none" stroke="midnightblue" d="M269.104,-302.424C262.404,-293.407 251.608,-278.781 242.5,-266 231.091,-249.99 218.362,-231.547 209.361,-218.406"/>
<polygon fill="midnightblue" stroke="midnightblue" points="212.07,-216.167 203.538,-209.885 206.29,-220.116 212.07,-216.167"/>
</g>
<!-- Node4 -->
<g id="node4" class="node"><title>Node4</title>
<g id="a_node4"><a xlink:href="../../d6/dc2/definitions_8h.html" target="_top" xlink:title="It declares general preprocessor variables and types. ">
<polygon fill="white" stroke="black" points="217.5,-134.5 217.5,-153.5 295.5,-153.5 295.5,-134.5 217.5,-134.5"/>
<text text-anchor="middle" x="256.5" y="-141.5" font-family="Helvetica,sans-Serif" font-size="10.00">../definitions.h</text>
</a>
</g>
</g>
<!-- Node1&#45;&gt;Node4 -->
<g id="edge16" class="edge"><title>Node1&#45;&gt;Node4</title>
<path fill="none" stroke="midnightblue" d="M274.478,-302.075C271.488,-275.945 262.705,-199.211 258.626,-163.577"/>
<polygon fill="midnightblue" stroke="midnightblue" points="262.095,-163.105 257.481,-153.568 255.141,-163.901 262.095,-163.105"/>
</g>
<!-- Node11 -->
<g id="node11" class="node"><title>Node11</title>
<g id="a_node11"><a xlink:href="../../df/d85/motors__HDI_8h.html" target="_top" xlink:title="Hardware dependent implementations to drive motors. ">
<polygon fill="white" stroke="black" points="284.5,-190.5 284.5,-209.5 362.5,-209.5 362.5,-190.5 284.5,-190.5"/>
<text text-anchor="middle" x="323.5" y="-197.5" font-family="Helvetica,sans-Serif" font-size="10.00">motors_HDI.h</text>
</a>
</g>
</g>
<!-- Node1&#45;&gt;Node11 -->
<g id="edge10" class="edge"><title>Node1&#45;&gt;Node11</title>
<path fill="none" stroke="midnightblue" d="M279.266,-302.368C287.083,-284.456 305.206,-242.923 315.668,-218.948"/>
<polygon fill="midnightblue" stroke="midnightblue" points="318.959,-220.157 319.751,-209.591 312.544,-217.357 318.959,-220.157"/>
</g>
<!-- Node12 -->
<g id="node12" class="node"><title>Node12</title>
<g id="a_node12"><a xlink:href="../../db/dd2/events_8h.html" target="_top" xlink:title="declares functions to create, (un)subscribe, (un)register, and delete events and related handler...">
<polygon fill="white" stroke="black" points="380.5,-190.5 380.5,-209.5 484.5,-209.5 484.5,-190.5 380.5,-190.5"/>
<text text-anchor="middle" x="432.5" y="-197.5" font-family="Helvetica,sans-Serif" font-size="10.00">../../events/events.h</text>
</a>
</g>
</g>
<!-- Node1&#45;&gt;Node12 -->
<g id="edge13" class="edge"><title>Node1&#45;&gt;Node12</title>
<path fill="none" stroke="midnightblue" d="M284.375,-302.366C298.086,-289.278 325.552,-264.032 351.5,-246 368.837,-233.952 389.687,-222.43 405.891,-214.061"/>
<polygon fill="midnightblue" stroke="midnightblue" points="407.503,-217.168 414.833,-209.518 404.333,-210.927 407.503,-217.168"/>
</g>
<!-- Node13 -->
<g id="node13" class="node"><title>Node13</title>
<polygon fill="white" stroke="#bfbfbf" points="360.5,-246.5 360.5,-265.5 408.5,-265.5 408.5,-246.5 360.5,-246.5"/>
<text text-anchor="middle" x="384.5" y="-253.5" font-family="Helvetica,sans-Serif" font-size="10.00">stdlib.h</text>
</g>
<!-- Node1&#45;&gt;Node13 -->
<g id="edge17" class="edge"><title>Node1&#45;&gt;Node13</title>
<path fill="none" stroke="midnightblue" d="M293.013,-302.324C310.572,-293.625 337.831,-280.12 358.031,-270.113"/>
<polygon fill="midnightblue" stroke="midnightblue" points="359.624,-273.23 367.031,-265.655 356.516,-266.958 359.624,-273.23"/>
</g>
<!-- Node2&#45;&gt;Node3 -->
<g id="edge2" class="edge"><title>Node2&#45;&gt;Node3</title>
<path fill="none" stroke="midnightblue" d="M168.28,-246.083C173.172,-238.534 180.327,-227.495 186.333,-218.23"/>
<polygon fill="midnightblue" stroke="midnightblue" points="189.326,-220.046 191.828,-209.751 183.452,-216.239 189.326,-220.046"/>
</g>
<!-- Node3&#45;&gt;Node4 -->
<g id="edge3" class="edge"><title>Node3&#45;&gt;Node4</title>
<path fill="none" stroke="midnightblue" d="M206.979,-190.324C215.701,-182.341 228.843,-170.313 239.398,-160.653"/>
<polygon fill="midnightblue" stroke="midnightblue" points="241.834,-163.167 246.848,-153.834 237.108,-158.004 241.834,-163.167"/>
</g>
<!-- Node5 -->
<g id="node5" class="node"><title>Node5</title>
<polygon fill="white" stroke="#bfbfbf" points="489.5,-73 489.5,-92 545.5,-92 545.5,-73 489.5,-73"/>
<text text-anchor="middle" x="517.5" y="-80" font-family="Helvetica,sans-Serif" font-size="10.00">stdbool.h</text>
</g>
<!-- Node4&#45;&gt;Node5 -->
<g id="edge4" class="edge"><title>Node4&#45;&gt;Node5</title>
<path fill="none" stroke="midnightblue" d="M295.852,-137.238C340.987,-130.138 416.946,-116.68 480.5,-98 482.933,-97.285 485.429,-96.4765 487.921,-95.616"/>
<polygon fill="midnightblue" stroke="midnightblue" points="489.198,-98.8755 497.367,-92.1278 486.773,-92.309 489.198,-98.8755"/>
</g>
<!-- Node6 -->
<g id="node6" class="node"><title>Node6</title>
<polygon fill="white" stroke="#bfbfbf" points="0,-73 0,-92 49,-92 49,-73 0,-73"/>
<text text-anchor="middle" x="24.5" y="-80" font-family="Helvetica,sans-Serif" font-size="10.00">stdint.h</text>
</g>
<!-- Node4&#45;&gt;Node6 -->
<g id="edge5" class="edge"><title>Node4&#45;&gt;Node6</title>
<path fill="none" stroke="midnightblue" d="M217.243,-136.235C176.886,-128.781 112.492,-115.492 58.5,-98 56.577,-97.377 54.6124,-96.6878 52.6457,-95.9581"/>
<polygon fill="midnightblue" stroke="midnightblue" points="53.5605,-92.5545 42.9758,-92.0912 50.9613,-99.0541 53.5605,-92.5545"/>
</g>
<!-- Node7 -->
<g id="node7" class="node"><title>Node7</title>
<polygon fill="white" stroke="#bfbfbf" points="67.5,-73 67.5,-92 141.5,-92 141.5,-73 67.5,-73"/>
<text text-anchor="middle" x="104.5" y="-80" font-family="Helvetica,sans-Serif" font-size="10.00">p30F6014A.h</text>
</g>
<!-- Node4&#45;&gt;Node7 -->
<g id="edge6" class="edge"><title>Node4&#45;&gt;Node7</title>
<path fill="none" stroke="midnightblue" d="M234.722,-134.475C208.762,-124.313 165.189,-107.256 135.665,-95.6996"/>
<polygon fill="midnightblue" stroke="midnightblue" points="136.825,-92.3951 126.237,-92.0091 134.274,-98.9135 136.825,-92.3951"/>
</g>
<!-- Node8 -->
<g id="node8" class="node"><title>Node8</title>
<polygon fill="white" stroke="#bfbfbf" points="160,-67.5 160,-97.5 297,-97.5 297,-67.5 160,-67.5"/>
<text text-anchor="start" x="168" y="-85.5" font-family="Helvetica,sans-Serif" font-size="10.00">platform/e&#45;puck/library</text>
<text text-anchor="middle" x="228.5" y="-74.5" font-family="Helvetica,sans-Serif" font-size="10.00">/motor_led/e_epuck_ports.h</text>
</g>
<!-- Node4&#45;&gt;Node8 -->
<g id="edge7" class="edge"><title>Node4&#45;&gt;Node8</title>
<path fill="none" stroke="midnightblue" d="M252.488,-134.475C249.086,-127.245 244.041,-116.525 239.455,-106.779"/>
<polygon fill="midnightblue" stroke="midnightblue" points="242.524,-105.081 235.099,-97.523 236.19,-108.061 242.524,-105.081"/>
</g>
<!-- Node9 -->
<g id="node9" class="node"><title>Node9</title>
<g id="a_node9"><a xlink:href="../../d9/d1f/DSPIC30F6014A__HDI_8h.html" target="_top" xlink:title="declares e&#45;puck specific types and preprocessor variables ">
<polygon fill="white" stroke="black" points="315.5,-67.5 315.5,-97.5 471.5,-97.5 471.5,-67.5 315.5,-67.5"/>
<text text-anchor="start" x="323.5" y="-85.5" font-family="Helvetica,sans-Serif" font-size="10.00">platform/e&#45;puck/DSPIC30F6014</text>
<text text-anchor="middle" x="393.5" y="-74.5" font-family="Helvetica,sans-Serif" font-size="10.00">A_HDI.h</text>
</a>
</g>
</g>
<!-- Node4&#45;&gt;Node9 -->
<g id="edge8" class="edge"><title>Node4&#45;&gt;Node9</title>
<path fill="none" stroke="midnightblue" d="M276.129,-134.475C295.811,-125.927 326.724,-112.501 351.886,-101.573"/>
<polygon fill="midnightblue" stroke="midnightblue" points="353.434,-104.717 361.212,-97.523 350.645,-98.2963 353.434,-104.717"/>
</g>
<!-- Node10 -->
<g id="node10" class="node"><title>Node10</title>
<polygon fill="white" stroke="#bfbfbf" points="345,-0.5 345,-30.5 442,-30.5 442,-0.5 345,-0.5"/>
<text text-anchor="start" x="353" y="-18.5" font-family="Helvetica,sans-Serif" font-size="10.00">library/motor_led/e</text>
<text text-anchor="middle" x="393.5" y="-7.5" font-family="Helvetica,sans-Serif" font-size="10.00">_epuck_ports.h</text>
</g>
<!-- Node9&#45;&gt;Node10 -->
<g id="edge9" class="edge"><title>Node9&#45;&gt;Node10</title>
<path fill="none" stroke="midnightblue" d="M393.5,-67.396C393.5,-59.6448 393.5,-49.8122 393.5,-40.8601"/>
<polygon fill="midnightblue" stroke="midnightblue" points="397,-40.5765 393.5,-30.5765 390,-40.5765 397,-40.5765"/>
</g>
<!-- Node11&#45;&gt;Node4 -->
<g id="edge11" class="edge"><title>Node11&#45;&gt;Node4</title>
<path fill="none" stroke="midnightblue" d="M312.735,-190.324C302.734,-182.263 287.613,-170.077 275.57,-160.369"/>
<polygon fill="midnightblue" stroke="midnightblue" points="277.443,-157.384 267.461,-153.834 273.05,-162.834 277.443,-157.384"/>
</g>
<!-- Node12&#45;&gt;Node4 -->
<g id="edge15" class="edge"><title>Node12&#45;&gt;Node4</title>
<path fill="none" stroke="midnightblue" d="M404.612,-190.444C374.746,-181.28 327.185,-166.688 294.044,-156.519"/>
<polygon fill="midnightblue" stroke="midnightblue" points="294.844,-153.104 284.257,-153.516 292.791,-159.796 294.844,-153.104"/>
</g>
<!-- Node12&#45;&gt;Node5 -->
<g id="edge14" class="edge"><title>Node12&#45;&gt;Node5</title>
<path fill="none" stroke="midnightblue" d="M438.889,-190.319C452.918,-171.255 486.63,-125.447 505.02,-100.458"/>
<polygon fill="midnightblue" stroke="midnightblue" points="507.929,-102.411 511.037,-92.282 502.291,-98.2615 507.929,-102.411"/>
</g>
</g>
</svg>
