<?xml version="1.0" encoding="UTF-8" standalone="no"?>
<!DOCTYPE svg PUBLIC "-//W3C//DTD SVG 1.1//EN"
 "http://www.w3.org/Graphics/SVG/1.1/DTD/svg11.dtd">
<!-- Generated by graphviz version 2.38.0 (20140413.2041)
 -->
<!-- Title: processes/process_Management.c Pages: 1 -->
<!--zoomable 408 -->
<svg id="main" version="1.1" xmlns="http://www.w3.org/2000/svg" xmlns:xlink="http://www.w3.org/1999/xlink" xml:space="preserve" onload="init(evt)">
<style type="text/css"><![CDATA[
.edge:hover path { stroke: red; }
.edge:hover polygon { stroke: red; fill: red; }
]]></style>
<script type="text/javascript"><![CDATA[
var edges = document.getElementsByTagName('g');
if (edges && edges.length) {
  for (var i=0;i<edges.length;i++) {
    if (edges[i].id.substr(0,4)=='edge') {
      edges[i].setAttribute('class','edge');
    }
  }
}
]]></script>
        <defs>
                <circle id="rim" cx="0" cy="0" r="7"/>
                <circle id="rim2" cx="0" cy="0" r="3.5"/>
                <g id="zoomPlus">
                        <use xlink:href="#rim" fill="#404040">
                                <set attributeName="fill" to="#808080" begin="zoomplus.mouseover" end="zoomplus.mouseout"/>
                        </use>
                        <path d="M-4,0h8M0,-4v8" fill="none" stroke="white" stroke-width="1.5" pointer-events="none"/>
                </g>
                <g id="zoomMin">
                        <use xlink:href="#rim" fill="#404040">
                                <set attributeName="fill" to="#808080" begin="zoomminus.mouseover" end="zoomminus.mouseout"/>
                        </use>
                        <path d="M-4,0h8" fill="none" stroke="white" stroke-width="1.5" pointer-events="none"/>
                </g>
                <g id="dirArrow">
                        <path fill="none" stroke="white" stroke-width="1.5" d="M0,-3.0v7 M-2.5,-0.5L0,-3.0L2.5,-0.5"/>
                </g>
               <g id="resetDef">
                       <use xlink:href="#rim2" fill="#404040">
                               <set attributeName="fill" to="#808080" begin="reset.mouseover" end="reset.mouseout"/>
                       </use>
               </g>
        </defs>

<script type="text/javascript">
var viewWidth = 616;
var viewHeight = 408;
var sectionId = 'dynsection-0';
</script>
<script xlink:href="../../svgpan.js"/>
<svg id="graph" class="graph">
<g id="viewport">
<title>processes/process_Management.c</title>
<polygon fill="white" stroke="none" points="-4,4 -4,-404 612,-404 612,4 -4,4"/>
<!-- Node1 -->
<g id="node1" class="node"><title>Node1</title>
<polygon fill="#bfbfbf" stroke="black" points="235,-380.5 235,-399.5 404,-399.5 404,-380.5 235,-380.5"/>
<text text-anchor="middle" x="319.5" y="-387.5" font-family="Helvetica,sans-Serif" font-size="10.00">processes/process_Management.c</text>
</g>
<!-- Node2 -->
<g id="node2" class="node"><title>Node2</title>
<g id="a_node2"><a xlink:href="../../dd/de5/process__Management_8h.html" target="_top" xlink:title="It declares functions to manage processes (e.g. task creation, switching, termination) ...">
<polygon fill="white" stroke="black" points="143,-252 143,-271 264,-271 264,-252 143,-252"/>
<text text-anchor="middle" x="203.5" y="-259" font-family="Helvetica,sans-Serif" font-size="10.00">process_Management.h</text>
</a>
</g>
</g>
<!-- Node1&#45;&gt;Node2 -->
<g id="edge1" class="edge"><title>Node1&#45;&gt;Node2</title>
<path fill="none" stroke="midnightblue" d="M311.527,-380.305C292.322,-359.362 243.255,-305.854 218.404,-278.753"/>
<polygon fill="midnightblue" stroke="midnightblue" points="220.867,-276.261 211.529,-271.256 215.708,-280.992 220.867,-276.261"/>
</g>
<!-- Node4 -->
<g id="node4" class="node"><title>Node4</title>
<g id="a_node4"><a xlink:href="../../d6/dc2/definitions_8h.html" target="_top" xlink:title="It declares general preprocessor variables and types. ">
<polygon fill="white" stroke="black" points="258.5,-134.5 258.5,-153.5 336.5,-153.5 336.5,-134.5 258.5,-134.5"/>
<text text-anchor="middle" x="297.5" y="-141.5" font-family="Helvetica,sans-Serif" font-size="10.00">../definitions.h</text>
</a>
</g>
</g>
<!-- Node1&#45;&gt;Node4 -->
<g id="edge29" class="edge"><title>Node1&#45;&gt;Node4</title>
<path fill="none" stroke="midnightblue" d="M341.125,-380.393C358.073,-372.805 381.402,-360.402 397.5,-344 449.908,-290.601 511.05,-249.357 465.5,-190 451.047,-171.166 390.96,-158.491 346.756,-151.514"/>
<polygon fill="midnightblue" stroke="midnightblue" points="347.157,-148.035 336.744,-149.988 346.102,-154.955 347.157,-148.035"/>
</g>
<!-- Node11 -->
<g id="node11" class="node"><title>Node11</title>
<g id="a_node11"><a xlink:href="../../d2/dd8/scheduler_8h.html" target="_top" xlink:title="It declares functions to specify a scheduling algorithm. ">
<polygon fill="white" stroke="black" points="264,-190.5 264,-209.5 331,-209.5 331,-190.5 264,-190.5"/>
<text text-anchor="middle" x="297.5" y="-197.5" font-family="Helvetica,sans-Serif" font-size="10.00">scheduler.h</text>
</a>
</g>
</g>
<!-- Node1&#45;&gt;Node11 -->
<g id="edge23" class="edge"><title>Node1&#45;&gt;Node11</title>
<path fill="none" stroke="midnightblue" d="M318.498,-380.434C315.155,-351.867 304.337,-259.426 299.673,-219.57"/>
<polygon fill="midnightblue" stroke="midnightblue" points="303.147,-219.142 298.508,-209.617 296.194,-219.956 303.147,-219.142"/>
</g>
<!-- Node12 -->
<g id="node12" class="node"><title>Node12</title>
<g id="a_node12"><a xlink:href="../../de/dad/process__Management__HDI_8h.html" target="_top" xlink:title="Hardware dependent implementations to manage processes (e.g. task swichting) ">
<polygon fill="white" stroke="black" points="0,-313.5 0,-343.5 147,-343.5 147,-313.5 0,-313.5"/>
<text text-anchor="start" x="8" y="-331.5" font-family="Helvetica,sans-Serif" font-size="10.00">../platform/e&#45;puck</text>
<text text-anchor="middle" x="73.5" y="-320.5" font-family="Helvetica,sans-Serif" font-size="10.00">/process_Management_HDI.h</text>
</a>
</g>
</g>
<!-- Node1&#45;&gt;Node12 -->
<g id="edge15" class="edge"><title>Node1&#45;&gt;Node12</title>
<path fill="none" stroke="midnightblue" d="M284.254,-380.475C247.123,-371.494 187.728,-357.128 141.441,-345.933"/>
<polygon fill="midnightblue" stroke="midnightblue" points="142.02,-342.472 131.477,-343.523 140.374,-349.276 142.02,-342.472"/>
</g>
<!-- Node13 -->
<g id="node13" class="node"><title>Node13</title>
<g id="a_node13"><a xlink:href="../../d2/dbd/data_8h.html" target="_top" xlink:title="It declares functions to manage process lists and related structs. ">
<polygon fill="white" stroke="black" points="22.5,-246.5 22.5,-276.5 124.5,-276.5 124.5,-246.5 22.5,-246.5"/>
<text text-anchor="start" x="30.5" y="-264.5" font-family="Helvetica,sans-Serif" font-size="10.00">../../../os/processes</text>
<text text-anchor="middle" x="73.5" y="-253.5" font-family="Helvetica,sans-Serif" font-size="10.00">/data.h</text>
</a>
</g>
</g>
<!-- Node1&#45;&gt;Node13 -->
<g id="edge22" class="edge"><title>Node1&#45;&gt;Node13</title>
<path fill="none" stroke="midnightblue" d="M302.591,-380.305C263.085,-359.99 163.988,-309.031 109.98,-281.259"/>
<polygon fill="midnightblue" stroke="midnightblue" points="111.573,-278.143 101.079,-276.682 108.372,-284.368 111.573,-278.143"/>
</g>
<!-- Node14 -->
<g id="node14" class="node"><title>Node14</title>
<g id="a_node14"><a xlink:href="../../df/dbf/system__Timer_8h.html" target="_top" xlink:title="It declares functions to initialise, configure and run the system Timer. ">
<polygon fill="white" stroke="black" points="321,-252 321,-271 408,-271 408,-252 321,-252"/>
<text text-anchor="middle" x="364.5" y="-259" font-family="Helvetica,sans-Serif" font-size="10.00">system_Timer.h</text>
</a>
</g>
</g>
<!-- Node1&#45;&gt;Node14 -->
<g id="edge24" class="edge"><title>Node1&#45;&gt;Node14</title>
<path fill="none" stroke="midnightblue" d="M322.593,-380.305C329.85,-359.904 348.101,-308.6 357.952,-280.908"/>
<polygon fill="midnightblue" stroke="midnightblue" points="361.331,-281.85 361.385,-271.256 354.736,-279.504 361.331,-281.85"/>
</g>
<!-- Node15 -->
<g id="node15" class="node"><title>Node15</title>
<g id="a_node15"><a xlink:href="../../d6/ded/interrupts_8h.html" target="_top" xlink:title="It declares interrupt priority levels and functions to create atomic sections. ">
<polygon fill="white" stroke="black" points="513.5,-319 513.5,-338 587.5,-338 587.5,-319 513.5,-319"/>
<text text-anchor="middle" x="550.5" y="-326" font-family="Helvetica,sans-Serif" font-size="10.00">../interrupts.h</text>
</a>
</g>
</g>
<!-- Node1&#45;&gt;Node15 -->
<g id="edge26" class="edge"><title>Node1&#45;&gt;Node15</title>
<path fill="none" stroke="midnightblue" d="M355.106,-380.455C391.481,-371.641 449.551,-357.341 499.5,-344 503.342,-342.974 507.34,-341.881 511.332,-340.773"/>
<polygon fill="midnightblue" stroke="midnightblue" points="512.466,-344.09 521.148,-338.019 510.575,-337.351 512.466,-344.09"/>
</g>
<!-- Node16 -->
<g id="node16" class="node"><title>Node16</title>
<g id="a_node16"><a xlink:href="../../dc/d18/memory_8h.html" target="_top" xlink:title="It declares functions to allocate, free, and copy memory. ">
<polygon fill="white" stroke="black" points="388,-190.5 388,-209.5 457,-209.5 457,-190.5 388,-190.5"/>
<text text-anchor="middle" x="422.5" y="-197.5" font-family="Helvetica,sans-Serif" font-size="10.00">../memory.h</text>
</a>
</g>
</g>
<!-- Node1&#45;&gt;Node16 -->
<g id="edge27" class="edge"><title>Node1&#45;&gt;Node16</title>
<path fill="none" stroke="midnightblue" d="M330.751,-380.311C351.936,-363.199 397.338,-322.799 416.5,-277 424.146,-258.725 424.903,-235.841 424.212,-219.984"/>
<polygon fill="midnightblue" stroke="midnightblue" points="427.693,-219.588 423.531,-209.846 420.709,-220.058 427.693,-219.588"/>
</g>
<!-- Node3 -->
<g id="node3" class="node"><title>Node3</title>
<polygon fill="white" stroke="#bfbfbf" points="62.5,-73 62.5,-92 118.5,-92 118.5,-73 62.5,-73"/>
<text text-anchor="middle" x="90.5" y="-80" font-family="Helvetica,sans-Serif" font-size="10.00">stdbool.h</text>
</g>
<!-- Node2&#45;&gt;Node3 -->
<g id="edge2" class="edge"><title>Node2&#45;&gt;Node3</title>
<path fill="none" stroke="midnightblue" d="M201.313,-251.853C197.63,-238.143 189.409,-210.841 177.5,-190 157.303,-154.655 125.416,-119.148 106.37,-99.3738"/>
<polygon fill="midnightblue" stroke="midnightblue" points="108.788,-96.8401 99.2936,-92.1381 103.783,-101.735 108.788,-96.8401"/>
</g>
<!-- Node2&#45;&gt;Node4 -->
<g id="edge3" class="edge"><title>Node2&#45;&gt;Node4</title>
<path fill="none" stroke="midnightblue" d="M209.112,-251.975C218.147,-238.434 236.711,-211.358 254.5,-190 262.885,-179.932 272.973,-169.307 281.27,-160.91"/>
<polygon fill="midnightblue" stroke="midnightblue" points="283.956,-163.175 288.562,-153.634 279.012,-158.22 283.956,-163.175"/>
</g>
<!-- Node10 -->
<g id="node10" class="node"><title>Node10</title>
<g id="a_node10"><a xlink:href="../../db/dd2/events_8h.html" target="_top" xlink:title="declares functions to create, (un)subscribe, (un)register, and delete events and related handler...">
<polygon fill="white" stroke="black" points="74,-190.5 74,-209.5 169,-209.5 169,-190.5 74,-190.5"/>
<text text-anchor="middle" x="121.5" y="-197.5" font-family="Helvetica,sans-Serif" font-size="10.00">../events/events.h</text>
</a>
</g>
</g>
<!-- Node2&#45;&gt;Node10 -->
<g id="edge10" class="edge"><title>Node2&#45;&gt;Node10</title>
<path fill="none" stroke="midnightblue" d="M191.751,-251.975C178.721,-242.52 157.464,-227.096 141.741,-215.687"/>
<polygon fill="midnightblue" stroke="midnightblue" points="143.376,-212.549 133.227,-209.509 139.265,-218.215 143.376,-212.549"/>
</g>
<!-- Node2&#45;&gt;Node11 -->
<g id="edge13" class="edge"><title>Node2&#45;&gt;Node11</title>
<path fill="none" stroke="midnightblue" d="M216.968,-251.975C232.185,-242.343 257.187,-226.517 275.301,-215.052"/>
<polygon fill="midnightblue" stroke="midnightblue" points="277.479,-217.815 284.057,-209.509 273.736,-211.9 277.479,-217.815"/>
</g>
<!-- Node4&#45;&gt;Node3 -->
<g id="edge4" class="edge"><title>Node4&#45;&gt;Node3</title>
<path fill="none" stroke="midnightblue" d="M260.333,-134.464C225.651,-126.192 172.622,-112.76 127.5,-98 125.232,-97.258 122.901,-96.4517 120.565,-95.6121"/>
<polygon fill="midnightblue" stroke="midnightblue" points="121.683,-92.2933 111.091,-92.0523 119.221,-98.846 121.683,-92.2933"/>
</g>
<!-- Node5 -->
<g id="node5" class="node"><title>Node5</title>
<polygon fill="white" stroke="#bfbfbf" points="559,-73 559,-92 608,-92 608,-73 559,-73"/>
<text text-anchor="middle" x="583.5" y="-80" font-family="Helvetica,sans-Serif" font-size="10.00">stdint.h</text>
</g>
<!-- Node4&#45;&gt;Node5 -->
<g id="edge5" class="edge"><title>Node4&#45;&gt;Node5</title>
<path fill="none" stroke="midnightblue" d="M336.558,-138.808C386.642,-132.803 475.824,-119.979 549.5,-98 551.648,-97.3591 553.844,-96.623 556.033,-95.8298"/>
<polygon fill="midnightblue" stroke="midnightblue" points="557.424,-99.0434 565.429,-92.1032 554.843,-92.5364 557.424,-99.0434"/>
</g>
<!-- Node6 -->
<g id="node6" class="node"><title>Node6</title>
<polygon fill="white" stroke="#bfbfbf" points="136.5,-73 136.5,-92 210.5,-92 210.5,-73 136.5,-73"/>
<text text-anchor="middle" x="173.5" y="-80" font-family="Helvetica,sans-Serif" font-size="10.00">p30F6014A.h</text>
</g>
<!-- Node4&#45;&gt;Node6 -->
<g id="edge6" class="edge"><title>Node4&#45;&gt;Node6</title>
<path fill="none" stroke="midnightblue" d="M279.734,-134.475C259.016,-124.534 224.548,-107.995 200.511,-96.461"/>
<polygon fill="midnightblue" stroke="midnightblue" points="201.763,-93.1797 191.233,-92.0091 198.735,-99.4908 201.763,-93.1797"/>
</g>
<!-- Node7 -->
<g id="node7" class="node"><title>Node7</title>
<polygon fill="white" stroke="#bfbfbf" points="229,-67.5 229,-97.5 366,-97.5 366,-67.5 229,-67.5"/>
<text text-anchor="start" x="237" y="-85.5" font-family="Helvetica,sans-Serif" font-size="10.00">platform/e&#45;puck/library</text>
<text text-anchor="middle" x="297.5" y="-74.5" font-family="Helvetica,sans-Serif" font-size="10.00">/motor_led/e_epuck_ports.h</text>
</g>
<!-- Node4&#45;&gt;Node7 -->
<g id="edge7" class="edge"><title>Node4&#45;&gt;Node7</title>
<path fill="none" stroke="midnightblue" d="M297.5,-134.475C297.5,-127.471 297.5,-117.192 297.5,-107.696"/>
<polygon fill="midnightblue" stroke="midnightblue" points="301,-107.523 297.5,-97.523 294,-107.523 301,-107.523"/>
</g>
<!-- Node8 -->
<g id="node8" class="node"><title>Node8</title>
<g id="a_node8"><a xlink:href="../../d9/d1f/DSPIC30F6014A__HDI_8h.html" target="_top" xlink:title="declares e&#45;puck specific types and preprocessor variables ">
<polygon fill="white" stroke="black" points="384.5,-67.5 384.5,-97.5 540.5,-97.5 540.5,-67.5 384.5,-67.5"/>
<text text-anchor="start" x="392.5" y="-85.5" font-family="Helvetica,sans-Serif" font-size="10.00">platform/e&#45;puck/DSPIC30F6014</text>
<text text-anchor="middle" x="462.5" y="-74.5" font-family="Helvetica,sans-Serif" font-size="10.00">A_HDI.h</text>
</a>
</g>
</g>
<!-- Node4&#45;&gt;Node8 -->
<g id="edge8" class="edge"><title>Node4&#45;&gt;Node8</title>
<path fill="none" stroke="midnightblue" d="M321.14,-134.475C345.263,-125.776 383.393,-112.026 413.976,-100.998"/>
<polygon fill="midnightblue" stroke="midnightblue" points="415.393,-104.208 423.613,-97.523 413.018,-97.6228 415.393,-104.208"/>
</g>
<!-- Node9 -->
<g id="node9" class="node"><title>Node9</title>
<polygon fill="white" stroke="#bfbfbf" points="414,-0.5 414,-30.5 511,-30.5 511,-0.5 414,-0.5"/>
<text text-anchor="start" x="422" y="-18.5" font-family="Helvetica,sans-Serif" font-size="10.00">library/motor_led/e</text>
<text text-anchor="middle" x="462.5" y="-7.5" font-family="Helvetica,sans-Serif" font-size="10.00">_epuck_ports.h</text>
</g>
<!-- Node8&#45;&gt;Node9 -->
<g id="edge9" class="edge"><title>Node8&#45;&gt;Node9</title>
<path fill="none" stroke="midnightblue" d="M462.5,-67.396C462.5,-59.6448 462.5,-49.8122 462.5,-40.8601"/>
<polygon fill="midnightblue" stroke="midnightblue" points="466,-40.5765 462.5,-30.5765 459,-40.5765 466,-40.5765"/>
</g>
<!-- Node10&#45;&gt;Node3 -->
<g id="edge11" class="edge"><title>Node10&#45;&gt;Node3</title>
<path fill="none" stroke="midnightblue" d="M119.17,-190.319C114.166,-171.673 102.294,-127.443 95.5007,-102.132"/>
<polygon fill="midnightblue" stroke="midnightblue" points="98.8297,-101.033 92.8571,-92.282 92.069,-102.847 98.8297,-101.033"/>
</g>
<!-- Node10&#45;&gt;Node4 -->
<g id="edge12" class="edge"><title>Node10&#45;&gt;Node4</title>
<path fill="none" stroke="midnightblue" d="M149.388,-190.444C179.254,-181.28 226.815,-166.688 259.956,-156.519"/>
<polygon fill="midnightblue" stroke="midnightblue" points="261.209,-159.796 269.743,-153.516 259.156,-153.104 261.209,-159.796"/>
</g>
<!-- Node11&#45;&gt;Node4 -->
<g id="edge14" class="edge"><title>Node11&#45;&gt;Node4</title>
<path fill="none" stroke="midnightblue" d="M297.5,-190.083C297.5,-183.006 297.5,-172.861 297.5,-163.986"/>
<polygon fill="midnightblue" stroke="midnightblue" points="301,-163.751 297.5,-153.751 294,-163.751 301,-163.751"/>
</g>
<!-- Node12&#45;&gt;Node3 -->
<g id="edge21" class="edge"><title>Node12&#45;&gt;Node3</title>
<path fill="none" stroke="midnightblue" d="M48.0866,-313.484C35.1544,-304.832 20.6809,-292.43 13.5,-277 7.68665,-264.509 11.0417,-259.557 13.5,-246 22.9855,-193.69 30.8368,-181.096 55.5,-134 61.7253,-122.112 70.2839,-109.714 77.3793,-100.177"/>
<polygon fill="midnightblue" stroke="midnightblue" points="80.3211,-102.091 83.61,-92.0197 74.7583,-97.842 80.3211,-102.091"/>
</g>
<!-- Node12&#45;&gt;Node13 -->
<g id="edge16" class="edge"><title>Node12&#45;&gt;Node13</title>
<path fill="none" stroke="midnightblue" d="M73.5,-313.396C73.5,-305.645 73.5,-295.812 73.5,-286.86"/>
<polygon fill="midnightblue" stroke="midnightblue" points="77.0001,-286.576 73.5,-276.577 70.0001,-286.577 77.0001,-286.576"/>
</g>
<!-- Node13&#45;&gt;Node3 -->
<g id="edge17" class="edge"><title>Node13&#45;&gt;Node3</title>
<path fill="none" stroke="midnightblue" d="M66.5855,-246.309C62.1538,-236.399 56.8134,-222.718 54.5,-210 47.2811,-170.313 67.1689,-125.16 80.1896,-100.984"/>
<polygon fill="midnightblue" stroke="midnightblue" points="83.2468,-102.688 85.0916,-92.2552 77.1433,-99.2606 83.2468,-102.688"/>
</g>
<!-- Node13&#45;&gt;Node4 -->
<g id="edge18" class="edge"><title>Node13&#45;&gt;Node4</title>
<path fill="none" stroke="midnightblue" d="M66.1107,-246.343C59.1169,-230.751 51.462,-205.797 64.5,-190 87.3074,-162.366 186.685,-151.51 248.054,-147.389"/>
<polygon fill="midnightblue" stroke="midnightblue" points="248.542,-150.865 258.301,-146.739 248.099,-143.879 248.542,-150.865"/>
</g>
<!-- Node13&#45;&gt;Node10 -->
<g id="edge19" class="edge"><title>Node13&#45;&gt;Node10</title>
<path fill="none" stroke="midnightblue" d="M84.8753,-246.399C91.8503,-237.753 100.814,-226.642 108.128,-217.576"/>
<polygon fill="midnightblue" stroke="midnightblue" points="110.961,-219.638 114.516,-209.658 105.513,-215.243 110.961,-219.638"/>
</g>
<!-- Node13&#45;&gt;Node11 -->
<g id="edge20" class="edge"><title>Node13&#45;&gt;Node11</title>
<path fill="none" stroke="midnightblue" d="M124.609,-246.924C164.148,-236.422 218.234,-222.055 255.324,-212.203"/>
<polygon fill="midnightblue" stroke="midnightblue" points="256.542,-215.501 265.308,-209.551 254.745,-208.736 256.542,-215.501"/>
</g>
<!-- Node14&#45;&gt;Node4 -->
<g id="edge25" class="edge"><title>Node14&#45;&gt;Node4</title>
<path fill="none" stroke="midnightblue" d="M362.624,-251.753C359.393,-237.908 351.905,-210.423 339.5,-190 332.941,-179.202 323.484,-168.781 315.203,-160.691"/>
<polygon fill="midnightblue" stroke="midnightblue" points="317.447,-157.997 307.757,-153.712 312.66,-163.105 317.447,-157.997"/>
</g>
<!-- Node16&#45;&gt;Node4 -->
<g id="edge28" class="edge"><title>Node16&#45;&gt;Node4</title>
<path fill="none" stroke="midnightblue" d="M402.693,-190.444C382.213,-181.596 350.017,-167.687 326.635,-157.586"/>
<polygon fill="midnightblue" stroke="midnightblue" points="327.782,-154.269 317.214,-153.516 325.006,-160.695 327.782,-154.269"/>
</g>
</g>
</svg>
        <g id="navigator" transform="translate(0 0)" fill="#404254">
                <rect fill="#f2f5e9" fill-opacity="0.5" stroke="#606060" stroke-width=".5" x="0" y="0" width="60" height="60"/>
                <use id="zoomplus" xlink:href="#zoomPlus" x="17" y="9" onmousedown="handleZoom(evt,'in')"/>
                <use id="zoomminus" xlink:href="#zoomMin" x="42" y="9" onmousedown="handleZoom(evt,'out')"/>
                <use id="reset" xlink:href="#resetDef" x="30" y="36" onmousedown="handleReset()"/>
                <g id="arrowUp" xlink:href="#dirArrow" transform="translate(30 24)" onmousedown="handlePan(0,-1)">
                  <use xlink:href="#rim" fill="#404040">
                        <set attributeName="fill" to="#808080" begin="arrowUp.mouseover" end="arrowUp.mouseout"/>
                  </use>
                  <path fill="none" stroke="white" stroke-width="1.5" d="M0,-3.0v7 M-2.5,-0.5L0,-3.0L2.5,-0.5"/>
                </g>
                <g id="arrowRight" xlink:href="#dirArrow" transform="rotate(90) translate(36 -43)" onmousedown="handlePan(1,0)">
                  <use xlink:href="#rim" fill="#404040">
                        <set attributeName="fill" to="#808080" begin="arrowRight.mouseover" end="arrowRight.mouseout"/>
                  </use>
                  <path fill="none" stroke="white" stroke-width="1.5" d="M0,-3.0v7 M-2.5,-0.5L0,-3.0L2.5,-0.5"/>
                </g>
                <g id="arrowDown" xlink:href="#dirArrow" transform="rotate(180) translate(-30 -48)" onmousedown="handlePan(0,1)">
                  <use xlink:href="#rim" fill="#404040">
                        <set attributeName="fill" to="#808080" begin="arrowDown.mouseover" end="arrowDown.mouseout"/>
                  </use>
                  <path fill="none" stroke="white" stroke-width="1.5" d="M0,-3.0v7 M-2.5,-0.5L0,-3.0L2.5,-0.5"/>
                </g>
                <g id="arrowLeft" xlink:href="#dirArrow" transform="rotate(270) translate(-36 17)" onmousedown="handlePan(-1,0)">
                  <use xlink:href="#rim" fill="#404040">
                        <set attributeName="fill" to="#808080" begin="arrowLeft.mouseover" end="arrowLeft.mouseout"/>
                  </use>
                  <path fill="none" stroke="white" stroke-width="1.5" d="M0,-3.0v7 M-2.5,-0.5L0,-3.0L2.5,-0.5"/>
                </g>
        </g>
        <svg viewBox="0 0 15 15" width="100%" height="30px" preserveAspectRatio="xMaxYMin meet">
         <g id="arrow_out" transform="scale(0.3 0.3)">
          <a xlink:href="process__Management_8c__incl_org.svg" target="_base">
           <rect id="button" ry="5" rx="5" y="6" x="6" height="38" width="38"
                fill="#f2f5e9" fill-opacity="0.5" stroke="#606060" stroke-width="1.0"/>
           <path id="arrow"
             d="M 11.500037,31.436501 C 11.940474,20.09759 22.043105,11.32322 32.158766,21.979434 L 37.068811,17.246167 C 37.068811,17.246167 37.088388,32 37.088388,32 L 22.160133,31.978069 C 22.160133,31.978069 26.997745,27.140456 26.997745,27.140456 C 18.528582,18.264221 13.291696,25.230495 11.500037,31.436501 z"
             style="fill:#404040;"/>
          </a>
         </g>
        </svg>
</svg>
