<?xml version="1.0" encoding="UTF-8" standalone="no"?>
<!DOCTYPE svg PUBLIC "-//W3C//DTD SVG 1.1//EN"
 "http://www.w3.org/Graphics/SVG/1.1/DTD/svg11.dtd">
<!-- Generated by graphviz version 2.38.0 (20140413.2041)
 -->
<!-- Title: platform/e&#45;puck/process_Management_HDI.c Pages: 1 -->
<svg width="795pt" height="419pt"
 viewBox="0.00 0.00 795.44 419.00" xmlns="http://www.w3.org/2000/svg" xmlns:xlink="http://www.w3.org/1999/xlink">
<g id="graph0" class="graph" transform="scale(1 1) rotate(0) translate(4 415)">
<title>platform/e&#45;puck/process_Management_HDI.c</title>
<polygon fill="white" stroke="none" points="-4,4 -4,-415 791.44,-415 791.44,4 -4,4"/>
<!-- Node1 -->
<g id="node1" class="node"><title>Node1</title>
<polygon fill="#bfbfbf" stroke="black" points="472.94,-380.5 472.94,-410.5 594.94,-410.5 594.94,-380.5 472.94,-380.5"/>
<text text-anchor="start" x="480.94" y="-398.5" font-family="Helvetica,sans-Serif" font-size="10.00">platform/e&#45;puck/process</text>
<text text-anchor="middle" x="533.94" y="-387.5" font-family="Helvetica,sans-Serif" font-size="10.00">_Management_HDI.c</text>
</g>
<!-- Node2 -->
<g id="node2" class="node"><title>Node2</title>
<g id="a_node2"><a xlink:href="$de/dad/process__Management__HDI_8h.html" xlink:title="Hardware dependent implementations to manage processes (e.g. task swichting) ">
<polygon fill="white" stroke="black" points="60.4399,-313.5 60.4399,-343.5 173.44,-343.5 173.44,-313.5 60.4399,-313.5"/>
<text text-anchor="start" x="68.4399" y="-331.5" font-family="Helvetica,sans-Serif" font-size="10.00">process_Management</text>
<text text-anchor="middle" x="116.94" y="-320.5" font-family="Helvetica,sans-Serif" font-size="10.00">_HDI.h</text>
</a>
</g>
</g>
<!-- Node1&#45;&gt;Node2 -->
<g id="edge1" class="edge"><title>Node1&#45;&gt;Node2</title>
<path fill="none" stroke="midnightblue" d="M472.858,-384.979C395.626,-372.94 263.143,-352.29 183.43,-339.864"/>
<polygon fill="midnightblue" stroke="midnightblue" points="183.92,-336.398 173.5,-338.316 182.842,-343.315 183.92,-336.398"/>
</g>
<!-- Node5 -->
<g id="node5" class="node"><title>Node5</title>
<g id="a_node5"><a xlink:href="$d6/dc2/definitions_8h.html" xlink:title="It declares general preprocessor variables and types. ">
<polygon fill="white" stroke="black" points="317.44,-134.5 317.44,-153.5 418.44,-153.5 418.44,-134.5 317.44,-134.5"/>
<text text-anchor="middle" x="367.94" y="-141.5" font-family="Helvetica,sans-Serif" font-size="10.00">../../os/definitions.h</text>
</a>
</g>
</g>
<!-- Node1&#45;&gt;Node5 -->
<g id="edge28" class="edge"><title>Node1&#45;&gt;Node5</title>
<path fill="none" stroke="midnightblue" d="M505.561,-380.442C471.283,-361.839 414.767,-325.634 386.94,-277 366.315,-240.953 365.265,-190.615 366.484,-163.71"/>
<polygon fill="midnightblue" stroke="midnightblue" points="369.978,-163.919 367.095,-153.724 362.991,-163.492 369.978,-163.919"/>
</g>
<!-- Node7 -->
<g id="node7" class="node"><title>Node7</title>
<polygon fill="white" stroke="#bfbfbf" points="507.94,-73 507.94,-92 581.94,-92 581.94,-73 507.94,-73"/>
<text text-anchor="middle" x="544.94" y="-80" font-family="Helvetica,sans-Serif" font-size="10.00">p30F6014A.h</text>
</g>
<!-- Node1&#45;&gt;Node7 -->
<g id="edge29" class="edge"><title>Node1&#45;&gt;Node7</title>
<path fill="none" stroke="midnightblue" d="M540.91,-380.238C551.88,-356.439 571.94,-306.856 571.94,-262.5 571.94,-262.5 571.94,-262.5 571.94,-199 571.94,-163.783 559.891,-124.075 551.891,-101.592"/>
<polygon fill="midnightblue" stroke="midnightblue" points="555.108,-100.201 548.359,-92.0334 548.542,-102.627 555.108,-100.201"/>
</g>
<!-- Node10 -->
<g id="node10" class="node"><title>Node10</title>
<polygon fill="white" stroke="#bfbfbf" points="462.44,-0.5 462.44,-30.5 559.44,-30.5 559.44,-0.5 462.44,-0.5"/>
<text text-anchor="start" x="470.44" y="-18.5" font-family="Helvetica,sans-Serif" font-size="10.00">library/motor_led/e</text>
<text text-anchor="middle" x="510.94" y="-7.5" font-family="Helvetica,sans-Serif" font-size="10.00">_epuck_ports.h</text>
</g>
<!-- Node1&#45;&gt;Node10 -->
<g id="edge30" class="edge"><title>Node1&#45;&gt;Node10</title>
<path fill="none" stroke="midnightblue" d="M548.955,-380.226C571.104,-357.551 609.94,-310.892 609.94,-262.5 609.94,-262.5 609.94,-262.5 609.94,-143 609.94,-108.183 611.349,-95.2081 590.94,-67 581.462,-53.9011 567.445,-43.4091 553.78,-35.4559"/>
<polygon fill="midnightblue" stroke="midnightblue" points="555.355,-32.3277 544.903,-30.5942 551.993,-38.4674 555.355,-32.3277"/>
</g>
<!-- Node13 -->
<g id="node13" class="node"><title>Node13</title>
<g id="a_node13"><a xlink:href="$dd/de5/process__Management_8h.html" xlink:title="It declares functions to manage processes (e.g. task creation, switching, termination) ...">
<polygon fill="white" stroke="black" points="222.44,-246.5 222.44,-276.5 339.44,-276.5 339.44,-246.5 222.44,-246.5"/>
<text text-anchor="start" x="230.44" y="-264.5" font-family="Helvetica,sans-Serif" font-size="10.00">../../processes/process</text>
<text text-anchor="middle" x="280.94" y="-253.5" font-family="Helvetica,sans-Serif" font-size="10.00">_Management.h</text>
</a>
</g>
</g>
<!-- Node1&#45;&gt;Node13 -->
<g id="edge17" class="edge"><title>Node1&#45;&gt;Node13</title>
<path fill="none" stroke="midnightblue" d="M472.919,-386.213C436.321,-379.172 390.032,-366.475 353.94,-344 329.69,-328.9 308.739,-303.414 295.579,-284.957"/>
<polygon fill="midnightblue" stroke="midnightblue" points="298.327,-282.777 289.765,-276.537 292.567,-286.755 298.327,-282.777"/>
</g>
<!-- Node14 -->
<g id="node14" class="node"><title>Node14</title>
<polygon fill="white" stroke="#bfbfbf" points="637.94,-319 637.94,-338 685.94,-338 685.94,-319 637.94,-319"/>
<text text-anchor="middle" x="661.94" y="-326" font-family="Helvetica,sans-Serif" font-size="10.00">stdlib.h</text>
</g>
<!-- Node1&#45;&gt;Node14 -->
<g id="edge22" class="edge"><title>Node1&#45;&gt;Node14</title>
<path fill="none" stroke="midnightblue" d="M561.714,-380.396C583.875,-369.142 614.676,-353.501 636.266,-342.538"/>
<polygon fill="midnightblue" stroke="midnightblue" points="637.856,-345.656 645.188,-338.007 634.687,-339.414 637.856,-345.656"/>
</g>
<!-- Node15 -->
<g id="node15" class="node"><title>Node15</title>
<g id="a_node15"><a xlink:href="$d7/d30/system__Timer__HDI_8h.html" xlink:title="Hardware dependent implementations to initialise, configure and run the system Timer. ">
<polygon fill="white" stroke="black" points="395.94,-252 395.94,-271 505.94,-271 505.94,-252 395.94,-252"/>
<text text-anchor="middle" x="450.94" y="-259" font-family="Helvetica,sans-Serif" font-size="10.00">system_Timer_HDI.h</text>
</a>
</g>
</g>
<!-- Node1&#45;&gt;Node15 -->
<g id="edge23" class="edge"><title>Node1&#45;&gt;Node15</title>
<path fill="none" stroke="midnightblue" d="M525.057,-380.374C509.712,-355.969 478.294,-306.002 461.722,-279.648"/>
<polygon fill="midnightblue" stroke="midnightblue" points="464.632,-277.7 456.346,-271.097 458.706,-281.426 464.632,-277.7"/>
</g>
<!-- Node16 -->
<g id="node16" class="node"><title>Node16</title>
<g id="a_node16"><a xlink:href="$d6/ded/interrupts_8h.html" xlink:title="It declares interrupt priority levels and functions to create atomic sections. ">
<polygon fill="white" stroke="black" points="704.44,-319 704.44,-338 787.44,-338 787.44,-319 704.44,-319"/>
<text text-anchor="middle" x="745.94" y="-326" font-family="Helvetica,sans-Serif" font-size="10.00">../../interrupts.h</text>
</a>
</g>
</g>
<!-- Node1&#45;&gt;Node16 -->
<g id="edge25" class="edge"><title>Node1&#45;&gt;Node16</title>
<path fill="none" stroke="midnightblue" d="M579.68,-380.476C618.177,-368.673 672.552,-352.001 708.501,-340.979"/>
<polygon fill="midnightblue" stroke="midnightblue" points="709.589,-344.306 718.123,-338.029 707.537,-337.614 709.589,-344.306"/>
</g>
<!-- Node17 -->
<g id="node17" class="node"><title>Node17</title>
<g id="a_node17"><a xlink:href="$dc/d18/memory_8h.html" xlink:title="It declares functions to allocate, free, and copy memory. ">
<polygon fill="white" stroke="black" points="457.94,-190.5 457.94,-209.5 535.94,-209.5 535.94,-190.5 457.94,-190.5"/>
<text text-anchor="middle" x="496.94" y="-197.5" font-family="Helvetica,sans-Serif" font-size="10.00">../../memory.h</text>
</a>
</g>
</g>
<!-- Node1&#45;&gt;Node17 -->
<g id="edge26" class="edge"><title>Node1&#45;&gt;Node17</title>
<path fill="none" stroke="midnightblue" d="M533.321,-380.354C531.894,-353.683 527.474,-294.304 514.94,-246 512.562,-236.837 508.798,-227.037 505.325,-218.93"/>
<polygon fill="midnightblue" stroke="midnightblue" points="508.491,-217.436 501.209,-209.741 502.103,-220.298 508.491,-217.436"/>
</g>
<!-- Node3 -->
<g id="node3" class="node"><title>Node3</title>
<g id="a_node3"><a xlink:href="$d2/dbd/data_8h.html" xlink:title="It declares functions to manage process lists and related structs. ">
<polygon fill="white" stroke="black" points="65.9399,-246.5 65.9399,-276.5 167.94,-276.5 167.94,-246.5 65.9399,-246.5"/>
<text text-anchor="start" x="73.9399" y="-264.5" font-family="Helvetica,sans-Serif" font-size="10.00">../../../os/processes</text>
<text text-anchor="middle" x="116.94" y="-253.5" font-family="Helvetica,sans-Serif" font-size="10.00">/data.h</text>
</a>
</g>
</g>
<!-- Node2&#45;&gt;Node3 -->
<g id="edge2" class="edge"><title>Node2&#45;&gt;Node3</title>
<path fill="none" stroke="midnightblue" d="M116.94,-313.396C116.94,-305.645 116.94,-295.812 116.94,-286.86"/>
<polygon fill="midnightblue" stroke="midnightblue" points="120.44,-286.576 116.94,-276.577 113.44,-286.577 120.44,-286.576"/>
</g>
<!-- Node4 -->
<g id="node4" class="node"><title>Node4</title>
<polygon fill="white" stroke="#bfbfbf" points="36.9399,-73 36.9399,-92 92.9399,-92 92.9399,-73 36.9399,-73"/>
<text text-anchor="middle" x="64.9399" y="-80" font-family="Helvetica,sans-Serif" font-size="10.00">stdbool.h</text>
</g>
<!-- Node2&#45;&gt;Node4 -->
<g id="edge16" class="edge"><title>Node2&#45;&gt;Node4</title>
<path fill="none" stroke="midnightblue" d="M94.4084,-313.412C66.1463,-294.159 19.3946,-256.638 2.93986,-210 -2.95733,-193.286 1.28018,-149.01 8.93986,-134 16.4578,-119.268 30.1939,-106.778 42.1799,-97.9043"/>
<polygon fill="midnightblue" stroke="midnightblue" points="44.2916,-100.699 50.4843,-92.102 40.2823,-94.9604 44.2916,-100.699"/>
</g>
<!-- Node3&#45;&gt;Node4 -->
<g id="edge3" class="edge"><title>Node3&#45;&gt;Node4</title>
<path fill="none" stroke="midnightblue" d="M65.7481,-248.322C45.6951,-240.778 24.7094,-228.799 12.9399,-210 -10.0412,-173.294 26.1158,-124.683 48.8114,-99.7601"/>
<polygon fill="midnightblue" stroke="midnightblue" points="51.5657,-101.941 55.8872,-92.2676 46.4765,-97.1348 51.5657,-101.941"/>
</g>
<!-- Node3&#45;&gt;Node5 -->
<g id="edge4" class="edge"><title>Node3&#45;&gt;Node5</title>
<path fill="none" stroke="midnightblue" d="M127.135,-246.307C139.469,-230.197 161.74,-204.305 186.94,-190 223.876,-169.032 270.479,-157.737 307.147,-151.708"/>
<polygon fill="midnightblue" stroke="midnightblue" points="307.866,-155.138 317.209,-150.143 306.79,-148.221 307.866,-155.138"/>
</g>
<!-- Node11 -->
<g id="node11" class="node"><title>Node11</title>
<g id="a_node11"><a xlink:href="$db/dd2/events_8h.html" xlink:title="declares functions to create, (un)subscribe, (un)register, and delete events and related handler...">
<polygon fill="white" stroke="black" points="21.9399,-190.5 21.9399,-209.5 139.94,-209.5 139.94,-190.5 21.9399,-190.5"/>
<text text-anchor="middle" x="80.9399" y="-197.5" font-family="Helvetica,sans-Serif" font-size="10.00">../../os/events/events.h</text>
</a>
</g>
</g>
<!-- Node3&#45;&gt;Node11 -->
<g id="edge11" class="edge"><title>Node3&#45;&gt;Node11</title>
<path fill="none" stroke="midnightblue" d="M108.408,-246.399C103.339,-238.021 96.8687,-227.327 91.4814,-218.423"/>
<polygon fill="midnightblue" stroke="midnightblue" points="94.3494,-216.402 86.1782,-209.658 88.3603,-220.025 94.3494,-216.402"/>
</g>
<!-- Node12 -->
<g id="node12" class="node"><title>Node12</title>
<g id="a_node12"><a xlink:href="$d2/dd8/scheduler_8h.html" xlink:title="It declares functions to specify a scheduling algorithm. ">
<polygon fill="white" stroke="black" points="196.44,-190.5 196.44,-209.5 263.44,-209.5 263.44,-190.5 196.44,-190.5"/>
<text text-anchor="middle" x="229.94" y="-197.5" font-family="Helvetica,sans-Serif" font-size="10.00">scheduler.h</text>
</a>
</g>
</g>
<!-- Node3&#45;&gt;Node12 -->
<g id="edge14" class="edge"><title>Node3&#45;&gt;Node12</title>
<path fill="none" stroke="midnightblue" d="M143.719,-246.399C162.002,-236.773 186.088,-224.09 204.155,-214.577"/>
<polygon fill="midnightblue" stroke="midnightblue" points="206.28,-217.414 213.497,-209.658 203.018,-211.22 206.28,-217.414"/>
</g>
<!-- Node5&#45;&gt;Node4 -->
<g id="edge5" class="edge"><title>Node5&#45;&gt;Node4</title>
<path fill="none" stroke="midnightblue" d="M317.323,-135.708C251.86,-126.057 141.544,-108.984 101.94,-98 99.3491,-97.2815 96.6897,-96.4457 94.0427,-95.5451"/>
<polygon fill="midnightblue" stroke="midnightblue" points="95.2481,-92.2592 84.6546,-92.0925 92.832,-98.8291 95.2481,-92.2592"/>
</g>
<!-- Node6 -->
<g id="node6" class="node"><title>Node6</title>
<polygon fill="white" stroke="#bfbfbf" points="111.44,-73 111.44,-92 160.44,-92 160.44,-73 111.44,-73"/>
<text text-anchor="middle" x="135.94" y="-80" font-family="Helvetica,sans-Serif" font-size="10.00">stdint.h</text>
</g>
<!-- Node5&#45;&gt;Node6 -->
<g id="edge6" class="edge"><title>Node5&#45;&gt;Node6</title>
<path fill="none" stroke="midnightblue" d="M318.156,-134.487C277.463,-126.878 218.731,-114.401 168.94,-98 167.068,-97.3833 165.156,-96.6988 163.244,-95.9726"/>
<polygon fill="midnightblue" stroke="midnightblue" points="164.431,-92.6764 153.851,-92.1139 161.771,-99.1513 164.431,-92.6764"/>
</g>
<!-- Node5&#45;&gt;Node7 -->
<g id="edge7" class="edge"><title>Node5&#45;&gt;Node7</title>
<path fill="none" stroke="midnightblue" d="M393.3,-134.475C423.924,-124.18 475.597,-106.81 509.985,-95.2502"/>
<polygon fill="midnightblue" stroke="midnightblue" points="511.264,-98.5131 519.627,-92.0091 509.033,-91.8779 511.264,-98.5131"/>
</g>
<!-- Node8 -->
<g id="node8" class="node"><title>Node8</title>
<polygon fill="white" stroke="#bfbfbf" points="178.44,-67.5 178.44,-97.5 315.44,-97.5 315.44,-67.5 178.44,-67.5"/>
<text text-anchor="start" x="186.44" y="-85.5" font-family="Helvetica,sans-Serif" font-size="10.00">platform/e&#45;puck/library</text>
<text text-anchor="middle" x="246.94" y="-74.5" font-family="Helvetica,sans-Serif" font-size="10.00">/motor_led/e_epuck_ports.h</text>
</g>
<!-- Node5&#45;&gt;Node8 -->
<g id="edge8" class="edge"><title>Node5&#45;&gt;Node8</title>
<path fill="none" stroke="midnightblue" d="M350.604,-134.475C333.45,-126.04 306.637,-112.855 284.578,-102.008"/>
<polygon fill="midnightblue" stroke="midnightblue" points="285.975,-98.7949 275.457,-97.523 282.886,-105.077 285.975,-98.7949"/>
</g>
<!-- Node9 -->
<g id="node9" class="node"><title>Node9</title>
<g id="a_node9"><a xlink:href="$d9/d1f/DSPIC30F6014A__HDI_8h.html" xlink:title="declares e&#45;puck specific types and preprocessor variables ">
<polygon fill="white" stroke="black" points="333.94,-67.5 333.94,-97.5 489.94,-97.5 489.94,-67.5 333.94,-67.5"/>
<text text-anchor="start" x="341.94" y="-85.5" font-family="Helvetica,sans-Serif" font-size="10.00">platform/e&#45;puck/DSPIC30F6014</text>
<text text-anchor="middle" x="411.94" y="-74.5" font-family="Helvetica,sans-Serif" font-size="10.00">A_HDI.h</text>
</a>
</g>
</g>
<!-- Node5&#45;&gt;Node9 -->
<g id="edge9" class="edge"><title>Node5&#45;&gt;Node9</title>
<path fill="none" stroke="midnightblue" d="M374.244,-134.475C379.813,-126.944 388.183,-115.626 395.622,-105.566"/>
<polygon fill="midnightblue" stroke="midnightblue" points="398.438,-107.644 401.57,-97.523 392.81,-103.482 398.438,-107.644"/>
</g>
<!-- Node9&#45;&gt;Node10 -->
<g id="edge10" class="edge"><title>Node9&#45;&gt;Node10</title>
<path fill="none" stroke="midnightblue" d="M433.421,-67.396C447.303,-58.282 465.567,-46.2902 480.88,-36.236"/>
<polygon fill="midnightblue" stroke="midnightblue" points="483.062,-38.9907 489.5,-30.5765 479.22,-33.1392 483.062,-38.9907"/>
</g>
<!-- Node11&#45;&gt;Node4 -->
<g id="edge12" class="edge"><title>Node11&#45;&gt;Node4</title>
<path fill="none" stroke="midnightblue" d="M79.7373,-190.319C77.1659,-171.757 71.0821,-127.839 67.5682,-102.473"/>
<polygon fill="midnightblue" stroke="midnightblue" points="70.9956,-101.707 66.1564,-92.282 64.0618,-102.668 70.9956,-101.707"/>
</g>
<!-- Node11&#45;&gt;Node5 -->
<g id="edge13" class="edge"><title>Node11&#45;&gt;Node5</title>
<path fill="none" stroke="midnightblue" d="M126.416,-190.444C176.902,-180.944 258.396,-165.611 312.56,-155.42"/>
<polygon fill="midnightblue" stroke="midnightblue" points="313.496,-158.805 322.677,-153.516 312.202,-151.926 313.496,-158.805"/>
</g>
<!-- Node12&#45;&gt;Node5 -->
<g id="edge15" class="edge"><title>Node12&#45;&gt;Node5</title>
<path fill="none" stroke="midnightblue" d="M251.806,-190.444C274.719,-181.478 310.915,-167.314 336.806,-157.183"/>
<polygon fill="midnightblue" stroke="midnightblue" points="338.139,-160.42 346.176,-153.516 335.588,-153.901 338.139,-160.42"/>
</g>
<!-- Node13&#45;&gt;Node4 -->
<g id="edge18" class="edge"><title>Node13&#45;&gt;Node4</title>
<path fill="none" stroke="midnightblue" d="M282.766,-246.428C283.986,-231.14 283.625,-206.672 271.94,-190 260.694,-173.954 147.697,-121.103 93.5627,-96.4168"/>
<polygon fill="midnightblue" stroke="midnightblue" points="94.7295,-93.1026 84.1775,-92.1504 91.8326,-99.475 94.7295,-93.1026"/>
</g>
<!-- Node13&#45;&gt;Node5 -->
<g id="edge19" class="edge"><title>Node13&#45;&gt;Node5</title>
<path fill="none" stroke="midnightblue" d="M291.608,-246.337C307.711,-224.96 338.164,-184.53 355.337,-161.731"/>
<polygon fill="midnightblue" stroke="midnightblue" points="358.189,-163.763 361.41,-153.669 352.597,-159.551 358.189,-163.763"/>
</g>
<!-- Node13&#45;&gt;Node11 -->
<g id="edge20" class="edge"><title>Node13&#45;&gt;Node11</title>
<path fill="none" stroke="midnightblue" d="M233.796,-246.475C198.84,-236.075 151.791,-222.078 119.166,-212.372"/>
<polygon fill="midnightblue" stroke="midnightblue" points="120.116,-209.003 109.533,-209.506 118.119,-215.713 120.116,-209.003"/>
</g>
<!-- Node13&#45;&gt;Node12 -->
<g id="edge21" class="edge"><title>Node13&#45;&gt;Node12</title>
<path fill="none" stroke="midnightblue" d="M268.854,-246.399C261.366,-237.664 251.722,-226.413 243.908,-217.296"/>
<polygon fill="midnightblue" stroke="midnightblue" points="246.526,-214.973 237.361,-209.658 241.211,-219.528 246.526,-214.973"/>
</g>
<!-- Node15&#45;&gt;Node5 -->
<g id="edge24" class="edge"><title>Node15&#45;&gt;Node5</title>
<path fill="none" stroke="midnightblue" d="M444.701,-251.819C431.002,-232.755 398.083,-186.947 380.126,-161.958"/>
<polygon fill="midnightblue" stroke="midnightblue" points="382.929,-159.86 374.251,-153.782 377.244,-163.945 382.929,-159.86"/>
</g>
<!-- Node17&#45;&gt;Node5 -->
<g id="edge27" class="edge"><title>Node17&#45;&gt;Node5</title>
<path fill="none" stroke="midnightblue" d="M476.499,-190.444C455.269,-181.557 421.841,-167.563 397.685,-157.451"/>
<polygon fill="midnightblue" stroke="midnightblue" points="398.861,-154.149 388.285,-153.516 396.158,-160.606 398.861,-154.149"/>
</g>
</g>
</svg>
