<?xml version="1.0" encoding="UTF-8" standalone="no"?>
<!DOCTYPE svg PUBLIC "-//W3C//DTD SVG 1.1//EN"
 "http://www.w3.org/Graphics/SVG/1.1/DTD/svg11.dtd">
<!-- Generated by graphviz version 2.38.0 (20140413.2041)
 -->
<!-- Title: Camera Module Pages: 1 -->
<svg width="441pt" height="66pt"
 viewBox="0.00 0.00 441.00 66.00" xmlns="http://www.w3.org/2000/svg" xmlns:xlink="http://www.w3.org/1999/xlink">
<g id="graph0" class="graph" transform="scale(1 1) rotate(0) translate(4 62)">
<title>Camera Module</title>
<polygon fill="white" stroke="none" points="-4,4 -4,-62 437,-62 437,4 -4,4"/>
<!-- Node2 -->
<g id="node1" class="node"><title>Node2</title>
<g id="a_node1"><a xlink:href="../../d9/dc8/group__epuck.html" target="_top" xlink:title="Modules and functions that are needed to use the e&#45;puck platform ( http://www.gctronic.com/doc/index.php/E&#45;Puck ) ">
<polygon fill="white" stroke="black" points="0,-38.5 0,-57.5 122,-57.5 122,-38.5 0,-38.5"/>
<text text-anchor="middle" x="61" y="-45.5" font-family="Helvetica,sans-Serif" font-size="10.00">e&#45;puck specific modules</text>
</a>
</g>
</g>
<!-- Node0 -->
<g id="node3" class="node"><title>Node0</title>
<polygon fill="#bfbfbf" stroke="black" points="159,-19.5 159,-38.5 245,-38.5 245,-19.5 159,-19.5"/>
<text text-anchor="middle" x="202" y="-26.5" font-family="Helvetica,sans-Serif" font-size="10.00">Camera Module</text>
</g>
<!-- Node2&#45;&gt;Node0 -->
<g id="edge2" class="edge"><title>Node2&#45;&gt;Node0</title>
<path fill="none" stroke="black" d="M132.328,-38.3869C141.356,-37.1528 150.366,-35.9213 158.747,-34.7756"/>
<polygon fill="black" stroke="black" points="131.593,-34.9547 122.159,-39.7768 132.541,-41.8902 131.593,-34.9547"/>
</g>
<!-- Node3 -->
<g id="node2" class="node"><title>Node3</title>
<g id="a_node2"><a xlink:href="../../d9/d96/group__shefpuck.html" target="_top" xlink:title="External set of functions to assist the programming of the e&#45;Puck. ">
<polygon fill="white" stroke="black" points="375,-19.5 375,-38.5 433,-38.5 433,-19.5 375,-19.5"/>
<text text-anchor="middle" x="404" y="-26.5" font-family="Helvetica,sans-Serif" font-size="10.00">Shefpuck</text>
</a>
</g>
</g>
<!-- Node0&#45;&gt;Node3 -->
<g id="edge3" class="edge"><title>Node0&#45;&gt;Node3</title>
<path fill="none" stroke="darkgreen" stroke-dasharray="5,2" d="M245.415,-29C284.401,-29 341.1,-29 374.796,-29"/>
<text text-anchor="middle" x="310" y="-43" font-family="Helvetica,sans-Serif" font-size="10.00">camera_processing.c</text>
<text text-anchor="middle" x="310" y="-32" font-family="Helvetica,sans-Serif" font-size="10.00">camera_processing.h</text>
</g>
<!-- Node1 -->
<g id="node4" class="node"><title>Node1</title>
<g id="a_node4"><a xlink:href="../../d2/da3/group__io.html" target="_top" xlink:title="I/O Management controls the input (e.g. sensors or camera), output (e.g. motors), and communication (...">
<polygon fill="white" stroke="black" points="16.5,-0.5 16.5,-19.5 105.5,-19.5 105.5,-0.5 16.5,-0.5"/>
<text text-anchor="middle" x="61" y="-7.5" font-family="Helvetica,sans-Serif" font-size="10.00">I/O Management</text>
</a>
</g>
</g>
<!-- Node1&#45;&gt;Node0 -->
<g id="edge1" class="edge"><title>Node1&#45;&gt;Node0</title>
<path fill="none" stroke="black" d="M115.822,-17.357C130.141,-19.3142 145.396,-21.3995 158.982,-23.2565"/>
<polygon fill="black" stroke="black" points="115.981,-13.8462 105.599,-15.9596 115.033,-20.7817 115.981,-13.8462"/>
</g>
</g>
</svg>
