<?xml version="1.0" encoding="UTF-8" standalone="no"?>
<!DOCTYPE svg PUBLIC "-//W3C//DTD SVG 1.1//EN"
 "http://www.w3.org/Graphics/SVG/1.1/DTD/svg11.dtd">
<!-- Generated by graphviz version 2.38.0 (20140413.2041)
 -->
<!-- Title: Camera Module Pages: 1 -->
<svg width="565pt" height="121pt"
 viewBox="0.00 0.00 565.00 121.00" xmlns="http://www.w3.org/2000/svg" xmlns:xlink="http://www.w3.org/1999/xlink">
<g id="graph0" class="graph" transform="scale(1 1) rotate(0) translate(4 117)">
<title>Camera Module</title>
<polygon fill="white" stroke="none" points="-4,4 -4,-117 561,-117 561,4 -4,4"/>
<!-- Node2 -->
<g id="node1" class="node"><title>Node2</title>
<g id="a_node1"><a xlink:href="../../d9/dc8/group__epuck.html" target="_top" xlink:title="Modules and functions that are needed to use the e&#45;puck platform ( http://www.gctronic.com/doc/index.php/E&#45;Puck ) ">
<polygon fill="white" stroke="black" points="0,-35.5 0,-54.5 122,-54.5 122,-35.5 0,-35.5"/>
<text text-anchor="middle" x="61" y="-42.5" font-family="Helvetica,sans-Serif" font-size="10.00">e&#45;puck specific modules</text>
</a>
</g>
</g>
<!-- Node0 -->
<g id="node3" class="node"><title>Node0</title>
<polygon fill="#bfbfbf" stroke="black" points="252,-35.5 252,-54.5 338,-54.5 338,-35.5 252,-35.5"/>
<text text-anchor="middle" x="295" y="-42.5" font-family="Helvetica,sans-Serif" font-size="10.00">Camera Module</text>
</g>
<!-- Node2&#45;&gt;Node0 -->
<g id="edge2" class="edge"><title>Node2&#45;&gt;Node0</title>
<path fill="none" stroke="black" d="M132.228,-49.7126C134.851,-49.8216 137.449,-49.9183 140,-50 181.756,-51.337 192.258,-51.7362 234,-50 239.744,-49.7611 245.789,-49.394 251.742,-48.9649"/>
<polygon fill="black" stroke="black" points="132.178,-46.2065 122.026,-49.2364 131.851,-53.1989 132.178,-46.2065"/>
</g>
<!-- Node4 -->
<g id="node2" class="node"><title>Node4</title>
<g id="a_node2"><a xlink:href="../../d9/d96/group__shefpuck.html" target="_top" xlink:title="External set of functions to assist the programming of the e&#45;Puck. ">
<polygon fill="white" stroke="black" points="483.5,-90.5 483.5,-109.5 541.5,-109.5 541.5,-90.5 483.5,-90.5"/>
<text text-anchor="middle" x="512.5" y="-97.5" font-family="Helvetica,sans-Serif" font-size="10.00">Shefpuck</text>
</a>
</g>
</g>
<!-- Node0&#45;&gt;Node2 -->
<g id="edge4" class="edge"><title>Node0&#45;&gt;Node2</title>
<path fill="none" stroke="darkgreen" stroke-dasharray="5,2" d="M272.246,-35.3956C261.056,-30.9718 247.056,-26.2189 234,-24 192.813,-17.0004 181.417,-18.5222 140,-24 123.178,-26.2249 104.832,-31.0381 90.1615,-35.4957"/>
<text text-anchor="middle" x="187" y="-38" font-family="Helvetica,sans-Serif" font-size="10.00">camera.c</text>
<text text-anchor="middle" x="187" y="-27" font-family="Helvetica,sans-Serif" font-size="10.00">camera_processing.c</text>
</g>
<!-- Node0&#45;&gt;Node4 -->
<g id="edge6" class="edge"><title>Node0&#45;&gt;Node4</title>
<path fill="none" stroke="darkgreen" stroke-dasharray="5,2" d="M315.04,-54.5601C326.634,-60.0486 341.886,-66.686 356,-71 399.465,-84.2854 451.721,-92.5135 483.236,-96.6707"/>
<text text-anchor="middle" x="403" y="-105" font-family="Helvetica,sans-Serif" font-size="10.00">camera_processing.c</text>
<text text-anchor="middle" x="403" y="-94" font-family="Helvetica,sans-Serif" font-size="10.00">camera_processing.h</text>
</g>
<!-- Node3 -->
<g id="node4" class="node"><title>Node3</title>
<g id="a_node4"><a xlink:href="../../d3/df5/group__i2c.html" target="_top" xlink:title="Functions to read from and write on the I2C interface. ">
<polygon fill="white" stroke="black" points="476,-52.5 476,-71.5 549,-71.5 549,-52.5 476,-52.5"/>
<text text-anchor="middle" x="512.5" y="-59.5" font-family="Helvetica,sans-Serif" font-size="10.00">I2C interface</text>
</a>
</g>
</g>
<!-- Node0&#45;&gt;Node3 -->
<g id="edge5" class="edge"><title>Node0&#45;&gt;Node3</title>
<path fill="none" stroke="darkgreen" stroke-dasharray="5,2" d="M338.062,-48.3181C378.239,-51.4875 438.118,-56.2112 475.967,-59.197"/>
<text text-anchor="middle" x="403" y="-59" font-family="Helvetica,sans-Serif" font-size="10.00">camera_processing.c</text>
</g>
<!-- Node1 -->
<g id="node5" class="node"><title>Node1</title>
<g id="a_node5"><a xlink:href="../../d2/da3/group__io.html" target="_top" xlink:title="I/O Management controls the input (e.g. sensors or camera), output (e.g. motors), and communication (...">
<polygon fill="white" stroke="black" points="468,-0.5 468,-19.5 557,-19.5 557,-0.5 468,-0.5"/>
<text text-anchor="middle" x="512.5" y="-7.5" font-family="Helvetica,sans-Serif" font-size="10.00">I/O Management</text>
</a>
</g>
</g>
<!-- Node0&#45;&gt;Node1 -->
<g id="edge3" class="edge"><title>Node0&#45;&gt;Node1</title>
<path fill="none" stroke="darkgreen" stroke-dasharray="5,2" d="M338.281,-37.9219C344.23,-36.9352 350.268,-35.9384 356,-35 393.778,-28.8151 436.742,-21.9182 467.921,-16.9377"/>
<text text-anchor="middle" x="403" y="-38" font-family="Helvetica,sans-Serif" font-size="10.00">camera.c</text>
</g>
<!-- Node1&#45;&gt;Node0 -->
<g id="edge1" class="edge"><title>Node1&#45;&gt;Node0</title>
<path fill="none" stroke="black" d="M457.779,-2.50348C427.376,-0.0216216 388.959,0.129082 356,-9 337.503,-14.1234 318.983,-26.6357 307.514,-35.4647"/>
<polygon fill="black" stroke="black" points="457.483,-5.99099 467.763,-3.42448 458.126,0.97941 457.483,-5.99099"/>
</g>
</g>
</svg>
