<?xml version="1.0" encoding="UTF-8" standalone="no"?>
<!DOCTYPE svg PUBLIC "-//W3C//DTD SVG 1.1//EN"
 "http://www.w3.org/Graphics/SVG/1.1/DTD/svg11.dtd">
<!-- Generated by graphviz version 2.38.0 (20140413.2041)
 -->
<!-- Title: platform/e&#45;puck/i2c_HDI.h Pages: 1 -->
<svg width="234pt" height="106pt"
 viewBox="0.00 0.00 234.00 106.00" xmlns="http://www.w3.org/2000/svg" xmlns:xlink="http://www.w3.org/1999/xlink">
<g id="graph0" class="graph" transform="scale(1 1) rotate(0) translate(4 102)">
<title>platform/e&#45;puck/i2c_HDI.h</title>
<polygon fill="white" stroke="none" points="-4,4 -4,-102 230,-102 230,4 -4,4"/>
<!-- Node1 -->
<g id="node1" class="node"><title>Node1</title>
<polygon fill="#bfbfbf" stroke="black" points="65,-67.5 65,-97.5 165,-97.5 165,-67.5 65,-67.5"/>
<text text-anchor="start" x="73" y="-85.5" font-family="Helvetica,sans-Serif" font-size="10.00">platform/e&#45;puck/i2c</text>
<text text-anchor="middle" x="115" y="-74.5" font-family="Helvetica,sans-Serif" font-size="10.00">_HDI.h</text>
</g>
<!-- Node2 -->
<g id="node2" class="node"><title>Node2</title>
<g id="a_node2"><a xlink:href="../../d9/dcb/i2c_8c.html" target="_top" xlink:title="It defines functions to read and write on the I2C interface. ">
<polygon fill="white" stroke="black" points="0,-6 0,-25 108,-25 108,-6 0,-6"/>
<text text-anchor="middle" x="54" y="-13" font-family="Helvetica,sans-Serif" font-size="10.00">platform/e&#45;puck/i2c.c</text>
</a>
</g>
</g>
<!-- Node1&#45;&gt;Node2 -->
<g id="edge1" class="edge"><title>Node1&#45;&gt;Node2</title>
<path fill="none" stroke="midnightblue" d="M94.8199,-59.9967C83.6857,-48.1323 70.4715,-34.0516 62.1595,-25.1945"/>
<polygon fill="midnightblue" stroke="midnightblue" points="92.3686,-62.4992 101.764,-67.396 97.4729,-57.709 92.3686,-62.4992"/>
</g>
<!-- Node3 -->
<g id="node3" class="node"><title>Node3</title>
<g id="a_node3"><a xlink:href="../../d9/df1/i2c__HDI_8c.html" target="_top" xlink:title="Hardware dependent implementations to read and write on the I2C interface. ">
<polygon fill="white" stroke="black" points="126,-0.5 126,-30.5 226,-30.5 226,-0.5 126,-0.5"/>
<text text-anchor="start" x="134" y="-18.5" font-family="Helvetica,sans-Serif" font-size="10.00">platform/e&#45;puck/i2c</text>
<text text-anchor="middle" x="176" y="-7.5" font-family="Helvetica,sans-Serif" font-size="10.00">_HDI.c</text>
</a>
</g>
</g>
<!-- Node1&#45;&gt;Node3 -->
<g id="edge2" class="edge"><title>Node1&#45;&gt;Node3</title>
<path fill="none" stroke="midnightblue" d="M135.154,-60.0243C144.243,-50.3398 154.721,-39.1739 162.79,-30.5765"/>
<polygon fill="midnightblue" stroke="midnightblue" points="132.527,-57.709 128.236,-67.396 137.631,-62.4992 132.527,-57.709"/>
</g>
</g>
</svg>
