<?xml version="1.0" encoding="UTF-8" standalone="no"?>
<!DOCTYPE svg PUBLIC "-//W3C//DTD SVG 1.1//EN"
 "http://www.w3.org/Graphics/SVG/1.1/DTD/svg11.dtd">
<!-- Generated by graphviz version 2.38.0 (20140413.2041)
 -->
<!-- Title: platform/e&#45;puck/uart_HDI.h Pages: 1 -->
<svg width="242pt" height="106pt"
 viewBox="0.00 0.00 242.00 106.00" xmlns="http://www.w3.org/2000/svg" xmlns:xlink="http://www.w3.org/1999/xlink">
<g id="graph0" class="graph" transform="scale(1 1) rotate(0) translate(4 102)">
<title>platform/e&#45;puck/uart_HDI.h</title>
<polygon fill="white" stroke="none" points="-4,4 -4,-102 238,-102 238,4 -4,4"/>
<!-- Node1 -->
<g id="node1" class="node"><title>Node1</title>
<polygon fill="#bfbfbf" stroke="black" points="67,-67.5 67,-97.5 171,-97.5 171,-67.5 67,-67.5"/>
<text text-anchor="start" x="75" y="-85.5" font-family="Helvetica,sans-Serif" font-size="10.00">platform/e&#45;puck/uart</text>
<text text-anchor="middle" x="119" y="-74.5" font-family="Helvetica,sans-Serif" font-size="10.00">_HDI.h</text>
</g>
<!-- Node2 -->
<g id="node2" class="node"><title>Node2</title>
<g id="a_node2"><a xlink:href="$d1/d87/uart_8c.html" xlink:title="It declares functions to transmit bytes via UART. ">
<polygon fill="white" stroke="black" points="0,-6 0,-25 112,-25 112,-6 0,-6"/>
<text text-anchor="middle" x="56" y="-13" font-family="Helvetica,sans-Serif" font-size="10.00">platform/e&#45;puck/uart.c</text>
</a>
</g>
</g>
<!-- Node1&#45;&gt;Node2 -->
<g id="edge1" class="edge"><title>Node1&#45;&gt;Node2</title>
<path fill="none" stroke="midnightblue" d="M98.1583,-59.9967C86.659,-48.1323 73.0115,-34.0516 64.427,-25.1945"/>
<polygon fill="midnightblue" stroke="midnightblue" points="95.8569,-62.6512 105.33,-67.396 100.883,-57.7793 95.8569,-62.6512"/>
</g>
<!-- Node3 -->
<g id="node3" class="node"><title>Node3</title>
<g id="a_node3"><a xlink:href="$da/d3a/uart__HDI_8c.html" xlink:title="Hardware dependent implementations to transmit bytes via UART. ">
<polygon fill="white" stroke="black" points="130,-0.5 130,-30.5 234,-30.5 234,-0.5 130,-0.5"/>
<text text-anchor="start" x="138" y="-18.5" font-family="Helvetica,sans-Serif" font-size="10.00">platform/e&#45;puck/uart</text>
<text text-anchor="middle" x="182" y="-7.5" font-family="Helvetica,sans-Serif" font-size="10.00">_HDI.c</text>
</a>
</g>
</g>
<!-- Node1&#45;&gt;Node3 -->
<g id="edge2" class="edge"><title>Node1&#45;&gt;Node3</title>
<path fill="none" stroke="midnightblue" d="M139.815,-60.0243C149.201,-50.3398 160.024,-39.1739 168.357,-30.5765"/>
<polygon fill="midnightblue" stroke="midnightblue" points="137.117,-57.7793 132.67,-67.396 142.143,-62.6512 137.117,-57.7793"/>
</g>
</g>
</svg>
