<?xml version="1.0" encoding="UTF-8" standalone="no"?>
<!DOCTYPE svg PUBLIC "-//W3C//DTD SVG 1.1//EN"
 "http://www.w3.org/Graphics/SVG/1.1/DTD/svg11.dtd">
<!-- Generated by graphviz version 2.38.0 (20140413.2041)
 -->
<!-- Title: processes Pages: 1 -->
<svg width="130pt" height="188pt"
 viewBox="0.00 0.00 130.00 188.00" xmlns="http://www.w3.org/2000/svg" xmlns:xlink="http://www.w3.org/1999/xlink">
<g id="graph0" class="graph" transform="scale(1 1) rotate(0) translate(4 184)">
<title>processes</title>
<polygon fill="white" stroke="none" points="-4,4 -4,-184 126,-184 126,4 -4,4"/>
<!-- dir_077f8521b28e7fcc52dbecb26eb3cbc1 -->
<g id="node1" class="node"><title>dir_077f8521b28e7fcc52dbecb26eb3cbc1</title>
<g id="a_node1"><a xlink:href="dir_077f8521b28e7fcc52dbecb26eb3cbc1.html" xlink:title="processes">
<polygon fill="#eeeeff" stroke="black" points="122,-180 60,-180 60,-144 122,-144 122,-180"/>
<text text-anchor="middle" x="91" y="-159.5" font-family="Helvetica,sans-Serif" font-size="10.00">processes</text>
</a>
</g>
</g>
<!-- dir_c5a52a81292cf9a5167198f4f346d6d9 -->
<g id="node2" class="node"><title>dir_c5a52a81292cf9a5167198f4f346d6d9</title>
<g id="a_node2"><a xlink:href="dir_c5a52a81292cf9a5167198f4f346d6d9.html" xlink:title="platform">
<polygon fill="white" stroke="red" points="54,-108 0,-108 0,-72 54,-72 54,-108"/>
<text text-anchor="middle" x="27" y="-87.5" font-family="Helvetica,sans-Serif" font-size="10.00">platform</text>
</a>
</g>
</g>
<!-- dir_077f8521b28e7fcc52dbecb26eb3cbc1&#45;&gt;dir_c5a52a81292cf9a5167198f4f346d6d9 -->
<g id="edge2" class="edge"><title>dir_077f8521b28e7fcc52dbecb26eb3cbc1&#45;&gt;dir_c5a52a81292cf9a5167198f4f346d6d9</title>
<path fill="none" stroke="black" d="M75.1798,-143.697C67.4295,-135.22 57.961,-124.864 49.4755,-115.583"/>
<polygon fill="black" stroke="black" points="51.9691,-113.123 42.6382,-108.104 46.8029,-117.846 51.9691,-113.123"/>
<g id="a_edge2&#45;headlabel"><a xlink:href="dir_000004_000002.html" xlink:title="4">
<text text-anchor="middle" x="56.49" y="-111.36" font-family="Helvetica,sans-Serif" font-size="10.00">4</text>
</a>
</g>
</g>
<!-- dir_7d604191edc08013a26f918aa8ef79ad -->
<g id="node3" class="node"><title>dir_7d604191edc08013a26f918aa8ef79ad</title>
<g id="a_node3"><a xlink:href="dir_7d604191edc08013a26f918aa8ef79ad.html" xlink:title="events">
<polygon fill="none" stroke="black" points="118,-36 64,-36 64,-0 118,-0 118,-36"/>
<text text-anchor="middle" x="91" y="-15.5" font-family="Helvetica,sans-Serif" font-size="10.00">events</text>
</a>
</g>
</g>
<!-- dir_077f8521b28e7fcc52dbecb26eb3cbc1&#45;&gt;dir_7d604191edc08013a26f918aa8ef79ad -->
<g id="edge3" class="edge"><title>dir_077f8521b28e7fcc52dbecb26eb3cbc1&#45;&gt;dir_7d604191edc08013a26f918aa8ef79ad</title>
<path fill="none" stroke="black" d="M86.4155,-143.871C83.8571,-119.67 83.5656,-75.2108 85.541,-46.3932"/>
<polygon fill="black" stroke="black" points="89.0487,-46.45 86.4091,-36.1893 82.0739,-45.8566 89.0487,-46.45"/>
<g id="a_edge3&#45;headlabel"><a xlink:href="dir_000004_000000.html" xlink:title="2">
<text text-anchor="middle" x="91.5732" y="-47.7723" font-family="Helvetica,sans-Serif" font-size="10.00">2</text>
</a>
</g>
</g>
<!-- dir_c5a52a81292cf9a5167198f4f346d6d9&#45;&gt;dir_7d604191edc08013a26f918aa8ef79ad -->
<g id="edge1" class="edge"><title>dir_c5a52a81292cf9a5167198f4f346d6d9&#45;&gt;dir_7d604191edc08013a26f918aa8ef79ad</title>
<path fill="none" stroke="black" d="M42.8202,-71.6966C50.5705,-63.2198 60.039,-52.8636 68.5245,-43.5826"/>
<polygon fill="black" stroke="black" points="71.1971,-45.8464 75.3618,-36.1043 66.0309,-41.1229 71.1971,-45.8464"/>
<g id="a_edge1&#45;headlabel"><a xlink:href="dir_000002_000000.html" xlink:title="4">
<text text-anchor="middle" x="70.8671" y="-47.9151" font-family="Helvetica,sans-Serif" font-size="10.00">4</text>
</a>
</g>
</g>
<!-- dir_7d604191edc08013a26f918aa8ef79ad&#45;&gt;dir_077f8521b28e7fcc52dbecb26eb3cbc1 -->
<g id="edge4" class="edge"><title>dir_7d604191edc08013a26f918aa8ef79ad&#45;&gt;dir_077f8521b28e7fcc52dbecb26eb3cbc1</title>
<path fill="none" stroke="black" d="M95.5909,-36.1893C98.1455,-60.4244 98.4332,-104.888 96.454,-133.679"/>
<polygon fill="black" stroke="black" points="92.9473,-133.61 95.5845,-143.871 99.9219,-134.205 92.9473,-133.61"/>
<g id="a_edge4&#45;headlabel"><a xlink:href="dir_000000_000004.html" xlink:title="2">
<text text-anchor="middle" x="90.4237" y="-127.287" font-family="Helvetica,sans-Serif" font-size="10.00">2</text>
</a>
</g>
</g>
</g>
</svg>
