<?xml version="1.0" encoding="UTF-8" standalone="no"?>
<!DOCTYPE svg PUBLIC "-//W3C//DTD SVG 1.1//EN"
 "http://www.w3.org/Graphics/SVG/1.1/DTD/svg11.dtd">
<!-- Generated by graphviz version 2.38.0 (20140413.2041)
 -->
<!-- Title: sys_peh Pages: 1 -->
<svg width="114pt" height="106pt"
 viewBox="0.00 0.00 114.00 106.00" xmlns="http://www.w3.org/2000/svg" xmlns:xlink="http://www.w3.org/1999/xlink">
<g id="graph0" class="graph" transform="scale(1 1) rotate(0) translate(4 102)">
<title>sys_peh</title>
<polygon fill="white" stroke="none" points="-4,4 -4,-102 110,-102 110,4 -4,4"/>
<!-- Node1 -->
<g id="node1" class="node"><title>Node1</title>
<polygon fill="#bfbfbf" stroke="black" points="16.5,-0.5 16.5,-19.5 69.5,-19.5 69.5,-0.5 16.5,-0.5"/>
<text text-anchor="middle" x="43" y="-7.5" font-family="Helvetica,sans-Serif" font-size="10.00">sys_peh</text>
</g>
<!-- Node2 -->
<g id="node2" class="node"><title>Node2</title>
<g id="a_node2"><a xlink:href="../../d7/d0c/structsys__event__data.html" target="_top" xlink:title="It is a single linked list element and contains data of an occurred event. ">
<polygon fill="white" stroke="black" points="0,-78.5 0,-97.5 86,-97.5 86,-78.5 0,-78.5"/>
<text text-anchor="middle" x="43" y="-85.5" font-family="Helvetica,sans-Serif" font-size="10.00">sys_event_data</text>
</a>
</g>
</g>
<!-- Node2&#45;&gt;Node1 -->
<g id="edge1" class="edge"><title>Node2&#45;&gt;Node1</title>
<path fill="none" stroke="#9a32cd" stroke-dasharray="5,2" d="M43,-68.2239C43,-52.6974 43,-31.3582 43,-19.6165"/>
<polygon fill="#9a32cd" stroke="#9a32cd" points="39.5001,-68.2818 43,-78.2818 46.5001,-68.2819 39.5001,-68.2818"/>
<text text-anchor="middle" x="74.5" y="-52" font-family="Helvetica,sans-Serif" font-size="10.00"> buffered_data</text>
<text text-anchor="middle" x="74.5" y="-41" font-family="Helvetica,sans-Serif" font-size="10.00">handler</text>
</g>
</g>
</svg>
