<?xml version="1.0" encoding="UTF-8" standalone="no"?>
<!DOCTYPE svg PUBLIC "-//W3C//DTD SVG 1.1//EN"
 "http://www.w3.org/Graphics/SVG/1.1/DTD/svg11.dtd">
<!-- Generated by graphviz version 2.38.0 (20140413.2041)
 -->
<!-- Title: processes/scheduler.h Pages: 1 -->
<svg width="917pt" height="218pt"
 viewBox="0.00 0.00 917.00 218.00" xmlns="http://www.w3.org/2000/svg" xmlns:xlink="http://www.w3.org/1999/xlink">
<g id="graph0" class="graph" transform="scale(1 1) rotate(0) translate(4 214)">
<title>processes/scheduler.h</title>
<polygon fill="white" stroke="none" points="-4,4 -4,-214 913,-214 913,4 -4,4"/>
<!-- Node1 -->
<g id="node1" class="node"><title>Node1</title>
<polygon fill="#bfbfbf" stroke="black" points="586,-190.5 586,-209.5 701,-209.5 701,-190.5 586,-190.5"/>
<text text-anchor="middle" x="643.5" y="-197.5" font-family="Helvetica,sans-Serif" font-size="10.00">processes/scheduler.h</text>
</g>
<!-- Node2 -->
<g id="node2" class="node"><title>Node2</title>
<g id="a_node2"><a xlink:href="../../d4/dfd/system_8c.html" target="_top" xlink:title="defines functions to initialise and start OpenSwarm. ">
<polygon fill="white" stroke="black" points="0,-73 0,-92 57,-92 57,-73 0,-73"/>
<text text-anchor="middle" x="28.5" y="-80" font-family="Helvetica,sans-Serif" font-size="10.00">system.c</text>
</a>
</g>
</g>
<!-- Node1&#45;&gt;Node2 -->
<g id="edge1" class="edge"><title>Node1&#45;&gt;Node2</title>
<path fill="none" stroke="midnightblue" d="M575.471,-193.257C503.489,-186.516 386.805,-173.691 287.5,-154 201.334,-136.914 101.637,-106.766 55.0522,-92.0558"/>
<polygon fill="midnightblue" stroke="midnightblue" points="575.48,-196.773 585.76,-194.208 576.124,-189.802 575.48,-196.773"/>
</g>
<!-- Node3 -->
<g id="node3" class="node"><title>Node3</title>
<g id="a_node3"><a xlink:href="../../dd/de5/process__Management_8h.html" target="_top" xlink:title="It declares functions to manage processes (e.g. task creation, switching, termination) ...">
<polygon fill="white" stroke="black" points="297,-134.5 297,-153.5 466,-153.5 466,-134.5 297,-134.5"/>
<text text-anchor="middle" x="381.5" y="-141.5" font-family="Helvetica,sans-Serif" font-size="10.00">processes/process_Management.h</text>
</a>
</g>
</g>
<!-- Node1&#45;&gt;Node3 -->
<g id="edge2" class="edge"><title>Node1&#45;&gt;Node3</title>
<path fill="none" stroke="midnightblue" d="M592.117,-188.41C542.602,-178.204 468.638,-162.96 422.82,-153.516"/>
<polygon fill="midnightblue" stroke="midnightblue" points="591.485,-191.853 601.985,-190.444 592.898,-184.997 591.485,-191.853"/>
</g>
<!-- Node8 -->
<g id="node8" class="node"><title>Node8</title>
<g id="a_node8"><a xlink:href="../../da/d14/process__Management_8c.html" target="_top" xlink:title="It defines functions to manage processes (e.g. task creation, switching, termination) ...">
<polygon fill="white" stroke="black" points="740,-6 740,-25 909,-25 909,-6 740,-6"/>
<text text-anchor="middle" x="824.5" y="-13" font-family="Helvetica,sans-Serif" font-size="10.00">processes/process_Management.c</text>
</a>
</g>
</g>
<!-- Node1&#45;&gt;Node8 -->
<g id="edge17" class="edge"><title>Node1&#45;&gt;Node8</title>
<path fill="none" stroke="midnightblue" d="M711.301,-196.561C750.922,-192.068 799.961,-180.889 835.5,-154 868.234,-129.233 880.455,-105.603 866.5,-67 860.297,-49.8415 845.442,-34.4045 835.172,-25.2398"/>
<polygon fill="midnightblue" stroke="midnightblue" points="710.779,-193.096 701.184,-197.588 711.486,-200.06 710.779,-193.096"/>
</g>
<!-- Node9 -->
<g id="node9" class="node"><title>Node9</title>
<g id="a_node9"><a xlink:href="../../dd/d6c/scheduler_8c.html" target="_top" xlink:title="It defines functions to specify a scheduling algorithm. ">
<polygon fill="white" stroke="black" points="586,-73 586,-92 701,-92 701,-73 586,-73"/>
<text text-anchor="middle" x="643.5" y="-80" font-family="Helvetica,sans-Serif" font-size="10.00">processes/scheduler.c</text>
</a>
</g>
</g>
<!-- Node1&#45;&gt;Node9 -->
<g id="edge18" class="edge"><title>Node1&#45;&gt;Node9</title>
<path fill="none" stroke="midnightblue" d="M643.5,-180.164C643.5,-154.865 643.5,-110.935 643.5,-92.282"/>
<polygon fill="midnightblue" stroke="midnightblue" points="640,-180.319 643.5,-190.319 647,-180.319 640,-180.319"/>
</g>
<!-- Node11 -->
<g id="node11" class="node"><title>Node11</title>
<g id="a_node11"><a xlink:href="../../d2/dbd/data_8h.html" target="_top" xlink:title="It declares functions to manage process lists and related structs. ">
<polygon fill="white" stroke="black" points="734.5,-134.5 734.5,-153.5 826.5,-153.5 826.5,-134.5 734.5,-134.5"/>
<text text-anchor="middle" x="780.5" y="-141.5" font-family="Helvetica,sans-Serif" font-size="10.00">processes/data.h</text>
</a>
</g>
</g>
<!-- Node1&#45;&gt;Node11 -->
<g id="edge11" class="edge"><title>Node1&#45;&gt;Node11</title>
<path fill="none" stroke="midnightblue" d="M674.523,-186.772C700.257,-176.629 736.186,-162.467 758.894,-153.516"/>
<polygon fill="midnightblue" stroke="midnightblue" points="673.228,-183.52 665.208,-190.444 675.795,-190.033 673.228,-183.52"/>
</g>
<!-- Node3&#45;&gt;Node2 -->
<g id="edge3" class="edge"><title>Node3&#45;&gt;Node2</title>
<path fill="none" stroke="midnightblue" d="M286.713,-133.746C224.902,-126.61 142.772,-115.041 71.5,-98 64.9104,-96.4244 57.8955,-94.2711 51.4846,-92.1059"/>
<polygon fill="midnightblue" stroke="midnightblue" points="286.51,-137.246 296.842,-134.897 287.301,-130.291 286.51,-137.246"/>
</g>
<!-- Node4 -->
<g id="node4" class="node"><title>Node4</title>
<g id="a_node4"><a xlink:href="../../de/deb/events_8c.html" target="_top" xlink:title="defines functions to create, (un)subscribe, (un)register, and delete events and related handler...">
<polygon fill="white" stroke="black" points="267.5,-73 267.5,-92 353.5,-92 353.5,-73 267.5,-73"/>
<text text-anchor="middle" x="310.5" y="-80" font-family="Helvetica,sans-Serif" font-size="10.00">events/events.c</text>
</a>
</g>
</g>
<!-- Node3&#45;&gt;Node4 -->
<g id="edge4" class="edge"><title>Node3&#45;&gt;Node4</title>
<path fill="none" stroke="midnightblue" d="M363.568,-127.973C349.989,-116.593 331.823,-101.369 320.654,-92.0091"/>
<polygon fill="midnightblue" stroke="midnightblue" points="361.415,-130.735 371.327,-134.475 365.911,-125.369 361.415,-130.735"/>
</g>
<!-- Node5 -->
<g id="node5" class="node"><title>Node5</title>
<g id="a_node5"><a xlink:href="../../d2/d78/process__Management__HDI_8c.html" target="_top" xlink:title="Hardware dependent implementations to manage processes (e.g. task swichting) ">
<polygon fill="white" stroke="black" points="257.5,-0.5 257.5,-30.5 379.5,-30.5 379.5,-0.5 257.5,-0.5"/>
<text text-anchor="start" x="265.5" y="-18.5" font-family="Helvetica,sans-Serif" font-size="10.00">platform/e&#45;puck/process</text>
<text text-anchor="middle" x="318.5" y="-7.5" font-family="Helvetica,sans-Serif" font-size="10.00">_Management_HDI.c</text>
</a>
</g>
</g>
<!-- Node3&#45;&gt;Node5 -->
<g id="edge5" class="edge"><title>Node3&#45;&gt;Node5</title>
<path fill="none" stroke="midnightblue" d="M286.602,-140.33C215.901,-136.103 127.743,-125.324 104.5,-98 58.8415,-44.3255 179,-25.907 257.246,-19.6544"/>
<polygon fill="midnightblue" stroke="midnightblue" points="286.716,-143.842 296.897,-140.907 287.108,-136.853 286.716,-143.842"/>
</g>
<!-- Node6 -->
<g id="node6" class="node"><title>Node6</title>
<g id="a_node6"><a xlink:href="../../d7/de8/system__Timer__HDI_8c.html" target="_top" xlink:title="Hardware dependent implementations to initialise, configure and run the system Timer. ">
<polygon fill="white" stroke="black" points="410,-67.5 410,-97.5 529,-97.5 529,-67.5 410,-67.5"/>
<text text-anchor="start" x="418" y="-85.5" font-family="Helvetica,sans-Serif" font-size="10.00">platform/e&#45;puck/system</text>
<text text-anchor="middle" x="469.5" y="-74.5" font-family="Helvetica,sans-Serif" font-size="10.00">_Timer_HDI.c</text>
</a>
</g>
</g>
<!-- Node3&#45;&gt;Node6 -->
<g id="edge6" class="edge"><title>Node3&#45;&gt;Node6</title>
<path fill="none" stroke="midnightblue" d="M402.592,-128.739C416.578,-119.282 434.847,-106.93 448.76,-97.523"/>
<polygon fill="midnightblue" stroke="midnightblue" points="400.432,-125.974 394.108,-134.475 404.353,-131.773 400.432,-125.974"/>
</g>
<!-- Node7 -->
<g id="node7" class="node"><title>Node7</title>
<g id="a_node7"><a xlink:href="../../de/da9/data_8c.html" target="_top" xlink:title="It defines functions to manage process lists and related structs. ">
<polygon fill="white" stroke="black" points="482.5,-6 482.5,-25 574.5,-25 574.5,-6 482.5,-6"/>
<text text-anchor="middle" x="528.5" y="-13" font-family="Helvetica,sans-Serif" font-size="10.00">processes/data.c</text>
</a>
</g>
</g>
<!-- Node3&#45;&gt;Node7 -->
<g id="edge7" class="edge"><title>Node3&#45;&gt;Node7</title>
<path fill="none" stroke="midnightblue" d="M381.56,-124.041C382.599,-107.169 386.656,-82.7848 400.5,-67 421.372,-43.2029 454.927,-30.5112 482.446,-23.804"/>
<polygon fill="midnightblue" stroke="midnightblue" points="378.053,-124.22 381.24,-134.324 385.05,-124.438 378.053,-124.22"/>
</g>
<!-- Node3&#45;&gt;Node8 -->
<g id="edge8" class="edge"><title>Node3&#45;&gt;Node8</title>
<path fill="none" stroke="midnightblue" d="M438.39,-132.223C468.875,-125.079 506.44,-114.021 537.5,-98 557.178,-87.8495 556.432,-76.3559 576.5,-67 627.873,-43.0499 690.444,-30.414 739.883,-23.7711"/>
<polygon fill="midnightblue" stroke="midnightblue" points="437.323,-128.876 428.343,-134.497 438.869,-135.703 437.323,-128.876"/>
</g>
<!-- Node3&#45;&gt;Node9 -->
<g id="edge9" class="edge"><title>Node3&#45;&gt;Node9</title>
<path fill="none" stroke="midnightblue" d="M428.799,-132.258C479.624,-120.716 559.371,-102.606 606.031,-92.0091"/>
<polygon fill="midnightblue" stroke="midnightblue" points="428.015,-128.847 419.038,-134.475 429.565,-135.674 428.015,-128.847"/>
</g>
<!-- Node10 -->
<g id="node10" class="node"><title>Node10</title>
<g id="a_node10"><a xlink:href="../../de/dfb/system__Timer_8c.html" target="_top" xlink:title="It defines functions to initialise, configure and run the system Timer. ">
<polygon fill="white" stroke="black" points="114,-73 114,-92 249,-92 249,-73 114,-73"/>
<text text-anchor="middle" x="181.5" y="-80" font-family="Helvetica,sans-Serif" font-size="10.00">processes/system_Timer.c</text>
</a>
</g>
</g>
<!-- Node3&#45;&gt;Node10 -->
<g id="edge10" class="edge"><title>Node3&#45;&gt;Node10</title>
<path fill="none" stroke="midnightblue" d="M342.941,-131.529C304.07,-119.965 244.979,-102.385 210.102,-92.0091"/>
<polygon fill="midnightblue" stroke="midnightblue" points="342.262,-134.978 352.845,-134.475 344.258,-128.269 342.262,-134.978"/>
</g>
<!-- Node11&#45;&gt;Node8 -->
<g id="edge16" class="edge"><title>Node11&#45;&gt;Node8</title>
<path fill="none" stroke="midnightblue" d="M814.324,-129.964C828.138,-122.764 842.681,-112.321 850.5,-98 864.022,-73.2322 843.15,-40.3355 831.49,-25.0193"/>
<polygon fill="midnightblue" stroke="midnightblue" points="812.481,-126.966 804.969,-134.438 815.501,-133.281 812.481,-126.966"/>
</g>
<!-- Node12 -->
<g id="node12" class="node"><title>Node12</title>
<g id="a_node12"><a xlink:href="../../de/dad/process__Management__HDI_8h.html" target="_top" xlink:title="Hardware dependent implementations to manage processes (e.g. task swichting) ">
<polygon fill="white" stroke="black" points="719.5,-67.5 719.5,-97.5 841.5,-97.5 841.5,-67.5 719.5,-67.5"/>
<text text-anchor="start" x="727.5" y="-85.5" font-family="Helvetica,sans-Serif" font-size="10.00">platform/e&#45;puck/process</text>
<text text-anchor="middle" x="780.5" y="-74.5" font-family="Helvetica,sans-Serif" font-size="10.00">_Management_HDI.h</text>
</a>
</g>
</g>
<!-- Node11&#45;&gt;Node12 -->
<g id="edge12" class="edge"><title>Node11&#45;&gt;Node12</title>
<path fill="none" stroke="midnightblue" d="M780.5,-124.235C780.5,-115.586 780.5,-105.497 780.5,-97.523"/>
<polygon fill="midnightblue" stroke="midnightblue" points="777,-124.475 780.5,-134.475 784,-124.475 777,-124.475"/>
</g>
<!-- Node12&#45;&gt;Node5 -->
<g id="edge13" class="edge"><title>Node12&#45;&gt;Node5</title>
<path fill="none" stroke="midnightblue" d="M709.803,-67.0505C709.702,-67.0336 709.601,-67.0168 709.5,-67 593.371,-47.6689 456.787,-31.5175 379.656,-22.9994"/>
<polygon fill="midnightblue" stroke="midnightblue" points="708.909,-70.4473 719.362,-68.719 710.113,-63.5515 708.909,-70.4473"/>
</g>
<!-- Node12&#45;&gt;Node7 -->
<g id="edge14" class="edge"><title>Node12&#45;&gt;Node7</title>
<path fill="none" stroke="midnightblue" d="M716.183,-64.9102C666.83,-52.1803 600.717,-35.1273 561.565,-25.0287"/>
<polygon fill="midnightblue" stroke="midnightblue" points="715.573,-68.3674 726.13,-67.476 717.321,-61.5892 715.573,-68.3674"/>
</g>
<!-- Node12&#45;&gt;Node8 -->
<g id="edge15" class="edge"><title>Node12&#45;&gt;Node8</title>
<path fill="none" stroke="midnightblue" d="M795.748,-58.9745C803.629,-47.332 812.79,-33.7985 818.614,-25.1945"/>
<polygon fill="midnightblue" stroke="midnightblue" points="792.755,-57.1529 790.047,-67.396 798.551,-61.0769 792.755,-57.1529"/>
</g>
</g>
</svg>
