<?xml version="1.0" encoding="UTF-8" standalone="no"?>
<!DOCTYPE svg PUBLIC "-//W3C//DTD SVG 1.1//EN"
 "http://www.w3.org/Graphics/SVG/1.1/DTD/svg11.dtd">
<!-- Generated by graphviz version 2.38.0 (20140413.2041)
 -->
<!-- Title: platform/e&#45;puck/system_Timer_HDI.c Pages: 1 -->
<!--zoomable 352 -->
<svg id="main" version="1.1" xmlns="http://www.w3.org/2000/svg" xmlns:xlink="http://www.w3.org/1999/xlink" xml:space="preserve" onload="init(evt)">
<style type="text/css"><![CDATA[
.edge:hover path { stroke: red; }
.edge:hover polygon { stroke: red; fill: red; }
]]></style>
<script type="text/javascript"><![CDATA[
var edges = document.getElementsByTagName('g');
if (edges && edges.length) {
  for (var i=0;i<edges.length;i++) {
    if (edges[i].id.substr(0,4)=='edge') {
      edges[i].setAttribute('class','edge');
    }
  }
}
]]></script>
        <defs>
                <circle id="rim" cx="0" cy="0" r="7"/>
                <circle id="rim2" cx="0" cy="0" r="3.5"/>
                <g id="zoomPlus">
                        <use xlink:href="#rim" fill="#404040">
                                <set attributeName="fill" to="#808080" begin="zoomplus.mouseover" end="zoomplus.mouseout"/>
                        </use>
                        <path d="M-4,0h8M0,-4v8" fill="none" stroke="white" stroke-width="1.5" pointer-events="none"/>
                </g>
                <g id="zoomMin">
                        <use xlink:href="#rim" fill="#404040">
                                <set attributeName="fill" to="#808080" begin="zoomminus.mouseover" end="zoomminus.mouseout"/>
                        </use>
                        <path d="M-4,0h8" fill="none" stroke="white" stroke-width="1.5" pointer-events="none"/>
                </g>
                <g id="dirArrow">
                        <path fill="none" stroke="white" stroke-width="1.5" d="M0,-3.0v7 M-2.5,-0.5L0,-3.0L2.5,-0.5"/>
                </g>
               <g id="resetDef">
                       <use xlink:href="#rim2" fill="#404040">
                               <set attributeName="fill" to="#808080" begin="reset.mouseover" end="reset.mouseout"/>
                       </use>
               </g>
        </defs>

<script type="text/javascript">
var viewWidth = 583;
var viewHeight = 352;
var sectionId = 'dynsection-0';
</script>
<script xlink:href="../../svgpan.js"/>
<svg id="graph" class="graph">
<g id="viewport">
<title>platform/e&#45;puck/system_Timer_HDI.c</title>
<polygon fill="white" stroke="none" points="-4,4 -4,-348 579.081,-348 579.081,4 -4,4"/>
<!-- Node1 -->
<g id="node1" class="node"><title>Node1</title>
<polygon fill="#bfbfbf" stroke="black" points="161.081,-313.5 161.081,-343.5 280.081,-343.5 280.081,-313.5 161.081,-313.5"/>
<text text-anchor="start" x="169.081" y="-331.5" font-family="Helvetica,sans-Serif" font-size="10.00">platform/e&#45;puck/system</text>
<text text-anchor="middle" x="220.581" y="-320.5" font-family="Helvetica,sans-Serif" font-size="10.00">_Timer_HDI.c</text>
</g>
<!-- Node2 -->
<g id="node2" class="node"><title>Node2</title>
<g id="a_node2"><a xlink:href="../../d7/d30/system__Timer__HDI_8h.html" target="_top" xlink:title="Hardware dependent implementations to initialise, configure and run the system Timer. ">
<polygon fill="white" stroke="black" points="12.5811,-190.5 12.5811,-209.5 122.581,-209.5 122.581,-190.5 12.5811,-190.5"/>
<text text-anchor="middle" x="67.5811" y="-197.5" font-family="Helvetica,sans-Serif" font-size="10.00">system_Timer_HDI.h</text>
</a>
</g>
</g>
<!-- Node1&#45;&gt;Node2 -->
<g id="edge1" class="edge"><title>Node1&#45;&gt;Node2</title>
<path fill="none" stroke="midnightblue" d="M161.057,-317.938C134.822,-310.815 105.68,-298.442 86.5811,-277 72.6159,-261.322 68.5843,-236.916 67.5842,-220.009"/>
<polygon fill="midnightblue" stroke="midnightblue" points="71.074,-219.599 67.2913,-209.702 64.0769,-219.798 71.074,-219.599"/>
</g>
<!-- Node3 -->
<g id="node3" class="node"><title>Node3</title>
<g id="a_node3"><a xlink:href="../../d6/dc2/definitions_8h.html" target="_top" xlink:title="It declares general preprocessor variables and types. ">
<polygon fill="white" stroke="black" points="133.581,-134.5 133.581,-153.5 243.581,-153.5 243.581,-134.5 133.581,-134.5"/>
<text text-anchor="middle" x="188.581" y="-141.5" font-family="Helvetica,sans-Serif" font-size="10.00">../../../os/definitions.h</text>
</a>
</g>
</g>
<!-- Node1&#45;&gt;Node3 -->
<g id="edge21" class="edge"><title>Node1&#45;&gt;Node3</title>
<path fill="none" stroke="midnightblue" d="M160.968,-316.671C105.953,-302.882 29.0509,-272.831 3.58114,-210 0.241815,-201.762 -1.91148,-196.989 3.58114,-190 18.4236,-171.114 76.0397,-159.169 123.079,-152.37"/>
<polygon fill="midnightblue" stroke="midnightblue" points="123.819,-155.8 133.241,-150.955 122.854,-148.867 123.819,-155.8"/>
</g>
<!-- Node8 -->
<g id="node8" class="node"><title>Node8</title>
<g id="a_node8"><a xlink:href="../../d9/d1f/DSPIC30F6014A__HDI_8h.html" target="_top" xlink:title="declares e&#45;puck specific types and preprocessor variables ">
<polygon fill="white" stroke="black" points="388.581,-67.5 388.581,-97.5 544.581,-97.5 544.581,-67.5 388.581,-67.5"/>
<text text-anchor="start" x="396.581" y="-85.5" font-family="Helvetica,sans-Serif" font-size="10.00">platform/e&#45;puck/DSPIC30F6014</text>
<text text-anchor="middle" x="466.581" y="-74.5" font-family="Helvetica,sans-Serif" font-size="10.00">A_HDI.h</text>
</a>
</g>
</g>
<!-- Node1&#45;&gt;Node8 -->
<g id="edge19" class="edge"><title>Node1&#45;&gt;Node8</title>
<path fill="none" stroke="midnightblue" d="M272.528,-313.422C298.375,-305.082 329.393,-292.987 354.581,-277 390.671,-254.094 400.735,-246.128 423.581,-210 444.066,-177.606 456.021,-134.329 461.923,-107.713"/>
<polygon fill="midnightblue" stroke="midnightblue" points="465.389,-108.24 464.025,-97.7331 458.539,-106.797 465.389,-108.24"/>
</g>
<!-- Node10 -->
<g id="node10" class="node"><title>Node10</title>
<g id="a_node10"><a xlink:href="../../df/dbf/system__Timer_8h.html" target="_top" xlink:title="It declares functions to initialise, configure and run the system Timer. ">
<polygon fill="white" stroke="black" points="96.0811,-246.5 96.0811,-276.5 211.081,-276.5 211.081,-246.5 96.0811,-246.5"/>
<text text-anchor="start" x="104.081" y="-264.5" font-family="Helvetica,sans-Serif" font-size="10.00">../../processes/system</text>
<text text-anchor="middle" x="153.581" y="-253.5" font-family="Helvetica,sans-Serif" font-size="10.00">_Timer.h</text>
</a>
</g>
</g>
<!-- Node1&#45;&gt;Node10 -->
<g id="edge9" class="edge"><title>Node1&#45;&gt;Node10</title>
<path fill="none" stroke="midnightblue" d="M206.043,-313.396C197.088,-304.708 185.437,-293.405 175.39,-283.658"/>
<polygon fill="midnightblue" stroke="midnightblue" points="177.705,-281.028 168.091,-276.577 172.831,-286.052 177.705,-281.028"/>
</g>
<!-- Node11 -->
<g id="node11" class="node"><title>Node11</title>
<g id="a_node11"><a xlink:href="../../dd/de5/process__Management_8h.html" target="_top" xlink:title="It declares functions to manage processes (e.g. task creation, switching, termination) ...">
<polygon fill="white" stroke="black" points="229.081,-246.5 229.081,-276.5 346.081,-276.5 346.081,-246.5 229.081,-246.5"/>
<text text-anchor="start" x="237.081" y="-264.5" font-family="Helvetica,sans-Serif" font-size="10.00">../../processes/process</text>
<text text-anchor="middle" x="287.581" y="-253.5" font-family="Helvetica,sans-Serif" font-size="10.00">_Management.h</text>
</a>
</g>
</g>
<!-- Node1&#45;&gt;Node11 -->
<g id="edge11" class="edge"><title>Node1&#45;&gt;Node11</title>
<path fill="none" stroke="midnightblue" d="M235.119,-313.396C244.075,-304.708 255.726,-293.405 265.772,-283.658"/>
<polygon fill="midnightblue" stroke="midnightblue" points="268.331,-286.052 273.072,-276.577 263.457,-281.028 268.331,-286.052"/>
</g>
<!-- Node14 -->
<g id="node14" class="node"><title>Node14</title>
<g id="a_node14"><a xlink:href="../../d6/ded/interrupts_8h.html" target="_top" xlink:title="It declares interrupt priority levels and functions to create atomic sections. ">
<polygon fill="white" stroke="black" points="492.081,-252 492.081,-271 575.081,-271 575.081,-252 492.081,-252"/>
<text text-anchor="middle" x="533.581" y="-259" font-family="Helvetica,sans-Serif" font-size="10.00">../../interrupts.h</text>
</a>
</g>
</g>
<!-- Node1&#45;&gt;Node14 -->
<g id="edge20" class="edge"><title>Node1&#45;&gt;Node14</title>
<path fill="none" stroke="midnightblue" d="M280.254,-316.812C332.477,-307.212 410.298,-292.307 477.581,-277 482.291,-275.929 487.207,-274.748 492.087,-273.537"/>
<polygon fill="midnightblue" stroke="midnightblue" points="493.137,-276.881 501.972,-271.034 491.419,-270.096 493.137,-276.881"/>
</g>
<!-- Node2&#45;&gt;Node3 -->
<g id="edge2" class="edge"><title>Node2&#45;&gt;Node3</title>
<path fill="none" stroke="midnightblue" d="M86.7539,-190.444C106.49,-181.636 137.466,-167.812 160.074,-157.722"/>
<polygon fill="midnightblue" stroke="midnightblue" points="161.793,-160.788 169.498,-153.516 158.94,-154.396 161.793,-160.788"/>
</g>
<!-- Node4 -->
<g id="node4" class="node"><title>Node4</title>
<polygon fill="white" stroke="#bfbfbf" points="314.581,-73 314.581,-92 370.581,-92 370.581,-73 314.581,-73"/>
<text text-anchor="middle" x="342.581" y="-80" font-family="Helvetica,sans-Serif" font-size="10.00">stdbool.h</text>
</g>
<!-- Node3&#45;&gt;Node4 -->
<g id="edge3" class="edge"><title>Node3&#45;&gt;Node4</title>
<path fill="none" stroke="midnightblue" d="M211.027,-134.415C234.592,-125.391 272.715,-110.76 305.581,-98 307.414,-97.2883 309.298,-96.5554 311.198,-95.8148"/>
<polygon fill="midnightblue" stroke="midnightblue" points="312.637,-99.01 320.677,-92.1103 310.089,-92.4901 312.637,-99.01"/>
</g>
<!-- Node5 -->
<g id="node5" class="node"><title>Node5</title>
<polygon fill="white" stroke="#bfbfbf" points="155.081,-73 155.081,-92 204.081,-92 204.081,-73 155.081,-73"/>
<text text-anchor="middle" x="179.581" y="-80" font-family="Helvetica,sans-Serif" font-size="10.00">stdint.h</text>
</g>
<!-- Node3&#45;&gt;Node5 -->
<g id="edge4" class="edge"><title>Node3&#45;&gt;Node5</title>
<path fill="none" stroke="midnightblue" d="M187.292,-134.475C186.022,-126.08 184.04,-112.981 182.404,-102.163"/>
<polygon fill="midnightblue" stroke="midnightblue" points="185.825,-101.373 180.868,-92.0091 178.903,-102.42 185.825,-101.373"/>
</g>
<!-- Node6 -->
<g id="node6" class="node"><title>Node6</title>
<polygon fill="white" stroke="#bfbfbf" points="222.581,-73 222.581,-92 296.581,-92 296.581,-73 222.581,-73"/>
<text text-anchor="middle" x="259.581" y="-80" font-family="Helvetica,sans-Serif" font-size="10.00">p30F6014A.h</text>
</g>
<!-- Node3&#45;&gt;Node6 -->
<g id="edge5" class="edge"><title>Node3&#45;&gt;Node6</title>
<path fill="none" stroke="midnightblue" d="M198.754,-134.475C209.931,-125.108 228.098,-109.884 241.672,-98.5081"/>
<polygon fill="midnightblue" stroke="midnightblue" points="244.011,-101.115 249.427,-92.0091 239.515,-95.7496 244.011,-101.115"/>
</g>
<!-- Node7 -->
<g id="node7" class="node"><title>Node7</title>
<polygon fill="white" stroke="#bfbfbf" points="0.0811389,-67.5 0.0811389,-97.5 137.081,-97.5 137.081,-67.5 0.0811389,-67.5"/>
<text text-anchor="start" x="8.08114" y="-85.5" font-family="Helvetica,sans-Serif" font-size="10.00">platform/e&#45;puck/library</text>
<text text-anchor="middle" x="68.5811" y="-74.5" font-family="Helvetica,sans-Serif" font-size="10.00">/motor_led/e_epuck_ports.h</text>
</g>
<!-- Node3&#45;&gt;Node7 -->
<g id="edge6" class="edge"><title>Node3&#45;&gt;Node7</title>
<path fill="none" stroke="midnightblue" d="M171.388,-134.475C154.376,-126.04 127.785,-112.855 105.908,-102.008"/>
<polygon fill="midnightblue" stroke="midnightblue" points="107.377,-98.8296 96.8628,-97.523 104.267,-105.101 107.377,-98.8296"/>
</g>
<!-- Node3&#45;&gt;Node8 -->
<g id="edge7" class="edge"><title>Node3&#45;&gt;Node8</title>
<path fill="none" stroke="midnightblue" d="M228.412,-134.475C270.725,-125.419 338.622,-110.887 391.115,-99.6518"/>
<polygon fill="midnightblue" stroke="midnightblue" points="392.016,-103.038 401.062,-97.523 390.551,-96.1934 392.016,-103.038"/>
</g>
<!-- Node9 -->
<g id="node9" class="node"><title>Node9</title>
<polygon fill="white" stroke="#bfbfbf" points="418.081,-0.5 418.081,-30.5 515.081,-30.5 515.081,-0.5 418.081,-0.5"/>
<text text-anchor="start" x="426.081" y="-18.5" font-family="Helvetica,sans-Serif" font-size="10.00">library/motor_led/e</text>
<text text-anchor="middle" x="466.581" y="-7.5" font-family="Helvetica,sans-Serif" font-size="10.00">_epuck_ports.h</text>
</g>
<!-- Node8&#45;&gt;Node9 -->
<g id="edge8" class="edge"><title>Node8&#45;&gt;Node9</title>
<path fill="none" stroke="midnightblue" d="M466.581,-67.396C466.581,-59.6448 466.581,-49.8122 466.581,-40.8601"/>
<polygon fill="midnightblue" stroke="midnightblue" points="470.081,-40.5765 466.581,-30.5765 463.081,-40.5765 470.081,-40.5765"/>
</g>
<!-- Node10&#45;&gt;Node3 -->
<g id="edge10" class="edge"><title>Node10&#45;&gt;Node3</title>
<path fill="none" stroke="midnightblue" d="M157.715,-246.44C161.914,-232.2 168.629,-209.548 174.581,-190 177.266,-181.184 180.298,-171.413 182.853,-163.236"/>
<polygon fill="midnightblue" stroke="midnightblue" points="186.216,-164.206 185.866,-153.617 179.537,-162.113 186.216,-164.206"/>
</g>
<!-- Node11&#45;&gt;Node3 -->
<g id="edge13" class="edge"><title>Node11&#45;&gt;Node3</title>
<path fill="none" stroke="midnightblue" d="M254.285,-246.42C238.073,-238.018 219.546,-225.869 207.581,-210 197.416,-196.519 192.677,-177.708 190.474,-163.789"/>
<polygon fill="midnightblue" stroke="midnightblue" points="193.946,-163.342 189.197,-153.871 187.003,-164.236 193.946,-163.342"/>
</g>
<!-- Node11&#45;&gt;Node4 -->
<g id="edge12" class="edge"><title>Node11&#45;&gt;Node4</title>
<path fill="none" stroke="midnightblue" d="M346.081,-249.824C368.613,-242.55 392.144,-230.367 405.581,-210 430.438,-172.325 387.034,-123.471 360.641,-98.961"/>
<polygon fill="midnightblue" stroke="midnightblue" points="362.868,-96.2565 353.091,-92.1754 358.189,-101.463 362.868,-96.2565"/>
</g>
<!-- Node12 -->
<g id="node12" class="node"><title>Node12</title>
<g id="a_node12"><a xlink:href="../../db/dd2/events_8h.html" target="_top" xlink:title="declares functions to create, (un)subscribe, (un)register, and delete events and related handler...">
<polygon fill="white" stroke="black" points="302.081,-190.5 302.081,-209.5 397.081,-209.5 397.081,-190.5 302.081,-190.5"/>
<text text-anchor="middle" x="349.581" y="-197.5" font-family="Helvetica,sans-Serif" font-size="10.00">../events/events.h</text>
</a>
</g>
</g>
<!-- Node11&#45;&gt;Node12 -->
<g id="edge14" class="edge"><title>Node11&#45;&gt;Node12</title>
<path fill="none" stroke="midnightblue" d="M302.274,-246.399C311.562,-237.486 323.58,-225.952 333.179,-216.741"/>
<polygon fill="midnightblue" stroke="midnightblue" points="335.768,-219.107 340.56,-209.658 330.921,-214.057 335.768,-219.107"/>
</g>
<!-- Node13 -->
<g id="node13" class="node"><title>Node13</title>
<g id="a_node13"><a xlink:href="../../d2/dd8/scheduler_8h.html" target="_top" xlink:title="It declares functions to specify a scheduling algorithm. ">
<polygon fill="white" stroke="black" points="217.081,-190.5 217.081,-209.5 284.081,-209.5 284.081,-190.5 217.081,-190.5"/>
<text text-anchor="middle" x="250.581" y="-197.5" font-family="Helvetica,sans-Serif" font-size="10.00">scheduler.h</text>
</a>
</g>
</g>
<!-- Node11&#45;&gt;Node13 -->
<g id="edge17" class="edge"><title>Node11&#45;&gt;Node13</title>
<path fill="none" stroke="midnightblue" d="M278.813,-246.399C273.602,-238.021 266.952,-227.327 261.416,-218.423"/>
<polygon fill="midnightblue" stroke="midnightblue" points="264.218,-216.302 255.965,-209.658 258.274,-219.998 264.218,-216.302"/>
</g>
<!-- Node12&#45;&gt;Node3 -->
<g id="edge16" class="edge"><title>Node12&#45;&gt;Node3</title>
<path fill="none" stroke="midnightblue" d="M324.07,-190.444C296.985,-181.359 253.991,-166.939 223.712,-156.783"/>
<polygon fill="midnightblue" stroke="midnightblue" points="224.567,-153.378 213.973,-153.516 222.341,-160.015 224.567,-153.378"/>
</g>
<!-- Node12&#45;&gt;Node4 -->
<g id="edge15" class="edge"><title>Node12&#45;&gt;Node4</title>
<path fill="none" stroke="midnightblue" d="M349.055,-190.319C347.93,-171.757 345.268,-127.839 343.731,-102.473"/>
<polygon fill="midnightblue" stroke="midnightblue" points="347.212,-102.052 343.113,-92.282 340.225,-102.475 347.212,-102.052"/>
</g>
<!-- Node13&#45;&gt;Node3 -->
<g id="edge18" class="edge"><title>Node13&#45;&gt;Node3</title>
<path fill="none" stroke="midnightblue" d="M240.62,-190.324C231.455,-182.341 217.644,-170.313 206.553,-160.653"/>
<polygon fill="midnightblue" stroke="midnightblue" points="208.563,-157.762 198.724,-153.834 203.966,-163.041 208.563,-157.762"/>
</g>
</g>
</svg>
        <g id="navigator" transform="translate(0 0)" fill="#404254">
                <rect fill="#f2f5e9" fill-opacity="0.5" stroke="#606060" stroke-width=".5" x="0" y="0" width="60" height="60"/>
                <use id="zoomplus" xlink:href="#zoomPlus" x="17" y="9" onmousedown="handleZoom(evt,'in')"/>
                <use id="zoomminus" xlink:href="#zoomMin" x="42" y="9" onmousedown="handleZoom(evt,'out')"/>
                <use id="reset" xlink:href="#resetDef" x="30" y="36" onmousedown="handleReset()"/>
                <g id="arrowUp" xlink:href="#dirArrow" transform="translate(30 24)" onmousedown="handlePan(0,-1)">
                  <use xlink:href="#rim" fill="#404040">
                        <set attributeName="fill" to="#808080" begin="arrowUp.mouseover" end="arrowUp.mouseout"/>
                  </use>
                  <path fill="none" stroke="white" stroke-width="1.5" d="M0,-3.0v7 M-2.5,-0.5L0,-3.0L2.5,-0.5"/>
                </g>
                <g id="arrowRight" xlink:href="#dirArrow" transform="rotate(90) translate(36 -43)" onmousedown="handlePan(1,0)">
                  <use xlink:href="#rim" fill="#404040">
                        <set attributeName="fill" to="#808080" begin="arrowRight.mouseover" end="arrowRight.mouseout"/>
                  </use>
                  <path fill="none" stroke="white" stroke-width="1.5" d="M0,-3.0v7 M-2.5,-0.5L0,-3.0L2.5,-0.5"/>
                </g>
                <g id="arrowDown" xlink:href="#dirArrow" transform="rotate(180) translate(-30 -48)" onmousedown="handlePan(0,1)">
                  <use xlink:href="#rim" fill="#404040">
                        <set attributeName="fill" to="#808080" begin="arrowDown.mouseover" end="arrowDown.mouseout"/>
                  </use>
                  <path fill="none" stroke="white" stroke-width="1.5" d="M0,-3.0v7 M-2.5,-0.5L0,-3.0L2.5,-0.5"/>
                </g>
                <g id="arrowLeft" xlink:href="#dirArrow" transform="rotate(270) translate(-36 17)" onmousedown="handlePan(-1,0)">
                  <use xlink:href="#rim" fill="#404040">
                        <set attributeName="fill" to="#808080" begin="arrowLeft.mouseover" end="arrowLeft.mouseout"/>
                  </use>
                  <path fill="none" stroke="white" stroke-width="1.5" d="M0,-3.0v7 M-2.5,-0.5L0,-3.0L2.5,-0.5"/>
                </g>
        </g>
        <svg viewBox="0 0 15 15" width="100%" height="30px" preserveAspectRatio="xMaxYMin meet">
         <g id="arrow_out" transform="scale(0.3 0.3)">
          <a xlink:href="system__Timer__HDI_8c__incl_org.svg" target="_base">
           <rect id="button" ry="5" rx="5" y="6" x="6" height="38" width="38"
                fill="#f2f5e9" fill-opacity="0.5" stroke="#606060" stroke-width="1.0"/>
           <path id="arrow"
             d="M 11.500037,31.436501 C 11.940474,20.09759 22.043105,11.32322 32.158766,21.979434 L 37.068811,17.246167 C 37.068811,17.246167 37.088388,32 37.088388,32 L 22.160133,31.978069 C 22.160133,31.978069 26.997745,27.140456 26.997745,27.140456 C 18.528582,18.264221 13.291696,25.230495 11.500037,31.436501 z"
             style="fill:#404040;"/>
          </a>
         </g>
        </svg>
</svg>
