<?xml version="1.0" encoding="UTF-8" standalone="no"?>
<!DOCTYPE svg PUBLIC "-//W3C//DTD SVG 1.1//EN"
 "http://www.w3.org/Graphics/SVG/1.1/DTD/svg11.dtd">
<!-- Generated by graphviz version 2.38.0 (20140413.2041)
 -->
<!-- Title: io/io.h Pages: 1 -->
<svg width="886pt" height="162pt"
 viewBox="0.00 0.00 886.00 162.00" xmlns="http://www.w3.org/2000/svg" xmlns:xlink="http://www.w3.org/1999/xlink">
<g id="graph0" class="graph" transform="scale(1 1) rotate(0) translate(4 158)">
<title>io/io.h</title>
<polygon fill="white" stroke="none" points="-4,4 -4,-158 882,-158 882,4 -4,4"/>
<!-- Node1 -->
<g id="node1" class="node"><title>Node1</title>
<polygon fill="#bfbfbf" stroke="black" points="340,-134.5 340,-153.5 383,-153.5 383,-134.5 340,-134.5"/>
<text text-anchor="middle" x="361.5" y="-141.5" font-family="Helvetica,sans-Serif" font-size="10.00">io/io.h</text>
</g>
<!-- Node2 -->
<g id="node2" class="node"><title>Node2</title>
<g id="a_node2"><a xlink:href="$d4/dfd/system_8c.html" xlink:title="defines functions to initialise and start OpenSwarm. ">
<polygon fill="white" stroke="black" points="0,-73 0,-92 57,-92 57,-73 0,-73"/>
<text text-anchor="middle" x="28.5" y="-80" font-family="Helvetica,sans-Serif" font-size="10.00">system.c</text>
</a>
</g>
</g>
<!-- Node1&#45;&gt;Node2 -->
<g id="edge1" class="edge"><title>Node1&#45;&gt;Node2</title>
<path fill="none" stroke="midnightblue" d="M329.891,-140.52C275.237,-135.72 159.866,-123.324 65.5,-98 59.6361,-96.4264 53.4316,-94.2212 47.8135,-92.0047"/>
<polygon fill="midnightblue" stroke="midnightblue" points="329.727,-144.019 339.988,-141.381 330.322,-137.044 329.727,-144.019"/>
</g>
<!-- Node3 -->
<g id="node3" class="node"><title>Node3</title>
<g id="a_node3"><a xlink:href="$df/d0a/io_8c.html" xlink:title="It defines functions to control the IO timer and to (un)register IO Handler. ">
<polygon fill="white" stroke="black" points="75,-73 75,-92 118,-92 118,-73 75,-73"/>
<text text-anchor="middle" x="96.5" y="-80" font-family="Helvetica,sans-Serif" font-size="10.00">io/io.c</text>
</a>
</g>
</g>
<!-- Node1&#45;&gt;Node3 -->
<g id="edge2" class="edge"><title>Node1&#45;&gt;Node3</title>
<path fill="none" stroke="midnightblue" d="M329.594,-139.407C283.963,-133.702 197.809,-120.813 127.5,-98 122.64,-96.423 117.546,-94.2692 112.925,-92.104"/>
<polygon fill="midnightblue" stroke="midnightblue" points="329.409,-142.911 339.759,-140.643 330.254,-135.962 329.409,-142.911"/>
</g>
<!-- Node4 -->
<g id="node4" class="node"><title>Node4</title>
<g id="a_node4"><a xlink:href="$da/d17/io__clock_8c.html" xlink:title="It defines the system clock that provides a continuous time value (granulation of 1 ms)...">
<polygon fill="white" stroke="black" points="136,-73 136,-92 207,-92 207,-73 136,-73"/>
<text text-anchor="middle" x="171.5" y="-80" font-family="Helvetica,sans-Serif" font-size="10.00">io/io_clock.c</text>
</a>
</g>
</g>
<!-- Node1&#45;&gt;Node4 -->
<g id="edge3" class="edge"><title>Node1&#45;&gt;Node4</title>
<path fill="none" stroke="midnightblue" d="M330.157,-133.38C300.768,-124.334 255.616,-110.371 216.5,-98 210.552,-96.1189 204.17,-94.0767 198.135,-92.1349"/>
<polygon fill="midnightblue" stroke="midnightblue" points="329.272,-136.769 339.859,-136.364 331.33,-130.079 329.272,-136.769"/>
</g>
<!-- Node5 -->
<g id="node5" class="node"><title>Node5</title>
<g id="a_node5"><a xlink:href="$d1/de0/camera_8c.html" xlink:title="It defines functions to process data retrieved by a camera. ">
<polygon fill="white" stroke="black" points="225.5,-73 225.5,-92 353.5,-92 353.5,-73 225.5,-73"/>
<text text-anchor="middle" x="289.5" y="-80" font-family="Helvetica,sans-Serif" font-size="10.00">platform/e&#45;puck/camera.c</text>
</a>
</g>
</g>
<!-- Node1&#45;&gt;Node5 -->
<g id="edge4" class="edge"><title>Node1&#45;&gt;Node5</title>
<path fill="none" stroke="midnightblue" d="M343.316,-127.973C329.545,-116.593 311.123,-101.369 299.797,-92.0091"/>
<polygon fill="midnightblue" stroke="midnightblue" points="341.246,-130.803 351.184,-134.475 345.705,-125.407 341.246,-130.803"/>
</g>
<!-- Node6 -->
<g id="node6" class="node"><title>Node6</title>
<g id="a_node6"><a xlink:href="$dd/d59/motors_8h.html" xlink:title="It declares functions to drive motors. ">
<polygon fill="white" stroke="black" points="372,-73 372,-92 497,-92 497,-73 372,-73"/>
<text text-anchor="middle" x="434.5" y="-80" font-family="Helvetica,sans-Serif" font-size="10.00">platform/e&#45;puck/motors.h</text>
</a>
</g>
</g>
<!-- Node1&#45;&gt;Node6 -->
<g id="edge5" class="edge"><title>Node1&#45;&gt;Node6</title>
<path fill="none" stroke="midnightblue" d="M379.937,-127.973C393.899,-116.593 412.576,-101.369 424.06,-92.0091"/>
<polygon fill="midnightblue" stroke="midnightblue" points="377.499,-125.444 371.959,-134.475 381.922,-130.87 377.499,-125.444"/>
</g>
<!-- Node8 -->
<g id="node8" class="node"><title>Node8</title>
<g id="a_node8"><a xlink:href="$d6/d0e/motors_8c.html" xlink:title="It defines function to drive motors. ">
<polygon fill="white" stroke="black" points="463,-6 463,-25 588,-25 588,-6 463,-6"/>
<text text-anchor="middle" x="525.5" y="-13" font-family="Helvetica,sans-Serif" font-size="10.00">platform/e&#45;puck/motors.c</text>
</a>
</g>
</g>
<!-- Node1&#45;&gt;Node8 -->
<g id="edge8" class="edge"><title>Node1&#45;&gt;Node8</title>
<path fill="none" stroke="midnightblue" d="M393.22,-141.968C426.248,-139.134 477.173,-129.514 506.5,-98 525.503,-77.5791 526.689,-41.9458 526.094,-25.4055"/>
<polygon fill="midnightblue" stroke="midnightblue" points="392.907,-138.481 383.175,-142.669 393.395,-145.464 392.907,-138.481"/>
</g>
<!-- Node9 -->
<g id="node9" class="node"><title>Node9</title>
<g id="a_node9"><a xlink:href="$d7/d92/remoteControl_8c.html" xlink:title="It defines functions to receive and decode messages from a remote control. ">
<polygon fill="white" stroke="black" points="554,-73 554,-92 711,-92 711,-73 554,-73"/>
<text text-anchor="middle" x="632.5" y="-80" font-family="Helvetica,sans-Serif" font-size="10.00">platform/e&#45;puck/remoteControl.c</text>
</a>
</g>
</g>
<!-- Node1&#45;&gt;Node9 -->
<g id="edge9" class="edge"><title>Node1&#45;&gt;Node9</title>
<path fill="none" stroke="midnightblue" d="M393.102,-136.062C442.894,-125.129 539.488,-103.922 593.515,-92.0595"/>
<polygon fill="midnightblue" stroke="midnightblue" points="392.236,-132.668 383.219,-138.231 393.737,-139.505 392.236,-132.668"/>
</g>
<!-- Node10 -->
<g id="node10" class="node"><title>Node10</title>
<g id="a_node10"><a xlink:href="$d0/dae/remoteControl__HDI_8c.html" xlink:title="Hardware dependent implementations to receive and decode messages from a remote control. ">
<polygon fill="white" stroke="black" points="729,-67.5 729,-97.5 878,-97.5 878,-67.5 729,-67.5"/>
<text text-anchor="start" x="737" y="-85.5" font-family="Helvetica,sans-Serif" font-size="10.00">platform/e&#45;puck/remoteControl</text>
<text text-anchor="middle" x="803.5" y="-74.5" font-family="Helvetica,sans-Serif" font-size="10.00">_HDI.c</text>
</a>
</g>
</g>
<!-- Node1&#45;&gt;Node10 -->
<g id="edge10" class="edge"><title>Node1&#45;&gt;Node10</title>
<path fill="none" stroke="midnightblue" d="M393.471,-139.517C456.274,-132.559 600.119,-116.049 720.5,-98 723.249,-97.5879 726.046,-97.1571 728.871,-96.7126"/>
<polygon fill="midnightblue" stroke="midnightblue" points="392.961,-136.052 383.405,-140.627 393.728,-143.01 392.961,-136.052"/>
</g>
<!-- Node7 -->
<g id="node7" class="node"><title>Node7</title>
<g id="a_node7"><a xlink:href="$d3/d87/io__HDI_8c.html" xlink:title="Hardware dependent implementations to control the IO timer and to (un)register IO Handler...">
<polygon fill="white" stroke="black" points="350,-0.5 350,-30.5 445,-30.5 445,-0.5 350,-0.5"/>
<text text-anchor="start" x="358" y="-18.5" font-family="Helvetica,sans-Serif" font-size="10.00">platform/e&#45;puck/io</text>
<text text-anchor="middle" x="397.5" y="-7.5" font-family="Helvetica,sans-Serif" font-size="10.00">_HDI.c</text>
</a>
</g>
</g>
<!-- Node6&#45;&gt;Node7 -->
<g id="edge6" class="edge"><title>Node6&#45;&gt;Node7</title>
<path fill="none" stroke="midnightblue" d="M424.558,-64.0347C418.593,-53.5556 411.106,-40.4016 405.52,-30.589"/>
<polygon fill="midnightblue" stroke="midnightblue" points="421.521,-65.7746 429.51,-72.7338 427.605,-62.3117 421.521,-65.7746"/>
</g>
<!-- Node6&#45;&gt;Node8 -->
<g id="edge7" class="edge"><title>Node6&#45;&gt;Node8</title>
<path fill="none" stroke="midnightblue" d="M454.913,-66.9196C472.903,-54.0695 498.505,-35.7821 513.422,-25.1273"/>
<polygon fill="midnightblue" stroke="midnightblue" points="452.876,-64.0733 446.773,-72.7338 456.944,-69.7695 452.876,-64.0733"/>
</g>
</g>
</svg>
