<?xml version="1.0" encoding="UTF-8" standalone="no"?>
<!DOCTYPE svg PUBLIC "-//W3C//DTD SVG 1.1//EN"
 "http://www.w3.org/Graphics/SVG/1.1/DTD/svg11.dtd">
<!-- Generated by graphviz version 2.38.0 (20140413.2041)
 -->
<!-- Title: memory.h Pages: 1 -->
<svg width="1428pt" height="95pt"
 viewBox="0.00 0.00 1427.50 95.00" xmlns="http://www.w3.org/2000/svg" xmlns:xlink="http://www.w3.org/1999/xlink">
<g id="graph0" class="graph" transform="scale(1 1) rotate(0) translate(4 91)">
<title>memory.h</title>
<polygon fill="white" stroke="none" points="-4,4 -4,-91 1423.5,-91 1423.5,4 -4,4"/>
<!-- Node1 -->
<g id="node1" class="node"><title>Node1</title>
<polygon fill="#bfbfbf" stroke="black" points="594,-67.5 594,-86.5 654,-86.5 654,-67.5 594,-67.5"/>
<text text-anchor="middle" x="624" y="-74.5" font-family="Helvetica,sans-Serif" font-size="10.00">memory.h</text>
</g>
<!-- Node2 -->
<g id="node2" class="node"><title>Node2</title>
<g id="a_node2"><a xlink:href="../../df/dd5/memory_8c.html" target="_top" xlink:title="It defines functions to allocate, free, and copy memory. ">
<polygon fill="white" stroke="black" points="0,-6 0,-25 60,-25 60,-6 0,-6"/>
<text text-anchor="middle" x="30" y="-13" font-family="Helvetica,sans-Serif" font-size="10.00">memory.c</text>
</a>
</g>
</g>
<!-- Node1&#45;&gt;Node2 -->
<g id="edge1" class="edge"><title>Node1&#45;&gt;Node2</title>
<path fill="none" stroke="midnightblue" d="M583.765,-76.4941C491.536,-76.8157 258.239,-73.0059 69,-31 62.6532,-29.5912 55.9487,-27.3808 49.9225,-25.1066"/>
<polygon fill="midnightblue" stroke="midnightblue" points="583.808,-79.9941 593.789,-76.4405 583.77,-72.9942 583.808,-79.9941"/>
</g>
<!-- Node3 -->
<g id="node3" class="node"><title>Node3</title>
<g id="a_node3"><a xlink:href="../../de/deb/events_8c.html" target="_top" xlink:title="defines functions to create, (un)subscribe, (un)register, and delete events and related handler...">
<polygon fill="white" stroke="black" points="78,-6 78,-25 164,-25 164,-6 78,-6"/>
<text text-anchor="middle" x="121" y="-13" font-family="Helvetica,sans-Serif" font-size="10.00">events/events.c</text>
</a>
</g>
</g>
<!-- Node1&#45;&gt;Node3 -->
<g id="edge2" class="edge"><title>Node1&#45;&gt;Node3</title>
<path fill="none" stroke="midnightblue" d="M583.9,-74.3218C504.742,-70.4987 323.059,-59.1897 173,-31 164.894,-29.4773 156.217,-27.288 148.318,-25.0705"/>
<polygon fill="midnightblue" stroke="midnightblue" points="583.777,-77.8197 593.93,-74.7923 584.105,-70.8274 583.777,-77.8197"/>
</g>
<!-- Node4 -->
<g id="node4" class="node"><title>Node4</title>
<g id="a_node4"><a xlink:href="../../df/d0a/io_8c.html" target="_top" xlink:title="It defines functions to control the IO timer and to (un)register IO Handler. ">
<polygon fill="white" stroke="black" points="182.5,-6 182.5,-25 225.5,-25 225.5,-6 182.5,-6"/>
<text text-anchor="middle" x="204" y="-13" font-family="Helvetica,sans-Serif" font-size="10.00">io/io.c</text>
</a>
</g>
</g>
<!-- Node1&#45;&gt;Node4 -->
<g id="edge3" class="edge"><title>Node1&#45;&gt;Node4</title>
<path fill="none" stroke="midnightblue" d="M583.194,-75.5651C511.422,-73.862 358.491,-66.0215 235,-31 229.855,-29.541 224.497,-27.3158 219.71,-25.0433"/>
<polygon fill="midnightblue" stroke="midnightblue" points="583.52,-79.0725 593.591,-75.7817 583.666,-72.0741 583.52,-79.0725"/>
</g>
<!-- Node5 -->
<g id="node5" class="node"><title>Node5</title>
<g id="a_node5"><a xlink:href="../../d1/de0/camera_8c.html" target="_top" xlink:title="It defines functions to process data retrieved by a camera. ">
<polygon fill="white" stroke="black" points="244,-6 244,-25 372,-25 372,-6 244,-6"/>
<text text-anchor="middle" x="308" y="-13" font-family="Helvetica,sans-Serif" font-size="10.00">platform/e&#45;puck/camera.c</text>
</a>
</g>
</g>
<!-- Node1&#45;&gt;Node5 -->
<g id="edge4" class="edge"><title>Node1&#45;&gt;Node5</title>
<path fill="none" stroke="midnightblue" d="M583.633,-68.69C535.393,-59.916 452.249,-44.6726 381,-31 371.102,-29.1006 360.459,-27.0125 350.443,-25.0271"/>
<polygon fill="midnightblue" stroke="midnightblue" points="583.205,-72.1694 593.669,-70.5137 584.456,-65.2822 583.205,-72.1694"/>
</g>
<!-- Node6 -->
<g id="node6" class="node"><title>Node6</title>
<g id="a_node6"><a xlink:href="../../d9/dcb/i2c_8c.html" target="_top" xlink:title="It defines functions to read and write on the I2C interface. ">
<polygon fill="white" stroke="black" points="390,-6 390,-25 498,-25 498,-6 390,-6"/>
<text text-anchor="middle" x="444" y="-13" font-family="Helvetica,sans-Serif" font-size="10.00">platform/e&#45;puck/i2c.c</text>
</a>
</g>
</g>
<!-- Node1&#45;&gt;Node6 -->
<g id="edge5" class="edge"><title>Node1&#45;&gt;Node6</title>
<path fill="none" stroke="midnightblue" d="M588.399,-64.232C553.41,-52.666 500.864,-35.2966 469.742,-25.0091"/>
<polygon fill="midnightblue" stroke="midnightblue" points="587.617,-67.6597 598.21,-67.4751 589.814,-61.0134 587.617,-67.6597"/>
</g>
<!-- Node7 -->
<g id="node7" class="node"><title>Node7</title>
<g id="a_node7"><a xlink:href="../../df/dd6/i2c__data_8c.html" target="_top" xlink:title="It defines functions to manage the I2C queue. ">
<polygon fill="white" stroke="black" points="516,-0.5 516,-30.5 616,-30.5 616,-0.5 516,-0.5"/>
<text text-anchor="start" x="524" y="-18.5" font-family="Helvetica,sans-Serif" font-size="10.00">platform/e&#45;puck/i2c</text>
<text text-anchor="middle" x="566" y="-7.5" font-family="Helvetica,sans-Serif" font-size="10.00">_data.c</text>
</a>
</g>
</g>
<!-- Node1&#45;&gt;Node7 -->
<g id="edge6" class="edge"><title>Node1&#45;&gt;Node7</title>
<path fill="none" stroke="midnightblue" d="M608.492,-60.0906C599.514,-50.8804 588.316,-39.3928 579.669,-30.523"/>
<polygon fill="midnightblue" stroke="midnightblue" points="606.203,-62.7574 615.69,-67.4751 611.216,-57.8712 606.203,-62.7574"/>
</g>
<!-- Node8 -->
<g id="node8" class="node"><title>Node8</title>
<g id="a_node8"><a xlink:href="../../d3/d87/io__HDI_8c.html" target="_top" xlink:title="Hardware dependent implementations to control the IO timer and to (un)register IO Handler...">
<polygon fill="white" stroke="black" points="634.5,-0.5 634.5,-30.5 729.5,-30.5 729.5,-0.5 634.5,-0.5"/>
<text text-anchor="start" x="642.5" y="-18.5" font-family="Helvetica,sans-Serif" font-size="10.00">platform/e&#45;puck/io</text>
<text text-anchor="middle" x="682" y="-7.5" font-family="Helvetica,sans-Serif" font-size="10.00">_HDI.c</text>
</a>
</g>
</g>
<!-- Node1&#45;&gt;Node8 -->
<g id="edge7" class="edge"><title>Node1&#45;&gt;Node8</title>
<path fill="none" stroke="midnightblue" d="M639.508,-60.0906C648.486,-50.8804 659.684,-39.3928 668.331,-30.523"/>
<polygon fill="midnightblue" stroke="midnightblue" points="636.784,-57.8712 632.31,-67.4751 641.797,-62.7574 636.784,-57.8712"/>
</g>
<!-- Node9 -->
<g id="node9" class="node"><title>Node9</title>
<g id="a_node9"><a xlink:href="../../d2/d78/process__Management__HDI_8c.html" target="_top" xlink:title="Hardware dependent implementations to manage processes (e.g. task swichting) ">
<polygon fill="white" stroke="black" points="748,-0.5 748,-30.5 870,-30.5 870,-0.5 748,-0.5"/>
<text text-anchor="start" x="756" y="-18.5" font-family="Helvetica,sans-Serif" font-size="10.00">platform/e&#45;puck/process</text>
<text text-anchor="middle" x="809" y="-7.5" font-family="Helvetica,sans-Serif" font-size="10.00">_Management_HDI.c</text>
</a>
</g>
</g>
<!-- Node1&#45;&gt;Node9 -->
<g id="edge8" class="edge"><title>Node1&#45;&gt;Node9</title>
<path fill="none" stroke="midnightblue" d="M660.201,-64.357C690.345,-54.6619 733.364,-40.8263 765.399,-30.523"/>
<polygon fill="midnightblue" stroke="midnightblue" points="658.954,-61.0814 650.506,-67.4751 661.097,-67.7452 658.954,-61.0814"/>
</g>
<!-- Node10 -->
<g id="node10" class="node"><title>Node10</title>
<g id="a_node10"><a xlink:href="../../d1/d87/uart_8c.html" target="_top" xlink:title="It declares functions to transmit bytes via UART. ">
<polygon fill="white" stroke="black" points="888,-6 888,-25 1000,-25 1000,-6 888,-6"/>
<text text-anchor="middle" x="944" y="-13" font-family="Helvetica,sans-Serif" font-size="10.00">platform/e&#45;puck/uart.c</text>
</a>
</g>
</g>
<!-- Node1&#45;&gt;Node10 -->
<g id="edge9" class="edge"><title>Node1&#45;&gt;Node10</title>
<path fill="none" stroke="midnightblue" d="M664.459,-69.4354C714.838,-61.1289 803.477,-46.0797 879,-31 888.071,-29.1889 897.82,-27.0937 906.938,-25.0688"/>
<polygon fill="midnightblue" stroke="midnightblue" points="663.608,-66.0282 654.308,-71.1032 664.743,-72.9356 663.608,-66.0282"/>
</g>
<!-- Node11 -->
<g id="node11" class="node"><title>Node11</title>
<g id="a_node11"><a xlink:href="../../da/d3a/uart__HDI_8c.html" target="_top" xlink:title="Hardware dependent implementations to transmit bytes via UART. ">
<polygon fill="white" stroke="black" points="1018,-0.5 1018,-30.5 1122,-30.5 1122,-0.5 1018,-0.5"/>
<text text-anchor="start" x="1026" y="-18.5" font-family="Helvetica,sans-Serif" font-size="10.00">platform/e&#45;puck/uart</text>
<text text-anchor="middle" x="1070" y="-7.5" font-family="Helvetica,sans-Serif" font-size="10.00">_HDI.c</text>
</a>
</g>
</g>
<!-- Node1&#45;&gt;Node11 -->
<g id="edge10" class="edge"><title>Node1&#45;&gt;Node11</title>
<path fill="none" stroke="midnightblue" d="M664.318,-72.8515C734.654,-67.0111 884.194,-53.0493 1009,-31 1011.89,-30.4887 1014.86,-29.9239 1017.84,-29.3227"/>
<polygon fill="midnightblue" stroke="midnightblue" points="663.807,-69.3816 654.126,-73.6867 664.379,-76.3582 663.807,-69.3816"/>
</g>
<!-- Node12 -->
<g id="node12" class="node"><title>Node12</title>
<g id="a_node12"><a xlink:href="../../de/da9/data_8c.html" target="_top" xlink:title="It defines functions to manage process lists and related structs. ">
<polygon fill="white" stroke="black" points="1140,-6 1140,-25 1232,-25 1232,-6 1140,-6"/>
<text text-anchor="middle" x="1186" y="-13" font-family="Helvetica,sans-Serif" font-size="10.00">processes/data.c</text>
</a>
</g>
</g>
<!-- Node1&#45;&gt;Node12 -->
<g id="edge11" class="edge"><title>Node1&#45;&gt;Node12</title>
<path fill="none" stroke="midnightblue" d="M664.378,-74.7353C750.644,-71.5267 959.075,-61.0697 1131,-31 1139.66,-29.4859 1148.94,-27.272 1157.37,-25.0279"/>
<polygon fill="midnightblue" stroke="midnightblue" points="664.101,-71.2429 654.233,-75.0999 664.352,-78.2384 664.101,-71.2429"/>
</g>
<!-- Node13 -->
<g id="node13" class="node"><title>Node13</title>
<g id="a_node13"><a xlink:href="../../da/d14/process__Management_8c.html" target="_top" xlink:title="It defines functions to manage processes (e.g. task creation, switching, termination) ...">
<polygon fill="white" stroke="black" points="1250.5,-6 1250.5,-25 1419.5,-25 1419.5,-6 1250.5,-6"/>
<text text-anchor="middle" x="1335" y="-13" font-family="Helvetica,sans-Serif" font-size="10.00">processes/process_Management.c</text>
</a>
</g>
</g>
<!-- Node1&#45;&gt;Node13 -->
<g id="edge12" class="edge"><title>Node1&#45;&gt;Node13</title>
<path fill="none" stroke="midnightblue" d="M664.385,-74.1784C763.073,-69.4826 1024.26,-55.5809 1241,-31 1255.11,-29.3998 1270.35,-27.2383 1284.36,-25.0733"/>
<polygon fill="midnightblue" stroke="midnightblue" points="664.079,-70.6888 654.255,-74.6551 664.408,-77.6811 664.079,-70.6888"/>
</g>
</g>
</svg>
