<?xml version="1.0" encoding="UTF-8" standalone="no"?>
<!DOCTYPE svg PUBLIC "-//W3C//DTD SVG 1.1//EN"
 "http://www.w3.org/Graphics/SVG/1.1/DTD/svg11.dtd">
<!-- Generated by graphviz version 2.38.0 (20140413.2041)
 -->
<!-- Title: I2C interface Pages: 1 -->
<svg width="552pt" height="142pt"
 viewBox="0.00 0.00 552.00 141.68" xmlns="http://www.w3.org/2000/svg" xmlns:xlink="http://www.w3.org/1999/xlink">
<g id="graph0" class="graph" transform="scale(1 1) rotate(0) translate(4 137.678)">
<title>I2C interface</title>
<polygon fill="white" stroke="none" points="-4,4 -4,-137.678 548,-137.678 548,4 -4,4"/>
<!-- Node2 -->
<g id="node1" class="node"><title>Node2</title>
<g id="a_node1"><a xlink:href="../../d9/dc8/group__epuck.html" target="_top" xlink:title="Modules and functions that are needed to use the e&#45;puck platform ( http://www.gctronic.com/doc/index.php/E&#45;Puck ) ">
<polygon fill="white" stroke="black" points="0,-48.1784 0,-67.1784 122,-67.1784 122,-48.1784 0,-48.1784"/>
<text text-anchor="middle" x="61" y="-55.1784" font-family="Helvetica,sans-Serif" font-size="10.00">e&#45;puck specific modules</text>
</a>
</g>
</g>
<!-- Node0 -->
<g id="node4" class="node"><title>Node0</title>
<polygon fill="#bfbfbf" stroke="black" points="252,-48.1784 252,-67.1784 325,-67.1784 325,-48.1784 252,-48.1784"/>
<text text-anchor="middle" x="288.5" y="-55.1784" font-family="Helvetica,sans-Serif" font-size="10.00">I2C interface</text>
</g>
<!-- Node2&#45;&gt;Node0 -->
<g id="edge2" class="edge"><title>Node2&#45;&gt;Node0</title>
<path fill="none" stroke="black" d="M110.545,-69.2149C120.247,-71.073 130.405,-72.7044 140,-73.6784 181.564,-77.8974 192.662,-79.7273 234,-73.6784 243.017,-72.3589 252.625,-69.8512 261.175,-67.2058"/>
<polygon fill="black" stroke="black" points="111.138,-65.7639 100.643,-67.2144 109.752,-72.6253 111.138,-65.7639"/>
</g>
<!-- Node4 -->
<g id="node2" class="node"><title>Node4</title>
<g id="a_node2"><a xlink:href="../../d9/d96/group__shefpuck.html" target="_top" xlink:title="External set of functions to assist the programming of the e&#45;Puck. ">
<polygon fill="white" stroke="black" points="470.5,-114.178 470.5,-133.178 528.5,-133.178 528.5,-114.178 470.5,-114.178"/>
<text text-anchor="middle" x="499.5" y="-121.178" font-family="Helvetica,sans-Serif" font-size="10.00">Shefpuck</text>
</a>
</g>
</g>
<!-- Node3 -->
<g id="node3" class="node"><title>Node3</title>
<g id="a_node3"><a xlink:href="../../dc/d90/group__camera.html" target="_top" xlink:title="The camera module is used to retrieve raw camera data, process the incoming frames, and emits the result as events. ">
<polygon fill="white" stroke="black" points="456.5,-76.1784 456.5,-95.1784 542.5,-95.1784 542.5,-76.1784 456.5,-76.1784"/>
<text text-anchor="middle" x="499.5" y="-83.1784" font-family="Helvetica,sans-Serif" font-size="10.00">Camera Module</text>
</a>
</g>
</g>
<!-- Node0&#45;&gt;Node2 -->
<g id="edge5" class="edge"><title>Node0&#45;&gt;Node2</title>
<path fill="none" stroke="darkgreen" stroke-dasharray="5,2" d="M275.627,-47.9861C265.326,-40.2444 249.648,-30.0011 234,-25.6784 193.73,-14.5542 180.989,-17.5972 140,-25.6784 118.316,-29.9536 95.0746,-40.3187 79.6576,-48.1021"/>
<text text-anchor="middle" x="187" y="-61.6784" font-family="Helvetica,sans-Serif" font-size="10.00">camera_processing.c</text>
<text text-anchor="middle" x="187" y="-50.6784" font-family="Helvetica,sans-Serif" font-size="10.00">i2c.c</text>
<text text-anchor="middle" x="187" y="-39.6784" font-family="Helvetica,sans-Serif" font-size="10.00">i2c_data.c</text>
<text text-anchor="middle" x="187" y="-28.6784" font-family="Helvetica,sans-Serif" font-size="10.00">i2c_HDI.c</text>
</g>
<!-- Node0&#45;&gt;Node4 -->
<g id="edge4" class="edge"><title>Node0&#45;&gt;Node4</title>
<path fill="none" stroke="darkgreen" stroke-dasharray="5,2" d="M301.97,-67.4641C312.38,-75.1593 327.902,-85.5684 343,-91.6784 385.54,-108.894 438.522,-117.252 470.369,-120.992"/>
<text text-anchor="middle" x="390" y="-118.678" font-family="Helvetica,sans-Serif" font-size="10.00">camera_processing.c</text>
</g>
<!-- Node0&#45;&gt;Node3 -->
<g id="edge3" class="edge"><title>Node0&#45;&gt;Node3</title>
<path fill="none" stroke="darkgreen" stroke-dasharray="5,2" d="M325.428,-62.4917C361.726,-67.3545 417.784,-74.8648 456.205,-80.012"/>
<text text-anchor="middle" x="390" y="-79.6784" font-family="Helvetica,sans-Serif" font-size="10.00">camera_processing.c</text>
</g>
<!-- Node1 -->
<g id="node5" class="node"><title>Node1</title>
<g id="a_node5"><a xlink:href="../../d2/da3/group__io.html" target="_top" xlink:title="I/O Management controls the input (e.g. sensors or camera), output (e.g. motors), and communication (...">
<polygon fill="white" stroke="black" points="455,-4.17836 455,-23.1784 544,-23.1784 544,-4.17836 455,-4.17836"/>
<text text-anchor="middle" x="499.5" y="-11.1784" font-family="Helvetica,sans-Serif" font-size="10.00">I/O Management</text>
</a>
</g>
</g>
<!-- Node0&#45;&gt;Node1 -->
<g id="edge6" class="edge"><title>Node0&#45;&gt;Node1</title>
<path fill="none" stroke="darkgreen" stroke-dasharray="5,2" d="M302.85,-48.0819C313.256,-41.1411 328.353,-32.2162 343,-27.6784 379.637,-16.3283 423.28,-13.2481 454.992,-12.7634"/>
<text text-anchor="middle" x="390" y="-52.6784" font-family="Helvetica,sans-Serif" font-size="10.00">i2c.c</text>
<text text-anchor="middle" x="390" y="-41.6784" font-family="Helvetica,sans-Serif" font-size="10.00">i2c_data.c</text>
<text text-anchor="middle" x="390" y="-30.6784" font-family="Helvetica,sans-Serif" font-size="10.00">i2c_HDI.c</text>
</g>
<!-- Node1&#45;&gt;Node0 -->
<g id="edge1" class="edge"><title>Node1&#45;&gt;Node0</title>
<path fill="none" stroke="black" d="M444.701,-2.9996C413.96,0.76486 375.235,1.46988 343,-10.6784 323.333,-18.0903 306.194,-36.3843 296.898,-47.8391"/>
<polygon fill="black" stroke="black" points="444.418,-6.4933 454.8,-4.37939 445.366,0.442258 444.418,-6.4933"/>
</g>
</g>
</svg>
