<?xml version="1.0" encoding="UTF-8" standalone="no"?>
<!DOCTYPE svg PUBLIC "-//W3C//DTD SVG 1.1//EN"
 "http://www.w3.org/Graphics/SVG/1.1/DTD/svg11.dtd">
<!-- Generated by graphviz version 2.38.0 (20140413.2041)
 -->
<!-- Title: platform/e&#45;puck/uart.h Pages: 1 -->
<svg width="266pt" height="84pt"
 viewBox="0.00 0.00 266.00 84.00" xmlns="http://www.w3.org/2000/svg" xmlns:xlink="http://www.w3.org/1999/xlink">
<g id="graph0" class="graph" transform="scale(1 1) rotate(0) translate(4 80)">
<title>platform/e&#45;puck/uart.h</title>
<polygon fill="white" stroke="none" points="-4,4 -4,-80 262,-80 262,4 -4,4"/>
<!-- Node1 -->
<g id="node1" class="node"><title>Node1</title>
<polygon fill="#bfbfbf" stroke="black" points="77,-56.5 77,-75.5 189,-75.5 189,-56.5 77,-56.5"/>
<text text-anchor="middle" x="133" y="-63.5" font-family="Helvetica,sans-Serif" font-size="10.00">platform/e&#45;puck/uart.h</text>
</g>
<!-- Node2 -->
<g id="node2" class="node"><title>Node2</title>
<g id="a_node2"><a xlink:href="../../d1/de0/camera_8c.html" target="_top" xlink:title="It defines functions to process data retrieved by a camera. ">
<polygon fill="white" stroke="black" points="0,-0.5 0,-19.5 128,-19.5 128,-0.5 0,-0.5"/>
<text text-anchor="middle" x="64" y="-7.5" font-family="Helvetica,sans-Serif" font-size="10.00">platform/e&#45;puck/camera.c</text>
</a>
</g>
</g>
<!-- Node1&#45;&gt;Node2 -->
<g id="edge1" class="edge"><title>Node1&#45;&gt;Node2</title>
<path fill="none" stroke="midnightblue" d="M113.962,-50.1008C101.544,-40.3824 85.7566,-28.0269 75.2878,-19.8339"/>
<polygon fill="midnightblue" stroke="midnightblue" points="111.882,-52.9171 121.914,-56.324 116.196,-47.4046 111.882,-52.9171"/>
</g>
<!-- Node3 -->
<g id="node3" class="node"><title>Node3</title>
<g id="a_node3"><a xlink:href="../../d1/d87/uart_8c.html" target="_top" xlink:title="It declares functions to transmit bytes via UART. ">
<polygon fill="white" stroke="black" points="146,-0.5 146,-19.5 258,-19.5 258,-0.5 146,-0.5"/>
<text text-anchor="middle" x="202" y="-7.5" font-family="Helvetica,sans-Serif" font-size="10.00">platform/e&#45;puck/uart.c</text>
</a>
</g>
</g>
<!-- Node1&#45;&gt;Node3 -->
<g id="edge2" class="edge"><title>Node1&#45;&gt;Node3</title>
<path fill="none" stroke="midnightblue" d="M152.038,-50.1008C164.456,-40.3824 180.243,-28.0269 190.712,-19.8339"/>
<polygon fill="midnightblue" stroke="midnightblue" points="149.804,-47.4046 144.086,-56.324 154.118,-52.9171 149.804,-47.4046"/>
</g>
</g>
</svg>
