<?xml version="1.0" encoding="UTF-8" standalone="no"?>
<!DOCTYPE svg PUBLIC "-//W3C//DTD SVG 1.1//EN"
 "http://www.w3.org/Graphics/SVG/1.1/DTD/svg11.dtd">
<!-- Generated by graphviz version 2.38.0 (20140413.2041)
 -->
<!-- Title: platform/e&#45;puck/traps.c Pages: 1 -->
<svg width="554pt" height="218pt"
 viewBox="0.00 0.00 553.50 218.00" xmlns="http://www.w3.org/2000/svg" xmlns:xlink="http://www.w3.org/1999/xlink">
<g id="graph0" class="graph" transform="scale(1 1) rotate(0) translate(4 214)">
<title>platform/e&#45;puck/traps.c</title>
<polygon fill="white" stroke="none" points="-4,4 -4,-214 549.5,-214 549.5,4 -4,4"/>
<!-- Node1 -->
<g id="node1" class="node"><title>Node1</title>
<polygon fill="#bfbfbf" stroke="black" points="37,-190.5 37,-209.5 154,-209.5 154,-190.5 37,-190.5"/>
<text text-anchor="middle" x="95.5" y="-197.5" font-family="Helvetica,sans-Serif" font-size="10.00">platform/e&#45;puck/traps.c</text>
</g>
<!-- Node2 -->
<g id="node2" class="node"><title>Node2</title>
<polygon fill="white" stroke="#bfbfbf" points="0,-73 0,-92 49,-92 49,-73 0,-73"/>
<text text-anchor="middle" x="24.5" y="-80" font-family="Helvetica,sans-Serif" font-size="10.00">stdint.h</text>
</g>
<!-- Node1&#45;&gt;Node2 -->
<g id="edge1" class="edge"><title>Node1&#45;&gt;Node2</title>
<path fill="none" stroke="midnightblue" d="M90.1635,-190.319C78.5475,-171.422 50.7782,-126.248 35.3317,-101.121"/>
<polygon fill="midnightblue" stroke="midnightblue" points="38.1171,-98.9682 29.8985,-92.282 32.1537,-102.634 38.1171,-98.9682"/>
</g>
<!-- Node3 -->
<g id="node3" class="node"><title>Node3</title>
<polygon fill="white" stroke="#bfbfbf" points="67.5,-73 67.5,-92 123.5,-92 123.5,-73 67.5,-73"/>
<text text-anchor="middle" x="95.5" y="-80" font-family="Helvetica,sans-Serif" font-size="10.00">stdbool.h</text>
</g>
<!-- Node1&#45;&gt;Node3 -->
<g id="edge2" class="edge"><title>Node1&#45;&gt;Node3</title>
<path fill="none" stroke="midnightblue" d="M95.5,-190.319C95.5,-171.757 95.5,-127.839 95.5,-102.473"/>
<polygon fill="midnightblue" stroke="midnightblue" points="99.0001,-102.282 95.5,-92.282 92.0001,-102.282 99.0001,-102.282"/>
</g>
<!-- Node4 -->
<g id="node4" class="node"><title>Node4</title>
<g id="a_node4"><a xlink:href="../../d6/dc2/definitions_8h.html" target="_top" xlink:title="It declares general preprocessor variables and types. ">
<polygon fill="white" stroke="black" points="123.5,-134.5 123.5,-153.5 233.5,-153.5 233.5,-134.5 123.5,-134.5"/>
<text text-anchor="middle" x="178.5" y="-141.5" font-family="Helvetica,sans-Serif" font-size="10.00">../../../os/definitions.h</text>
</a>
</g>
</g>
<!-- Node1&#45;&gt;Node4 -->
<g id="edge3" class="edge"><title>Node1&#45;&gt;Node4</title>
<path fill="none" stroke="midnightblue" d="M108.835,-190.324C121.662,-181.979 141.285,-169.212 156.44,-159.352"/>
<polygon fill="midnightblue" stroke="midnightblue" points="158.724,-162.042 165.198,-153.655 154.907,-156.174 158.724,-162.042"/>
</g>
<!-- Node4&#45;&gt;Node2 -->
<g id="edge5" class="edge"><title>Node4&#45;&gt;Node2</title>
<path fill="none" stroke="midnightblue" d="M154.473,-134.346C130.161,-125.505 91.548,-111.236 58.5,-98 56.9027,-97.3603 55.2671,-96.6955 53.6186,-96.018"/>
<polygon fill="midnightblue" stroke="midnightblue" points="54.791,-92.7145 44.215,-92.0829 52.0888,-99.1719 54.791,-92.7145"/>
</g>
<!-- Node4&#45;&gt;Node3 -->
<g id="edge4" class="edge"><title>Node4&#45;&gt;Node3</title>
<path fill="none" stroke="midnightblue" d="M166.608,-134.475C153.295,-124.931 131.5,-109.307 115.543,-97.8683"/>
<polygon fill="midnightblue" stroke="midnightblue" points="117.536,-94.9908 107.37,-92.0091 113.458,-100.68 117.536,-94.9908"/>
</g>
<!-- Node5 -->
<g id="node5" class="node"><title>Node5</title>
<polygon fill="white" stroke="#bfbfbf" points="141.5,-73 141.5,-92 215.5,-92 215.5,-73 141.5,-73"/>
<text text-anchor="middle" x="178.5" y="-80" font-family="Helvetica,sans-Serif" font-size="10.00">p30F6014A.h</text>
</g>
<!-- Node4&#45;&gt;Node5 -->
<g id="edge6" class="edge"><title>Node4&#45;&gt;Node5</title>
<path fill="none" stroke="midnightblue" d="M178.5,-134.475C178.5,-126.08 178.5,-112.981 178.5,-102.163"/>
<polygon fill="midnightblue" stroke="midnightblue" points="182,-102.009 178.5,-92.0091 175,-102.009 182,-102.009"/>
</g>
<!-- Node6 -->
<g id="node6" class="node"><title>Node6</title>
<polygon fill="white" stroke="#bfbfbf" points="234,-67.5 234,-97.5 371,-97.5 371,-67.5 234,-67.5"/>
<text text-anchor="start" x="242" y="-85.5" font-family="Helvetica,sans-Serif" font-size="10.00">platform/e&#45;puck/library</text>
<text text-anchor="middle" x="302.5" y="-74.5" font-family="Helvetica,sans-Serif" font-size="10.00">/motor_led/e_epuck_ports.h</text>
</g>
<!-- Node4&#45;&gt;Node6 -->
<g id="edge7" class="edge"><title>Node4&#45;&gt;Node6</title>
<path fill="none" stroke="midnightblue" d="M196.266,-134.475C213.923,-126.002 241.568,-112.737 264.231,-101.863"/>
<polygon fill="midnightblue" stroke="midnightblue" points="265.774,-105.005 273.276,-97.523 262.746,-98.6936 265.774,-105.005"/>
</g>
<!-- Node7 -->
<g id="node7" class="node"><title>Node7</title>
<g id="a_node7"><a xlink:href="../../d9/d1f/DSPIC30F6014A__HDI_8h.html" target="_top" xlink:title="declares e&#45;puck specific types and preprocessor variables ">
<polygon fill="white" stroke="black" points="389.5,-67.5 389.5,-97.5 545.5,-97.5 545.5,-67.5 389.5,-67.5"/>
<text text-anchor="start" x="397.5" y="-85.5" font-family="Helvetica,sans-Serif" font-size="10.00">platform/e&#45;puck/DSPIC30F6014</text>
<text text-anchor="middle" x="467.5" y="-74.5" font-family="Helvetica,sans-Serif" font-size="10.00">A_HDI.h</text>
</a>
</g>
</g>
<!-- Node4&#45;&gt;Node7 -->
<g id="edge8" class="edge"><title>Node4&#45;&gt;Node7</title>
<path fill="none" stroke="midnightblue" d="M219.907,-134.475C263.986,-125.4 334.771,-110.826 389.388,-99.5818"/>
<polygon fill="midnightblue" stroke="midnightblue" points="390.3,-102.968 399.388,-97.523 388.888,-96.1115 390.3,-102.968"/>
</g>
<!-- Node8 -->
<g id="node8" class="node"><title>Node8</title>
<polygon fill="white" stroke="#bfbfbf" points="419,-0.5 419,-30.5 516,-30.5 516,-0.5 419,-0.5"/>
<text text-anchor="start" x="427" y="-18.5" font-family="Helvetica,sans-Serif" font-size="10.00">library/motor_led/e</text>
<text text-anchor="middle" x="467.5" y="-7.5" font-family="Helvetica,sans-Serif" font-size="10.00">_epuck_ports.h</text>
</g>
<!-- Node7&#45;&gt;Node8 -->
<g id="edge9" class="edge"><title>Node7&#45;&gt;Node8</title>
<path fill="none" stroke="midnightblue" d="M467.5,-67.396C467.5,-59.6448 467.5,-49.8122 467.5,-40.8601"/>
<polygon fill="midnightblue" stroke="midnightblue" points="471,-40.5765 467.5,-30.5765 464,-40.5765 471,-40.5765"/>
</g>
</g>
</svg>
