<?xml version="1.0" encoding="UTF-8" standalone="no"?>
<!DOCTYPE svg PUBLIC "-//W3C//DTD SVG 1.1//EN"
 "http://www.w3.org/Graphics/SVG/1.1/DTD/svg11.dtd">
<!-- Generated by graphviz version 2.38.0 (20140413.2041)
 -->
<!-- Title: processes/data.h Pages: 1 -->
<svg width="428pt" height="162pt"
 viewBox="0.00 0.00 427.50 162.00" xmlns="http://www.w3.org/2000/svg" xmlns:xlink="http://www.w3.org/1999/xlink">
<g id="graph0" class="graph" transform="scale(1 1) rotate(0) translate(4 158)">
<title>processes/data.h</title>
<polygon fill="white" stroke="none" points="-4,4 -4,-158 423.5,-158 423.5,4 -4,4"/>
<!-- Node1 -->
<g id="node1" class="node"><title>Node1</title>
<polygon fill="#bfbfbf" stroke="black" points="214,-134.5 214,-153.5 306,-153.5 306,-134.5 214,-134.5"/>
<text text-anchor="middle" x="260" y="-141.5" font-family="Helvetica,sans-Serif" font-size="10.00">processes/data.h</text>
</g>
<!-- Node2 -->
<g id="node2" class="node"><title>Node2</title>
<g id="a_node2"><a xlink:href="$de/dad/process__Management__HDI_8h.html" xlink:title="Hardware dependent implementations to manage processes (e.g. task swichting) ">
<polygon fill="white" stroke="black" points="140,-67.5 140,-97.5 262,-97.5 262,-67.5 140,-67.5"/>
<text text-anchor="start" x="148" y="-85.5" font-family="Helvetica,sans-Serif" font-size="10.00">platform/e&#45;puck/process</text>
<text text-anchor="middle" x="201" y="-74.5" font-family="Helvetica,sans-Serif" font-size="10.00">_Management_HDI.h</text>
</a>
</g>
</g>
<!-- Node1&#45;&gt;Node2 -->
<g id="edge1" class="edge"><title>Node1&#45;&gt;Node2</title>
<path fill="none" stroke="midnightblue" d="M244.5,-127.369C235.322,-118.113 223.789,-106.482 214.905,-97.523"/>
<polygon fill="midnightblue" stroke="midnightblue" points="242.02,-129.839 251.547,-134.475 246.991,-124.91 242.02,-129.839"/>
</g>
<!-- Node5 -->
<g id="node5" class="node"><title>Node5</title>
<g id="a_node5"><a xlink:href="$da/d14/process__Management_8c.html" xlink:title="It defines functions to manage processes (e.g. task creation, switching, termination) ...">
<polygon fill="white" stroke="black" points="250.5,-6 250.5,-25 419.5,-25 419.5,-6 250.5,-6"/>
<text text-anchor="middle" x="335" y="-13" font-family="Helvetica,sans-Serif" font-size="10.00">processes/process_Management.c</text>
</a>
</g>
</g>
<!-- Node1&#45;&gt;Node5 -->
<g id="edge5" class="edge"><title>Node1&#45;&gt;Node5</title>
<path fill="none" stroke="midnightblue" d="M270.433,-125.403C286.715,-97.9401 317.569,-45.8995 329.809,-25.2557"/>
<polygon fill="midnightblue" stroke="midnightblue" points="267.244,-123.918 265.155,-134.305 273.266,-127.488 267.244,-123.918"/>
</g>
<!-- Node3 -->
<g id="node3" class="node"><title>Node3</title>
<g id="a_node3"><a xlink:href="$d2/d78/process__Management__HDI_8c.html" xlink:title="Hardware dependent implementations to manage processes (e.g. task swichting) ">
<polygon fill="white" stroke="black" points="0,-0.5 0,-30.5 122,-30.5 122,-0.5 0,-0.5"/>
<text text-anchor="start" x="8" y="-18.5" font-family="Helvetica,sans-Serif" font-size="10.00">platform/e&#45;puck/process</text>
<text text-anchor="middle" x="61" y="-7.5" font-family="Helvetica,sans-Serif" font-size="10.00">_Management_HDI.c</text>
</a>
</g>
</g>
<!-- Node2&#45;&gt;Node3 -->
<g id="edge2" class="edge"><title>Node2&#45;&gt;Node3</title>
<path fill="none" stroke="midnightblue" d="M161.435,-63.1305C139.19,-52.8025 111.853,-40.1103 91.3186,-30.5765"/>
<polygon fill="midnightblue" stroke="midnightblue" points="160.078,-66.3593 170.622,-67.396 163.026,-60.0103 160.078,-66.3593"/>
</g>
<!-- Node4 -->
<g id="node4" class="node"><title>Node4</title>
<g id="a_node4"><a xlink:href="$de/da9/data_8c.html" xlink:title="It defines functions to manage process lists and related structs. ">
<polygon fill="white" stroke="black" points="140,-6 140,-25 232,-25 232,-6 140,-6"/>
<text text-anchor="middle" x="186" y="-13" font-family="Helvetica,sans-Serif" font-size="10.00">processes/data.c</text>
</a>
</g>
</g>
<!-- Node2&#45;&gt;Node4 -->
<g id="edge3" class="edge"><title>Node2&#45;&gt;Node4</title>
<path fill="none" stroke="midnightblue" d="M195.484,-57.5965C192.872,-46.2781 189.914,-33.4611 188.006,-25.1945"/>
<polygon fill="midnightblue" stroke="midnightblue" points="192.086,-58.4391 197.745,-67.396 198.907,-56.865 192.086,-58.4391"/>
</g>
<!-- Node2&#45;&gt;Node5 -->
<g id="edge4" class="edge"><title>Node2&#45;&gt;Node5</title>
<path fill="none" stroke="midnightblue" d="M239.206,-62.9674C264.947,-50.481 297.691,-34.5978 317.462,-25.007"/>
<polygon fill="midnightblue" stroke="midnightblue" points="237.546,-59.8825 230.076,-67.396 240.601,-66.1806 237.546,-59.8825"/>
</g>
</g>
</svg>
