<?xml version="1.0" encoding="UTF-8" standalone="no"?>
<!DOCTYPE svg PUBLIC "-//W3C//DTD SVG 1.1//EN"
 "http://www.w3.org/Graphics/SVG/1.1/DTD/svg11.dtd">
<!-- Generated by graphviz version 2.38.0 (20140413.2041)
 -->
<!-- Title: processes/process_Management.h Pages: 1 -->
<svg width="1031pt" height="95pt"
 viewBox="0.00 0.00 1031.00 95.00" xmlns="http://www.w3.org/2000/svg" xmlns:xlink="http://www.w3.org/1999/xlink">
<g id="graph0" class="graph" transform="scale(1 1) rotate(0) translate(4 91)">
<title>processes/process_Management.h</title>
<polygon fill="white" stroke="none" points="-4,4 -4,-91 1027,-91 1027,4 -4,4"/>
<!-- Node1 -->
<g id="node1" class="node"><title>Node1</title>
<polygon fill="#bfbfbf" stroke="black" points="357,-67.5 357,-86.5 526,-86.5 526,-67.5 357,-67.5"/>
<text text-anchor="middle" x="441.5" y="-74.5" font-family="Helvetica,sans-Serif" font-size="10.00">processes/process_Management.h</text>
</g>
<!-- Node2 -->
<g id="node2" class="node"><title>Node2</title>
<g id="a_node2"><a xlink:href="../../d4/dfd/system_8c.html" target="_top" xlink:title="defines functions to initialise and start OpenSwarm. ">
<polygon fill="white" stroke="black" points="0,-6 0,-25 57,-25 57,-6 0,-6"/>
<text text-anchor="middle" x="28.5" y="-13" font-family="Helvetica,sans-Serif" font-size="10.00">system.c</text>
</a>
</g>
</g>
<!-- Node1&#45;&gt;Node2 -->
<g id="edge1" class="edge"><title>Node1&#45;&gt;Node2</title>
<path fill="none" stroke="midnightblue" d="M346.562,-71.051C270.053,-65.5287 160.173,-54.1197 66.5,-31 60.4672,-29.511 54.0917,-27.3323 48.322,-25.1141"/>
<polygon fill="midnightblue" stroke="midnightblue" points="346.44,-74.551 356.661,-71.7597 346.93,-67.5682 346.44,-74.551"/>
</g>
<!-- Node3 -->
<g id="node3" class="node"><title>Node3</title>
<g id="a_node3"><a xlink:href="../../de/deb/events_8c.html" target="_top" xlink:title="defines functions to create, (un)subscribe, (un)register, and delete events and related handler...">
<polygon fill="white" stroke="black" points="75.5,-6 75.5,-25 161.5,-25 161.5,-6 75.5,-6"/>
<text text-anchor="middle" x="118.5" y="-13" font-family="Helvetica,sans-Serif" font-size="10.00">events/events.c</text>
</a>
</g>
</g>
<!-- Node1&#45;&gt;Node3 -->
<g id="edge2" class="edge"><title>Node1&#45;&gt;Node3</title>
<path fill="none" stroke="midnightblue" d="M368.465,-66.0445C313.688,-58.0529 237.017,-45.7519 170.5,-31 162.814,-29.2954 154.573,-27.1484 146.97,-25.0327"/>
<polygon fill="midnightblue" stroke="midnightblue" points="368.033,-69.5184 378.432,-67.4862 369.036,-62.5905 368.033,-69.5184"/>
</g>
<!-- Node4 -->
<g id="node4" class="node"><title>Node4</title>
<g id="a_node4"><a xlink:href="../../d2/d78/process__Management__HDI_8c.html" target="_top" xlink:title="Hardware dependent implementations to manage processes (e.g. task swichting) ">
<polygon fill="white" stroke="black" points="179.5,-0.5 179.5,-30.5 301.5,-30.5 301.5,-0.5 179.5,-0.5"/>
<text text-anchor="start" x="187.5" y="-18.5" font-family="Helvetica,sans-Serif" font-size="10.00">platform/e&#45;puck/process</text>
<text text-anchor="middle" x="240.5" y="-7.5" font-family="Helvetica,sans-Serif" font-size="10.00">_Management_HDI.c</text>
</a>
</g>
</g>
<!-- Node1&#45;&gt;Node4 -->
<g id="edge3" class="edge"><title>Node1&#45;&gt;Node4</title>
<path fill="none" stroke="midnightblue" d="M403.019,-64.609C370.23,-54.9028 322.981,-40.9159 287.872,-30.523"/>
<polygon fill="midnightblue" stroke="midnightblue" points="402.119,-67.9926 412.702,-67.4751 404.106,-61.2805 402.119,-67.9926"/>
</g>
<!-- Node5 -->
<g id="node5" class="node"><title>Node5</title>
<g id="a_node5"><a xlink:href="../../d7/de8/system__Timer__HDI_8c.html" target="_top" xlink:title="Hardware dependent implementations to initialise, configure and run the system Timer. ">
<polygon fill="white" stroke="black" points="320,-0.5 320,-30.5 439,-30.5 439,-0.5 320,-0.5"/>
<text text-anchor="start" x="328" y="-18.5" font-family="Helvetica,sans-Serif" font-size="10.00">platform/e&#45;puck/system</text>
<text text-anchor="middle" x="379.5" y="-7.5" font-family="Helvetica,sans-Serif" font-size="10.00">_Timer_HDI.c</text>
</a>
</g>
</g>
<!-- Node1&#45;&gt;Node5 -->
<g id="edge4" class="edge"><title>Node1&#45;&gt;Node5</title>
<path fill="none" stroke="midnightblue" d="M425.212,-60.369C415.567,-51.1127 403.448,-39.4824 394.112,-30.523"/>
<polygon fill="midnightblue" stroke="midnightblue" points="422.978,-63.0762 432.617,-67.4751 427.825,-58.0257 422.978,-63.0762"/>
</g>
<!-- Node6 -->
<g id="node6" class="node"><title>Node6</title>
<g id="a_node6"><a xlink:href="../../de/da9/data_8c.html" target="_top" xlink:title="It defines functions to manage process lists and related structs. ">
<polygon fill="white" stroke="black" points="457.5,-6 457.5,-25 549.5,-25 549.5,-6 457.5,-6"/>
<text text-anchor="middle" x="503.5" y="-13" font-family="Helvetica,sans-Serif" font-size="10.00">processes/data.c</text>
</a>
</g>
</g>
<!-- Node1&#45;&gt;Node6 -->
<g id="edge5" class="edge"><title>Node1&#45;&gt;Node6</title>
<path fill="none" stroke="midnightblue" d="M457.834,-60.3245C469.613,-49.0202 485.064,-34.1928 494.633,-25.0091"/>
<polygon fill="midnightblue" stroke="midnightblue" points="455.175,-58.0257 450.383,-67.4751 460.022,-63.0762 455.175,-58.0257"/>
</g>
<!-- Node7 -->
<g id="node7" class="node"><title>Node7</title>
<g id="a_node7"><a xlink:href="../../da/d14/process__Management_8c.html" target="_top" xlink:title="It defines functions to manage processes (e.g. task creation, switching, termination) ...">
<polygon fill="white" stroke="black" points="568,-6 568,-25 737,-25 737,-6 568,-6"/>
<text text-anchor="middle" x="652.5" y="-13" font-family="Helvetica,sans-Serif" font-size="10.00">processes/process_Management.c</text>
</a>
</g>
</g>
<!-- Node1&#45;&gt;Node7 -->
<g id="edge6" class="edge"><title>Node1&#45;&gt;Node7</title>
<path fill="none" stroke="midnightblue" d="M481.398,-64.7493C522.391,-53.1894 585.295,-35.4511 622.325,-25.0091"/>
<polygon fill="midnightblue" stroke="midnightblue" points="480.406,-61.3923 471.731,-67.4751 482.306,-68.1296 480.406,-61.3923"/>
</g>
<!-- Node8 -->
<g id="node8" class="node"><title>Node8</title>
<g id="a_node8"><a xlink:href="../../dd/d6c/scheduler_8c.html" target="_top" xlink:title="It defines functions to specify a scheduling algorithm. ">
<polygon fill="white" stroke="black" points="755,-6 755,-25 870,-25 870,-6 755,-6"/>
<text text-anchor="middle" x="812.5" y="-13" font-family="Helvetica,sans-Serif" font-size="10.00">processes/scheduler.c</text>
</a>
</g>
</g>
<!-- Node1&#45;&gt;Node8 -->
<g id="edge7" class="edge"><title>Node1&#45;&gt;Node8</title>
<path fill="none" stroke="midnightblue" d="M518.723,-66.1224C580.528,-57.8524 669.326,-45.1529 746.5,-31 756.078,-29.2436 766.382,-27.1019 775.936,-25.0094"/>
<polygon fill="midnightblue" stroke="midnightblue" points="518.109,-62.6732 508.658,-67.4619 519.033,-69.612 518.109,-62.6732"/>
</g>
<!-- Node9 -->
<g id="node9" class="node"><title>Node9</title>
<g id="a_node9"><a xlink:href="../../de/dfb/system__Timer_8c.html" target="_top" xlink:title="It defines functions to initialise, configure and run the system Timer. ">
<polygon fill="white" stroke="black" points="888,-6 888,-25 1023,-25 1023,-6 888,-6"/>
<text text-anchor="middle" x="955.5" y="-13" font-family="Helvetica,sans-Serif" font-size="10.00">processes/system_Timer.c</text>
</a>
</g>
</g>
<!-- Node1&#45;&gt;Node9 -->
<g id="edge8" class="edge"><title>Node1&#45;&gt;Node9</title>
<path fill="none" stroke="midnightblue" d="M536.207,-68.6408C625.117,-61.1715 761.701,-48.256 879.5,-31 890.797,-29.3451 902.971,-27.1907 914.193,-25.0508"/>
<polygon fill="midnightblue" stroke="midnightblue" points="535.818,-65.1609 526.144,-69.48 536.4,-72.1367 535.818,-65.1609"/>
</g>
</g>
</svg>
