<?xml version="1.0" encoding="UTF-8" standalone="no"?>
<!DOCTYPE svg PUBLIC "-//W3C//DTD SVG 1.1//EN"
 "http://www.w3.org/Graphics/SVG/1.1/DTD/svg11.dtd">
<!-- Generated by graphviz version 2.38.0 (20140413.2041)
 -->
<!-- Title: processes/system_Timer.c Pages: 1 -->
<svg width="591pt" height="341pt"
 viewBox="0.00 0.00 591.00 341.00" xmlns="http://www.w3.org/2000/svg" xmlns:xlink="http://www.w3.org/1999/xlink">
<g id="graph0" class="graph" transform="scale(1 1) rotate(0) translate(4 337)">
<title>processes/system_Timer.c</title>
<polygon fill="white" stroke="none" points="-4,4 -4,-337 587,-337 587,4 -4,4"/>
<!-- Node1 -->
<g id="node1" class="node"><title>Node1</title>
<polygon fill="#bfbfbf" stroke="black" points="333,-313.5 333,-332.5 468,-332.5 468,-313.5 333,-313.5"/>
<text text-anchor="middle" x="400.5" y="-320.5" font-family="Helvetica,sans-Serif" font-size="10.00">processes/system_Timer.c</text>
</g>
<!-- Node2 -->
<g id="node2" class="node"><title>Node2</title>
<g id="a_node2"><a xlink:href="$d7/d30/system__Timer__HDI_8h.html" xlink:title="Hardware dependent implementations to initialise, configure and run the system Timer. ">
<polygon fill="white" stroke="black" points="41,-190.5 41,-220.5 154,-220.5 154,-190.5 41,-190.5"/>
<text text-anchor="start" x="49" y="-208.5" font-family="Helvetica,sans-Serif" font-size="10.00">../platform/e&#45;puck</text>
<text text-anchor="middle" x="97.5" y="-197.5" font-family="Helvetica,sans-Serif" font-size="10.00">/system_Timer_HDI.h</text>
</a>
</g>
</g>
<!-- Node1&#45;&gt;Node2 -->
<g id="edge1" class="edge"><title>Node1&#45;&gt;Node2</title>
<path fill="none" stroke="midnightblue" d="M375.089,-313.335C349.373,-304.487 308.518,-290.211 273.5,-277 228.037,-259.848 176.483,-239.035 140.979,-224.486"/>
<polygon fill="midnightblue" stroke="midnightblue" points="141.99,-221.117 131.41,-220.557 139.331,-227.593 141.99,-221.117"/>
</g>
<!-- Node8 -->
<g id="node8" class="node"><title>Node8</title>
<g id="a_node8"><a xlink:href="$d9/d1f/DSPIC30F6014A__HDI_8h.html" xlink:title="declares e&#45;puck specific types and preprocessor variables ">
<polygon fill="white" stroke="black" points="389.5,-67.5 389.5,-97.5 545.5,-97.5 545.5,-67.5 389.5,-67.5"/>
<text text-anchor="start" x="397.5" y="-85.5" font-family="Helvetica,sans-Serif" font-size="10.00">platform/e&#45;puck/DSPIC30F6014</text>
<text text-anchor="middle" x="467.5" y="-74.5" font-family="Helvetica,sans-Serif" font-size="10.00">A_HDI.h</text>
</a>
</g>
</g>
<!-- Node1&#45;&gt;Node8 -->
<g id="edge17" class="edge"><title>Node1&#45;&gt;Node8</title>
<path fill="none" stroke="midnightblue" d="M402.964,-313.229C412.373,-279.735 446.237,-159.189 460.784,-107.409"/>
<polygon fill="midnightblue" stroke="midnightblue" points="464.166,-108.311 463.501,-97.7368 457.426,-106.417 464.166,-108.311"/>
</g>
<!-- Node10 -->
<g id="node10" class="node"><title>Node10</title>
<g id="a_node10"><a xlink:href="$dd/de5/process__Management_8h.html" xlink:title="It declares functions to manage processes (e.g. task creation, switching, termination) ...">
<polygon fill="white" stroke="black" points="283,-257.5 283,-276.5 404,-276.5 404,-257.5 283,-257.5"/>
<text text-anchor="middle" x="343.5" y="-264.5" font-family="Helvetica,sans-Serif" font-size="10.00">process_Management.h</text>
</a>
</g>
</g>
<!-- Node1&#45;&gt;Node10 -->
<g id="edge9" class="edge"><title>Node1&#45;&gt;Node10</title>
<path fill="none" stroke="midnightblue" d="M391.342,-313.324C382.999,-305.42 370.468,-293.548 360.323,-283.938"/>
<polygon fill="midnightblue" stroke="midnightblue" points="362.491,-281.171 352.825,-276.834 357.677,-286.252 362.491,-281.171"/>
</g>
<!-- Node13 -->
<g id="node13" class="node"><title>Node13</title>
<g id="a_node13"><a xlink:href="$d6/ded/interrupts_8h.html" xlink:title="It declares interrupt priority levels and functions to create atomic sections. ">
<polygon fill="white" stroke="black" points="486,-257.5 486,-276.5 583,-276.5 583,-257.5 486,-257.5"/>
<text text-anchor="middle" x="534.5" y="-264.5" font-family="Helvetica,sans-Serif" font-size="10.00">../../os/interrupts.h</text>
</a>
</g>
</g>
<!-- Node1&#45;&gt;Node13 -->
<g id="edge18" class="edge"><title>Node1&#45;&gt;Node13</title>
<path fill="none" stroke="midnightblue" d="M421.733,-313.444C443.884,-304.517 478.819,-290.439 503.936,-280.317"/>
<polygon fill="midnightblue" stroke="midnightblue" points="505.4,-283.501 513.367,-276.516 502.783,-277.008 505.4,-283.501"/>
</g>
<!-- Node3 -->
<g id="node3" class="node"><title>Node3</title>
<g id="a_node3"><a xlink:href="$d6/dc2/definitions_8h.html" xlink:title="It declares general preprocessor variables and types. ">
<polygon fill="white" stroke="black" points="173.5,-134.5 173.5,-153.5 283.5,-153.5 283.5,-134.5 173.5,-134.5"/>
<text text-anchor="middle" x="228.5" y="-141.5" font-family="Helvetica,sans-Serif" font-size="10.00">../../../os/definitions.h</text>
</a>
</g>
</g>
<!-- Node2&#45;&gt;Node3 -->
<g id="edge2" class="edge"><title>Node2&#45;&gt;Node3</title>
<path fill="none" stroke="midnightblue" d="M128.545,-190.399C150.23,-180.55 178.959,-167.501 200.051,-157.922"/>
<polygon fill="midnightblue" stroke="midnightblue" points="201.781,-160.98 209.438,-153.658 198.886,-154.607 201.781,-160.98"/>
</g>
<!-- Node4 -->
<g id="node4" class="node"><title>Node4</title>
<polygon fill="white" stroke="#bfbfbf" points="315.5,-73 315.5,-92 371.5,-92 371.5,-73 315.5,-73"/>
<text text-anchor="middle" x="343.5" y="-80" font-family="Helvetica,sans-Serif" font-size="10.00">stdbool.h</text>
</g>
<!-- Node3&#45;&gt;Node4 -->
<g id="edge3" class="edge"><title>Node3&#45;&gt;Node4</title>
<path fill="none" stroke="midnightblue" d="M244.977,-134.475C264.105,-124.578 295.873,-108.142 318.152,-96.6151"/>
<polygon fill="midnightblue" stroke="midnightblue" points="319.781,-99.713 327.054,-92.0091 316.564,-93.4958 319.781,-99.713"/>
</g>
<!-- Node5 -->
<g id="node5" class="node"><title>Node5</title>
<polygon fill="white" stroke="#bfbfbf" points="0,-73 0,-92 49,-92 49,-73 0,-73"/>
<text text-anchor="middle" x="24.5" y="-80" font-family="Helvetica,sans-Serif" font-size="10.00">stdint.h</text>
</g>
<!-- Node3&#45;&gt;Node5 -->
<g id="edge4" class="edge"><title>Node3&#45;&gt;Node5</title>
<path fill="none" stroke="midnightblue" d="M189.88,-134.458C155.112,-126.373 102.821,-113.228 58.5,-98 56.6338,-97.3588 54.7254,-96.6625 52.8118,-95.9334"/>
<polygon fill="midnightblue" stroke="midnightblue" points="53.9555,-92.6207 43.3725,-92.1203 51.3335,-99.1111 53.9555,-92.6207"/>
</g>
<!-- Node6 -->
<g id="node6" class="node"><title>Node6</title>
<polygon fill="white" stroke="#bfbfbf" points="67.5,-73 67.5,-92 141.5,-92 141.5,-73 67.5,-73"/>
<text text-anchor="middle" x="104.5" y="-80" font-family="Helvetica,sans-Serif" font-size="10.00">p30F6014A.h</text>
</g>
<!-- Node3&#45;&gt;Node6 -->
<g id="edge5" class="edge"><title>Node3&#45;&gt;Node6</title>
<path fill="none" stroke="midnightblue" d="M210.734,-134.475C190.016,-124.534 155.548,-107.995 131.511,-96.461"/>
<polygon fill="midnightblue" stroke="midnightblue" points="132.763,-93.1797 122.233,-92.0091 129.735,-99.4908 132.763,-93.1797"/>
</g>
<!-- Node7 -->
<g id="node7" class="node"><title>Node7</title>
<polygon fill="white" stroke="#bfbfbf" points="160,-67.5 160,-97.5 297,-97.5 297,-67.5 160,-67.5"/>
<text text-anchor="start" x="168" y="-85.5" font-family="Helvetica,sans-Serif" font-size="10.00">platform/e&#45;puck/library</text>
<text text-anchor="middle" x="228.5" y="-74.5" font-family="Helvetica,sans-Serif" font-size="10.00">/motor_led/e_epuck_ports.h</text>
</g>
<!-- Node3&#45;&gt;Node7 -->
<g id="edge6" class="edge"><title>Node3&#45;&gt;Node7</title>
<path fill="none" stroke="midnightblue" d="M228.5,-134.475C228.5,-127.471 228.5,-117.192 228.5,-107.696"/>
<polygon fill="midnightblue" stroke="midnightblue" points="232,-107.523 228.5,-97.523 225,-107.523 232,-107.523"/>
</g>
<!-- Node3&#45;&gt;Node8 -->
<g id="edge7" class="edge"><title>Node3&#45;&gt;Node8</title>
<path fill="none" stroke="midnightblue" d="M262.743,-134.475C298.742,-125.513 356.281,-111.188 401.21,-100.003"/>
<polygon fill="midnightblue" stroke="midnightblue" points="402.314,-103.335 411.172,-97.523 400.623,-96.5425 402.314,-103.335"/>
</g>
<!-- Node9 -->
<g id="node9" class="node"><title>Node9</title>
<polygon fill="white" stroke="#bfbfbf" points="419,-0.5 419,-30.5 516,-30.5 516,-0.5 419,-0.5"/>
<text text-anchor="start" x="427" y="-18.5" font-family="Helvetica,sans-Serif" font-size="10.00">library/motor_led/e</text>
<text text-anchor="middle" x="467.5" y="-7.5" font-family="Helvetica,sans-Serif" font-size="10.00">_epuck_ports.h</text>
</g>
<!-- Node8&#45;&gt;Node9 -->
<g id="edge8" class="edge"><title>Node8&#45;&gt;Node9</title>
<path fill="none" stroke="midnightblue" d="M467.5,-67.396C467.5,-59.6448 467.5,-49.8122 467.5,-40.8601"/>
<polygon fill="midnightblue" stroke="midnightblue" points="471,-40.5765 467.5,-30.5765 464,-40.5765 471,-40.5765"/>
</g>
<!-- Node10&#45;&gt;Node3 -->
<g id="edge11" class="edge"><title>Node10&#45;&gt;Node3</title>
<path fill="none" stroke="midnightblue" d="M330.516,-257.184C318.442,-248.664 300.293,-235.021 286.5,-221 268.208,-202.405 250.516,-177.999 239.582,-161.924"/>
<polygon fill="midnightblue" stroke="midnightblue" points="242.438,-159.899 233.971,-153.53 236.618,-163.789 242.438,-159.899"/>
</g>
<!-- Node10&#45;&gt;Node4 -->
<g id="edge10" class="edge"><title>Node10&#45;&gt;Node4</title>
<path fill="none" stroke="midnightblue" d="M361.002,-257.465C374.287,-249.917 391.576,-237.533 399.5,-221 405.455,-208.576 402.802,-203.376 399.5,-190 391.071,-155.859 369.513,-120.567 355.737,-100.401"/>
<polygon fill="midnightblue" stroke="midnightblue" points="358.468,-98.1998 349.86,-92.0225 352.737,-102.219 358.468,-98.1998"/>
</g>
<!-- Node11 -->
<g id="node11" class="node"><title>Node11</title>
<g id="a_node11"><a xlink:href="$db/dd2/events_8h.html" xlink:title="declares functions to create, (un)subscribe, (un)register, and delete events and related handler...">
<polygon fill="white" stroke="black" points="296,-196 296,-215 391,-215 391,-196 296,-196"/>
<text text-anchor="middle" x="343.5" y="-203" font-family="Helvetica,sans-Serif" font-size="10.00">../events/events.h</text>
</a>
</g>
</g>
<!-- Node10&#45;&gt;Node11 -->
<g id="edge12" class="edge"><title>Node10&#45;&gt;Node11</title>
<path fill="none" stroke="midnightblue" d="M343.5,-257.475C343.5,-249.08 343.5,-235.981 343.5,-225.163"/>
<polygon fill="midnightblue" stroke="midnightblue" points="347,-225.009 343.5,-215.009 340,-225.009 347,-225.009"/>
</g>
<!-- Node12 -->
<g id="node12" class="node"><title>Node12</title>
<g id="a_node12"><a xlink:href="$d2/dd8/scheduler_8h.html" xlink:title="It declares functions to specify a scheduling algorithm. ">
<polygon fill="white" stroke="black" points="172,-196 172,-215 239,-215 239,-196 172,-196"/>
<text text-anchor="middle" x="205.5" y="-203" font-family="Helvetica,sans-Serif" font-size="10.00">scheduler.h</text>
</a>
</g>
</g>
<!-- Node10&#45;&gt;Node12 -->
<g id="edge15" class="edge"><title>Node10&#45;&gt;Node12</title>
<path fill="none" stroke="midnightblue" d="M323.728,-257.475C300.364,-247.401 261.286,-230.553 234.497,-219.002"/>
<polygon fill="midnightblue" stroke="midnightblue" points="235.804,-215.754 225.235,-215.009 233.032,-222.182 235.804,-215.754"/>
</g>
<!-- Node11&#45;&gt;Node3 -->
<g id="edge14" class="edge"><title>Node11&#45;&gt;Node3</title>
<path fill="none" stroke="midnightblue" d="M327.023,-195.975C307.895,-186.078 276.127,-169.642 253.848,-158.115"/>
<polygon fill="midnightblue" stroke="midnightblue" points="255.436,-154.996 244.946,-153.509 252.219,-161.213 255.436,-154.996"/>
</g>
<!-- Node11&#45;&gt;Node4 -->
<g id="edge13" class="edge"><title>Node11&#45;&gt;Node4</title>
<path fill="none" stroke="midnightblue" d="M343.5,-195.798C343.5,-176.35 343.5,-128.99 343.5,-102.404"/>
<polygon fill="midnightblue" stroke="midnightblue" points="347,-102.123 343.5,-92.1232 340,-102.123 347,-102.123"/>
</g>
<!-- Node12&#45;&gt;Node3 -->
<g id="edge16" class="edge"><title>Node12&#45;&gt;Node3</title>
<path fill="none" stroke="midnightblue" d="M208.795,-195.975C212.109,-187.404 217.318,-173.927 221.549,-162.983"/>
<polygon fill="midnightblue" stroke="midnightblue" points="224.87,-164.098 225.211,-153.509 218.341,-161.575 224.87,-164.098"/>
</g>
</g>
</svg>
