<?xml version="1.0" encoding="UTF-8" standalone="no"?>
<!DOCTYPE svg PUBLIC "-//W3C//DTD SVG 1.1//EN"
 "http://www.w3.org/Graphics/SVG/1.1/DTD/svg11.dtd">
<!-- Generated by graphviz version 2.38.0 (20140413.2041)
 -->
<!-- Title: events Pages: 1 -->
<svg width="70pt" height="116pt"
 viewBox="0.00 0.00 70.00 116.00" xmlns="http://www.w3.org/2000/svg" xmlns:xlink="http://www.w3.org/1999/xlink">
<g id="graph0" class="graph" transform="scale(1 1) rotate(0) translate(4 112)">
<title>events</title>
<polygon fill="white" stroke="none" points="-4,4 -4,-112 66,-112 66,4 -4,4"/>
<!-- dir_7d604191edc08013a26f918aa8ef79ad -->
<g id="node1" class="node"><title>dir_7d604191edc08013a26f918aa8ef79ad</title>
<g id="a_node1"><a xlink:href="dir_7d604191edc08013a26f918aa8ef79ad.html" target="_top" xlink:title="events">
<polygon fill="#eeeeff" stroke="black" points="58,-108 4,-108 4,-72 58,-72 58,-108"/>
<text text-anchor="middle" x="31" y="-87.5" font-family="Helvetica,sans-Serif" font-size="10.00">events</text>
</a>
</g>
</g>
<!-- dir_077f8521b28e7fcc52dbecb26eb3cbc1 -->
<g id="node2" class="node"><title>dir_077f8521b28e7fcc52dbecb26eb3cbc1</title>
<g id="a_node2"><a xlink:href="dir_077f8521b28e7fcc52dbecb26eb3cbc1.html" target="_top" xlink:title="processes">
<polygon fill="none" stroke="black" points="62,-36 0,-36 0,-0 62,-0 62,-36"/>
<text text-anchor="middle" x="31" y="-15.5" font-family="Helvetica,sans-Serif" font-size="10.00">processes</text>
</a>
</g>
</g>
<!-- dir_7d604191edc08013a26f918aa8ef79ad&#45;&gt;dir_077f8521b28e7fcc52dbecb26eb3cbc1 -->
<g id="edge2" class="edge"><title>dir_7d604191edc08013a26f918aa8ef79ad&#45;&gt;dir_077f8521b28e7fcc52dbecb26eb3cbc1</title>
<path fill="none" stroke="black" d="M25.0843,-71.6966C24.2886,-63.9827 24.0621,-54.7125 24.4047,-46.1124"/>
<polygon fill="black" stroke="black" points="27.8984,-46.3243 25.105,-36.1043 20.9154,-45.8356 27.8984,-46.3243"/>
<g id="a_edge2&#45;headlabel"><a xlink:href="dir_000000_000004.html" target="_top" xlink:title="2">
<text text-anchor="middle" x="30.4799" y="-47.6083" font-family="Helvetica,sans-Serif" font-size="10.00">2</text>
</a>
</g>
</g>
<!-- dir_077f8521b28e7fcc52dbecb26eb3cbc1&#45;&gt;dir_7d604191edc08013a26f918aa8ef79ad -->
<g id="edge1" class="edge"><title>dir_077f8521b28e7fcc52dbecb26eb3cbc1&#45;&gt;dir_7d604191edc08013a26f918aa8ef79ad</title>
<path fill="none" stroke="black" d="M36.895,-36.1043C37.7005,-43.7913 37.9369,-53.0537 37.604,-61.6651"/>
<polygon fill="black" stroke="black" points="34.1085,-61.4805 36.9157,-71.6966 41.0921,-61.9597 34.1085,-61.4805"/>
<g id="a_edge1&#45;headlabel"><a xlink:href="dir_000004_000000.html" target="_top" xlink:title="2">
<text text-anchor="middle" x="31.5219" y="-55.2" font-family="Helvetica,sans-Serif" font-size="10.00">2</text>
</a>
</g>
</g>
</g>
</svg>
