<?xml version="1.0" encoding="UTF-8" standalone="no"?>
<!DOCTYPE svg PUBLIC "-//W3C//DTD SVG 1.1//EN"
 "http://www.w3.org/Graphics/SVG/1.1/DTD/svg11.dtd">
<!-- Generated by graphviz version 2.38.0 (20140413.2041)
 -->
<!-- Title: platform Pages: 1 -->
<svg width="186pt" height="260pt"
 viewBox="0.00 0.00 186.00 260.00" xmlns="http://www.w3.org/2000/svg" xmlns:xlink="http://www.w3.org/1999/xlink">
<g id="graph0" class="graph" transform="scale(1 1) rotate(0) translate(4 256)">
<title>platform</title>
<polygon fill="white" stroke="none" points="-4,4 -4,-256 182,-256 182,4 -4,4"/>
<g id="clust1" class="cluster"><title>clusterdir_c5a52a81292cf9a5167198f4f346d6d9</title>
<g id="a_clust1"><a xlink:href="dir_c5a52a81292cf9a5167198f4f346d6d9.html" target="_top">
<polygon fill="#eeeeff" stroke="black" points="8,-136 8,-188 150,-188 150,-136 8,-136"/>
</a>
</g>
</g>
<!-- dir_c5a52a81292cf9a5167198f4f346d6d9 -->
<g id="node1" class="node"><title>dir_c5a52a81292cf9a5167198f4f346d6d9</title>
<text text-anchor="middle" x="115" y="-159.5" font-family="Helvetica,sans-Serif" font-size="10.00">platform</text>
</g>
<!-- dir_8c23c5382bccab727b5456b8e0f44093 -->
<g id="node2" class="node"><title>dir_8c23c5382bccab727b5456b8e0f44093</title>
<g id="a_node2"><a xlink:href="dir_8c23c5382bccab727b5456b8e0f44093.html" target="_top" xlink:title="e&#45;puck">
<polygon fill="white" stroke="black" points="70,-180 16,-180 16,-144 70,-144 70,-180"/>
<text text-anchor="middle" x="43" y="-159.5" font-family="Helvetica,sans-Serif" font-size="10.00">e&#45;puck</text>
</a>
</g>
</g>
<!-- dir_077f8521b28e7fcc52dbecb26eb3cbc1 -->
<g id="node3" class="node"><title>dir_077f8521b28e7fcc52dbecb26eb3cbc1</title>
<g id="a_node3"><a xlink:href="dir_077f8521b28e7fcc52dbecb26eb3cbc1.html" target="_top" xlink:title="processes">
<polygon fill="none" stroke="black" points="178,-252 116,-252 116,-216 178,-216 178,-252"/>
<text text-anchor="middle" x="147" y="-231.5" font-family="Helvetica,sans-Serif" font-size="10.00">processes</text>
</a>
</g>
</g>
<!-- dir_8c23c5382bccab727b5456b8e0f44093&#45;&gt;dir_077f8521b28e7fcc52dbecb26eb3cbc1 -->
<g id="edge5" class="edge"><title>dir_8c23c5382bccab727b5456b8e0f44093&#45;&gt;dir_077f8521b28e7fcc52dbecb26eb3cbc1</title>
<path fill="none" stroke="black" d="M58.4648,-180.018C62.236,-182.704 66.2211,-185.438 70,-188 81.8803,-196.055 95.0166,-204.788 107.11,-212.399"/>
<polygon fill="black" stroke="black" points="105.353,-215.428 115.698,-217.716 109.038,-209.476 105.353,-215.428"/>
<g id="a_edge5&#45;headlabel"><a xlink:href="dir_000003_000004.html" target="_top" xlink:title="4">
<text text-anchor="middle" x="100.802" y="-213.449" font-family="Helvetica,sans-Serif" font-size="10.00">4</text>
</a>
</g>
</g>
<!-- dir_7d604191edc08013a26f918aa8ef79ad -->
<g id="node4" class="node"><title>dir_7d604191edc08013a26f918aa8ef79ad</title>
<g id="a_node4"><a xlink:href="dir_7d604191edc08013a26f918aa8ef79ad.html" target="_top" xlink:title="events">
<polygon fill="none" stroke="black" points="172,-36 118,-36 118,-0 172,-0 172,-36"/>
<text text-anchor="middle" x="145" y="-15.5" font-family="Helvetica,sans-Serif" font-size="10.00">events</text>
</a>
</g>
</g>
<!-- dir_8c23c5382bccab727b5456b8e0f44093&#45;&gt;dir_7d604191edc08013a26f918aa8ef79ad -->
<g id="edge6" class="edge"><title>dir_8c23c5382bccab727b5456b8e0f44093&#45;&gt;dir_7d604191edc08013a26f918aa8ef79ad</title>
<path fill="none" stroke="black" d="M46.0979,-143.877C50.1929,-124.863 58.8549,-93.9607 75,-72 84.2435,-59.4269 97.2885,-48.434 109.616,-39.7681"/>
<polygon fill="black" stroke="black" points="111.631,-42.631 117.981,-34.1496 107.728,-36.8202 111.631,-42.631"/>
<g id="a_edge6&#45;headlabel"><a xlink:href="dir_000003_000000.html" target="_top" xlink:title="4">
<text text-anchor="middle" x="110.231" y="-44.4922" font-family="Helvetica,sans-Serif" font-size="10.00">4</text>
</a>
</g>
</g>
<!-- dir_bc161955dc3a3d2485839eba21420d01 -->
<g id="node5" class="node"><title>dir_bc161955dc3a3d2485839eba21420d01</title>
<g id="a_node5"><a xlink:href="dir_bc161955dc3a3d2485839eba21420d01.html" target="_top" xlink:title="io">
<polygon fill="none" stroke="black" points="138,-108 84,-108 84,-72 138,-72 138,-108"/>
<text text-anchor="middle" x="111" y="-87.5" font-family="Helvetica,sans-Serif" font-size="10.00">io</text>
</a>
</g>
</g>
<!-- dir_8c23c5382bccab727b5456b8e0f44093&#45;&gt;dir_bc161955dc3a3d2485839eba21420d01 -->
<g id="edge7" class="edge"><title>dir_8c23c5382bccab727b5456b8e0f44093&#45;&gt;dir_bc161955dc3a3d2485839eba21420d01</title>
<path fill="none" stroke="black" d="M59.809,-143.697C68.126,-135.135 78.3054,-124.656 87.3899,-115.304"/>
<polygon fill="black" stroke="black" points="89.927,-117.716 94.3844,-108.104 84.906,-112.838 89.927,-117.716"/>
<g id="a_edge7&#45;headlabel"><a xlink:href="dir_000003_000001.html" target="_top" xlink:title="5">
<text text-anchor="middle" x="89.4589" y="-119.773" font-family="Helvetica,sans-Serif" font-size="10.00">5</text>
</a>
</g>
</g>
<!-- dir_077f8521b28e7fcc52dbecb26eb3cbc1&#45;&gt;dir_c5a52a81292cf9a5167198f4f346d6d9 -->
<g id="edge1" class="edge"><title>dir_077f8521b28e7fcc52dbecb26eb3cbc1&#45;&gt;dir_c5a52a81292cf9a5167198f4f346d6d9</title>
<path fill="none" stroke="black" d="M139.09,-215.697C135.447,-207.728 131.046,-198.1 127.006,-189.264"/>
<polygon fill="black" stroke="black" points="130.16,-187.744 122.819,-180.104 123.794,-190.654 130.16,-187.744"/>
<g id="a_edge1&#45;headlabel"><a xlink:href="dir_000004_000002.html" target="_top" xlink:title="4">
<text text-anchor="middle" x="134.237" y="-187.333" font-family="Helvetica,sans-Serif" font-size="10.00">4</text>
</a>
</g>
</g>
<!-- dir_077f8521b28e7fcc52dbecb26eb3cbc1&#45;&gt;dir_8c23c5382bccab727b5456b8e0f44093 -->
<g id="edge3" class="edge"><title>dir_077f8521b28e7fcc52dbecb26eb3cbc1&#45;&gt;dir_8c23c5382bccab727b5456b8e0f44093</title>
<path fill="none" stroke="black" d="M128.894,-215.827C117.091,-207.493 101.709,-197.295 88,-188 84.9887,-185.958 81.8464,-183.807 78.6686,-181.659"/>
<polygon fill="black" stroke="black" points="80.5044,-178.677 70.2389,-176.055 76.6291,-184.506 80.5044,-178.677"/>
<g id="a_edge3&#45;headlabel"><a xlink:href="dir_000004_000003.html" target="_top" xlink:title="4">
<text text-anchor="middle" x="85.0697" y="-175.802" font-family="Helvetica,sans-Serif" font-size="10.00">4</text>
</a>
</g>
</g>
<!-- dir_077f8521b28e7fcc52dbecb26eb3cbc1&#45;&gt;dir_7d604191edc08013a26f918aa8ef79ad -->
<g id="edge2" class="edge"><title>dir_077f8521b28e7fcc52dbecb26eb3cbc1&#45;&gt;dir_7d604191edc08013a26f918aa8ef79ad</title>
<path fill="none" stroke="black" d="M142.164,-215.978C142.737,-207.589 144.281,-197.302 145,-188 148.846,-138.257 143.63,-80.1485 142.308,-46.6577"/>
<polygon fill="black" stroke="black" points="145.797,-46.193 142.028,-36.2913 138.8,-46.3823 145.797,-46.193"/>
<g id="a_edge2&#45;headlabel"><a xlink:href="dir_000004_000000.html" target="_top" xlink:title="2">
<text text-anchor="middle" x="148.732" y="-47.2096" font-family="Helvetica,sans-Serif" font-size="10.00">2</text>
</a>
</g>
</g>
<!-- dir_7d604191edc08013a26f918aa8ef79ad&#45;&gt;dir_077f8521b28e7fcc52dbecb26eb3cbc1 -->
<g id="edge4" class="edge"><title>dir_7d604191edc08013a26f918aa8ef79ad&#45;&gt;dir_077f8521b28e7fcc52dbecb26eb3cbc1</title>
<path fill="none" stroke="black" d="M152.785,-36.2913C160.335,-66.9041 167.281,-132.634 163,-188 162.551,-193.814 161.779,-200.012 160.693,-205.892"/>
<polygon fill="black" stroke="black" points="157.204,-205.451 158.401,-215.978 164.03,-207.002 157.204,-205.451"/>
<g id="a_edge4&#45;headlabel"><a xlink:href="dir_000000_000004.html" target="_top" xlink:title="2">
<text text-anchor="middle" x="155.232" y="-198.816" font-family="Helvetica,sans-Serif" font-size="10.00">2</text>
</a>
</g>
</g>
<!-- dir_bc161955dc3a3d2485839eba21420d01&#45;&gt;dir_7d604191edc08013a26f918aa8ef79ad -->
<g id="edge8" class="edge"><title>dir_bc161955dc3a3d2485839eba21420d01&#45;&gt;dir_7d604191edc08013a26f918aa8ef79ad</title>
<path fill="none" stroke="black" d="M119.404,-71.6966C123.275,-63.7284 127.952,-54.0995 132.243,-45.2641"/>
<polygon fill="black" stroke="black" points="135.471,-46.6286 136.692,-36.1043 129.175,-43.5702 135.471,-46.6286"/>
<g id="a_edge8&#45;headlabel"><a xlink:href="dir_000001_000000.html" target="_top" xlink:title="1">
<text text-anchor="middle" x="136.455" y="-48.6025" font-family="Helvetica,sans-Serif" font-size="10.00">1</text>
</a>
</g>
</g>
</g>
</svg>
