<?xml version="1.0" encoding="UTF-8" standalone="no"?>
<!DOCTYPE svg PUBLIC "-//W3C//DTD SVG 1.1//EN"
 "http://www.w3.org/Graphics/SVG/1.1/DTD/svg11.dtd">
<!-- Generated by graphviz version 2.38.0 (20140413.2041)
 -->
<!-- Title: platform/e&#45;puck Pages: 1 -->
<svg width="180pt" height="223pt"
 viewBox="0.00 0.00 180.00 223.00" xmlns="http://www.w3.org/2000/svg" xmlns:xlink="http://www.w3.org/1999/xlink">
<g id="graph0" class="graph" transform="scale(1 1) rotate(0) translate(4 219)">
<title>platform/e&#45;puck</title>
<polygon fill="white" stroke="none" points="-4,4 -4,-219 176,-219 176,4 -4,4"/>
<g id="clust1" class="cluster"><title>clusterdir_c5a52a81292cf9a5167198f4f346d6d9</title>
<g id="a_clust1"><a xlink:href="dir_c5a52a81292cf9a5167198f4f346d6d9.html" target="_top" xlink:title="platform">
<polygon fill="#ddddee" stroke="black" points="55,-136 55,-207 125,-207 125,-136 55,-136"/>
<text text-anchor="middle" x="90" y="-195" font-family="Helvetica,sans-Serif" font-size="10.00">platform</text>
</a>
</g>
</g>
<!-- dir_8c23c5382bccab727b5456b8e0f44093 -->
<g id="node1" class="node"><title>dir_8c23c5382bccab727b5456b8e0f44093</title>
<g id="a_node1"><a xlink:href="dir_8c23c5382bccab727b5456b8e0f44093.html" target="_top" xlink:title="e&#45;puck">
<polygon fill="#eeeeff" stroke="black" points="117,-180 63,-180 63,-144 117,-144 117,-180"/>
<text text-anchor="middle" x="90" y="-159.5" font-family="Helvetica,sans-Serif" font-size="10.00">e&#45;puck</text>
</a>
</g>
</g>
<!-- dir_077f8521b28e7fcc52dbecb26eb3cbc1 -->
<g id="node2" class="node"><title>dir_077f8521b28e7fcc52dbecb26eb3cbc1</title>
<g id="a_node2"><a xlink:href="dir_077f8521b28e7fcc52dbecb26eb3cbc1.html" target="_top" xlink:title="processes">
<polygon fill="none" stroke="black" points="62,-108 3.55271e-15,-108 3.55271e-15,-72 62,-72 62,-108"/>
<text text-anchor="middle" x="31" y="-87.5" font-family="Helvetica,sans-Serif" font-size="10.00">processes</text>
</a>
</g>
</g>
<!-- dir_8c23c5382bccab727b5456b8e0f44093&#45;&gt;dir_077f8521b28e7fcc52dbecb26eb3cbc1 -->
<g id="edge4" class="edge"><title>dir_8c23c5382bccab727b5456b8e0f44093&#45;&gt;dir_077f8521b28e7fcc52dbecb26eb3cbc1</title>
<path fill="none" stroke="black" d="M69.5,-143.697C61.6412,-135.389 52.9212,-125.277 45.6839,-116.141"/>
<polygon fill="black" stroke="black" points="48.384,-113.91 39.5215,-108.104 42.8292,-118.17 48.384,-113.91"/>
<g id="a_edge4&#45;headlabel"><a xlink:href="dir_000003_000004.html" target="_top" xlink:title="4">
<text text-anchor="middle" x="52.8244" y="-112.535" font-family="Helvetica,sans-Serif" font-size="10.00">4</text>
</a>
</g>
</g>
<!-- dir_7d604191edc08013a26f918aa8ef79ad -->
<g id="node3" class="node"><title>dir_7d604191edc08013a26f918aa8ef79ad</title>
<g id="a_node3"><a xlink:href="dir_7d604191edc08013a26f918aa8ef79ad.html" target="_top" xlink:title="events">
<polygon fill="none" stroke="black" points="87,-36 33,-36 33,-0 87,-0 87,-36"/>
<text text-anchor="middle" x="60" y="-15.5" font-family="Helvetica,sans-Serif" font-size="10.00">events</text>
</a>
</g>
</g>
<!-- dir_8c23c5382bccab727b5456b8e0f44093&#45;&gt;dir_7d604191edc08013a26f918aa8ef79ad -->
<g id="edge5" class="edge"><title>dir_8c23c5382bccab727b5456b8e0f44093&#45;&gt;dir_7d604191edc08013a26f918aa8ef79ad</title>
<path fill="none" stroke="black" d="M86.3813,-143.871C81.2458,-119.564 71.7927,-74.8187 65.707,-46.0132"/>
<polygon fill="black" stroke="black" points="69.1231,-45.2498 63.6315,-36.1893 62.2743,-46.6968 69.1231,-45.2498"/>
<g id="a_edge5&#45;headlabel"><a xlink:href="dir_000003_000000.html" target="_top" xlink:title="4">
<text text-anchor="middle" x="72.644" y="-45.6799" font-family="Helvetica,sans-Serif" font-size="10.00">4</text>
</a>
</g>
</g>
<!-- dir_bc161955dc3a3d2485839eba21420d01 -->
<g id="node4" class="node"><title>dir_bc161955dc3a3d2485839eba21420d01</title>
<g id="a_node4"><a xlink:href="dir_bc161955dc3a3d2485839eba21420d01.html" target="_top" xlink:title="io">
<polygon fill="none" stroke="black" points="172,-108 118,-108 118,-72 172,-72 172,-108"/>
<text text-anchor="middle" x="145" y="-87.5" font-family="Helvetica,sans-Serif" font-size="10.00">io</text>
</a>
</g>
</g>
<!-- dir_8c23c5382bccab727b5456b8e0f44093&#45;&gt;dir_bc161955dc3a3d2485839eba21420d01 -->
<g id="edge6" class="edge"><title>dir_8c23c5382bccab727b5456b8e0f44093&#45;&gt;dir_bc161955dc3a3d2485839eba21420d01</title>
<path fill="none" stroke="black" d="M103.596,-143.697C110.123,-135.389 118.068,-125.277 125.247,-116.141"/>
<polygon fill="black" stroke="black" points="128.135,-118.13 131.561,-108.104 122.631,-113.805 128.135,-118.13"/>
<g id="a_edge6&#45;headlabel"><a xlink:href="dir_000003_000001.html" target="_top" xlink:title="5">
<text text-anchor="middle" x="128.147" y="-120.211" font-family="Helvetica,sans-Serif" font-size="10.00">5</text>
</a>
</g>
</g>
<!-- dir_077f8521b28e7fcc52dbecb26eb3cbc1&#45;&gt;dir_8c23c5382bccab727b5456b8e0f44093 -->
<g id="edge2" class="edge"><title>dir_077f8521b28e7fcc52dbecb26eb3cbc1&#45;&gt;dir_8c23c5382bccab727b5456b8e0f44093</title>
<path fill="none" stroke="black" d="M51.3115,-108.104C59.1564,-116.383 67.8812,-126.488 75.1421,-135.64"/>
<polygon fill="black" stroke="black" points="72.4638,-137.899 81.3315,-143.697 78.0149,-133.634 72.4638,-137.899"/>
<g id="a_edge2&#45;headlabel"><a xlink:href="dir_000004_000003.html" target="_top" xlink:title="4">
<text text-anchor="middle" x="68.0224" y="-134.278" font-family="Helvetica,sans-Serif" font-size="10.00">4</text>
</a>
</g>
</g>
<!-- dir_077f8521b28e7fcc52dbecb26eb3cbc1&#45;&gt;dir_7d604191edc08013a26f918aa8ef79ad -->
<g id="edge1" class="edge"><title>dir_077f8521b28e7fcc52dbecb26eb3cbc1&#45;&gt;dir_7d604191edc08013a26f918aa8ef79ad</title>
<path fill="none" stroke="black" d="M32.2528,-71.6966C34.732,-63.7284 38.5065,-54.0995 42.5596,-45.2641"/>
<polygon fill="black" stroke="black" points="45.7886,-46.6275 47.0189,-36.1043 39.4948,-43.5634 45.7886,-46.6275"/>
<g id="a_edge1&#45;headlabel"><a xlink:href="dir_000004_000000.html" target="_top" xlink:title="2">
<text text-anchor="middle" x="46.768" y="-48.6022" font-family="Helvetica,sans-Serif" font-size="10.00">2</text>
</a>
</g>
</g>
<!-- dir_7d604191edc08013a26f918aa8ef79ad&#45;&gt;dir_077f8521b28e7fcc52dbecb26eb3cbc1 -->
<g id="edge3" class="edge"><title>dir_7d604191edc08013a26f918aa8ef79ad&#45;&gt;dir_077f8521b28e7fcc52dbecb26eb3cbc1</title>
<path fill="none" stroke="black" d="M58.809,-36.1043C56.3514,-44.0447 52.5901,-53.6661 48.5418,-62.5146"/>
<polygon fill="black" stroke="black" points="45.3029,-61.1721 44.0843,-71.6966 51.6001,-64.2292 45.3029,-61.1721"/>
<g id="a_edge3&#45;headlabel"><a xlink:href="dir_000000_000004.html" target="_top" xlink:title="2">
<text text-anchor="middle" x="44.3185" y="-54.1985" font-family="Helvetica,sans-Serif" font-size="10.00">2</text>
</a>
</g>
</g>
<!-- dir_bc161955dc3a3d2485839eba21420d01&#45;&gt;dir_7d604191edc08013a26f918aa8ef79ad -->
<g id="edge7" class="edge"><title>dir_bc161955dc3a3d2485839eba21420d01&#45;&gt;dir_7d604191edc08013a26f918aa8ef79ad</title>
<path fill="none" stroke="black" d="M123.989,-71.6966C113.284,-62.8807 100.11,-52.0321 88.5044,-42.4742"/>
<polygon fill="black" stroke="black" points="90.7139,-39.7597 80.7695,-36.1043 86.2639,-45.1632 90.7139,-39.7597"/>
<g id="a_edge7&#45;headlabel"><a xlink:href="dir_000001_000000.html" target="_top" xlink:title="1">
<text text-anchor="middle" x="95.2936" y="-37.3531" font-family="Helvetica,sans-Serif" font-size="10.00">1</text>
</a>
</g>
</g>
</g>
</svg>
