<?xml version="1.0" encoding="UTF-8" standalone="no"?>
<!DOCTYPE svg PUBLIC "-//W3C//DTD SVG 1.1//EN"
 "http://www.w3.org/Graphics/SVG/1.1/DTD/svg11.dtd">
<!-- Generated by graphviz version 2.38.0 (20140413.2041)
 -->
<!-- Title: io/io_clock.c Pages: 1 -->
<svg width="554pt" height="274pt"
 viewBox="0.00 0.00 553.50 274.00" xmlns="http://www.w3.org/2000/svg" xmlns:xlink="http://www.w3.org/1999/xlink">
<g id="graph0" class="graph" transform="scale(1 1) rotate(0) translate(4 270)">
<title>io/io_clock.c</title>
<polygon fill="white" stroke="none" points="-4,4 -4,-270 549.5,-270 549.5,4 -4,4"/>
<!-- Node1 -->
<g id="node1" class="node"><title>Node1</title>
<polygon fill="#bfbfbf" stroke="black" points="293,-246.5 293,-265.5 364,-265.5 364,-246.5 293,-246.5"/>
<text text-anchor="middle" x="328.5" y="-253.5" font-family="Helvetica,sans-Serif" font-size="10.00">io/io_clock.c</text>
</g>
<!-- Node2 -->
<g id="node2" class="node"><title>Node2</title>
<g id="a_node2"><a xlink:href="../../dc/dac/io_8h.html" target="_top" xlink:title="It declares functions to control the IO timer and to (un)register IO Handler. ">
<polygon fill="white" stroke="black" points="201.5,-190.5 201.5,-209.5 233.5,-209.5 233.5,-190.5 201.5,-190.5"/>
<text text-anchor="middle" x="217.5" y="-197.5" font-family="Helvetica,sans-Serif" font-size="10.00">io.h</text>
</a>
</g>
</g>
<!-- Node1&#45;&gt;Node2 -->
<g id="edge1" class="edge"><title>Node1&#45;&gt;Node2</title>
<path fill="none" stroke="midnightblue" d="M310.666,-246.324C292.361,-237.419 263.705,-223.478 243.006,-213.408"/>
<polygon fill="midnightblue" stroke="midnightblue" points="244.367,-210.178 233.843,-208.951 241.304,-216.473 244.367,-210.178"/>
</g>
<!-- Node10 -->
<g id="node10" class="node"><title>Node10</title>
<g id="a_node10"><a xlink:href="../../d9/ded/io__clock_8h.html" target="_top" xlink:title="It declares the system clock that provides a continuous time value (granulation of 1 ms)...">
<polygon fill="white" stroke="black" points="252,-190.5 252,-209.5 313,-209.5 313,-190.5 252,-190.5"/>
<text text-anchor="middle" x="282.5" y="-197.5" font-family="Helvetica,sans-Serif" font-size="10.00">io_clock.h</text>
</a>
</g>
</g>
<!-- Node1&#45;&gt;Node10 -->
<g id="edge9" class="edge"><title>Node1&#45;&gt;Node10</title>
<path fill="none" stroke="midnightblue" d="M320.904,-246.083C314.273,-238.298 304.479,-226.801 296.442,-217.367"/>
<polygon fill="midnightblue" stroke="midnightblue" points="299.104,-215.094 289.955,-209.751 293.775,-219.633 299.104,-215.094"/>
</g>
<!-- Node11 -->
<g id="node11" class="node"><title>Node11</title>
<polygon fill="white" stroke="#bfbfbf" points="331.5,-190.5 331.5,-209.5 419.5,-209.5 419.5,-190.5 331.5,-190.5"/>
<text text-anchor="middle" x="375.5" y="-197.5" font-family="Helvetica,sans-Serif" font-size="10.00">e&#45;puck/io_HDI.h</text>
</g>
<!-- Node1&#45;&gt;Node11 -->
<g id="edge11" class="edge"><title>Node1&#45;&gt;Node11</title>
<path fill="none" stroke="midnightblue" d="M336.261,-246.083C343.037,-238.298 353.043,-226.801 361.255,-217.367"/>
<polygon fill="midnightblue" stroke="midnightblue" points="363.958,-219.592 367.883,-209.751 358.678,-214.996 363.958,-219.592"/>
</g>
<!-- Node12 -->
<g id="node12" class="node"><title>Node12</title>
<g id="a_node12"><a xlink:href="../../db/dd2/events_8h.html" target="_top" xlink:title="declares functions to create, (un)subscribe, (un)register, and delete events and related handler...">
<polygon fill="white" stroke="black" points="438,-190.5 438,-209.5 533,-209.5 533,-190.5 438,-190.5"/>
<text text-anchor="middle" x="485.5" y="-197.5" font-family="Helvetica,sans-Serif" font-size="10.00">../events/events.h</text>
</a>
</g>
</g>
<!-- Node1&#45;&gt;Node12 -->
<g id="edge12" class="edge"><title>Node1&#45;&gt;Node12</title>
<path fill="none" stroke="midnightblue" d="M353.377,-246.444C379.789,-237.359 421.715,-222.939 451.242,-212.783"/>
<polygon fill="midnightblue" stroke="midnightblue" points="452.421,-216.079 460.739,-209.516 450.145,-209.459 452.421,-216.079"/>
</g>
<!-- Node3 -->
<g id="node3" class="node"><title>Node3</title>
<g id="a_node3"><a xlink:href="../../d6/dc2/definitions_8h.html" target="_top" xlink:title="It declares general preprocessor variables and types. ">
<polygon fill="white" stroke="black" points="210.5,-134.5 210.5,-153.5 288.5,-153.5 288.5,-134.5 210.5,-134.5"/>
<text text-anchor="middle" x="249.5" y="-141.5" font-family="Helvetica,sans-Serif" font-size="10.00">../definitions.h</text>
</a>
</g>
</g>
<!-- Node2&#45;&gt;Node3 -->
<g id="edge2" class="edge"><title>Node2&#45;&gt;Node3</title>
<path fill="none" stroke="midnightblue" d="M222.784,-190.083C227.211,-182.613 233.663,-171.724 239.118,-162.52"/>
<polygon fill="midnightblue" stroke="midnightblue" points="242.227,-164.138 244.314,-153.751 236.205,-160.57 242.227,-164.138"/>
</g>
<!-- Node4 -->
<g id="node4" class="node"><title>Node4</title>
<polygon fill="white" stroke="#bfbfbf" points="489.5,-73 489.5,-92 545.5,-92 545.5,-73 489.5,-73"/>
<text text-anchor="middle" x="517.5" y="-80" font-family="Helvetica,sans-Serif" font-size="10.00">stdbool.h</text>
</g>
<!-- Node3&#45;&gt;Node4 -->
<g id="edge3" class="edge"><title>Node3&#45;&gt;Node4</title>
<path fill="none" stroke="midnightblue" d="M288.843,-137.559C335.232,-130.635 414.392,-117.221 480.5,-98 482.935,-97.2921 485.433,-96.4887 487.926,-95.6317"/>
<polygon fill="midnightblue" stroke="midnightblue" points="489.2,-98.8922 497.373,-92.1499 486.78,-92.3241 489.2,-98.8922"/>
</g>
<!-- Node5 -->
<g id="node5" class="node"><title>Node5</title>
<polygon fill="white" stroke="#bfbfbf" points="0,-73 0,-92 49,-92 49,-73 0,-73"/>
<text text-anchor="middle" x="24.5" y="-80" font-family="Helvetica,sans-Serif" font-size="10.00">stdint.h</text>
</g>
<!-- Node3&#45;&gt;Node5 -->
<g id="edge4" class="edge"><title>Node3&#45;&gt;Node5</title>
<path fill="none" stroke="midnightblue" d="M210.181,-135.792C171.18,-128.164 109.964,-114.898 58.5,-98 56.5795,-97.3694 54.6168,-96.6745 52.6514,-95.9406"/>
<polygon fill="midnightblue" stroke="midnightblue" points="53.5689,-92.5376 42.9847,-92.0638 50.9633,-99.0346 53.5689,-92.5376"/>
</g>
<!-- Node6 -->
<g id="node6" class="node"><title>Node6</title>
<polygon fill="white" stroke="#bfbfbf" points="67.5,-73 67.5,-92 141.5,-92 141.5,-73 67.5,-73"/>
<text text-anchor="middle" x="104.5" y="-80" font-family="Helvetica,sans-Serif" font-size="10.00">p30F6014A.h</text>
</g>
<!-- Node3&#45;&gt;Node6 -->
<g id="edge5" class="edge"><title>Node3&#45;&gt;Node6</title>
<path fill="none" stroke="midnightblue" d="M228.725,-134.475C204.068,-124.357 162.755,-107.405 134.598,-95.8507"/>
<polygon fill="midnightblue" stroke="midnightblue" points="135.817,-92.5674 125.236,-92.0091 133.159,-99.0434 135.817,-92.5674"/>
</g>
<!-- Node7 -->
<g id="node7" class="node"><title>Node7</title>
<polygon fill="white" stroke="#bfbfbf" points="160,-67.5 160,-97.5 297,-97.5 297,-67.5 160,-67.5"/>
<text text-anchor="start" x="168" y="-85.5" font-family="Helvetica,sans-Serif" font-size="10.00">platform/e&#45;puck/library</text>
<text text-anchor="middle" x="228.5" y="-74.5" font-family="Helvetica,sans-Serif" font-size="10.00">/motor_led/e_epuck_ports.h</text>
</g>
<!-- Node3&#45;&gt;Node7 -->
<g id="edge6" class="edge"><title>Node3&#45;&gt;Node7</title>
<path fill="none" stroke="midnightblue" d="M246.491,-134.475C243.966,-127.32 240.235,-116.748 236.824,-107.084"/>
<polygon fill="midnightblue" stroke="midnightblue" points="240.078,-105.788 233.449,-97.523 233.477,-108.118 240.078,-105.788"/>
</g>
<!-- Node8 -->
<g id="node8" class="node"><title>Node8</title>
<g id="a_node8"><a xlink:href="../../d9/d1f/DSPIC30F6014A__HDI_8h.html" target="_top" xlink:title="declares e&#45;puck specific types and preprocessor variables ">
<polygon fill="white" stroke="black" points="315.5,-67.5 315.5,-97.5 471.5,-97.5 471.5,-67.5 315.5,-67.5"/>
<text text-anchor="start" x="323.5" y="-85.5" font-family="Helvetica,sans-Serif" font-size="10.00">platform/e&#45;puck/DSPIC30F6014</text>
<text text-anchor="middle" x="393.5" y="-74.5" font-family="Helvetica,sans-Serif" font-size="10.00">A_HDI.h</text>
</a>
</g>
</g>
<!-- Node3&#45;&gt;Node8 -->
<g id="edge7" class="edge"><title>Node3&#45;&gt;Node8</title>
<path fill="none" stroke="midnightblue" d="M270.132,-134.475C290.91,-125.889 323.599,-112.383 350.108,-101.429"/>
<polygon fill="midnightblue" stroke="midnightblue" points="351.657,-104.577 359.562,-97.523 348.983,-98.1071 351.657,-104.577"/>
</g>
<!-- Node9 -->
<g id="node9" class="node"><title>Node9</title>
<polygon fill="white" stroke="#bfbfbf" points="345,-0.5 345,-30.5 442,-30.5 442,-0.5 345,-0.5"/>
<text text-anchor="start" x="353" y="-18.5" font-family="Helvetica,sans-Serif" font-size="10.00">library/motor_led/e</text>
<text text-anchor="middle" x="393.5" y="-7.5" font-family="Helvetica,sans-Serif" font-size="10.00">_epuck_ports.h</text>
</g>
<!-- Node8&#45;&gt;Node9 -->
<g id="edge8" class="edge"><title>Node8&#45;&gt;Node9</title>
<path fill="none" stroke="midnightblue" d="M393.5,-67.396C393.5,-59.6448 393.5,-49.8122 393.5,-40.8601"/>
<polygon fill="midnightblue" stroke="midnightblue" points="397,-40.5765 393.5,-30.5765 390,-40.5765 397,-40.5765"/>
</g>
<!-- Node10&#45;&gt;Node3 -->
<g id="edge10" class="edge"><title>Node10&#45;&gt;Node3</title>
<path fill="none" stroke="midnightblue" d="M277.051,-190.083C272.486,-182.613 265.832,-171.724 260.207,-162.52"/>
<polygon fill="midnightblue" stroke="midnightblue" points="263.049,-160.459 254.848,-153.751 257.076,-164.109 263.049,-160.459"/>
</g>
<!-- Node12&#45;&gt;Node3 -->
<g id="edge14" class="edge"><title>Node12&#45;&gt;Node3</title>
<path fill="none" stroke="midnightblue" d="M448.105,-190.444C407.108,-181.063 341.246,-165.993 296.716,-155.804"/>
<polygon fill="midnightblue" stroke="midnightblue" points="297.249,-152.335 286.72,-153.516 295.687,-159.159 297.249,-152.335"/>
</g>
<!-- Node12&#45;&gt;Node4 -->
<g id="edge13" class="edge"><title>Node12&#45;&gt;Node4</title>
<path fill="none" stroke="midnightblue" d="M487.905,-190.319C493.071,-171.673 505.325,-127.443 512.338,-102.132"/>
<polygon fill="midnightblue" stroke="midnightblue" points="515.77,-102.854 515.067,-92.282 509.024,-100.984 515.77,-102.854"/>
</g>
</g>
</svg>
