<?xml version="1.0" encoding="UTF-8" standalone="no"?>
<!DOCTYPE svg PUBLIC "-//W3C//DTD SVG 1.1//EN"
 "http://www.w3.org/Graphics/SVG/1.1/DTD/svg11.dtd">
<!-- Generated by graphviz version 2.38.0 (20140413.2041)
 -->
<!-- Title: platform/e&#45;puck/remoteControl_HDI.c Pages: 1 -->
<svg width="625pt" height="285pt"
 viewBox="0.00 0.00 624.50 285.00" xmlns="http://www.w3.org/2000/svg" xmlns:xlink="http://www.w3.org/1999/xlink">
<g id="graph0" class="graph" transform="scale(1 1) rotate(0) translate(4 281)">
<title>platform/e&#45;puck/remoteControl_HDI.c</title>
<polygon fill="white" stroke="none" points="-4,4 -4,-281 620.5,-281 620.5,4 -4,4"/>
<!-- Node1 -->
<g id="node1" class="node"><title>Node1</title>
<polygon fill="#bfbfbf" stroke="black" points="247.5,-246.5 247.5,-276.5 396.5,-276.5 396.5,-246.5 247.5,-246.5"/>
<text text-anchor="start" x="255.5" y="-264.5" font-family="Helvetica,sans-Serif" font-size="10.00">platform/e&#45;puck/remoteControl</text>
<text text-anchor="middle" x="322" y="-253.5" font-family="Helvetica,sans-Serif" font-size="10.00">_HDI.c</text>
</g>
<!-- Node2 -->
<g id="node2" class="node"><title>Node2</title>
<g id="a_node2"><a xlink:href="../../d8/d4a/remoteControl__HDI_8h.html" target="_top" xlink:title="Hardware dependent implementations to receive and decode messages from a remote control. ">
<polygon fill="white" stroke="black" points="226,-190.5 226,-209.5 336,-209.5 336,-190.5 226,-190.5"/>
<text text-anchor="middle" x="281" y="-197.5" font-family="Helvetica,sans-Serif" font-size="10.00">remoteControl_HDI.h</text>
</a>
</g>
</g>
<!-- Node1&#45;&gt;Node2 -->
<g id="edge1" class="edge"><title>Node1&#45;&gt;Node2</title>
<path fill="none" stroke="midnightblue" d="M312.284,-246.399C306.449,-237.932 298.984,-227.099 292.81,-218.139"/>
<polygon fill="midnightblue" stroke="midnightblue" points="295.522,-215.906 286.966,-209.658 289.758,-219.878 295.522,-215.906"/>
</g>
<!-- Node4 -->
<g id="node4" class="node"><title>Node4</title>
<g id="a_node4"><a xlink:href="../../d6/dc2/definitions_8h.html" target="_top" xlink:title="It declares general preprocessor variables and types. ">
<polygon fill="white" stroke="black" points="245.5,-134.5 245.5,-153.5 332.5,-153.5 332.5,-134.5 245.5,-134.5"/>
<text text-anchor="middle" x="289" y="-141.5" font-family="Helvetica,sans-Serif" font-size="10.00">../../definitions.h</text>
</a>
</g>
</g>
<!-- Node1&#45;&gt;Node4 -->
<g id="edge10" class="edge"><title>Node1&#45;&gt;Node4</title>
<path fill="none" stroke="midnightblue" d="M332.852,-246.302C342.552,-231.757 353.959,-208.692 345,-190 338.747,-176.954 326.664,-166.492 315.318,-158.951"/>
<polygon fill="midnightblue" stroke="midnightblue" points="316.854,-155.787 306.502,-153.535 313.191,-161.752 316.854,-155.787"/>
</g>
<!-- Node10 -->
<g id="node10" class="node"><title>Node10</title>
<g id="a_node10"><a xlink:href="../../d6/ded/interrupts_8h.html" target="_top" xlink:title="It declares interrupt priority levels and functions to create atomic sections. ">
<polygon fill="white" stroke="black" points="471.5,-190.5 471.5,-209.5 554.5,-209.5 554.5,-190.5 471.5,-190.5"/>
<text text-anchor="middle" x="513" y="-197.5" font-family="Helvetica,sans-Serif" font-size="10.00">../../interrupts.h</text>
</a>
</g>
</g>
<!-- Node1&#45;&gt;Node10 -->
<g id="edge11" class="edge"><title>Node1&#45;&gt;Node10</title>
<path fill="none" stroke="midnightblue" d="M367.264,-246.399C400.412,-236.073 444.847,-222.231 475.904,-212.556"/>
<polygon fill="midnightblue" stroke="midnightblue" points="476.98,-215.887 485.487,-209.571 474.898,-209.204 476.98,-215.887"/>
</g>
<!-- Node11 -->
<g id="node11" class="node"><title>Node11</title>
<g id="a_node11"><a xlink:href="../../dc/dac/io_8h.html" target="_top" xlink:title="It declares functions to control the IO timer and to (un)register IO Handler. ">
<polygon fill="white" stroke="black" points="392.5,-190.5 392.5,-209.5 453.5,-209.5 453.5,-190.5 392.5,-190.5"/>
<text text-anchor="middle" x="423" y="-197.5" font-family="Helvetica,sans-Serif" font-size="10.00">../../io/io.h</text>
</a>
</g>
</g>
<!-- Node1&#45;&gt;Node11 -->
<g id="edge12" class="edge"><title>Node1&#45;&gt;Node11</title>
<path fill="none" stroke="midnightblue" d="M345.936,-246.399C362.125,-236.862 383.407,-224.325 399.503,-214.842"/>
<polygon fill="midnightblue" stroke="midnightblue" points="401.464,-217.749 408.304,-209.658 397.911,-211.718 401.464,-217.749"/>
</g>
<!-- Node12 -->
<g id="node12" class="node"><title>Node12</title>
<g id="a_node12"><a xlink:href="../../d2/d2f/remoteControl_8h.html" target="_top" xlink:title="It declares functions to receive and decode messages from a remote control. ">
<polygon fill="white" stroke="black" points="122,-190.5 122,-209.5 208,-209.5 208,-190.5 122,-190.5"/>
<text text-anchor="middle" x="165" y="-197.5" font-family="Helvetica,sans-Serif" font-size="10.00">remoteControl.h</text>
</a>
</g>
</g>
<!-- Node1&#45;&gt;Node12 -->
<g id="edge14" class="edge"><title>Node1&#45;&gt;Node12</title>
<path fill="none" stroke="midnightblue" d="M284.793,-246.399C258.216,-236.327 222.811,-222.909 197.395,-213.277"/>
<polygon fill="midnightblue" stroke="midnightblue" points="198.436,-209.929 187.845,-209.658 195.956,-216.475 198.436,-209.929"/>
</g>
<!-- Node13 -->
<g id="node13" class="node"><title>Node13</title>
<g id="a_node13"><a xlink:href="../../db/dd2/events_8h.html" target="_top" xlink:title="declares functions to create, (un)subscribe, (un)register, and delete events and related handler...">
<polygon fill="white" stroke="black" points="0,-190.5 0,-209.5 104,-209.5 104,-190.5 0,-190.5"/>
<text text-anchor="middle" x="52" y="-197.5" font-family="Helvetica,sans-Serif" font-size="10.00">../../events/events.h</text>
</a>
</g>
</g>
<!-- Node1&#45;&gt;Node13 -->
<g id="edge17" class="edge"><title>Node1&#45;&gt;Node13</title>
<path fill="none" stroke="midnightblue" d="M258.356,-246.475C210.046,-235.829 144.629,-221.413 100.506,-211.689"/>
<polygon fill="midnightblue" stroke="midnightblue" points="101.119,-208.241 90.6003,-209.506 99.6128,-215.077 101.119,-208.241"/>
</g>
<!-- Node3 -->
<g id="node3" class="node"><title>Node3</title>
<polygon fill="white" stroke="#bfbfbf" points="71,-73 71,-92 127,-92 127,-73 71,-73"/>
<text text-anchor="middle" x="99" y="-80" font-family="Helvetica,sans-Serif" font-size="10.00">stdbool.h</text>
</g>
<!-- Node2&#45;&gt;Node3 -->
<g id="edge2" class="edge"><title>Node2&#45;&gt;Node3</title>
<path fill="none" stroke="midnightblue" d="M267.32,-190.319C236.227,-170.586 159.98,-122.199 121.702,-97.9068"/>
<polygon fill="midnightblue" stroke="midnightblue" points="123.157,-94.6851 112.838,-92.282 119.406,-100.595 123.157,-94.6851"/>
</g>
<!-- Node2&#45;&gt;Node4 -->
<g id="edge3" class="edge"><title>Node2&#45;&gt;Node4</title>
<path fill="none" stroke="midnightblue" d="M282.321,-190.083C283.381,-182.927 284.906,-172.635 286.231,-163.691"/>
<polygon fill="midnightblue" stroke="midnightblue" points="289.7,-164.156 287.704,-153.751 282.776,-163.13 289.7,-164.156"/>
</g>
<!-- Node4&#45;&gt;Node3 -->
<g id="edge4" class="edge"><title>Node4&#45;&gt;Node3</title>
<path fill="none" stroke="midnightblue" d="M257.098,-134.493C225.969,-125.988 177.389,-112.166 136,-98 133.879,-97.2739 131.699,-96.4984 129.511,-95.6979"/>
<polygon fill="midnightblue" stroke="midnightblue" points="130.605,-92.3696 120.014,-92.1026 128.127,-98.9163 130.605,-92.3696"/>
</g>
<!-- Node5 -->
<g id="node5" class="node"><title>Node5</title>
<polygon fill="white" stroke="#bfbfbf" points="319.5,-73 319.5,-92 368.5,-92 368.5,-73 319.5,-73"/>
<text text-anchor="middle" x="344" y="-80" font-family="Helvetica,sans-Serif" font-size="10.00">stdint.h</text>
</g>
<!-- Node4&#45;&gt;Node5 -->
<g id="edge5" class="edge"><title>Node4&#45;&gt;Node5</title>
<path fill="none" stroke="midnightblue" d="M296.88,-134.475C305.294,-125.373 318.819,-110.741 329.226,-99.483"/>
<polygon fill="midnightblue" stroke="midnightblue" points="331.917,-101.728 336.134,-92.0091 326.776,-96.9766 331.917,-101.728"/>
</g>
<!-- Node6 -->
<g id="node6" class="node"><title>Node6</title>
<polygon fill="white" stroke="#bfbfbf" points="387,-73 387,-92 461,-92 461,-73 387,-73"/>
<text text-anchor="middle" x="424" y="-80" font-family="Helvetica,sans-Serif" font-size="10.00">p30F6014A.h</text>
</g>
<!-- Node4&#45;&gt;Node6 -->
<g id="edge6" class="edge"><title>Node4&#45;&gt;Node6</title>
<path fill="none" stroke="midnightblue" d="M308.342,-134.475C331.099,-124.445 369.092,-107.7 395.288,-96.1546"/>
<polygon fill="midnightblue" stroke="midnightblue" points="396.955,-99.2449 404.694,-92.0091 394.131,-92.8395 396.955,-99.2449"/>
</g>
<!-- Node7 -->
<g id="node7" class="node"><title>Node7</title>
<polygon fill="white" stroke="#bfbfbf" points="479.5,-67.5 479.5,-97.5 616.5,-97.5 616.5,-67.5 479.5,-67.5"/>
<text text-anchor="start" x="487.5" y="-85.5" font-family="Helvetica,sans-Serif" font-size="10.00">platform/e&#45;puck/library</text>
<text text-anchor="middle" x="548" y="-74.5" font-family="Helvetica,sans-Serif" font-size="10.00">/motor_led/e_epuck_ports.h</text>
</g>
<!-- Node4&#45;&gt;Node7 -->
<g id="edge7" class="edge"><title>Node4&#45;&gt;Node7</title>
<path fill="none" stroke="midnightblue" d="M326.108,-134.475C365.366,-125.456 428.261,-111.008 477.081,-99.7921"/>
<polygon fill="midnightblue" stroke="midnightblue" points="477.996,-103.173 486.959,-97.523 476.429,-96.3509 477.996,-103.173"/>
</g>
<!-- Node8 -->
<g id="node8" class="node"><title>Node8</title>
<g id="a_node8"><a xlink:href="../../d9/d1f/DSPIC30F6014A__HDI_8h.html" target="_top" xlink:title="declares e&#45;puck specific types and preprocessor variables ">
<polygon fill="white" stroke="black" points="145,-67.5 145,-97.5 301,-97.5 301,-67.5 145,-67.5"/>
<text text-anchor="start" x="153" y="-85.5" font-family="Helvetica,sans-Serif" font-size="10.00">platform/e&#45;puck/DSPIC30F6014</text>
<text text-anchor="middle" x="223" y="-74.5" font-family="Helvetica,sans-Serif" font-size="10.00">A_HDI.h</text>
</a>
</g>
</g>
<!-- Node4&#45;&gt;Node8 -->
<g id="edge8" class="edge"><title>Node4&#45;&gt;Node8</title>
<path fill="none" stroke="midnightblue" d="M279.544,-134.475C270.856,-126.643 257.624,-114.714 246.145,-104.366"/>
<polygon fill="midnightblue" stroke="midnightblue" points="248.326,-101.619 238.555,-97.523 243.639,-106.818 248.326,-101.619"/>
</g>
<!-- Node9 -->
<g id="node9" class="node"><title>Node9</title>
<polygon fill="white" stroke="#bfbfbf" points="174.5,-0.5 174.5,-30.5 271.5,-30.5 271.5,-0.5 174.5,-0.5"/>
<text text-anchor="start" x="182.5" y="-18.5" font-family="Helvetica,sans-Serif" font-size="10.00">library/motor_led/e</text>
<text text-anchor="middle" x="223" y="-7.5" font-family="Helvetica,sans-Serif" font-size="10.00">_epuck_ports.h</text>
</g>
<!-- Node8&#45;&gt;Node9 -->
<g id="edge9" class="edge"><title>Node8&#45;&gt;Node9</title>
<path fill="none" stroke="midnightblue" d="M223,-67.396C223,-59.6448 223,-49.8122 223,-40.8601"/>
<polygon fill="midnightblue" stroke="midnightblue" points="226.5,-40.5765 223,-30.5765 219.5,-40.5765 226.5,-40.5765"/>
</g>
<!-- Node11&#45;&gt;Node4 -->
<g id="edge13" class="edge"><title>Node11&#45;&gt;Node4</title>
<path fill="none" stroke="midnightblue" d="M401.767,-190.444C379.616,-181.517 344.681,-167.439 319.564,-157.317"/>
<polygon fill="midnightblue" stroke="midnightblue" points="320.717,-154.008 310.133,-153.516 318.1,-160.501 320.717,-154.008"/>
</g>
<!-- Node12&#45;&gt;Node3 -->
<g id="edge15" class="edge"><title>Node12&#45;&gt;Node3</title>
<path fill="none" stroke="midnightblue" d="M160.039,-190.319C149.241,-171.422 123.428,-126.248 109.069,-101.121"/>
<polygon fill="midnightblue" stroke="midnightblue" points="112.019,-99.228 104.018,-92.282 105.941,-102.701 112.019,-99.228"/>
</g>
<!-- Node12&#45;&gt;Node4 -->
<g id="edge16" class="edge"><title>Node12&#45;&gt;Node4</title>
<path fill="none" stroke="midnightblue" d="M184.648,-190.444C204.965,-181.596 236.903,-167.687 260.098,-157.586"/>
<polygon fill="midnightblue" stroke="midnightblue" points="261.673,-160.718 269.444,-153.516 258.878,-154.3 261.673,-160.718"/>
</g>
<!-- Node13&#45;&gt;Node3 -->
<g id="edge18" class="edge"><title>Node13&#45;&gt;Node3</title>
<path fill="none" stroke="midnightblue" d="M55.5326,-190.319C63.154,-171.59 81.2801,-127.046 91.5564,-101.792"/>
<polygon fill="midnightblue" stroke="midnightblue" points="94.899,-102.864 95.4264,-92.282 88.4153,-100.225 94.899,-102.864"/>
</g>
<!-- Node13&#45;&gt;Node4 -->
<g id="edge19" class="edge"><title>Node13&#45;&gt;Node4</title>
<path fill="none" stroke="midnightblue" d="M89.5534,-190.444C130.811,-181.043 197.144,-165.929 241.866,-155.739"/>
<polygon fill="midnightblue" stroke="midnightblue" points="242.65,-159.151 251.622,-153.516 241.095,-152.326 242.65,-159.151"/>
</g>
</g>
</svg>
