<?xml version="1.0" encoding="UTF-8" standalone="no"?>
<!DOCTYPE svg PUBLIC "-//W3C//DTD SVG 1.1//EN"
 "http://www.w3.org/Graphics/SVG/1.1/DTD/svg11.dtd">
<!-- Generated by graphviz version 2.38.0 (20140413.2041)
 -->
<!-- Title: platform/e&#45;puck/uart_HDI.c Pages: 1 -->
<svg width="567pt" height="285pt"
 viewBox="0.00 0.00 566.81 285.00" xmlns="http://www.w3.org/2000/svg" xmlns:xlink="http://www.w3.org/1999/xlink">
<g id="graph0" class="graph" transform="scale(1 1) rotate(0) translate(4 281)">
<title>platform/e&#45;puck/uart_HDI.c</title>
<polygon fill="white" stroke="none" points="-4,4 -4,-281 562.811,-281 562.811,4 -4,4"/>
<!-- Node1 -->
<g id="node1" class="node"><title>Node1</title>
<polygon fill="#bfbfbf" stroke="black" points="133.311,-246.5 133.311,-276.5 237.311,-276.5 237.311,-246.5 133.311,-246.5"/>
<text text-anchor="start" x="141.311" y="-264.5" font-family="Helvetica,sans-Serif" font-size="10.00">platform/e&#45;puck/uart</text>
<text text-anchor="middle" x="185.311" y="-253.5" font-family="Helvetica,sans-Serif" font-size="10.00">_HDI.c</text>
</g>
<!-- Node2 -->
<g id="node2" class="node"><title>Node2</title>
<g id="a_node2"><a xlink:href="../../dc/d0b/uart__HDI_8h.html" target="_top" xlink:title="Hardware dependent implementations to transmit bytes via UART. ">
<polygon fill="white" stroke="black" points="395.811,-190.5 395.811,-209.5 460.811,-209.5 460.811,-190.5 395.811,-190.5"/>
<text text-anchor="middle" x="428.311" y="-197.5" font-family="Helvetica,sans-Serif" font-size="10.00">uart_HDI.h</text>
</a>
</g>
</g>
<!-- Node1&#45;&gt;Node2 -->
<g id="edge1" class="edge"><title>Node1&#45;&gt;Node2</title>
<path fill="none" stroke="midnightblue" d="M237.441,-247.736C281.759,-236.884 344.597,-221.498 385.89,-211.387"/>
<polygon fill="midnightblue" stroke="midnightblue" points="386.761,-214.777 395.642,-208.999 385.096,-207.978 386.761,-214.777"/>
</g>
<!-- Node6 -->
<g id="node6" class="node"><title>Node6</title>
<polygon fill="white" stroke="#bfbfbf" points="13.3112,-73 13.3112,-92 87.3112,-92 87.3112,-73 13.3112,-73"/>
<text text-anchor="middle" x="50.3112" y="-80" font-family="Helvetica,sans-Serif" font-size="10.00">p30F6014A.h</text>
</g>
<!-- Node1&#45;&gt;Node6 -->
<g id="edge9" class="edge"><title>Node1&#45;&gt;Node6</title>
<path fill="none" stroke="midnightblue" d="M133.296,-253.781C105.758,-247.337 74.0514,-234.717 56.3112,-210 33.3151,-177.96 39.5993,-128.714 45.4214,-102.104"/>
<polygon fill="midnightblue" stroke="midnightblue" points="48.8674,-102.743 47.8016,-92.2015 42.0613,-101.107 48.8674,-102.743"/>
</g>
<!-- Node9 -->
<g id="node9" class="node"><title>Node9</title>
<polygon fill="white" stroke="#bfbfbf" points="113.811,-0.5 113.811,-30.5 210.811,-30.5 210.811,-0.5 113.811,-0.5"/>
<text text-anchor="start" x="121.811" y="-18.5" font-family="Helvetica,sans-Serif" font-size="10.00">library/motor_led/e</text>
<text text-anchor="middle" x="162.311" y="-7.5" font-family="Helvetica,sans-Serif" font-size="10.00">_epuck_ports.h</text>
</g>
<!-- Node1&#45;&gt;Node9 -->
<g id="edge12" class="edge"><title>Node1&#45;&gt;Node9</title>
<path fill="none" stroke="midnightblue" d="M133.052,-253.303C103.249,-246.68 67.1917,-234.039 43.3112,-210 6.16336,-172.606 13.101,-149.971 4.31124,-98 2.01367,-84.4151 -3.81387,-78.127 4.31124,-67 26.8783,-36.0954 68.5885,-23.6677 103.488,-18.8621"/>
<polygon fill="midnightblue" stroke="midnightblue" points="104.086,-22.3155 113.599,-17.6513 103.254,-15.3652 104.086,-22.3155"/>
</g>
<!-- Node10 -->
<g id="node10" class="node"><title>Node10</title>
<polygon fill="white" stroke="#bfbfbf" points="161.311,-190.5 161.311,-209.5 209.311,-209.5 209.311,-190.5 161.311,-190.5"/>
<text text-anchor="middle" x="185.311" y="-197.5" font-family="Helvetica,sans-Serif" font-size="10.00">stdlib.h</text>
</g>
<!-- Node1&#45;&gt;Node10 -->
<g id="edge10" class="edge"><title>Node1&#45;&gt;Node10</title>
<path fill="none" stroke="midnightblue" d="M185.311,-246.399C185.311,-238.466 185.311,-228.458 185.311,-219.858"/>
<polygon fill="midnightblue" stroke="midnightblue" points="188.811,-219.658 185.311,-209.658 181.811,-219.658 188.811,-219.658"/>
</g>
<!-- Node11 -->
<g id="node11" class="node"><title>Node11</title>
<polygon fill="white" stroke="#bfbfbf" points="227.811,-190.5 227.811,-209.5 276.811,-209.5 276.811,-190.5 227.811,-190.5"/>
<text text-anchor="middle" x="252.311" y="-197.5" font-family="Helvetica,sans-Serif" font-size="10.00">string.h</text>
</g>
<!-- Node1&#45;&gt;Node11 -->
<g id="edge11" class="edge"><title>Node1&#45;&gt;Node11</title>
<path fill="none" stroke="midnightblue" d="M201.189,-246.399C211.327,-237.397 224.474,-225.721 234.897,-216.465"/>
<polygon fill="midnightblue" stroke="midnightblue" points="237.409,-218.915 242.562,-209.658 232.761,-213.681 237.409,-218.915"/>
</g>
<!-- Node12 -->
<g id="node12" class="node"><title>Node12</title>
<g id="a_node12"><a xlink:href="../../d6/ded/interrupts_8h.html" target="_top" xlink:title="It declares interrupt priority levels and functions to create atomic sections. ">
<polygon fill="white" stroke="black" points="294.811,-190.5 294.811,-209.5 377.811,-209.5 377.811,-190.5 294.811,-190.5"/>
<text text-anchor="middle" x="336.311" y="-197.5" font-family="Helvetica,sans-Serif" font-size="10.00">../../interrupts.h</text>
</a>
</g>
</g>
<!-- Node1&#45;&gt;Node12 -->
<g id="edge13" class="edge"><title>Node1&#45;&gt;Node12</title>
<path fill="none" stroke="midnightblue" d="M221.096,-246.399C246.544,-236.372 280.408,-223.028 304.83,-213.405"/>
<polygon fill="midnightblue" stroke="midnightblue" points="306.319,-216.58 314.339,-209.658 303.752,-210.068 306.319,-216.58"/>
</g>
<!-- Node13 -->
<g id="node13" class="node"><title>Node13</title>
<g id="a_node13"><a xlink:href="../../dc/d18/memory_8h.html" target="_top" xlink:title="It declares functions to allocate, free, and copy memory. ">
<polygon fill="white" stroke="black" points="65.3112,-190.5 65.3112,-209.5 143.311,-209.5 143.311,-190.5 65.3112,-190.5"/>
<text text-anchor="middle" x="104.311" y="-197.5" font-family="Helvetica,sans-Serif" font-size="10.00">../../memory.h</text>
</a>
</g>
</g>
<!-- Node1&#45;&gt;Node13 -->
<g id="edge14" class="edge"><title>Node1&#45;&gt;Node13</title>
<path fill="none" stroke="midnightblue" d="M166.115,-246.399C153.496,-237.129 137.018,-225.025 124.251,-215.647"/>
<polygon fill="midnightblue" stroke="midnightblue" points="126.229,-212.757 116.097,-209.658 122.085,-218.399 126.229,-212.757"/>
</g>
<!-- Node3 -->
<g id="node3" class="node"><title>Node3</title>
<g id="a_node3"><a xlink:href="../../d6/dc2/definitions_8h.html" target="_top" xlink:title="It declares general preprocessor variables and types. ">
<polygon fill="white" stroke="black" points="295.811,-134.5 295.811,-153.5 382.811,-153.5 382.811,-134.5 295.811,-134.5"/>
<text text-anchor="middle" x="339.311" y="-141.5" font-family="Helvetica,sans-Serif" font-size="10.00">../../definitions.h</text>
</a>
</g>
</g>
<!-- Node2&#45;&gt;Node3 -->
<g id="edge2" class="edge"><title>Node2&#45;&gt;Node3</title>
<path fill="none" stroke="midnightblue" d="M414.012,-190.324C400.128,-181.9 378.819,-168.971 362.508,-159.074"/>
<polygon fill="midnightblue" stroke="midnightblue" points="363.94,-155.85 353.575,-153.655 360.309,-161.834 363.94,-155.85"/>
</g>
<!-- Node4 -->
<g id="node4" class="node"><title>Node4</title>
<polygon fill="white" stroke="#bfbfbf" points="435.311,-73 435.311,-92 491.311,-92 491.311,-73 435.311,-73"/>
<text text-anchor="middle" x="463.311" y="-80" font-family="Helvetica,sans-Serif" font-size="10.00">stdbool.h</text>
</g>
<!-- Node3&#45;&gt;Node4 -->
<g id="edge3" class="edge"><title>Node3&#45;&gt;Node4</title>
<path fill="none" stroke="midnightblue" d="M357.077,-134.475C377.795,-124.534 412.263,-107.995 436.3,-96.461"/>
<polygon fill="midnightblue" stroke="midnightblue" points="438.076,-99.4908 445.578,-92.0091 435.048,-93.1797 438.076,-99.4908"/>
</g>
<!-- Node5 -->
<g id="node5" class="node"><title>Node5</title>
<polygon fill="white" stroke="#bfbfbf" points="509.811,-73 509.811,-92 558.811,-92 558.811,-73 509.811,-73"/>
<text text-anchor="middle" x="534.311" y="-80" font-family="Helvetica,sans-Serif" font-size="10.00">stdint.h</text>
</g>
<!-- Node3&#45;&gt;Node5 -->
<g id="edge4" class="edge"><title>Node3&#45;&gt;Node5</title>
<path fill="none" stroke="midnightblue" d="M374.899,-134.476C407.8,-126.262 457.869,-112.91 500.311,-98 502.173,-97.346 504.078,-96.6399 505.989,-95.9036"/>
<polygon fill="midnightblue" stroke="midnightblue" points="507.474,-99.0782 515.422,-92.0728 504.84,-92.5926 507.474,-99.0782"/>
</g>
<!-- Node3&#45;&gt;Node6 -->
<g id="edge5" class="edge"><title>Node3&#45;&gt;Node6</title>
<path fill="none" stroke="midnightblue" d="M295.509,-136.542C246.586,-128.948 165.211,-115.171 96.3112,-98 92.6855,-97.0964 88.926,-96.0673 85.1896,-94.9838"/>
<polygon fill="midnightblue" stroke="midnightblue" points="86.046,-91.5862 75.4608,-92.0377 84.0172,-98.2858 86.046,-91.5862"/>
</g>
<!-- Node7 -->
<g id="node7" class="node"><title>Node7</title>
<polygon fill="white" stroke="#bfbfbf" points="105.811,-67.5 105.811,-97.5 242.811,-97.5 242.811,-67.5 105.811,-67.5"/>
<text text-anchor="start" x="113.811" y="-85.5" font-family="Helvetica,sans-Serif" font-size="10.00">platform/e&#45;puck/library</text>
<text text-anchor="middle" x="174.311" y="-74.5" font-family="Helvetica,sans-Serif" font-size="10.00">/motor_led/e_epuck_ports.h</text>
</g>
<!-- Node3&#45;&gt;Node7 -->
<g id="edge6" class="edge"><title>Node3&#45;&gt;Node7</title>
<path fill="none" stroke="midnightblue" d="M315.671,-134.475C291.549,-125.776 253.418,-112.026 222.835,-100.998"/>
<polygon fill="midnightblue" stroke="midnightblue" points="223.793,-97.6228 213.198,-97.523 221.418,-104.208 223.793,-97.6228"/>
</g>
<!-- Node8 -->
<g id="node8" class="node"><title>Node8</title>
<g id="a_node8"><a xlink:href="../../d9/d1f/DSPIC30F6014A__HDI_8h.html" target="_top" xlink:title="declares e&#45;puck specific types and preprocessor variables ">
<polygon fill="white" stroke="black" points="261.311,-67.5 261.311,-97.5 417.311,-97.5 417.311,-67.5 261.311,-67.5"/>
<text text-anchor="start" x="269.311" y="-85.5" font-family="Helvetica,sans-Serif" font-size="10.00">platform/e&#45;puck/DSPIC30F6014</text>
<text text-anchor="middle" x="339.311" y="-74.5" font-family="Helvetica,sans-Serif" font-size="10.00">A_HDI.h</text>
</a>
</g>
</g>
<!-- Node3&#45;&gt;Node8 -->
<g id="edge7" class="edge"><title>Node3&#45;&gt;Node8</title>
<path fill="none" stroke="midnightblue" d="M339.311,-134.475C339.311,-127.471 339.311,-117.192 339.311,-107.696"/>
<polygon fill="midnightblue" stroke="midnightblue" points="342.811,-107.523 339.311,-97.523 335.811,-107.523 342.811,-107.523"/>
</g>
<!-- Node8&#45;&gt;Node9 -->
<g id="edge8" class="edge"><title>Node8&#45;&gt;Node9</title>
<path fill="none" stroke="midnightblue" d="M300.905,-67.396C274.347,-57.6432 238.816,-44.5949 210.379,-34.152"/>
<polygon fill="midnightblue" stroke="midnightblue" points="211.236,-30.7383 200.643,-30.5765 208.823,-37.3093 211.236,-30.7383"/>
</g>
<!-- Node13&#45;&gt;Node3 -->
<g id="edge15" class="edge"><title>Node13&#45;&gt;Node3</title>
<path fill="none" stroke="midnightblue" d="M141.548,-190.444C182.371,-181.063 247.954,-165.993 292.296,-155.804"/>
<polygon fill="midnightblue" stroke="midnightblue" points="293.287,-159.167 302.249,-153.516 291.719,-152.345 293.287,-159.167"/>
</g>
</g>
</svg>
