<?xml version="1.0" encoding="UTF-8" standalone="no"?>
<!DOCTYPE svg PUBLIC "-//W3C//DTD SVG 1.1//EN"
 "http://www.w3.org/Graphics/SVG/1.1/DTD/svg11.dtd">
<!-- Generated by graphviz version 2.38.0 (20140413.2041)
 -->
<!-- Title: interrupts.h Pages: 1 -->
<svg width="2040pt" height="95pt"
 viewBox="0.00 0.00 2040.00 95.00" xmlns="http://www.w3.org/2000/svg" xmlns:xlink="http://www.w3.org/1999/xlink">
<g id="graph0" class="graph" transform="scale(1 1) rotate(0) translate(4 91)">
<title>interrupts.h</title>
<polygon fill="white" stroke="none" points="-4,4 -4,-91 2036,-91 2036,4 -4,4"/>
<!-- Node1 -->
<g id="node1" class="node"><title>Node1</title>
<polygon fill="#bfbfbf" stroke="black" points="835,-67.5 835,-86.5 900,-86.5 900,-67.5 835,-67.5"/>
<text text-anchor="middle" x="867.5" y="-74.5" font-family="Helvetica,sans-Serif" font-size="10.00">interrupts.h</text>
</g>
<!-- Node2 -->
<g id="node2" class="node"><title>Node2</title>
<g id="a_node2"><a xlink:href="$d8/d22/interrupts_8c.html" xlink:title="It defines the functions to create atomic sections. ">
<polygon fill="white" stroke="black" points="0,-6 0,-25 65,-25 65,-6 0,-6"/>
<text text-anchor="middle" x="32.5" y="-13" font-family="Helvetica,sans-Serif" font-size="10.00">interrupts.c</text>
</a>
</g>
</g>
<!-- Node1&#45;&gt;Node2 -->
<g id="edge1" class="edge"><title>Node1&#45;&gt;Node2</title>
<path fill="none" stroke="midnightblue" d="M824.419,-75.1175C680.919,-71.9333 220.019,-59.6744 74.5,-31 67.537,-29.628 60.1544,-27.3694 53.553,-25.0387"/>
<polygon fill="midnightblue" stroke="midnightblue" points="824.512,-78.6202 834.586,-75.3396 824.665,-71.6219 824.512,-78.6202"/>
</g>
<!-- Node3 -->
<g id="node3" class="node"><title>Node3</title>
<g id="a_node3"><a xlink:href="$df/dd5/memory_8c.html" xlink:title="It defines functions to allocate, free, and copy memory. ">
<polygon fill="white" stroke="black" points="83.5,-6 83.5,-25 143.5,-25 143.5,-6 83.5,-6"/>
<text text-anchor="middle" x="113.5" y="-13" font-family="Helvetica,sans-Serif" font-size="10.00">memory.c</text>
</a>
</g>
</g>
<!-- Node1&#45;&gt;Node3 -->
<g id="edge2" class="edge"><title>Node1&#45;&gt;Node3</title>
<path fill="none" stroke="midnightblue" d="M824.692,-74.9475C690.936,-71.4007 282.058,-58.5338 152.5,-31 145.999,-29.6185 139.134,-27.3573 133.006,-25.027"/>
<polygon fill="midnightblue" stroke="midnightblue" points="824.854,-78.4528 834.942,-75.2152 825.037,-71.4552 824.854,-78.4528"/>
</g>
<!-- Node4 -->
<g id="node4" class="node"><title>Node4</title>
<g id="a_node4"><a xlink:href="$df/d0a/io_8c.html" xlink:title="It defines functions to control the IO timer and to (un)register IO Handler. ">
<polygon fill="white" stroke="black" points="162,-6 162,-25 205,-25 205,-6 162,-6"/>
<text text-anchor="middle" x="183.5" y="-13" font-family="Helvetica,sans-Serif" font-size="10.00">io/io.c</text>
</a>
</g>
</g>
<!-- Node1&#45;&gt;Node4 -->
<g id="edge3" class="edge"><title>Node1&#45;&gt;Node4</title>
<path fill="none" stroke="midnightblue" d="M824.94,-75.1037C699.143,-72.1335 330.602,-61.0365 214.5,-31 209.208,-29.6309 203.716,-27.3732 198.851,-25.0423"/>
<polygon fill="midnightblue" stroke="midnightblue" points="824.885,-78.6032 834.963,-75.3352 825.046,-71.6051 824.885,-78.6032"/>
</g>
<!-- Node5 -->
<g id="node5" class="node"><title>Node5</title>
<g id="a_node5"><a xlink:href="$d1/de0/camera_8c.html" xlink:title="It defines functions to process data retrieved by a camera. ">
<polygon fill="white" stroke="black" points="223.5,-6 223.5,-25 351.5,-25 351.5,-6 223.5,-6"/>
<text text-anchor="middle" x="287.5" y="-13" font-family="Helvetica,sans-Serif" font-size="10.00">platform/e&#45;puck/camera.c</text>
</a>
</g>
</g>
<!-- Node1&#45;&gt;Node5 -->
<g id="edge4" class="edge"><title>Node1&#45;&gt;Node5</title>
<path fill="none" stroke="midnightblue" d="M824.656,-73.7571C737.116,-68.8311 531.555,-55.5071 360.5,-31 349.372,-29.4057 337.377,-27.2204 326.389,-25.0299"/>
<polygon fill="midnightblue" stroke="midnightblue" points="824.558,-77.2569 834.737,-74.3163 824.946,-70.2676 824.558,-77.2569"/>
</g>
<!-- Node6 -->
<g id="node6" class="node"><title>Node6</title>
<g id="a_node6"><a xlink:href="$d9/dcb/i2c_8c.html" xlink:title="It defines functions to read and write on the I2C interface. ">
<polygon fill="white" stroke="black" points="369.5,-6 369.5,-25 477.5,-25 477.5,-6 369.5,-6"/>
<text text-anchor="middle" x="423.5" y="-13" font-family="Helvetica,sans-Serif" font-size="10.00">platform/e&#45;puck/i2c.c</text>
</a>
</g>
</g>
<!-- Node1&#45;&gt;Node6 -->
<g id="edge5" class="edge"><title>Node1&#45;&gt;Node6</title>
<path fill="none" stroke="midnightblue" d="M824.674,-72.4712C753.934,-66.3005 608.375,-52.1581 486.5,-31 476.99,-29.349 466.76,-27.1709 457.366,-25.0062"/>
<polygon fill="midnightblue" stroke="midnightblue" points="824.699,-75.9863 834.963,-73.3583 825.301,-69.0122 824.699,-75.9863"/>
</g>
<!-- Node7 -->
<g id="node7" class="node"><title>Node7</title>
<g id="a_node7"><a xlink:href="$d9/df1/i2c__HDI_8c.html" xlink:title="Hardware dependent implementations to read and write on the I2C interface. ">
<polygon fill="white" stroke="black" points="495.5,-0.5 495.5,-30.5 595.5,-30.5 595.5,-0.5 495.5,-0.5"/>
<text text-anchor="start" x="503.5" y="-18.5" font-family="Helvetica,sans-Serif" font-size="10.00">platform/e&#45;puck/i2c</text>
<text text-anchor="middle" x="545.5" y="-7.5" font-family="Helvetica,sans-Serif" font-size="10.00">_HDI.c</text>
</a>
</g>
</g>
<!-- Node1&#45;&gt;Node7 -->
<g id="edge6" class="edge"><title>Node1&#45;&gt;Node7</title>
<path fill="none" stroke="midnightblue" d="M825.076,-69.6978C772.944,-61.7336 681.88,-47.1071 604.5,-31 601.609,-30.3981 598.644,-29.7545 595.656,-29.0853"/>
<polygon fill="midnightblue" stroke="midnightblue" points="824.556,-73.1589 834.968,-71.2003 825.607,-66.2382 824.556,-73.1589"/>
</g>
<!-- Node8 -->
<g id="node8" class="node"><title>Node8</title>
<g id="a_node8"><a xlink:href="$d3/d87/io__HDI_8c.html" xlink:title="Hardware dependent implementations to control the IO timer and to (un)register IO Handler...">
<polygon fill="white" stroke="black" points="614,-0.5 614,-30.5 709,-30.5 709,-0.5 614,-0.5"/>
<text text-anchor="start" x="622" y="-18.5" font-family="Helvetica,sans-Serif" font-size="10.00">platform/e&#45;puck/io</text>
<text text-anchor="middle" x="661.5" y="-7.5" font-family="Helvetica,sans-Serif" font-size="10.00">_HDI.c</text>
</a>
</g>
</g>
<!-- Node1&#45;&gt;Node8 -->
<g id="edge7" class="edge"><title>Node1&#45;&gt;Node8</title>
<path fill="none" stroke="midnightblue" d="M827.993,-64.5889C794.143,-54.8121 745.294,-40.7028 709.258,-30.2942"/>
<polygon fill="midnightblue" stroke="midnightblue" points="827.407,-68.0627 837.985,-67.4751 829.349,-61.3376 827.407,-68.0627"/>
</g>
<!-- Node9 -->
<g id="node9" class="node"><title>Node9</title>
<g id="a_node9"><a xlink:href="$d2/d78/process__Management__HDI_8c.html" xlink:title="Hardware dependent implementations to manage processes (e.g. task swichting) ">
<polygon fill="white" stroke="black" points="727.5,-0.5 727.5,-30.5 849.5,-30.5 849.5,-0.5 727.5,-0.5"/>
<text text-anchor="start" x="735.5" y="-18.5" font-family="Helvetica,sans-Serif" font-size="10.00">platform/e&#45;puck/process</text>
<text text-anchor="middle" x="788.5" y="-7.5" font-family="Helvetica,sans-Serif" font-size="10.00">_Management_HDI.c</text>
</a>
</g>
</g>
<!-- Node1&#45;&gt;Node9 -->
<g id="edge8" class="edge"><title>Node1&#45;&gt;Node9</title>
<path fill="none" stroke="midnightblue" d="M847.844,-61.1955C835.386,-51.8129 819.371,-39.7512 807.119,-30.523"/>
<polygon fill="midnightblue" stroke="midnightblue" points="846.088,-64.2547 856.181,-67.4751 850.299,-58.6631 846.088,-64.2547"/>
</g>
<!-- Node10 -->
<g id="node10" class="node"><title>Node10</title>
<g id="a_node10"><a xlink:href="$d7/d92/remoteControl_8c.html" xlink:title="It defines functions to receive and decode messages from a remote control. ">
<polygon fill="white" stroke="black" points="868,-6 868,-25 1025,-25 1025,-6 868,-6"/>
<text text-anchor="middle" x="946.5" y="-13" font-family="Helvetica,sans-Serif" font-size="10.00">platform/e&#45;puck/remoteControl.c</text>
</a>
</g>
</g>
<!-- Node1&#45;&gt;Node10 -->
<g id="edge9" class="edge"><title>Node1&#45;&gt;Node10</title>
<path fill="none" stroke="midnightblue" d="M887.026,-61.2938C902.18,-49.8803 922.657,-34.4577 935.202,-25.0091"/>
<polygon fill="midnightblue" stroke="midnightblue" points="884.701,-58.6631 878.819,-67.4751 888.912,-64.2547 884.701,-58.6631"/>
</g>
<!-- Node11 -->
<g id="node11" class="node"><title>Node11</title>
<g id="a_node11"><a xlink:href="$d0/dae/remoteControl__HDI_8c.html" xlink:title="Hardware dependent implementations to receive and decode messages from a remote control. ">
<polygon fill="white" stroke="black" points="1043,-0.5 1043,-30.5 1192,-30.5 1192,-0.5 1043,-0.5"/>
<text text-anchor="start" x="1051" y="-18.5" font-family="Helvetica,sans-Serif" font-size="10.00">platform/e&#45;puck/remoteControl</text>
<text text-anchor="middle" x="1117.5" y="-7.5" font-family="Helvetica,sans-Serif" font-size="10.00">_HDI.c</text>
</a>
</g>
</g>
<!-- Node1&#45;&gt;Node11 -->
<g id="edge10" class="edge"><title>Node1&#45;&gt;Node11</title>
<path fill="none" stroke="midnightblue" d="M910.084,-65.865C950.91,-56.1483 1012.9,-41.3958 1058.48,-30.5477"/>
<polygon fill="midnightblue" stroke="midnightblue" points="909.101,-62.5011 900.183,-68.2214 910.722,-69.3109 909.101,-62.5011"/>
</g>
<!-- Node12 -->
<g id="node12" class="node"><title>Node12</title>
<g id="a_node12"><a xlink:href="$d7/de8/system__Timer__HDI_8c.html" xlink:title="Hardware dependent implementations to initialise, configure and run the system Timer. ">
<polygon fill="white" stroke="black" points="1210,-0.5 1210,-30.5 1329,-30.5 1329,-0.5 1210,-0.5"/>
<text text-anchor="start" x="1218" y="-18.5" font-family="Helvetica,sans-Serif" font-size="10.00">platform/e&#45;puck/system</text>
<text text-anchor="middle" x="1269.5" y="-7.5" font-family="Helvetica,sans-Serif" font-size="10.00">_Timer_HDI.c</text>
</a>
</g>
</g>
<!-- Node1&#45;&gt;Node12 -->
<g id="edge11" class="edge"><title>Node1&#45;&gt;Node12</title>
<path fill="none" stroke="midnightblue" d="M910.415,-71.2778C974.145,-64.0256 1097.47,-49.0717 1201.5,-31 1204.24,-30.5248 1207.03,-30.018 1209.85,-29.489"/>
<polygon fill="midnightblue" stroke="midnightblue" points="909.883,-67.8155 900.339,-72.4165 910.669,-74.7712 909.883,-67.8155"/>
</g>
<!-- Node13 -->
<g id="node13" class="node"><title>Node13</title>
<g id="a_node13"><a xlink:href="$d1/d87/uart_8c.html" xlink:title="It declares functions to transmit bytes via UART. ">
<polygon fill="white" stroke="black" points="1347.5,-6 1347.5,-25 1459.5,-25 1459.5,-6 1347.5,-6"/>
<text text-anchor="middle" x="1403.5" y="-13" font-family="Helvetica,sans-Serif" font-size="10.00">platform/e&#45;puck/uart.c</text>
</a>
</g>
</g>
<!-- Node1&#45;&gt;Node13 -->
<g id="edge12" class="edge"><title>Node1&#45;&gt;Node13</title>
<path fill="none" stroke="midnightblue" d="M910.283,-73.6974C993.271,-68.8372 1181.73,-55.876 1338.5,-31 1348.43,-29.4236 1359.12,-27.2439 1368.91,-25.0532"/>
<polygon fill="midnightblue" stroke="midnightblue" points="910.007,-70.2074 900.224,-74.2768 910.409,-77.1958 910.007,-70.2074"/>
</g>
<!-- Node14 -->
<g id="node14" class="node"><title>Node14</title>
<g id="a_node14"><a xlink:href="$da/d3a/uart__HDI_8c.html" xlink:title="Hardware dependent implementations to transmit bytes via UART. ">
<polygon fill="white" stroke="black" points="1477.5,-0.5 1477.5,-30.5 1581.5,-30.5 1581.5,-0.5 1477.5,-0.5"/>
<text text-anchor="start" x="1485.5" y="-18.5" font-family="Helvetica,sans-Serif" font-size="10.00">platform/e&#45;puck/uart</text>
<text text-anchor="middle" x="1529.5" y="-7.5" font-family="Helvetica,sans-Serif" font-size="10.00">_HDI.c</text>
</a>
</g>
</g>
<!-- Node1&#45;&gt;Node14 -->
<g id="edge13" class="edge"><title>Node1&#45;&gt;Node14</title>
<path fill="none" stroke="midnightblue" d="M910.486,-75.1181C1009.49,-72.5787 1261,-63.2212 1468.5,-31 1471.4,-30.549 1474.37,-30.0319 1477.36,-29.4675"/>
<polygon fill="midnightblue" stroke="midnightblue" points="910.192,-71.6242 900.281,-75.3693 910.365,-78.6221 910.192,-71.6242"/>
</g>
<!-- Node15 -->
<g id="node15" class="node"><title>Node15</title>
<g id="a_node15"><a xlink:href="$de/da9/data_8c.html" xlink:title="It defines functions to manage process lists and related structs. ">
<polygon fill="white" stroke="black" points="1599.5,-6 1599.5,-25 1691.5,-25 1691.5,-6 1599.5,-6"/>
<text text-anchor="middle" x="1645.5" y="-13" font-family="Helvetica,sans-Serif" font-size="10.00">processes/data.c</text>
</a>
</g>
</g>
<!-- Node1&#45;&gt;Node15 -->
<g id="edge14" class="edge"><title>Node1&#45;&gt;Node15</title>
<path fill="none" stroke="midnightblue" d="M910.427,-76.2433C1022.86,-76.2527 1334.91,-72.2382 1590.5,-31 1599.37,-29.5686 1608.89,-27.3227 1617.46,-25.0222"/>
<polygon fill="midnightblue" stroke="midnightblue" points="910.183,-72.7431 900.179,-76.2309 910.174,-79.7431 910.183,-72.7431"/>
</g>
<!-- Node16 -->
<g id="node16" class="node"><title>Node16</title>
<g id="a_node16"><a xlink:href="$da/d14/process__Management_8c.html" xlink:title="It defines functions to manage processes (e.g. task creation, switching, termination) ...">
<polygon fill="white" stroke="black" points="1710,-6 1710,-25 1879,-25 1879,-6 1710,-6"/>
<text text-anchor="middle" x="1794.5" y="-13" font-family="Helvetica,sans-Serif" font-size="10.00">processes/process_Management.c</text>
</a>
</g>
</g>
<!-- Node1&#45;&gt;Node16 -->
<g id="edge15" class="edge"><title>Node1&#45;&gt;Node16</title>
<path fill="none" stroke="midnightblue" d="M910.276,-75.1844C1033.35,-72.516 1398.86,-62.3349 1700.5,-31 1715.12,-29.4815 1730.93,-27.2663 1745.35,-25.0224"/>
<polygon fill="midnightblue" stroke="midnightblue" points="910.064,-71.688 900.14,-75.3989 910.212,-78.6864 910.064,-71.688"/>
</g>
<!-- Node17 -->
<g id="node17" class="node"><title>Node17</title>
<g id="a_node17"><a xlink:href="$de/dfb/system__Timer_8c.html" xlink:title="It defines functions to initialise, configure and run the system Timer. ">
<polygon fill="white" stroke="black" points="1897,-6 1897,-25 2032,-25 2032,-6 1897,-6"/>
<text text-anchor="middle" x="1964.5" y="-13" font-family="Helvetica,sans-Serif" font-size="10.00">processes/system_Timer.c</text>
</a>
</g>
</g>
<!-- Node1&#45;&gt;Node17 -->
<g id="edge16" class="edge"><title>Node1&#45;&gt;Node17</title>
<path fill="none" stroke="midnightblue" d="M910.619,-76.3216C1051.6,-76.8995 1511.5,-75.0386 1888.5,-31 1900.64,-29.5818 1913.75,-27.3396 1925.61,-25.0385"/>
<polygon fill="midnightblue" stroke="midnightblue" points="910.274,-72.82 900.257,-76.2722 910.24,-79.8199 910.274,-72.82"/>
</g>
</g>
</svg>
