<?xml version="1.0" encoding="UTF-8" standalone="no"?>
<!DOCTYPE svg PUBLIC "-//W3C//DTD SVG 1.1//EN"
 "http://www.w3.org/Graphics/SVG/1.1/DTD/svg11.dtd">
<!-- Generated by graphviz version 2.38.0 (20140413.2041)
 -->
<!-- Title: e&#45;puck specific modules Pages: 1 -->
<svg width="349pt" height="580pt"
 viewBox="0.00 0.00 349.00 579.64" xmlns="http://www.w3.org/2000/svg" xmlns:xlink="http://www.w3.org/1999/xlink">
<g id="graph0" class="graph" transform="scale(1 1) rotate(0) translate(4 575.638)">
<title>e&#45;puck specific modules</title>
<polygon fill="white" stroke="none" points="-4,4 -4,-575.638 345,-575.638 345,4 -4,4"/>
<!-- Node4 -->
<g id="node1" class="node"><title>Node4</title>
<g id="a_node1"><a xlink:href="../../db/d36/group__remotecontrol.html" target="_top" xlink:title="Functions to receive data from a remote control. ">
<polygon fill="white" stroke="black" points="253.5,-544.164 253.5,-563.164 339.5,-563.164 339.5,-544.164 253.5,-544.164"/>
<text text-anchor="middle" x="296.5" y="-551.164" font-family="Helvetica,sans-Serif" font-size="10.00">Remote Control</text>
</a>
</g>
</g>
<!-- Node0 -->
<g id="node2" class="node"><title>Node0</title>
<polygon fill="#bfbfbf" stroke="black" points="0,-351.164 0,-370.164 122,-370.164 122,-351.164 0,-351.164"/>
<text text-anchor="middle" x="61" y="-358.164" font-family="Helvetica,sans-Serif" font-size="10.00">e&#45;puck specific modules</text>
</g>
<!-- Node0&#45;&gt;Node4 -->
<g id="edge4" class="edge"><title>Node0&#45;&gt;Node4</title>
<path fill="none" stroke="black" d="M63.055,-380.176C66.4351,-420.911 80.6154,-514.535 140,-554.664 177.244,-579.831 231.82,-571.838 265.427,-563.173"/>
<polygon fill="black" stroke="black" points="66.5451,-379.91 62.3594,-370.177 59.5619,-380.396 66.5451,-379.91"/>
</g>
<!-- Node0&#45;&gt;Node4 -->
<g id="edge11" class="edge"><title>Node0&#45;&gt;Node4</title>
<path fill="none" stroke="darkgreen" stroke-dasharray="5,2" d="M64.117,-370.477C70.4413,-397.292 91.8227,-472.213 140,-508.664 174.062,-534.435 193.168,-516.128 234,-528.664 247.772,-532.892 262.758,-538.951 274.488,-544.046"/>
<text text-anchor="middle" x="187" y="-542.664" font-family="Helvetica,sans-Serif" font-size="10.00">remoteControl.c</text>
<text text-anchor="middle" x="187" y="-531.664" font-family="Helvetica,sans-Serif" font-size="10.00">remoteControl_HDI.c</text>
</g>
<!-- Node7 -->
<g id="node3" class="node"><title>Node7</title>
<g id="a_node3"><a xlink:href="../../d9/d96/group__shefpuck.html" target="_top" xlink:title="External set of functions to assist the programming of the e&#45;Puck. ">
<polygon fill="white" stroke="black" points="267.5,-490.164 267.5,-509.164 325.5,-509.164 325.5,-490.164 267.5,-490.164"/>
<text text-anchor="middle" x="296.5" y="-497.164" font-family="Helvetica,sans-Serif" font-size="10.00">Shefpuck</text>
</a>
</g>
</g>
<!-- Node0&#45;&gt;Node7 -->
<g id="edge9" class="edge"><title>Node0&#45;&gt;Node7</title>
<path fill="none" stroke="darkgreen" stroke-dasharray="5,2" d="M65.5229,-370.178C74.2909,-392.411 99.3606,-447.835 140,-473.664 160.675,-486.804 228.462,-494.28 267.37,-497.588"/>
<text text-anchor="middle" x="187" y="-496.664" font-family="Helvetica,sans-Serif" font-size="10.00">camera_processing.c</text>
</g>
<!-- Node8 -->
<g id="node4" class="node"><title>Node8</title>
<g id="a_node4"><a xlink:href="../../dd/df2/group__base.html" target="_top" xlink:title="OpenSwarm provides functions to start and initialise the operating system; allocate, free and copy memory; and create and end atomic sections. ">
<polygon fill="white" stroke="black" points="274.5,-452.164 274.5,-471.164 318.5,-471.164 318.5,-452.164 274.5,-452.164"/>
<text text-anchor="middle" x="296.5" y="-459.164" font-family="Helvetica,sans-Serif" font-size="10.00">Kernel</text>
</a>
</g>
</g>
<!-- Node0&#45;&gt;Node8 -->
<g id="edge12" class="edge"><title>Node0&#45;&gt;Node8</title>
<path fill="none" stroke="darkgreen" stroke-dasharray="5,2" d="M69.1893,-370.323C81.671,-386.324 109.003,-418.104 140,-433.664 184.25,-455.876 243.405,-460.685 274.449,-461.59"/>
<text text-anchor="middle" x="187" y="-461.664" font-family="Helvetica,sans-Serif" font-size="10.00">system_Timer_HDI.c</text>
</g>
<!-- Node1 -->
<g id="node5" class="node"><title>Node1</title>
<g id="a_node5"><a xlink:href="../../dc/d90/group__camera.html" target="_top" xlink:title="The camera module is used to retrieve raw camera data, process the incoming frames, and emits the result as events. ">
<polygon fill="white" stroke="black" points="253.5,-399.164 253.5,-418.164 339.5,-418.164 339.5,-399.164 253.5,-399.164"/>
<text text-anchor="middle" x="296.5" y="-406.164" font-family="Helvetica,sans-Serif" font-size="10.00">Camera Module</text>
</a>
</g>
</g>
<!-- Node0&#45;&gt;Node1 -->
<g id="edge1" class="edge"><title>Node0&#45;&gt;Node1</title>
<path fill="none" stroke="black" d="M78.7461,-377.525C93.452,-391.049 116.167,-408.994 140,-416.664 178.213,-428.961 224.417,-424.299 256.483,-418.216"/>
<polygon fill="black" stroke="black" points="81.0958,-374.93 71.444,-370.56 76.2643,-379.995 81.0958,-374.93"/>
</g>
<!-- Node0&#45;&gt;Node1 -->
<g id="edge7" class="edge"><title>Node0&#45;&gt;Node1</title>
<path fill="none" stroke="darkgreen" stroke-dasharray="5,2" d="M122.033,-369.443C155.224,-374.719 197.097,-382.073 234,-390.664 244.294,-393.06 255.417,-396.156 265.336,-399.103"/>
<text text-anchor="middle" x="187" y="-404.664" font-family="Helvetica,sans-Serif" font-size="10.00">camera.c</text>
<text text-anchor="middle" x="187" y="-393.664" font-family="Helvetica,sans-Serif" font-size="10.00">camera_processing.c</text>
</g>
<!-- Node5 -->
<g id="node6" class="node"><title>Node5</title>
<g id="a_node6"><a xlink:href="../../db/def/group__uart.html" target="_top" xlink:title="Functions to control the message flow of the UART interface. ">
<polygon fill="white" stroke="black" points="264,-332.164 264,-351.164 329,-351.164 329,-332.164 264,-332.164"/>
<text text-anchor="middle" x="296.5" y="-339.164" font-family="Helvetica,sans-Serif" font-size="10.00">UART 1&amp;2</text>
</a>
</g>
</g>
<!-- Node0&#45;&gt;Node5 -->
<g id="edge5" class="edge"><title>Node0&#45;&gt;Node5</title>
<path fill="none" stroke="black" d="M132.166,-354.954C175.982,-351.389 230.269,-346.971 263.897,-344.235"/>
<polygon fill="black" stroke="black" points="131.815,-351.471 122.132,-355.771 132.383,-358.448 131.815,-351.471"/>
</g>
<!-- Node0&#45;&gt;Node5 -->
<g id="edge13" class="edge"><title>Node0&#45;&gt;Node5</title>
<path fill="none" stroke="darkgreen" stroke-dasharray="5,2" d="M75.5807,-351.148C90.5511,-341.29 115.739,-326.522 140,-320.664 180.611,-310.858 192.786,-313.821 234,-320.664 247.356,-322.881 261.704,-327.634 273.179,-332.058"/>
<text text-anchor="middle" x="187" y="-334.664" font-family="Helvetica,sans-Serif" font-size="10.00">uart.c</text>
<text text-anchor="middle" x="187" y="-323.664" font-family="Helvetica,sans-Serif" font-size="10.00">uart_HDI.c</text>
</g>
<!-- Node2 -->
<g id="node7" class="node"><title>Node2</title>
<g id="a_node7"><a xlink:href="../../d3/df5/group__i2c.html" target="_top" xlink:title="Functions to read from and write on the I2C interface. ">
<polygon fill="white" stroke="black" points="260,-251.164 260,-270.164 333,-270.164 333,-251.164 260,-251.164"/>
<text text-anchor="middle" x="296.5" y="-258.164" font-family="Helvetica,sans-Serif" font-size="10.00">I2C interface</text>
</a>
</g>
</g>
<!-- Node0&#45;&gt;Node2 -->
<g id="edge2" class="edge"><title>Node0&#45;&gt;Node2</title>
<path fill="none" stroke="black" d="M82.508,-345.009C97.7294,-333.961 119.341,-319.444 140,-309.664 161.618,-299.429 222.461,-281.353 261.319,-270.249"/>
<polygon fill="black" stroke="black" points="80.2983,-342.29 74.3398,-351.05 84.4609,-347.918 80.2983,-342.29"/>
</g>
<!-- Node0&#45;&gt;Node2 -->
<g id="edge8" class="edge"><title>Node0&#45;&gt;Node2</title>
<path fill="none" stroke="darkgreen" stroke-dasharray="5,2" d="M64.2681,-351.149C70.8522,-325.937 92.5889,-257.507 140,-230.664 185.937,-204.654 250.437,-234.534 279.816,-251.099"/>
<text text-anchor="middle" x="187" y="-266.664" font-family="Helvetica,sans-Serif" font-size="10.00">camera_processing.c</text>
<text text-anchor="middle" x="187" y="-255.664" font-family="Helvetica,sans-Serif" font-size="10.00">i2c.c</text>
<text text-anchor="middle" x="187" y="-244.664" font-family="Helvetica,sans-Serif" font-size="10.00">i2c_data.c</text>
<text text-anchor="middle" x="187" y="-233.664" font-family="Helvetica,sans-Serif" font-size="10.00">i2c_HDI.c</text>
</g>
<!-- Node6 -->
<g id="node8" class="node"><title>Node6</title>
<g id="a_node8"><a xlink:href="../../d2/da3/group__io.html" target="_top" xlink:title="I/O Management controls the input (e.g. sensors or camera), output (e.g. motors), and communication (...">
<polygon fill="white" stroke="black" points="252,-78.1636 252,-97.1636 341,-97.1636 341,-78.1636 252,-78.1636"/>
<text text-anchor="middle" x="296.5" y="-85.1636" font-family="Helvetica,sans-Serif" font-size="10.00">I/O Management</text>
</a>
</g>
</g>
<!-- Node0&#45;&gt;Node6 -->
<g id="edge6" class="edge"><title>Node0&#45;&gt;Node6</title>
<path fill="none" stroke="darkgreen" stroke-dasharray="5,2" d="M63.3218,-351.087C69.5553,-307.436 97.4995,-128.009 140,-94.6636 173.167,-68.6411 223.655,-71.7342 258.038,-78.1213"/>
<text text-anchor="middle" x="187" y="-207.664" font-family="Helvetica,sans-Serif" font-size="10.00">camera.c</text>
<text text-anchor="middle" x="187" y="-196.664" font-family="Helvetica,sans-Serif" font-size="10.00">i2c.c</text>
<text text-anchor="middle" x="187" y="-185.664" font-family="Helvetica,sans-Serif" font-size="10.00">i2c_data.c</text>
<text text-anchor="middle" x="187" y="-174.664" font-family="Helvetica,sans-Serif" font-size="10.00">i2c_HDI.c</text>
<text text-anchor="middle" x="187" y="-163.664" font-family="Helvetica,sans-Serif" font-size="10.00">io_HDI.c</text>
<text text-anchor="middle" x="187" y="-152.664" font-family="Helvetica,sans-Serif" font-size="10.00">motors.c</text>
<text text-anchor="middle" x="187" y="-141.664" font-family="Helvetica,sans-Serif" font-size="10.00">motors_HDI.c</text>
<text text-anchor="middle" x="187" y="-130.664" font-family="Helvetica,sans-Serif" font-size="10.00">remoteControl.c</text>
<text text-anchor="middle" x="187" y="-119.664" font-family="Helvetica,sans-Serif" font-size="10.00">remoteControl_HDI.c</text>
<text text-anchor="middle" x="187" y="-108.664" font-family="Helvetica,sans-Serif" font-size="10.00">uart.c</text>
<text text-anchor="middle" x="187" y="-97.6636" font-family="Helvetica,sans-Serif" font-size="10.00">...</text>
</g>
<!-- Node3 -->
<g id="node9" class="node"><title>Node3</title>
<g id="a_node9"><a xlink:href="../../dd/daa/group__motors.html" target="_top" xlink:title="Functions to control the two stepper motors of the e&#45;puck. ">
<polygon fill="white" stroke="black" points="258.5,-24.1636 258.5,-43.1636 334.5,-43.1636 334.5,-24.1636 258.5,-24.1636"/>
<text text-anchor="middle" x="296.5" y="-31.1636" font-family="Helvetica,sans-Serif" font-size="10.00">Motor Control</text>
</a>
</g>
</g>
<!-- Node0&#45;&gt;Node3 -->
<g id="edge3" class="edge"><title>Node0&#45;&gt;Node3</title>
<path fill="none" stroke="black" d="M64.6564,-340.747C72.9555,-281.496 100.24,-108.08 140,-69.6636 156.64,-53.586 217.743,-43.1648 258.218,-37.862"/>
<polygon fill="black" stroke="black" points="61.1414,-340.618 63.2517,-351.001 68.0766,-341.569 61.1414,-340.618"/>
</g>
<!-- Node0&#45;&gt;Node3 -->
<g id="edge10" class="edge"><title>Node0&#45;&gt;Node3</title>
<path fill="none" stroke="darkgreen" stroke-dasharray="5,2" d="M62.6095,-351.092C66.0828,-299.934 85.193,-59.4627 140,-15.6636 180.125,16.4025 245.76,-8.69005 277.367,-24.0209"/>
<text text-anchor="middle" x="187" y="-29.6636" font-family="Helvetica,sans-Serif" font-size="10.00">motors.c</text>
<text text-anchor="middle" x="187" y="-18.6636" font-family="Helvetica,sans-Serif" font-size="10.00">motors_HDI.c</text>
</g>
</g>
</svg>
