<?xml version="1.0" encoding="UTF-8" standalone="no"?>
<!DOCTYPE svg PUBLIC "-//W3C//DTD SVG 1.1//EN"
 "http://www.w3.org/Graphics/SVG/1.1/DTD/svg11.dtd">
<!-- Generated by graphviz version 2.38.0 (20140413.2041)
 -->
<!-- Title: e&#45;puck specific modules Pages: 1 -->
<svg width="252pt" height="180pt"
 viewBox="0.00 0.00 252.00 180.00" xmlns="http://www.w3.org/2000/svg" xmlns:xlink="http://www.w3.org/1999/xlink">
<g id="graph0" class="graph" transform="scale(1 1) rotate(0) translate(4 176)">
<title>e&#45;puck specific modules</title>
<polygon fill="white" stroke="none" points="-4,4 -4,-176 248,-176 248,4 -4,4"/>
<!-- Node4 -->
<g id="node1" class="node"><title>Node4</title>
<g id="a_node1"><a xlink:href="../../db/d36/group__remotecontrol.html" target="_top" xlink:title="Functions to receive data from a remote control. ">
<polygon fill="white" stroke="black" points="158,-152.5 158,-171.5 244,-171.5 244,-152.5 158,-152.5"/>
<text text-anchor="middle" x="201" y="-159.5" font-family="Helvetica,sans-Serif" font-size="10.00">Remote Control</text>
</a>
</g>
</g>
<!-- Node0 -->
<g id="node2" class="node"><title>Node0</title>
<polygon fill="#bfbfbf" stroke="black" points="0,-76.5 0,-95.5 122,-95.5 122,-76.5 0,-76.5"/>
<text text-anchor="middle" x="61" y="-83.5" font-family="Helvetica,sans-Serif" font-size="10.00">e&#45;puck specific modules</text>
</g>
<!-- Node0&#45;&gt;Node4 -->
<g id="edge4" class="edge"><title>Node0&#45;&gt;Node4</title>
<path fill="none" stroke="black" d="M85.6663,-101.052C104.846,-113.005 132.739,-129.839 158,-143 164.246,-146.254 171.161,-149.516 177.546,-152.396"/>
<polygon fill="black" stroke="black" points="87.3313,-97.9647 77.0006,-95.6137 83.6103,-103.894 87.3313,-97.9647"/>
</g>
<!-- Node1 -->
<g id="node3" class="node"><title>Node1</title>
<g id="a_node3"><a xlink:href="../../dc/d90/group__camera.html" target="_top" xlink:title="The camera module is used to retrieve raw camera data, process the incoming frames, and emits the result as events. ">
<polygon fill="white" stroke="black" points="158,-114.5 158,-133.5 244,-133.5 244,-114.5 158,-114.5"/>
<text text-anchor="middle" x="201" y="-121.5" font-family="Helvetica,sans-Serif" font-size="10.00">Camera Module</text>
</a>
</g>
</g>
<!-- Node0&#45;&gt;Node1 -->
<g id="edge1" class="edge"><title>Node0&#45;&gt;Node1</title>
<path fill="none" stroke="black" d="M106.473,-98.2462C125.495,-103.484 147.375,-109.509 165.188,-114.414"/>
<polygon fill="black" stroke="black" points="107.394,-94.8695 96.8232,-95.589 105.535,-101.618 107.394,-94.8695"/>
</g>
<!-- Node5 -->
<g id="node4" class="node"><title>Node5</title>
<g id="a_node4"><a xlink:href="../../db/def/group__uart.html" target="_top" xlink:title="Functions to control the message flow of the UART interface. ">
<polygon fill="white" stroke="black" points="168.5,-76.5 168.5,-95.5 233.5,-95.5 233.5,-76.5 168.5,-76.5"/>
<text text-anchor="middle" x="201" y="-83.5" font-family="Helvetica,sans-Serif" font-size="10.00">UART 1&amp;2</text>
</a>
</g>
</g>
<!-- Node0&#45;&gt;Node5 -->
<g id="edge5" class="edge"><title>Node0&#45;&gt;Node5</title>
<path fill="none" stroke="black" d="M132.293,-86C144.993,-86 157.635,-86 168.497,-86"/>
<polygon fill="black" stroke="black" points="132.127,-82.5001 122.127,-86 132.127,-89.5001 132.127,-82.5001"/>
</g>
<!-- Node2 -->
<g id="node5" class="node"><title>Node2</title>
<g id="a_node5"><a xlink:href="../../d3/df5/group__i2c.html" target="_top" xlink:title="Functions to read from and write on the I2C interface. ">
<polygon fill="white" stroke="black" points="164.5,-38.5 164.5,-57.5 237.5,-57.5 237.5,-38.5 164.5,-38.5"/>
<text text-anchor="middle" x="201" y="-45.5" font-family="Helvetica,sans-Serif" font-size="10.00">I2C interface</text>
</a>
</g>
</g>
<!-- Node0&#45;&gt;Node2 -->
<g id="edge2" class="edge"><title>Node0&#45;&gt;Node2</title>
<path fill="none" stroke="black" d="M106.473,-73.7538C125.495,-68.516 147.375,-62.4909 165.188,-57.5859"/>
<polygon fill="black" stroke="black" points="105.535,-70.3817 96.8232,-76.411 107.394,-77.1305 105.535,-70.3817"/>
</g>
<!-- Node3 -->
<g id="node6" class="node"><title>Node3</title>
<g id="a_node6"><a xlink:href="../../dd/daa/group__motors.html" target="_top" xlink:title="Functions to control the two stepper motors of the e&#45;puck. ">
<polygon fill="white" stroke="black" points="163,-0.5 163,-19.5 239,-19.5 239,-0.5 163,-0.5"/>
<text text-anchor="middle" x="201" y="-7.5" font-family="Helvetica,sans-Serif" font-size="10.00">Motor Control</text>
</a>
</g>
</g>
<!-- Node0&#45;&gt;Node3 -->
<g id="edge3" class="edge"><title>Node0&#45;&gt;Node3</title>
<path fill="none" stroke="black" d="M85.6663,-70.9481C104.846,-58.9951 132.739,-42.1615 158,-29 164.246,-25.7458 171.161,-22.4838 177.546,-19.6038"/>
<polygon fill="black" stroke="black" points="83.6103,-68.1061 77.0006,-76.3863 87.3313,-74.0353 83.6103,-68.1061"/>
</g>
</g>
</svg>
