<?xml version="1.0" encoding="UTF-8" standalone="no"?>
<!DOCTYPE svg PUBLIC "-//W3C//DTD SVG 1.1//EN"
 "http://www.w3.org/Graphics/SVG/1.1/DTD/svg11.dtd">
<!-- Generated by graphviz version 2.38.0 (20140413.2041)
 -->
<!-- Title: system.c Pages: 1 -->
<svg width="1190pt" height="341pt"
 viewBox="0.00 0.00 1190.00 341.00" xmlns="http://www.w3.org/2000/svg" xmlns:xlink="http://www.w3.org/1999/xlink">
<g id="graph0" class="graph" transform="scale(1 1) rotate(0) translate(4 337)">
<title>system.c</title>
<polygon fill="white" stroke="none" points="-4,4 -4,-337 1186,-337 1186,4 -4,4"/>
<!-- Node1 -->
<g id="node1" class="node"><title>Node1</title>
<polygon fill="#bfbfbf" stroke="black" points="483.5,-313.5 483.5,-332.5 540.5,-332.5 540.5,-313.5 483.5,-313.5"/>
<text text-anchor="middle" x="512" y="-320.5" font-family="Helvetica,sans-Serif" font-size="10.00">system.c</text>
</g>
<!-- Node2 -->
<g id="node2" class="node"><title>Node2</title>
<g id="a_node2"><a xlink:href="$d6/dc2/definitions_8h.html" xlink:title="It declares general preprocessor variables and types. ">
<polygon fill="white" stroke="black" points="300.5,-134.5 300.5,-153.5 369.5,-153.5 369.5,-134.5 300.5,-134.5"/>
<text text-anchor="middle" x="335" y="-141.5" font-family="Helvetica,sans-Serif" font-size="10.00">definitions.h</text>
</a>
</g>
</g>
<!-- Node1&#45;&gt;Node2 -->
<g id="edge1" class="edge"><title>Node1&#45;&gt;Node2</title>
<path fill="none" stroke="midnightblue" d="M510.57,-313.263C506.311,-289.958 491.587,-225.665 454,-190 433.581,-170.625 404.001,-159.388 379.441,-152.989"/>
<polygon fill="midnightblue" stroke="midnightblue" points="380.155,-149.561 369.613,-150.611 378.509,-156.364 380.155,-149.561"/>
</g>
<!-- Node3 -->
<g id="node3" class="node"><title>Node3</title>
<polygon fill="white" stroke="#bfbfbf" points="0,-73 0,-92 56,-92 56,-73 0,-73"/>
<text text-anchor="middle" x="28" y="-80" font-family="Helvetica,sans-Serif" font-size="10.00">stdbool.h</text>
</g>
<!-- Node1&#45;&gt;Node3 -->
<g id="edge29" class="edge"><title>Node1&#45;&gt;Node3</title>
<path fill="none" stroke="midnightblue" d="M483.493,-322.099C395.787,-321.955 131.468,-318.045 58,-277 25.3297,-258.748 19.9052,-245.128 7,-210 -1.59511,-186.604 4.66691,-178.916 4,-154 3.76216,-145.114 2.04435,-142.671 4,-134 6.6312,-122.334 12.2885,-110.2 17.4498,-100.751"/>
<polygon fill="midnightblue" stroke="midnightblue" points="20.5291,-102.417 22.5013,-92.0078 14.468,-98.9155 20.5291,-102.417"/>
</g>
<!-- Node9 -->
<g id="node9" class="node"><title>Node9</title>
<g id="a_node9"><a xlink:href="$dc/db2/system_8h.html" xlink:title="It declares functions to initialise and start OpenSwarm. ">
<polygon fill="white" stroke="black" points="502.5,-190.5 502.5,-209.5 559.5,-209.5 559.5,-190.5 502.5,-190.5"/>
<text text-anchor="middle" x="531" y="-197.5" font-family="Helvetica,sans-Serif" font-size="10.00">system.h</text>
</a>
</g>
</g>
<!-- Node1&#45;&gt;Node9 -->
<g id="edge8" class="edge"><title>Node1&#45;&gt;Node9</title>
<path fill="none" stroke="midnightblue" d="M513.366,-313.298C516.434,-293.763 523.924,-246.065 528.088,-219.547"/>
<polygon fill="midnightblue" stroke="midnightblue" points="531.552,-220.045 529.646,-209.623 524.637,-218.959 531.552,-220.045"/>
</g>
<!-- Node10 -->
<g id="node10" class="node"><title>Node10</title>
<g id="a_node10"><a xlink:href="$df/dbf/system__Timer_8h.html" xlink:title="It declares functions to initialise, configure and run the system Timer. ">
<polygon fill="white" stroke="black" points="577.5,-190.5 577.5,-209.5 712.5,-209.5 712.5,-190.5 577.5,-190.5"/>
<text text-anchor="middle" x="645" y="-197.5" font-family="Helvetica,sans-Serif" font-size="10.00">processes/system_Timer.h</text>
</a>
</g>
</g>
<!-- Node1&#45;&gt;Node10 -->
<g id="edge10" class="edge"><title>Node1&#45;&gt;Node10</title>
<path fill="none" stroke="midnightblue" d="M517.18,-313.165C526.364,-298.038 546.741,-266.801 570,-246 584.113,-233.378 602.27,-222.377 617.184,-214.411"/>
<polygon fill="midnightblue" stroke="midnightblue" points="619.164,-217.328 626.441,-209.628 615.951,-211.109 619.164,-217.328"/>
</g>
<!-- Node11 -->
<g id="node11" class="node"><title>Node11</title>
<g id="a_node11"><a xlink:href="$d2/dd8/scheduler_8h.html" xlink:title="It declares functions to specify a scheduling algorithm. ">
<polygon fill="white" stroke="black" points="180.5,-190.5 180.5,-209.5 295.5,-209.5 295.5,-190.5 180.5,-190.5"/>
<text text-anchor="middle" x="238" y="-197.5" font-family="Helvetica,sans-Serif" font-size="10.00">processes/scheduler.h</text>
</a>
</g>
</g>
<!-- Node1&#45;&gt;Node11 -->
<g id="edge12" class="edge"><title>Node1&#45;&gt;Node11</title>
<path fill="none" stroke="midnightblue" d="M485.741,-313.378C460.601,-304.893 421.762,-291.181 389,-277 343.508,-257.308 292.312,-230.517 262.743,-214.566"/>
<polygon fill="midnightblue" stroke="midnightblue" points="264.043,-211.29 253.584,-209.599 260.706,-217.443 264.043,-211.29"/>
</g>
<!-- Node12 -->
<g id="node12" class="node"><title>Node12</title>
<g id="a_node12"><a xlink:href="$dd/de5/process__Management_8h.html" xlink:title="It declares functions to manage processes (e.g. task creation, switching, termination) ...">
<polygon fill="white" stroke="black" points="67.5,-252 67.5,-271 236.5,-271 236.5,-252 67.5,-252"/>
<text text-anchor="middle" x="152" y="-259" font-family="Helvetica,sans-Serif" font-size="10.00">processes/process_Management.h</text>
</a>
</g>
</g>
<!-- Node1&#45;&gt;Node12 -->
<g id="edge14" class="edge"><title>Node1&#45;&gt;Node12</title>
<path fill="none" stroke="midnightblue" d="M483.45,-317.281C425.437,-307.693 292.616,-285.741 213.853,-272.723"/>
<polygon fill="midnightblue" stroke="midnightblue" points="214.019,-269.203 203.583,-271.025 212.878,-276.109 214.019,-269.203"/>
</g>
<!-- Node14 -->
<g id="node14" class="node"><title>Node14</title>
<polygon fill="white" stroke="#bfbfbf" points="578.5,-246.5 578.5,-276.5 697.5,-276.5 697.5,-246.5 578.5,-246.5"/>
<text text-anchor="start" x="586.5" y="-264.5" font-family="Helvetica,sans-Serif" font-size="10.00">platform/e&#45;puck/library</text>
<text text-anchor="middle" x="638" y="-253.5" font-family="Helvetica,sans-Serif" font-size="10.00">/motor_led/e_init_port.h</text>
</g>
<!-- Node1&#45;&gt;Node14 -->
<g id="edge21" class="edge"><title>Node1&#45;&gt;Node14</title>
<path fill="none" stroke="midnightblue" d="M530.053,-313.475C547.995,-305.002 576.086,-291.737 599.114,-280.863"/>
<polygon fill="midnightblue" stroke="midnightblue" points="600.756,-283.958 608.304,-276.523 597.767,-277.628 600.756,-283.958"/>
</g>
<!-- Node15 -->
<g id="node15" class="node"><title>Node15</title>
<g id="a_node15"><a xlink:href="$dc/dac/io_8h.html" xlink:title="It declares functions to control the IO timer and to (un)register IO Handler. ">
<polygon fill="white" stroke="black" points="313.5,-190.5 313.5,-209.5 356.5,-209.5 356.5,-190.5 313.5,-190.5"/>
<text text-anchor="middle" x="335" y="-197.5" font-family="Helvetica,sans-Serif" font-size="10.00">io/io.h</text>
</a>
</g>
</g>
<!-- Node1&#45;&gt;Node15 -->
<g id="edge22" class="edge"><title>Node1&#45;&gt;Node15</title>
<path fill="none" stroke="midnightblue" d="M495.793,-313.462C479.752,-304.824 454.669,-290.809 434,-277 404.651,-257.392 372.569,-231.966 353.114,-216.065"/>
<polygon fill="midnightblue" stroke="midnightblue" points="355.302,-213.333 345.356,-209.682 350.854,-218.738 355.302,-213.333"/>
</g>
<!-- Node16 -->
<g id="node16" class="node"><title>Node16</title>
<g id="a_node16"><a xlink:href="$d9/ded/io__clock_8h.html" xlink:title="It declares the system clock that provides a continuous time value (granulation of 1 ms)...">
<polygon fill="white" stroke="black" points="374.5,-190.5 374.5,-209.5 445.5,-209.5 445.5,-190.5 374.5,-190.5"/>
<text text-anchor="middle" x="410" y="-197.5" font-family="Helvetica,sans-Serif" font-size="10.00">io/io_clock.h</text>
</a>
</g>
</g>
<!-- Node1&#45;&gt;Node16 -->
<g id="edge24" class="edge"><title>Node1&#45;&gt;Node16</title>
<path fill="none" stroke="midnightblue" d="M500.015,-313.177C488.9,-304.652 472.276,-291.006 460,-277 443.792,-258.508 428.806,-234.4 419.549,-218.345"/>
<polygon fill="midnightblue" stroke="midnightblue" points="422.528,-216.502 414.567,-209.512 416.431,-219.941 422.528,-216.502"/>
</g>
<!-- Node17 -->
<g id="node17" class="node"><title>Node17</title>
<polygon fill="white" stroke="#bfbfbf" points="716,-252 716,-271 814,-271 814,-252 716,-252"/>
<text text-anchor="middle" x="765" y="-259" font-family="Helvetica,sans-Serif" font-size="10.00">io/e&#45;puck/motors.h</text>
</g>
<!-- Node1&#45;&gt;Node17 -->
<g id="edge26" class="edge"><title>Node1&#45;&gt;Node17</title>
<path fill="none" stroke="midnightblue" d="M540.783,-315.53C578.862,-306.93 648.051,-291.169 707,-277 711.674,-275.877 716.555,-274.685 721.415,-273.487"/>
<polygon fill="midnightblue" stroke="midnightblue" points="722.426,-276.842 731.289,-271.038 720.74,-270.048 722.426,-276.842"/>
</g>
<!-- Node18 -->
<g id="node18" class="node"><title>Node18</title>
<polygon fill="white" stroke="#bfbfbf" points="832,-252 832,-271 916,-271 916,-252 832,-252"/>
<text text-anchor="middle" x="874" y="-259" font-family="Helvetica,sans-Serif" font-size="10.00">io/e&#45;puck/uart.h</text>
</g>
<!-- Node1&#45;&gt;Node18 -->
<g id="edge27" class="edge"><title>Node1&#45;&gt;Node18</title>
<path fill="none" stroke="midnightblue" d="M540.526,-319.16C595.554,-313.398 720.029,-298.985 823,-277 827.476,-276.044 832.137,-274.913 836.742,-273.71"/>
<polygon fill="midnightblue" stroke="midnightblue" points="837.919,-277.017 846.642,-271.004 836.073,-270.265 837.919,-277.017"/>
</g>
<!-- Node19 -->
<g id="node19" class="node"><title>Node19</title>
<polygon fill="white" stroke="#bfbfbf" points="934.5,-252 934.5,-271 1063.5,-271 1063.5,-252 934.5,-252"/>
<text text-anchor="middle" x="999" y="-259" font-family="Helvetica,sans-Serif" font-size="10.00">io/e&#45;puck/remoteControl.h</text>
</g>
<!-- Node1&#45;&gt;Node19 -->
<g id="edge28" class="edge"><title>Node1&#45;&gt;Node19</title>
<path fill="none" stroke="midnightblue" d="M540.649,-319.723C607.954,-314.189 781.321,-298.864 925,-277 932.735,-275.823 940.892,-274.405 948.852,-272.923"/>
<polygon fill="midnightblue" stroke="midnightblue" points="949.617,-276.34 958.782,-271.025 948.303,-269.465 949.617,-276.34"/>
</g>
<!-- Node20 -->
<g id="node20" class="node"><title>Node20</title>
<polygon fill="white" stroke="#bfbfbf" points="1082,-252 1082,-271 1182,-271 1182,-252 1082,-252"/>
<text text-anchor="middle" x="1132" y="-259" font-family="Helvetica,sans-Serif" font-size="10.00">io/e&#45;puck/camera.h</text>
</g>
<!-- Node1&#45;&gt;Node20 -->
<g id="edge30" class="edge"><title>Node1&#45;&gt;Node20</title>
<path fill="none" stroke="midnightblue" d="M540.506,-321.332C623.294,-319.044 870.691,-309.755 1073,-277 1078.94,-276.039 1085.16,-274.787 1091.24,-273.42"/>
<polygon fill="midnightblue" stroke="midnightblue" points="1092.34,-276.756 1101.27,-271.045 1090.73,-269.944 1092.34,-276.756"/>
</g>
<!-- Node2&#45;&gt;Node3 -->
<g id="edge2" class="edge"><title>Node2&#45;&gt;Node3</title>
<path fill="none" stroke="midnightblue" d="M300.38,-136.29C242.419,-125.057 126.192,-102.531 66.0305,-90.8707"/>
<polygon fill="midnightblue" stroke="midnightblue" points="66.6577,-87.4272 56.1744,-88.9605 65.3257,-94.2994 66.6577,-87.4272"/>
</g>
<!-- Node4 -->
<g id="node4" class="node"><title>Node4</title>
<polygon fill="white" stroke="#bfbfbf" points="560.5,-73 560.5,-92 609.5,-92 609.5,-73 560.5,-73"/>
<text text-anchor="middle" x="585" y="-80" font-family="Helvetica,sans-Serif" font-size="10.00">stdint.h</text>
</g>
<!-- Node2&#45;&gt;Node4 -->
<g id="edge3" class="edge"><title>Node2&#45;&gt;Node4</title>
<path fill="none" stroke="midnightblue" d="M369.579,-137.961C412.684,-131.188 488.324,-117.681 551,-98 553.139,-97.3283 555.327,-96.5699 557.512,-95.761"/>
<polygon fill="midnightblue" stroke="midnightblue" points="558.916,-98.9691 566.899,-92.0031 556.314,-92.4705 558.916,-98.9691"/>
</g>
<!-- Node5 -->
<g id="node5" class="node"><title>Node5</title>
<polygon fill="white" stroke="#bfbfbf" points="138,-73 138,-92 212,-92 212,-73 138,-73"/>
<text text-anchor="middle" x="175" y="-80" font-family="Helvetica,sans-Serif" font-size="10.00">p30F6014A.h</text>
</g>
<!-- Node2&#45;&gt;Node5 -->
<g id="edge4" class="edge"><title>Node2&#45;&gt;Node5</title>
<path fill="none" stroke="midnightblue" d="M312.076,-134.475C284.63,-124.269 238.484,-107.108 207.401,-95.5492"/>
<polygon fill="midnightblue" stroke="midnightblue" points="208.474,-92.2142 197.882,-92.0091 206.035,-98.7752 208.474,-92.2142"/>
</g>
<!-- Node6 -->
<g id="node6" class="node"><title>Node6</title>
<polygon fill="white" stroke="#bfbfbf" points="230.5,-67.5 230.5,-97.5 367.5,-97.5 367.5,-67.5 230.5,-67.5"/>
<text text-anchor="start" x="238.5" y="-85.5" font-family="Helvetica,sans-Serif" font-size="10.00">platform/e&#45;puck/library</text>
<text text-anchor="middle" x="299" y="-74.5" font-family="Helvetica,sans-Serif" font-size="10.00">/motor_led/e_epuck_ports.h</text>
</g>
<!-- Node2&#45;&gt;Node6 -->
<g id="edge5" class="edge"><title>Node2&#45;&gt;Node6</title>
<path fill="none" stroke="midnightblue" d="M329.842,-134.475C325.376,-127.094 318.711,-116.077 312.717,-106.171"/>
<polygon fill="midnightblue" stroke="midnightblue" points="315.656,-104.267 307.484,-97.523 309.667,-107.891 315.656,-104.267"/>
</g>
<!-- Node7 -->
<g id="node7" class="node"><title>Node7</title>
<g id="a_node7"><a xlink:href="$d9/d1f/DSPIC30F6014A__HDI_8h.html" xlink:title="declares e&#45;puck specific types and preprocessor variables ">
<polygon fill="white" stroke="black" points="386,-67.5 386,-97.5 542,-97.5 542,-67.5 386,-67.5"/>
<text text-anchor="start" x="394" y="-85.5" font-family="Helvetica,sans-Serif" font-size="10.00">platform/e&#45;puck/DSPIC30F6014</text>
<text text-anchor="middle" x="464" y="-74.5" font-family="Helvetica,sans-Serif" font-size="10.00">A_HDI.h</text>
</a>
</g>
</g>
<!-- Node2&#45;&gt;Node7 -->
<g id="edge6" class="edge"><title>Node2&#45;&gt;Node7</title>
<path fill="none" stroke="midnightblue" d="M353.483,-134.475C371.934,-125.965 400.867,-112.619 424.502,-101.718"/>
<polygon fill="midnightblue" stroke="midnightblue" points="425.983,-104.89 433.597,-97.523 423.051,-98.5332 425.983,-104.89"/>
</g>
<!-- Node8 -->
<g id="node8" class="node"><title>Node8</title>
<polygon fill="white" stroke="#bfbfbf" points="415.5,-0.5 415.5,-30.5 512.5,-30.5 512.5,-0.5 415.5,-0.5"/>
<text text-anchor="start" x="423.5" y="-18.5" font-family="Helvetica,sans-Serif" font-size="10.00">library/motor_led/e</text>
<text text-anchor="middle" x="464" y="-7.5" font-family="Helvetica,sans-Serif" font-size="10.00">_epuck_ports.h</text>
</g>
<!-- Node7&#45;&gt;Node8 -->
<g id="edge7" class="edge"><title>Node7&#45;&gt;Node8</title>
<path fill="none" stroke="midnightblue" d="M464,-67.396C464,-59.6448 464,-49.8122 464,-40.8601"/>
<polygon fill="midnightblue" stroke="midnightblue" points="467.5,-40.5765 464,-30.5765 460.5,-40.5765 467.5,-40.5765"/>
</g>
<!-- Node9&#45;&gt;Node2 -->
<g id="edge9" class="edge"><title>Node9&#45;&gt;Node2</title>
<path fill="none" stroke="midnightblue" d="M502.5,-191.148C469.168,-181.965 413.735,-166.692 375.838,-156.251"/>
<polygon fill="midnightblue" stroke="midnightblue" points="376.697,-152.858 366.126,-153.576 374.837,-159.606 376.697,-152.858"/>
</g>
<!-- Node10&#45;&gt;Node2 -->
<g id="edge11" class="edge"><title>Node10&#45;&gt;Node2</title>
<path fill="none" stroke="midnightblue" d="M595.88,-190.444C536.45,-180.091 437.242,-162.81 379.815,-152.807"/>
<polygon fill="midnightblue" stroke="midnightblue" points="380.393,-149.355 369.941,-151.086 379.192,-156.251 380.393,-149.355"/>
</g>
<!-- Node11&#45;&gt;Node2 -->
<g id="edge13" class="edge"><title>Node11&#45;&gt;Node2</title>
<path fill="none" stroke="midnightblue" d="M253.585,-190.324C268.999,-181.743 292.812,-168.486 310.71,-158.522"/>
<polygon fill="midnightblue" stroke="midnightblue" points="312.419,-161.577 319.454,-153.655 309.014,-155.461 312.419,-161.577"/>
</g>
<!-- Node12&#45;&gt;Node2 -->
<g id="edge16" class="edge"><title>Node12&#45;&gt;Node2</title>
<path fill="none" stroke="midnightblue" d="M151.751,-251.795C151.821,-236.994 154.187,-206.89 171,-190 202.32,-158.537 253.426,-148.51 290.27,-145.592"/>
<polygon fill="midnightblue" stroke="midnightblue" points="290.503,-149.084 300.255,-144.945 290.05,-142.098 290.503,-149.084"/>
</g>
<!-- Node12&#45;&gt;Node3 -->
<g id="edge15" class="edge"><title>Node12&#45;&gt;Node3</title>
<path fill="none" stroke="midnightblue" d="M87.3146,-251.968C61.6417,-245.057 34.5694,-232.566 19,-210 -3.52865,-177.348 10.1127,-127.996 20.1699,-101.625"/>
<polygon fill="midnightblue" stroke="midnightblue" points="23.5027,-102.72 24.0188,-92.1379 17.0162,-100.089 23.5027,-102.72"/>
</g>
<!-- Node12&#45;&gt;Node11 -->
<g id="edge20" class="edge"><title>Node12&#45;&gt;Node11</title>
<path fill="none" stroke="midnightblue" d="M164.322,-251.975C178.116,-242.431 200.699,-226.807 217.232,-215.368"/>
<polygon fill="midnightblue" stroke="midnightblue" points="219.469,-218.077 225.701,-209.509 215.486,-212.32 219.469,-218.077"/>
</g>
<!-- Node13 -->
<g id="node13" class="node"><title>Node13</title>
<g id="a_node13"><a xlink:href="$db/dd2/events_8h.html" xlink:title="declares functions to create, (un)subscribe, (un)register, and delete events and related handler...">
<polygon fill="white" stroke="black" points="28.5,-190.5 28.5,-209.5 123.5,-209.5 123.5,-190.5 28.5,-190.5"/>
<text text-anchor="middle" x="76" y="-197.5" font-family="Helvetica,sans-Serif" font-size="10.00">../events/events.h</text>
</a>
</g>
</g>
<!-- Node12&#45;&gt;Node13 -->
<g id="edge17" class="edge"><title>Node12&#45;&gt;Node13</title>
<path fill="none" stroke="midnightblue" d="M141.111,-251.975C129.034,-242.52 109.333,-227.096 94.76,-215.687"/>
<polygon fill="midnightblue" stroke="midnightblue" points="96.9003,-212.918 86.8687,-209.509 92.5851,-218.429 96.9003,-212.918"/>
</g>
<!-- Node13&#45;&gt;Node2 -->
<g id="edge19" class="edge"><title>Node13&#45;&gt;Node2</title>
<path fill="none" stroke="midnightblue" d="M117.039,-190.444C164.313,-180.587 241.714,-164.45 290.43,-154.293"/>
<polygon fill="midnightblue" stroke="midnightblue" points="291.294,-157.688 300.369,-152.22 289.865,-150.835 291.294,-157.688"/>
</g>
<!-- Node13&#45;&gt;Node3 -->
<g id="edge18" class="edge"><title>Node13&#45;&gt;Node3</title>
<path fill="none" stroke="midnightblue" d="M72.3922,-190.319C64.6087,-171.59 46.0969,-127.046 35.602,-101.792"/>
<polygon fill="midnightblue" stroke="midnightblue" points="38.7194,-100.173 31.6497,-92.282 32.2554,-102.86 38.7194,-100.173"/>
</g>
<!-- Node15&#45;&gt;Node2 -->
<g id="edge23" class="edge"><title>Node15&#45;&gt;Node2</title>
<path fill="none" stroke="midnightblue" d="M335,-190.083C335,-183.006 335,-172.861 335,-163.986"/>
<polygon fill="midnightblue" stroke="midnightblue" points="338.5,-163.751 335,-153.751 331.5,-163.751 338.5,-163.751"/>
</g>
<!-- Node16&#45;&gt;Node2 -->
<g id="edge25" class="edge"><title>Node16&#45;&gt;Node2</title>
<path fill="none" stroke="midnightblue" d="M397.95,-190.324C386.537,-182.107 369.169,-169.602 355.565,-159.807"/>
<polygon fill="midnightblue" stroke="midnightblue" points="357.43,-156.837 347.269,-153.834 353.34,-162.517 357.43,-156.837"/>
</g>
</g>
</svg>
