<?xml version="1.0" encoding="UTF-8" standalone="no"?>
<!DOCTYPE svg PUBLIC "-//W3C//DTD SVG 1.1//EN"
 "http://www.w3.org/Graphics/SVG/1.1/DTD/svg11.dtd">
<!-- Generated by graphviz version 2.38.0 (20140413.2041)
 -->
<!-- Title: platform/e&#45;puck/camera.c Pages: 1 -->
<!--zoomable 307 -->
<svg id="main" version="1.1" xmlns="http://www.w3.org/2000/svg" xmlns:xlink="http://www.w3.org/1999/xlink" xml:space="preserve" onload="init(evt)">
<style type="text/css"><![CDATA[
.edge:hover path { stroke: red; }
.edge:hover polygon { stroke: red; fill: red; }
]]></style>
<script type="text/javascript"><![CDATA[
var edges = document.getElementsByTagName('g');
if (edges && edges.length) {
  for (var i=0;i<edges.length;i++) {
    if (edges[i].id.substr(0,4)=='edge') {
      edges[i].setAttribute('class','edge');
    }
  }
}
]]></script>
        <defs>
                <circle id="rim" cx="0" cy="0" r="7"/>
                <circle id="rim2" cx="0" cy="0" r="3.5"/>
                <g id="zoomPlus">
                        <use xlink:href="#rim" fill="#404040">
                                <set attributeName="fill" to="#808080" begin="zoomplus.mouseover" end="zoomplus.mouseout"/>
                        </use>
                        <path d="M-4,0h8M0,-4v8" fill="none" stroke="white" stroke-width="1.5" pointer-events="none"/>
                </g>
                <g id="zoomMin">
                        <use xlink:href="#rim" fill="#404040">
                                <set attributeName="fill" to="#808080" begin="zoomminus.mouseover" end="zoomminus.mouseout"/>
                        </use>
                        <path d="M-4,0h8" fill="none" stroke="white" stroke-width="1.5" pointer-events="none"/>
                </g>
                <g id="dirArrow">
                        <path fill="none" stroke="white" stroke-width="1.5" d="M0,-3.0v7 M-2.5,-0.5L0,-3.0L2.5,-0.5"/>
                </g>
               <g id="resetDef">
                       <use xlink:href="#rim2" fill="#404040">
                               <set attributeName="fill" to="#808080" begin="reset.mouseover" end="reset.mouseout"/>
                       </use>
               </g>
        </defs>

<script type="text/javascript">
var viewWidth = 1092;
var viewHeight = 307;
var sectionId = 'dynsection-0';
</script>
<script xlink:href="../../svgpan.js"/>
<svg id="graph" class="graph">
<g id="viewport">
<title>platform/e&#45;puck/camera.c</title>
<polygon fill="white" stroke="none" points="-4,4 -4,-303 1087.5,-303 1087.5,4 -4,4"/>
<!-- Node1 -->
<g id="node1" class="node"><title>Node1</title>
<polygon fill="#bfbfbf" stroke="black" points="352,-279.5 352,-298.5 480,-298.5 480,-279.5 352,-279.5"/>
<text text-anchor="middle" x="416" y="-286.5" font-family="Helvetica,sans-Serif" font-size="10.00">platform/e&#45;puck/camera.c</text>
</g>
<!-- Node2 -->
<g id="node2" class="node"><title>Node2</title>
<g id="a_node2"><a xlink:href="../../d7/df6/camera_8h.html" target="_top" xlink:title="It declares functions to process data retrieved by a camera. ">
<polygon fill="white" stroke="black" points="122.5,-207 122.5,-226 179.5,-226 179.5,-207 122.5,-207"/>
<text text-anchor="middle" x="151" y="-214" font-family="Helvetica,sans-Serif" font-size="10.00">camera.h</text>
</a>
</g>
</g>
<!-- Node1&#45;&gt;Node2 -->
<g id="edge1" class="edge"><title>Node1&#45;&gt;Node2</title>
<path fill="none" stroke="midnightblue" d="M351.725,-280.774C306.515,-274.308 245.193,-262.717 194,-243 186.316,-240.04 178.421,-235.772 171.528,-231.572"/>
<polygon fill="midnightblue" stroke="midnightblue" points="173.169,-228.466 162.861,-226.015 169.39,-234.359 173.169,-228.466"/>
</g>
<!-- Node3 -->
<g id="node3" class="node"><title>Node3</title>
<g id="a_node3"><a xlink:href="../../d6/dc2/definitions_8h.html" target="_top" xlink:title="It declares general preprocessor variables and types. ">
<polygon fill="white" stroke="black" points="164.5,-134.5 164.5,-153.5 251.5,-153.5 251.5,-134.5 164.5,-134.5"/>
<text text-anchor="middle" x="208" y="-141.5" font-family="Helvetica,sans-Serif" font-size="10.00">../../definitions.h</text>
</a>
</g>
</g>
<!-- Node1&#45;&gt;Node3 -->
<g id="edge13" class="edge"><title>Node1&#45;&gt;Node3</title>
<path fill="none" stroke="midnightblue" d="M351.616,-280.044C304.186,-272.856 245.088,-260.673 228,-243 207.545,-221.846 205.407,-185.756 206.299,-163.773"/>
<polygon fill="midnightblue" stroke="midnightblue" points="209.796,-163.925 206.961,-153.717 202.811,-163.466 209.796,-163.925"/>
</g>
<!-- Node10 -->
<g id="node10" class="node"><title>Node10</title>
<g id="a_node10"><a xlink:href="../../dc/dac/io_8h.html" target="_top" xlink:title="It declares functions to control the IO timer and to (un)register IO Handler. ">
<polygon fill="white" stroke="black" points="236.5,-207 236.5,-226 297.5,-226 297.5,-207 236.5,-207"/>
<text text-anchor="middle" x="267" y="-214" font-family="Helvetica,sans-Serif" font-size="10.00">../../io/io.h</text>
</a>
</g>
</g>
<!-- Node1&#45;&gt;Node10 -->
<g id="edge9" class="edge"><title>Node1&#45;&gt;Node10</title>
<path fill="none" stroke="midnightblue" d="M391.635,-279.35C369.174,-271.049 335.154,-257.64 307,-243 300.671,-239.709 294.045,-235.725 288.048,-231.894"/>
<polygon fill="midnightblue" stroke="midnightblue" points="289.552,-228.695 279.274,-226.122 285.705,-234.543 289.552,-228.695"/>
</g>
<!-- Node11 -->
<g id="node11" class="node"><title>Node11</title>
<g id="a_node11"><a xlink:href="../../d2/d86/uart_8h.html" target="_top" xlink:title="It declares functions to transmit bytes via UART. ">
<polygon fill="white" stroke="black" points="315.5,-207 315.5,-226 356.5,-226 356.5,-207 315.5,-207"/>
<text text-anchor="middle" x="336" y="-214" font-family="Helvetica,sans-Serif" font-size="10.00">uart.h</text>
</a>
</g>
</g>
<!-- Node1&#45;&gt;Node11 -->
<g id="edge11" class="edge"><title>Node1&#45;&gt;Node11</title>
<path fill="none" stroke="midnightblue" d="M406.19,-279.355C393.115,-267.833 369.751,-247.243 353.591,-233.002"/>
<polygon fill="midnightblue" stroke="midnightblue" points="355.706,-230.201 345.89,-226.215 351.078,-235.453 355.706,-230.201"/>
</g>
<!-- Node12 -->
<g id="node12" class="node"><title>Node12</title>
<g id="a_node12"><a xlink:href="../../db/dd2/events_8h.html" target="_top" xlink:title="declares functions to create, (un)subscribe, (un)register, and delete events and related handler...">
<polygon fill="white" stroke="black" points="0,-207 0,-226 104,-226 104,-207 0,-207"/>
<text text-anchor="middle" x="52" y="-214" font-family="Helvetica,sans-Serif" font-size="10.00">../../events/events.h</text>
</a>
</g>
</g>
<!-- Node1&#45;&gt;Node12 -->
<g id="edge14" class="edge"><title>Node1&#45;&gt;Node12</title>
<path fill="none" stroke="midnightblue" d="M351.783,-283.124C289.781,-277.331 193.688,-265.478 113,-243 101.317,-239.745 88.8873,-234.834 78.317,-230.187"/>
<polygon fill="midnightblue" stroke="midnightblue" points="79.7593,-226.998 69.2071,-226.049 76.8646,-233.372 79.7593,-226.998"/>
</g>
<!-- Node13 -->
<g id="node13" class="node"><title>Node13</title>
<g id="a_node13"><a xlink:href="../../d6/ded/interrupts_8h.html" target="_top" xlink:title="It declares interrupt priority levels and functions to create atomic sections. ">
<polygon fill="white" stroke="black" points="374.5,-207 374.5,-226 457.5,-226 457.5,-207 374.5,-207"/>
<text text-anchor="middle" x="416" y="-214" font-family="Helvetica,sans-Serif" font-size="10.00">../../interrupts.h</text>
</a>
</g>
</g>
<!-- Node1&#45;&gt;Node13 -->
<g id="edge17" class="edge"><title>Node1&#45;&gt;Node13</title>
<path fill="none" stroke="midnightblue" d="M416,-279.355C416,-268.679 416,-250.217 416,-236.234"/>
<polygon fill="midnightblue" stroke="midnightblue" points="419.5,-236.215 416,-226.215 412.5,-236.215 419.5,-236.215"/>
</g>
<!-- Node14 -->
<g id="node14" class="node"><title>Node14</title>
<g id="a_node14"><a xlink:href="../../dc/d18/memory_8h.html" target="_top" xlink:title="It declares functions to allocate, free, and copy memory. ">
<polygon fill="white" stroke="black" points="476,-207 476,-226 554,-226 554,-207 476,-207"/>
<text text-anchor="middle" x="515" y="-214" font-family="Helvetica,sans-Serif" font-size="10.00">../../memory.h</text>
</a>
</g>
</g>
<!-- Node1&#45;&gt;Node14 -->
<g id="edge18" class="edge"><title>Node1&#45;&gt;Node14</title>
<path fill="none" stroke="midnightblue" d="M428.139,-279.355C444.691,-267.569 474.566,-246.294 494.593,-232.033"/>
<polygon fill="midnightblue" stroke="midnightblue" points="496.646,-234.867 502.761,-226.215 492.585,-229.165 496.646,-234.867"/>
</g>
<!-- Node15 -->
<g id="node15" class="node"><title>Node15</title>
<g id="a_node15"><a xlink:href="../../d6/d91/camera__processing_8h.html" target="_top" xlink:title="External set of functions to assist the use of the camera. (provided by Shefpuck ) ...">
<polygon fill="white" stroke="black" points="572,-207 572,-226 682,-226 682,-207 572,-207"/>
<text text-anchor="middle" x="627" y="-214" font-family="Helvetica,sans-Serif" font-size="10.00">camera_processing.h</text>
</a>
</g>
</g>
<!-- Node1&#45;&gt;Node15 -->
<g id="edge20" class="edge"><title>Node1&#45;&gt;Node15</title>
<path fill="none" stroke="midnightblue" d="M446.36,-279.496C476.251,-270.939 523.092,-257.032 563,-243 574.317,-239.021 586.59,-234.245 597.333,-229.909"/>
<polygon fill="midnightblue" stroke="midnightblue" points="598.763,-233.105 606.697,-226.084 596.116,-226.625 598.763,-233.105"/>
</g>
<!-- Node16 -->
<g id="node16" class="node"><title>Node16</title>
<polygon fill="white" stroke="#bfbfbf" points="700.5,-201.5 700.5,-231.5 807.5,-231.5 807.5,-201.5 700.5,-201.5"/>
<text text-anchor="start" x="708.5" y="-219.5" font-family="Helvetica,sans-Serif" font-size="10.00">library/camera/fast</text>
<text text-anchor="middle" x="754" y="-208.5" font-family="Helvetica,sans-Serif" font-size="10.00">_2_timer/e_poxxxx.h</text>
</g>
<!-- Node1&#45;&gt;Node16 -->
<g id="edge21" class="edge"><title>Node1&#45;&gt;Node16</title>
<path fill="none" stroke="midnightblue" d="M480.225,-281.585C536.524,-274.996 620.197,-262.855 691,-243 698.342,-240.941 705.992,-238.297 713.327,-235.494"/>
<polygon fill="midnightblue" stroke="midnightblue" points="715.078,-238.563 723.074,-231.613 712.489,-232.06 715.078,-238.563"/>
</g>
<!-- Node17 -->
<g id="node17" class="node"><title>Node17</title>
<polygon fill="white" stroke="#bfbfbf" points="825.5,-201.5 825.5,-231.5 938.5,-231.5 938.5,-201.5 825.5,-201.5"/>
<text text-anchor="start" x="833.5" y="-219.5" font-family="Helvetica,sans-Serif" font-size="10.00">library/camera/fast</text>
<text text-anchor="middle" x="882" y="-208.5" font-family="Helvetica,sans-Serif" font-size="10.00">_2_timer/e_po6030k.h</text>
</g>
<!-- Node1&#45;&gt;Node17 -->
<g id="edge22" class="edge"><title>Node1&#45;&gt;Node17</title>
<path fill="none" stroke="midnightblue" d="M480.109,-285.97C560.045,-282.265 700.38,-271.886 817,-243 825.114,-240.99 833.574,-238.213 841.603,-235.227"/>
<polygon fill="midnightblue" stroke="midnightblue" points="843.082,-238.407 851.133,-231.52 840.544,-231.884 843.082,-238.407"/>
</g>
<!-- Node18 -->
<g id="node18" class="node"><title>Node18</title>
<polygon fill="white" stroke="#bfbfbf" points="956.5,-190.5 956.5,-242.5 1083.5,-242.5 1083.5,-190.5 956.5,-190.5"/>
<text text-anchor="start" x="964.5" y="-230.5" font-family="Helvetica,sans-Serif" font-size="10.00">/home/strenkwalder</text>
<text text-anchor="start" x="964.5" y="-219.5" font-family="Helvetica,sans-Serif" font-size="10.00">/code/os/os/platform</text>
<text text-anchor="start" x="964.5" y="-208.5" font-family="Helvetica,sans-Serif" font-size="10.00">/e&#45;puck/library/camera</text>
<text text-anchor="middle" x="1020" y="-197.5" font-family="Helvetica,sans-Serif" font-size="10.00">/fast_2_timer/e_poxxxx.h</text>
</g>
<!-- Node1&#45;&gt;Node18 -->
<g id="edge23" class="edge"><title>Node1&#45;&gt;Node18</title>
<path fill="none" stroke="midnightblue" d="M480.244,-287.838C579.114,-286.435 774.344,-279.091 946.27,-243.155"/>
<polygon fill="midnightblue" stroke="midnightblue" points="947.203,-246.535 956.256,-241.029 945.746,-239.688 947.203,-246.535"/>
</g>
<!-- Node2&#45;&gt;Node3 -->
<g id="edge2" class="edge"><title>Node2&#45;&gt;Node3</title>
<path fill="none" stroke="midnightblue" d="M157.989,-206.855C167.049,-195.65 183.041,-175.87 194.504,-161.692"/>
<polygon fill="midnightblue" stroke="midnightblue" points="197.388,-163.692 200.954,-153.715 191.945,-159.291 197.388,-163.692"/>
</g>
<!-- Node4 -->
<g id="node4" class="node"><title>Node4</title>
<polygon fill="white" stroke="#bfbfbf" points="26,-73 26,-92 82,-92 82,-73 26,-73"/>
<text text-anchor="middle" x="54" y="-80" font-family="Helvetica,sans-Serif" font-size="10.00">stdbool.h</text>
</g>
<!-- Node3&#45;&gt;Node4 -->
<g id="edge3" class="edge"><title>Node3&#45;&gt;Node4</title>
<path fill="none" stroke="midnightblue" d="M185.936,-134.475C159.633,-124.313 115.487,-107.256 85.5755,-95.6996"/>
<polygon fill="midnightblue" stroke="midnightblue" points="86.6129,-92.3483 76.0235,-92.0091 84.0901,-98.8779 86.6129,-92.3483"/>
</g>
<!-- Node5 -->
<g id="node5" class="node"><title>Node5</title>
<polygon fill="white" stroke="#bfbfbf" points="102.5,-73 102.5,-92 151.5,-92 151.5,-73 102.5,-73"/>
<text text-anchor="middle" x="127" y="-80" font-family="Helvetica,sans-Serif" font-size="10.00">stdint.h</text>
</g>
<!-- Node3&#45;&gt;Node5 -->
<g id="edge4" class="edge"><title>Node3&#45;&gt;Node5</title>
<path fill="none" stroke="midnightblue" d="M196.395,-134.475C183.523,-125.02 162.526,-109.596 146.994,-98.1871"/>
<polygon fill="midnightblue" stroke="midnightblue" points="148.715,-95.1085 138.584,-92.0091 144.571,-100.75 148.715,-95.1085"/>
</g>
<!-- Node6 -->
<g id="node6" class="node"><title>Node6</title>
<polygon fill="white" stroke="#bfbfbf" points="170,-73 170,-92 244,-92 244,-73 170,-73"/>
<text text-anchor="middle" x="207" y="-80" font-family="Helvetica,sans-Serif" font-size="10.00">p30F6014A.h</text>
</g>
<!-- Node3&#45;&gt;Node6 -->
<g id="edge5" class="edge"><title>Node3&#45;&gt;Node6</title>
<path fill="none" stroke="midnightblue" d="M207.857,-134.475C207.716,-126.08 207.495,-112.981 207.314,-102.163"/>
<polygon fill="midnightblue" stroke="midnightblue" points="210.811,-101.949 207.143,-92.0091 203.812,-102.067 210.811,-101.949"/>
</g>
<!-- Node7 -->
<g id="node7" class="node"><title>Node7</title>
<polygon fill="white" stroke="#bfbfbf" points="262.5,-67.5 262.5,-97.5 399.5,-97.5 399.5,-67.5 262.5,-67.5"/>
<text text-anchor="start" x="270.5" y="-85.5" font-family="Helvetica,sans-Serif" font-size="10.00">platform/e&#45;puck/library</text>
<text text-anchor="middle" x="331" y="-74.5" font-family="Helvetica,sans-Serif" font-size="10.00">/motor_led/e_epuck_ports.h</text>
</g>
<!-- Node3&#45;&gt;Node7 -->
<g id="edge6" class="edge"><title>Node3&#45;&gt;Node7</title>
<path fill="none" stroke="midnightblue" d="M225.623,-134.475C243.06,-126.04 270.316,-112.855 292.74,-102.008"/>
<polygon fill="midnightblue" stroke="midnightblue" points="294.533,-105.028 302.011,-97.523 291.485,-98.727 294.533,-105.028"/>
</g>
<!-- Node8 -->
<g id="node8" class="node"><title>Node8</title>
<g id="a_node8"><a xlink:href="../../d9/d1f/DSPIC30F6014A__HDI_8h.html" target="_top" xlink:title="declares e&#45;puck specific types and preprocessor variables ">
<polygon fill="white" stroke="black" points="418,-67.5 418,-97.5 574,-97.5 574,-67.5 418,-67.5"/>
<text text-anchor="start" x="426" y="-85.5" font-family="Helvetica,sans-Serif" font-size="10.00">platform/e&#45;puck/DSPIC30F6014</text>
<text text-anchor="middle" x="496" y="-74.5" font-family="Helvetica,sans-Serif" font-size="10.00">A_HDI.h</text>
</a>
</g>
</g>
<!-- Node3&#45;&gt;Node8 -->
<g id="edge7" class="edge"><title>Node3&#45;&gt;Node8</title>
<path fill="none" stroke="midnightblue" d="M249.263,-134.475C293.19,-125.4 363.731,-110.826 418.159,-99.5818"/>
<polygon fill="midnightblue" stroke="midnightblue" points="419.039,-102.974 428.124,-97.523 417.623,-96.1187 419.039,-102.974"/>
</g>
<!-- Node9 -->
<g id="node9" class="node"><title>Node9</title>
<polygon fill="white" stroke="#bfbfbf" points="447.5,-0.5 447.5,-30.5 544.5,-30.5 544.5,-0.5 447.5,-0.5"/>
<text text-anchor="start" x="455.5" y="-18.5" font-family="Helvetica,sans-Serif" font-size="10.00">library/motor_led/e</text>
<text text-anchor="middle" x="496" y="-7.5" font-family="Helvetica,sans-Serif" font-size="10.00">_epuck_ports.h</text>
</g>
<!-- Node8&#45;&gt;Node9 -->
<g id="edge8" class="edge"><title>Node8&#45;&gt;Node9</title>
<path fill="none" stroke="midnightblue" d="M496,-67.396C496,-59.6448 496,-49.8122 496,-40.8601"/>
<polygon fill="midnightblue" stroke="midnightblue" points="499.5,-40.5765 496,-30.5765 492.5,-40.5765 499.5,-40.5765"/>
</g>
<!-- Node10&#45;&gt;Node3 -->
<g id="edge10" class="edge"><title>Node10&#45;&gt;Node3</title>
<path fill="none" stroke="midnightblue" d="M259.765,-206.855C250.388,-195.65 233.834,-175.87 221.969,-161.692"/>
<polygon fill="midnightblue" stroke="midnightblue" points="224.396,-159.138 215.294,-153.715 219.028,-163.631 224.396,-159.138"/>
</g>
<!-- Node11&#45;&gt;Node3 -->
<g id="edge12" class="edge"><title>Node11&#45;&gt;Node3</title>
<path fill="none" stroke="midnightblue" d="M327.41,-206.729C321.91,-201.434 314.432,-194.805 307,-190 286.384,-176.671 261.17,-165.272 241.347,-157.282"/>
<polygon fill="midnightblue" stroke="midnightblue" points="242.397,-153.934 231.809,-153.532 239.835,-160.449 242.397,-153.934"/>
</g>
<!-- Node12&#45;&gt;Node3 -->
<g id="edge16" class="edge"><title>Node12&#45;&gt;Node3</title>
<path fill="none" stroke="midnightblue" d="M70.8172,-206.996C97.9902,-194.716 148.41,-171.93 179.973,-157.666"/>
<polygon fill="midnightblue" stroke="midnightblue" points="181.445,-160.842 189.116,-153.534 178.562,-154.463 181.445,-160.842"/>
</g>
<!-- Node12&#45;&gt;Node4 -->
<g id="edge15" class="edge"><title>Node12&#45;&gt;Node4</title>
<path fill="none" stroke="midnightblue" d="M52.1312,-206.839C52.4519,-185.674 53.2811,-130.948 53.7192,-102.033"/>
<polygon fill="midnightblue" stroke="midnightblue" points="57.2189,-102.073 53.8709,-92.0212 50.2197,-101.967 57.2189,-102.073"/>
</g>
<!-- Node14&#45;&gt;Node3 -->
<g id="edge19" class="edge"><title>Node14&#45;&gt;Node3</title>
<path fill="none" stroke="midnightblue" d="M501.659,-206.932C492.305,-201.302 479.319,-194.222 467,-190 398.394,-166.487 315.166,-154.826 261.903,-149.362"/>
<polygon fill="midnightblue" stroke="midnightblue" points="261.958,-145.851 251.663,-148.351 261.27,-152.817 261.958,-145.851"/>
</g>
</g>
</svg>
        <g id="navigator" transform="translate(0 0)" fill="#404254">
                <rect fill="#f2f5e9" fill-opacity="0.5" stroke="#606060" stroke-width=".5" x="0" y="0" width="60" height="60"/>
                <use id="zoomplus" xlink:href="#zoomPlus" x="17" y="9" onmousedown="handleZoom(evt,'in')"/>
                <use id="zoomminus" xlink:href="#zoomMin" x="42" y="9" onmousedown="handleZoom(evt,'out')"/>
                <use id="reset" xlink:href="#resetDef" x="30" y="36" onmousedown="handleReset()"/>
                <g id="arrowUp" xlink:href="#dirArrow" transform="translate(30 24)" onmousedown="handlePan(0,-1)">
                  <use xlink:href="#rim" fill="#404040">
                        <set attributeName="fill" to="#808080" begin="arrowUp.mouseover" end="arrowUp.mouseout"/>
                  </use>
                  <path fill="none" stroke="white" stroke-width="1.5" d="M0,-3.0v7 M-2.5,-0.5L0,-3.0L2.5,-0.5"/>
                </g>
                <g id="arrowRight" xlink:href="#dirArrow" transform="rotate(90) translate(36 -43)" onmousedown="handlePan(1,0)">
                  <use xlink:href="#rim" fill="#404040">
                        <set attributeName="fill" to="#808080" begin="arrowRight.mouseover" end="arrowRight.mouseout"/>
                  </use>
                  <path fill="none" stroke="white" stroke-width="1.5" d="M0,-3.0v7 M-2.5,-0.5L0,-3.0L2.5,-0.5"/>
                </g>
                <g id="arrowDown" xlink:href="#dirArrow" transform="rotate(180) translate(-30 -48)" onmousedown="handlePan(0,1)">
                  <use xlink:href="#rim" fill="#404040">
                        <set attributeName="fill" to="#808080" begin="arrowDown.mouseover" end="arrowDown.mouseout"/>
                  </use>
                  <path fill="none" stroke="white" stroke-width="1.5" d="M0,-3.0v7 M-2.5,-0.5L0,-3.0L2.5,-0.5"/>
                </g>
                <g id="arrowLeft" xlink:href="#dirArrow" transform="rotate(270) translate(-36 17)" onmousedown="handlePan(-1,0)">
                  <use xlink:href="#rim" fill="#404040">
                        <set attributeName="fill" to="#808080" begin="arrowLeft.mouseover" end="arrowLeft.mouseout"/>
                  </use>
                  <path fill="none" stroke="white" stroke-width="1.5" d="M0,-3.0v7 M-2.5,-0.5L0,-3.0L2.5,-0.5"/>
                </g>
        </g>
        <svg viewBox="0 0 15 15" width="100%" height="30px" preserveAspectRatio="xMaxYMin meet">
         <g id="arrow_out" transform="scale(0.3 0.3)">
          <a xlink:href="camera_8c__incl_org.svg" target="_base">
           <rect id="button" ry="5" rx="5" y="6" x="6" height="38" width="38"
                fill="#f2f5e9" fill-opacity="0.5" stroke="#606060" stroke-width="1.0"/>
           <path id="arrow"
             d="M 11.500037,31.436501 C 11.940474,20.09759 22.043105,11.32322 32.158766,21.979434 L 37.068811,17.246167 C 37.068811,17.246167 37.088388,32 37.088388,32 L 22.160133,31.978069 C 22.160133,31.978069 26.997745,27.140456 26.997745,27.140456 C 18.528582,18.264221 13.291696,25.230495 11.500037,31.436501 z"
             style="fill:#404040;"/>
          </a>
         </g>
        </svg>
</svg>
